%TF.GenerationSoftware,KiCad,Pcbnew,7.0.8*%
%TF.CreationDate,2024-02-08T03:58:00-08:00*%
%TF.ProjectId,panel,70616e65-6c2e-46b6-9963-61645f706362,rev?*%
%TF.SameCoordinates,Original*%
%TF.FileFunction,Paste,Bot*%
%TF.FilePolarity,Positive*%
%FSLAX46Y46*%
G04 Gerber Fmt 4.6, Leading zero omitted, Abs format (unit mm)*
G04 Created by KiCad (PCBNEW 7.0.8) date 2024-02-08 03:58:00*
%MOMM*%
%LPD*%
G01*
G04 APERTURE LIST*
G04 Aperture macros list*
%AMRoundRect*
0 Rectangle with rounded corners*
0 $1 Rounding radius*
0 $2 $3 $4 $5 $6 $7 $8 $9 X,Y pos of 4 corners*
0 Add a 4 corners polygon primitive as box body*
4,1,4,$2,$3,$4,$5,$6,$7,$8,$9,$2,$3,0*
0 Add four circle primitives for the rounded corners*
1,1,$1+$1,$2,$3*
1,1,$1+$1,$4,$5*
1,1,$1+$1,$6,$7*
1,1,$1+$1,$8,$9*
0 Add four rect primitives between the rounded corners*
20,1,$1+$1,$2,$3,$4,$5,0*
20,1,$1+$1,$4,$5,$6,$7,0*
20,1,$1+$1,$6,$7,$8,$9,0*
20,1,$1+$1,$8,$9,$2,$3,0*%
G04 Aperture macros list end*
%ADD10RoundRect,0.250000X0.450000X-0.350000X0.450000X0.350000X-0.450000X0.350000X-0.450000X-0.350000X0*%
%ADD11R,0.700000X2.000000*%
%ADD12RoundRect,0.150000X-0.875000X-0.150000X0.875000X-0.150000X0.875000X0.150000X-0.875000X0.150000X0*%
G04 APERTURE END LIST*
D10*
%TO.C,R4*%
X121000000Y-105000000D03*
X121000000Y-103000000D03*
%TD*%
D11*
%TO.C,Q1*%
X126950000Y-105700000D03*
X125050000Y-105700000D03*
X126000000Y-102300000D03*
%TD*%
D12*
%TO.C,U1*%
X119950000Y-50685000D03*
X119950000Y-49415000D03*
X119950000Y-48145000D03*
X119950000Y-46875000D03*
X119950000Y-45605000D03*
X119950000Y-44335000D03*
X119950000Y-43065000D03*
X119950000Y-41795000D03*
X119950000Y-40525000D03*
X119950000Y-39255000D03*
X119950000Y-37985000D03*
X119950000Y-36715000D03*
X129250000Y-36715000D03*
X129250000Y-37985000D03*
X129250000Y-39255000D03*
X129250000Y-40525000D03*
X129250000Y-41795000D03*
X129250000Y-43065000D03*
X129250000Y-44335000D03*
X129250000Y-45605000D03*
X129250000Y-46875000D03*
X129250000Y-48145000D03*
X129250000Y-49415000D03*
X129250000Y-50685000D03*
%TD*%
D10*
%TO.C,R3*%
X176000000Y-105000000D03*
X176000000Y-103000000D03*
%TD*%
%TO.C,R4*%
X166000000Y-105000000D03*
X166000000Y-103000000D03*
%TD*%
D12*
%TO.C,U1*%
X164950000Y-50685000D03*
X164950000Y-49415000D03*
X164950000Y-48145000D03*
X164950000Y-46875000D03*
X164950000Y-45605000D03*
X164950000Y-44335000D03*
X164950000Y-43065000D03*
X164950000Y-41795000D03*
X164950000Y-40525000D03*
X164950000Y-39255000D03*
X164950000Y-37985000D03*
X164950000Y-36715000D03*
X174250000Y-36715000D03*
X174250000Y-37985000D03*
X174250000Y-39255000D03*
X174250000Y-40525000D03*
X174250000Y-41795000D03*
X174250000Y-43065000D03*
X174250000Y-44335000D03*
X174250000Y-45605000D03*
X174250000Y-46875000D03*
X174250000Y-48145000D03*
X174250000Y-49415000D03*
X174250000Y-50685000D03*
%TD*%
D10*
%TO.C,R3*%
X131000000Y-105000000D03*
X131000000Y-103000000D03*
%TD*%
D11*
%TO.C,Q1*%
X171950000Y-105700000D03*
X170050000Y-105700000D03*
X171000000Y-102300000D03*
%TD*%
M02*
