M48
; DRILL file {KiCad 7.0.8} date Thu Feb  8 03:58:03 2024
; FORMAT={-:-/ absolute / inch / decimal}
; #@! TF.CreationDate,2024-02-08T03:58:03-08:00
; #@! TF.GenerationSoftware,Kicad,Pcbnew,7.0.8
; #@! TF.FileFunction,Plated,1,2,PTH
FMAT,2
INCH
; #@! TA.AperFunction,Plated,PTH,ViaDrill
T1C0.0118
; #@! TA.AperFunction,Plated,PTH,ViaDrill
T2C0.0197
; #@! TA.AperFunction,Plated,PTH,ComponentDrill
T3C0.0315
; #@! TA.AperFunction,Plated,PTH,ComponentDrill
T4C0.0394
; #@! TA.AperFunction,Plated,PTH,ComponentDrill
T5C0.0433
%
G90
G05
T1
X4.5433Y-1.6575
X4.5748Y-1.7913
X4.6063Y-1.8937
X4.621Y-1.5472
X4.6535Y-1.752
X4.7638Y-3.3583
X4.7864Y-3.9016
X4.8346Y-4.0354
X4.8504Y-4.0669
X4.9291Y-3.878
X4.9764Y-3.1929
X4.9843Y-1.4449
X5.0157Y-1.4982
X5.1417Y-3.7677
X5.2756Y-1.6969
X5.2756Y-1.7441
X5.3465Y-3.9252
X5.3541Y-1.5711
X5.378Y-1.5157
X5.4803Y-1.6654
X5.5039Y-1.8701
X6.315Y-1.6575
X6.3465Y-1.7913
X6.378Y-1.8937
X6.3927Y-1.5472
X6.4252Y-1.752
X6.5354Y-3.3583
X6.5581Y-3.9016
X6.6063Y-4.0354
X6.622Y-4.0669
X6.7008Y-3.878
X6.748Y-3.1929
X6.7559Y-1.4449
X6.7874Y-1.4982
X6.9134Y-3.7677
X7.0472Y-1.6969
X7.0472Y-1.7441
X7.1181Y-3.9252
X7.1257Y-1.5711
X7.1496Y-1.5157
X7.252Y-1.6654
X7.2756Y-1.8701
T2
X4.7874Y-1.5884
X4.7874Y-1.8376
X4.8189Y-3.7992
X4.8819Y-3.8622
X5.1693Y-1.7717
X6.5591Y-1.5884
X6.5591Y-1.8376
X6.5906Y-3.7992
X6.6535Y-3.8622
X6.9409Y-1.7717
T3
X4.4882Y-1.4173
X4.4882Y-1.5173
X4.4882Y-1.6173
X4.4882Y-1.7173
X4.4882Y-1.8173
X4.4882Y-1.9173
X4.4882Y-2.0173
X4.4882Y-2.1173
X5.0Y-2.1636
X5.0Y-2.2423
X5.1969Y-2.1457
X5.1969Y-2.2441
X5.2756Y-1.602
X5.2756Y-1.902
X5.4331Y-1.4173
X5.4331Y-1.5173
X5.4331Y-1.6173
X5.4331Y-1.7173
X5.4331Y-1.8173
X5.4331Y-1.9173
X5.4331Y-2.0173
X5.4331Y-2.1173
X6.2598Y-1.4173
X6.2598Y-1.5173
X6.2598Y-1.6173
X6.2598Y-1.7173
X6.2598Y-1.8173
X6.2598Y-1.9173
X6.2598Y-2.0173
X6.2598Y-2.1173
X6.7717Y-2.1636
X6.7717Y-2.2423
X6.9685Y-2.1457
X6.9685Y-2.2441
X7.0472Y-1.602
X7.0472Y-1.902
X7.2047Y-1.4173
X7.2047Y-1.5173
X7.2047Y-1.6173
X7.2047Y-1.7173
X7.2047Y-1.8173
X7.2047Y-1.9173
X7.2047Y-2.0173
X7.2047Y-2.1173
T4
X4.6098Y-3.1201
X4.6106Y-2.4016
X4.6161Y-3.2661
X4.6161Y-3.3661
X4.7098Y-3.1201
X4.7106Y-2.4016
X4.8098Y-3.1201
X4.8106Y-2.4016
X4.9098Y-3.1201
X4.9106Y-2.4016
X5.0098Y-3.1201
X5.0106Y-2.4016
X5.1098Y-3.1201
X5.1106Y-2.4016
X5.2098Y-3.1201
X5.2106Y-2.4016
X5.3051Y-3.2661
X5.3051Y-3.3661
X5.3098Y-3.1201
X5.3106Y-2.4016
X6.3815Y-3.1201
X6.3823Y-2.4016
X6.3878Y-3.2661
X6.3878Y-3.3661
X6.4815Y-3.1201
X6.4823Y-2.4016
X6.5815Y-3.1201
X6.5823Y-2.4016
X6.6815Y-3.1201
X6.6823Y-2.4016
X6.7815Y-3.1201
X6.7823Y-2.4016
X6.8815Y-3.1201
X6.8823Y-2.4016
X6.9815Y-3.1201
X6.9823Y-2.4016
X7.0768Y-3.2661
X7.0768Y-3.3661
X7.0815Y-3.1201
X7.0823Y-2.4016
T5
X4.3996Y-2.5098
X4.3996Y-2.7657
X4.5768Y-2.5098
X4.5768Y-2.7657
X4.872Y-2.5098
X4.872Y-2.7657
X5.0492Y-2.5098
X5.0492Y-2.7657
X5.3445Y-2.5098
X5.3445Y-2.7657
X5.5217Y-2.5098
X5.5217Y-2.7657
X6.1713Y-2.5098
X6.1713Y-2.7657
X6.3484Y-2.5098
X6.3484Y-2.7657
X6.6437Y-2.5098
X6.6437Y-2.7657
X6.8209Y-2.5098
X6.8209Y-2.7657
X7.1161Y-2.5098
X7.1161Y-2.7657
X7.2933Y-2.5098
X7.2933Y-2.7657
T0
M30
