%TF.GenerationSoftware,KiCad,Pcbnew,7.0.8*%
%TF.CreationDate,2024-02-08T03:58:00-08:00*%
%TF.ProjectId,panel,70616e65-6c2e-46b6-9963-61645f706362,rev?*%
%TF.SameCoordinates,Original*%
%TF.FileFunction,Paste,Top*%
%TF.FilePolarity,Positive*%
%FSLAX46Y46*%
G04 Gerber Fmt 4.6, Leading zero omitted, Abs format (unit mm)*
G04 Created by KiCad (PCBNEW 7.0.8) date 2024-02-08 03:58:00*
%MOMM*%
%LPD*%
G01*
G04 APERTURE LIST*
G04 Aperture macros list*
%AMRoundRect*
0 Rectangle with rounded corners*
0 $1 Rounding radius*
0 $2 $3 $4 $5 $6 $7 $8 $9 X,Y pos of 4 corners*
0 Add a 4 corners polygon primitive as box body*
4,1,4,$2,$3,$4,$5,$6,$7,$8,$9,$2,$3,0*
0 Add four circle primitives for the rounded corners*
1,1,$1+$1,$2,$3*
1,1,$1+$1,$4,$5*
1,1,$1+$1,$6,$7*
1,1,$1+$1,$8,$9*
0 Add four rect primitives between the rounded corners*
20,1,$1+$1,$2,$3,$4,$5,0*
20,1,$1+$1,$4,$5,$6,$7,0*
20,1,$1+$1,$6,$7,$8,$9,0*
20,1,$1+$1,$8,$9,$2,$3,0*%
G04 Aperture macros list end*
%ADD10RoundRect,0.150000X-0.150000X0.725000X-0.150000X-0.725000X0.150000X-0.725000X0.150000X0.725000X0*%
%ADD11O,2.748280X1.998980*%
G04 APERTURE END LIST*
D10*
%TO.C,U2*%
X175640000Y-82850000D03*
X174370000Y-82850000D03*
X173100000Y-82850000D03*
X171830000Y-82850000D03*
X170560000Y-82850000D03*
X169290000Y-82850000D03*
X168020000Y-82850000D03*
X166750000Y-82850000D03*
X166750000Y-88000000D03*
X168020000Y-88000000D03*
X169290000Y-88000000D03*
X170560000Y-88000000D03*
X171830000Y-88000000D03*
X173100000Y-88000000D03*
X174370000Y-88000000D03*
X175640000Y-88000000D03*
%TD*%
D11*
%TO.C,U3*%
X179065770Y-108367820D03*
X179065770Y-105827820D03*
X179065770Y-103287820D03*
X179065770Y-100747820D03*
X179065770Y-98207820D03*
X179065770Y-95667820D03*
X179065770Y-93127820D03*
X162901210Y-93127820D03*
X162901210Y-95667820D03*
X162901210Y-98207820D03*
X162901210Y-100747820D03*
X162901210Y-103287820D03*
X162901210Y-105827820D03*
X162901210Y-108367820D03*
%TD*%
%TO.C,U3*%
X134065770Y-108367820D03*
X134065770Y-105827820D03*
X134065770Y-103287820D03*
X134065770Y-100747820D03*
X134065770Y-98207820D03*
X134065770Y-95667820D03*
X134065770Y-93127820D03*
X117901210Y-93127820D03*
X117901210Y-95667820D03*
X117901210Y-98207820D03*
X117901210Y-100747820D03*
X117901210Y-103287820D03*
X117901210Y-105827820D03*
X117901210Y-108367820D03*
%TD*%
D10*
%TO.C,U2*%
X130640000Y-82850000D03*
X129370000Y-82850000D03*
X128100000Y-82850000D03*
X126830000Y-82850000D03*
X125560000Y-82850000D03*
X124290000Y-82850000D03*
X123020000Y-82850000D03*
X121750000Y-82850000D03*
X121750000Y-88000000D03*
X123020000Y-88000000D03*
X124290000Y-88000000D03*
X125560000Y-88000000D03*
X126830000Y-88000000D03*
X128100000Y-88000000D03*
X129370000Y-88000000D03*
X130640000Y-88000000D03*
%TD*%
M02*
