%TF.GenerationSoftware,KiCad,Pcbnew,7.0.8*%
%TF.CreationDate,2024-02-08T03:58:00-08:00*%
%TF.ProjectId,panel,70616e65-6c2e-46b6-9963-61645f706362,rev?*%
%TF.SameCoordinates,Original*%
%TF.FileFunction,Legend,Bot*%
%TF.FilePolarity,Positive*%
%FSLAX46Y46*%
G04 Gerber Fmt 4.6, Leading zero omitted, Abs format (unit mm)*
G04 Created by KiCad (PCBNEW 7.0.8) date 2024-02-08 03:58:00*
%MOMM*%
%LPD*%
G01*
G04 APERTURE LIST*
%ADD10C,0.150000*%
%ADD11C,0.200000*%
%ADD12C,0.120000*%
G04 APERTURE END LIST*
D10*
X179801009Y-76754363D02*
X179848628Y-76897220D01*
X179848628Y-76897220D02*
X179896247Y-76944839D01*
X179896247Y-76944839D02*
X179991485Y-76992458D01*
X179991485Y-76992458D02*
X180134342Y-76992458D01*
X180134342Y-76992458D02*
X180229580Y-76944839D01*
X180229580Y-76944839D02*
X180277200Y-76897220D01*
X180277200Y-76897220D02*
X180324819Y-76801982D01*
X180324819Y-76801982D02*
X180324819Y-76421030D01*
X180324819Y-76421030D02*
X179324819Y-76421030D01*
X179324819Y-76421030D02*
X179324819Y-76754363D01*
X179324819Y-76754363D02*
X179372438Y-76849601D01*
X179372438Y-76849601D02*
X179420057Y-76897220D01*
X179420057Y-76897220D02*
X179515295Y-76944839D01*
X179515295Y-76944839D02*
X179610533Y-76944839D01*
X179610533Y-76944839D02*
X179705771Y-76897220D01*
X179705771Y-76897220D02*
X179753390Y-76849601D01*
X179753390Y-76849601D02*
X179801009Y-76754363D01*
X179801009Y-76754363D02*
X179801009Y-76421030D01*
X179324819Y-77325792D02*
X179324819Y-77944839D01*
X179324819Y-77944839D02*
X179705771Y-77611506D01*
X179705771Y-77611506D02*
X179705771Y-77754363D01*
X179705771Y-77754363D02*
X179753390Y-77849601D01*
X179753390Y-77849601D02*
X179801009Y-77897220D01*
X179801009Y-77897220D02*
X179896247Y-77944839D01*
X179896247Y-77944839D02*
X180134342Y-77944839D01*
X180134342Y-77944839D02*
X180229580Y-77897220D01*
X180229580Y-77897220D02*
X180277200Y-77849601D01*
X180277200Y-77849601D02*
X180324819Y-77754363D01*
X180324819Y-77754363D02*
X180324819Y-77468649D01*
X180324819Y-77468649D02*
X180277200Y-77373411D01*
X180277200Y-77373411D02*
X180229580Y-77325792D01*
X161544819Y-77040077D02*
X161544819Y-76563887D01*
X161544819Y-76563887D02*
X162021009Y-76516268D01*
X162021009Y-76516268D02*
X161973390Y-76563887D01*
X161973390Y-76563887D02*
X161925771Y-76659125D01*
X161925771Y-76659125D02*
X161925771Y-76897220D01*
X161925771Y-76897220D02*
X161973390Y-76992458D01*
X161973390Y-76992458D02*
X162021009Y-77040077D01*
X162021009Y-77040077D02*
X162116247Y-77087696D01*
X162116247Y-77087696D02*
X162354342Y-77087696D01*
X162354342Y-77087696D02*
X162449580Y-77040077D01*
X162449580Y-77040077D02*
X162497200Y-76992458D01*
X162497200Y-76992458D02*
X162544819Y-76897220D01*
X162544819Y-76897220D02*
X162544819Y-76659125D01*
X162544819Y-76659125D02*
X162497200Y-76563887D01*
X162497200Y-76563887D02*
X162449580Y-76516268D01*
X161544819Y-77373411D02*
X162544819Y-77706744D01*
X162544819Y-77706744D02*
X161544819Y-78040077D01*
X129721009Y-76754363D02*
X129768628Y-76897220D01*
X129768628Y-76897220D02*
X129816247Y-76944839D01*
X129816247Y-76944839D02*
X129911485Y-76992458D01*
X129911485Y-76992458D02*
X130054342Y-76992458D01*
X130054342Y-76992458D02*
X130149580Y-76944839D01*
X130149580Y-76944839D02*
X130197200Y-76897220D01*
X130197200Y-76897220D02*
X130244819Y-76801982D01*
X130244819Y-76801982D02*
X130244819Y-76421030D01*
X130244819Y-76421030D02*
X129244819Y-76421030D01*
X129244819Y-76421030D02*
X129244819Y-76754363D01*
X129244819Y-76754363D02*
X129292438Y-76849601D01*
X129292438Y-76849601D02*
X129340057Y-76897220D01*
X129340057Y-76897220D02*
X129435295Y-76944839D01*
X129435295Y-76944839D02*
X129530533Y-76944839D01*
X129530533Y-76944839D02*
X129625771Y-76897220D01*
X129625771Y-76897220D02*
X129673390Y-76849601D01*
X129673390Y-76849601D02*
X129721009Y-76754363D01*
X129721009Y-76754363D02*
X129721009Y-76421030D01*
X130244819Y-77944839D02*
X130244819Y-77373411D01*
X130244819Y-77659125D02*
X129244819Y-77659125D01*
X129244819Y-77659125D02*
X129387676Y-77563887D01*
X129387676Y-77563887D02*
X129482914Y-77468649D01*
X129482914Y-77468649D02*
X129530533Y-77373411D01*
X176812438Y-57285601D02*
X176764819Y-57190363D01*
X176764819Y-57190363D02*
X176764819Y-57047506D01*
X176764819Y-57047506D02*
X176812438Y-56904649D01*
X176812438Y-56904649D02*
X176907676Y-56809411D01*
X176907676Y-56809411D02*
X177002914Y-56761792D01*
X177002914Y-56761792D02*
X177193390Y-56714173D01*
X177193390Y-56714173D02*
X177336247Y-56714173D01*
X177336247Y-56714173D02*
X177526723Y-56761792D01*
X177526723Y-56761792D02*
X177621961Y-56809411D01*
X177621961Y-56809411D02*
X177717200Y-56904649D01*
X177717200Y-56904649D02*
X177764819Y-57047506D01*
X177764819Y-57047506D02*
X177764819Y-57142744D01*
X177764819Y-57142744D02*
X177717200Y-57285601D01*
X177717200Y-57285601D02*
X177669580Y-57333220D01*
X177669580Y-57333220D02*
X177336247Y-57333220D01*
X177336247Y-57333220D02*
X177336247Y-57142744D01*
X177764819Y-57761792D02*
X176764819Y-57761792D01*
X176764819Y-57761792D02*
X177764819Y-58333220D01*
X177764819Y-58333220D02*
X176764819Y-58333220D01*
X177764819Y-58809411D02*
X176764819Y-58809411D01*
X176764819Y-58809411D02*
X176764819Y-59047506D01*
X176764819Y-59047506D02*
X176812438Y-59190363D01*
X176812438Y-59190363D02*
X176907676Y-59285601D01*
X176907676Y-59285601D02*
X177002914Y-59333220D01*
X177002914Y-59333220D02*
X177193390Y-59380839D01*
X177193390Y-59380839D02*
X177336247Y-59380839D01*
X177336247Y-59380839D02*
X177526723Y-59333220D01*
X177526723Y-59333220D02*
X177621961Y-59285601D01*
X177621961Y-59285601D02*
X177717200Y-59190363D01*
X177717200Y-59190363D02*
X177764819Y-59047506D01*
X177764819Y-59047506D02*
X177764819Y-58809411D01*
X131812438Y-57285601D02*
X131764819Y-57190363D01*
X131764819Y-57190363D02*
X131764819Y-57047506D01*
X131764819Y-57047506D02*
X131812438Y-56904649D01*
X131812438Y-56904649D02*
X131907676Y-56809411D01*
X131907676Y-56809411D02*
X132002914Y-56761792D01*
X132002914Y-56761792D02*
X132193390Y-56714173D01*
X132193390Y-56714173D02*
X132336247Y-56714173D01*
X132336247Y-56714173D02*
X132526723Y-56761792D01*
X132526723Y-56761792D02*
X132621961Y-56809411D01*
X132621961Y-56809411D02*
X132717200Y-56904649D01*
X132717200Y-56904649D02*
X132764819Y-57047506D01*
X132764819Y-57047506D02*
X132764819Y-57142744D01*
X132764819Y-57142744D02*
X132717200Y-57285601D01*
X132717200Y-57285601D02*
X132669580Y-57333220D01*
X132669580Y-57333220D02*
X132336247Y-57333220D01*
X132336247Y-57333220D02*
X132336247Y-57142744D01*
X132764819Y-57761792D02*
X131764819Y-57761792D01*
X131764819Y-57761792D02*
X132764819Y-58333220D01*
X132764819Y-58333220D02*
X131764819Y-58333220D01*
X132764819Y-58809411D02*
X131764819Y-58809411D01*
X131764819Y-58809411D02*
X131764819Y-59047506D01*
X131764819Y-59047506D02*
X131812438Y-59190363D01*
X131812438Y-59190363D02*
X131907676Y-59285601D01*
X131907676Y-59285601D02*
X132002914Y-59333220D01*
X132002914Y-59333220D02*
X132193390Y-59380839D01*
X132193390Y-59380839D02*
X132336247Y-59380839D01*
X132336247Y-59380839D02*
X132526723Y-59333220D01*
X132526723Y-59333220D02*
X132621961Y-59285601D01*
X132621961Y-59285601D02*
X132717200Y-59190363D01*
X132717200Y-59190363D02*
X132764819Y-59047506D01*
X132764819Y-59047506D02*
X132764819Y-58809411D01*
X125117200Y-75373411D02*
X125164819Y-75516268D01*
X125164819Y-75516268D02*
X125164819Y-75754363D01*
X125164819Y-75754363D02*
X125117200Y-75849601D01*
X125117200Y-75849601D02*
X125069580Y-75897220D01*
X125069580Y-75897220D02*
X124974342Y-75944839D01*
X124974342Y-75944839D02*
X124879104Y-75944839D01*
X124879104Y-75944839D02*
X124783866Y-75897220D01*
X124783866Y-75897220D02*
X124736247Y-75849601D01*
X124736247Y-75849601D02*
X124688628Y-75754363D01*
X124688628Y-75754363D02*
X124641009Y-75563887D01*
X124641009Y-75563887D02*
X124593390Y-75468649D01*
X124593390Y-75468649D02*
X124545771Y-75421030D01*
X124545771Y-75421030D02*
X124450533Y-75373411D01*
X124450533Y-75373411D02*
X124355295Y-75373411D01*
X124355295Y-75373411D02*
X124260057Y-75421030D01*
X124260057Y-75421030D02*
X124212438Y-75468649D01*
X124212438Y-75468649D02*
X124164819Y-75563887D01*
X124164819Y-75563887D02*
X124164819Y-75801982D01*
X124164819Y-75801982D02*
X124212438Y-75944839D01*
X125069580Y-76944839D02*
X125117200Y-76897220D01*
X125117200Y-76897220D02*
X125164819Y-76754363D01*
X125164819Y-76754363D02*
X125164819Y-76659125D01*
X125164819Y-76659125D02*
X125117200Y-76516268D01*
X125117200Y-76516268D02*
X125021961Y-76421030D01*
X125021961Y-76421030D02*
X124926723Y-76373411D01*
X124926723Y-76373411D02*
X124736247Y-76325792D01*
X124736247Y-76325792D02*
X124593390Y-76325792D01*
X124593390Y-76325792D02*
X124402914Y-76373411D01*
X124402914Y-76373411D02*
X124307676Y-76421030D01*
X124307676Y-76421030D02*
X124212438Y-76516268D01*
X124212438Y-76516268D02*
X124164819Y-76659125D01*
X124164819Y-76659125D02*
X124164819Y-76754363D01*
X124164819Y-76754363D02*
X124212438Y-76897220D01*
X124212438Y-76897220D02*
X124260057Y-76944839D01*
X125164819Y-77373411D02*
X124164819Y-77373411D01*
X125164819Y-77944839D02*
X124593390Y-77516268D01*
X124164819Y-77944839D02*
X124736247Y-77373411D01*
X172637200Y-56809411D02*
X172684819Y-56952268D01*
X172684819Y-56952268D02*
X172684819Y-57190363D01*
X172684819Y-57190363D02*
X172637200Y-57285601D01*
X172637200Y-57285601D02*
X172589580Y-57333220D01*
X172589580Y-57333220D02*
X172494342Y-57380839D01*
X172494342Y-57380839D02*
X172399104Y-57380839D01*
X172399104Y-57380839D02*
X172303866Y-57333220D01*
X172303866Y-57333220D02*
X172256247Y-57285601D01*
X172256247Y-57285601D02*
X172208628Y-57190363D01*
X172208628Y-57190363D02*
X172161009Y-56999887D01*
X172161009Y-56999887D02*
X172113390Y-56904649D01*
X172113390Y-56904649D02*
X172065771Y-56857030D01*
X172065771Y-56857030D02*
X171970533Y-56809411D01*
X171970533Y-56809411D02*
X171875295Y-56809411D01*
X171875295Y-56809411D02*
X171780057Y-56857030D01*
X171780057Y-56857030D02*
X171732438Y-56904649D01*
X171732438Y-56904649D02*
X171684819Y-56999887D01*
X171684819Y-56999887D02*
X171684819Y-57237982D01*
X171684819Y-57237982D02*
X171732438Y-57380839D01*
X172589580Y-58380839D02*
X172637200Y-58333220D01*
X172637200Y-58333220D02*
X172684819Y-58190363D01*
X172684819Y-58190363D02*
X172684819Y-58095125D01*
X172684819Y-58095125D02*
X172637200Y-57952268D01*
X172637200Y-57952268D02*
X172541961Y-57857030D01*
X172541961Y-57857030D02*
X172446723Y-57809411D01*
X172446723Y-57809411D02*
X172256247Y-57761792D01*
X172256247Y-57761792D02*
X172113390Y-57761792D01*
X172113390Y-57761792D02*
X171922914Y-57809411D01*
X171922914Y-57809411D02*
X171827676Y-57857030D01*
X171827676Y-57857030D02*
X171732438Y-57952268D01*
X171732438Y-57952268D02*
X171684819Y-58095125D01*
X171684819Y-58095125D02*
X171684819Y-58190363D01*
X171684819Y-58190363D02*
X171732438Y-58333220D01*
X171732438Y-58333220D02*
X171780057Y-58380839D01*
X172684819Y-58809411D02*
X171684819Y-58809411D01*
X172684819Y-59380839D02*
X172113390Y-58952268D01*
X171684819Y-59380839D02*
X172256247Y-58809411D01*
X117001009Y-58190363D02*
X117048628Y-58333220D01*
X117048628Y-58333220D02*
X117096247Y-58380839D01*
X117096247Y-58380839D02*
X117191485Y-58428458D01*
X117191485Y-58428458D02*
X117334342Y-58428458D01*
X117334342Y-58428458D02*
X117429580Y-58380839D01*
X117429580Y-58380839D02*
X117477200Y-58333220D01*
X117477200Y-58333220D02*
X117524819Y-58237982D01*
X117524819Y-58237982D02*
X117524819Y-57857030D01*
X117524819Y-57857030D02*
X116524819Y-57857030D01*
X116524819Y-57857030D02*
X116524819Y-58190363D01*
X116524819Y-58190363D02*
X116572438Y-58285601D01*
X116572438Y-58285601D02*
X116620057Y-58333220D01*
X116620057Y-58333220D02*
X116715295Y-58380839D01*
X116715295Y-58380839D02*
X116810533Y-58380839D01*
X116810533Y-58380839D02*
X116905771Y-58333220D01*
X116905771Y-58333220D02*
X116953390Y-58285601D01*
X116953390Y-58285601D02*
X117001009Y-58190363D01*
X117001009Y-58190363D02*
X117001009Y-57857030D01*
X116524819Y-58761792D02*
X116524819Y-59380839D01*
X116524819Y-59380839D02*
X116905771Y-59047506D01*
X116905771Y-59047506D02*
X116905771Y-59190363D01*
X116905771Y-59190363D02*
X116953390Y-59285601D01*
X116953390Y-59285601D02*
X117001009Y-59333220D01*
X117001009Y-59333220D02*
X117096247Y-59380839D01*
X117096247Y-59380839D02*
X117334342Y-59380839D01*
X117334342Y-59380839D02*
X117429580Y-59333220D01*
X117429580Y-59333220D02*
X117477200Y-59285601D01*
X117477200Y-59285601D02*
X117524819Y-59190363D01*
X117524819Y-59190363D02*
X117524819Y-58904649D01*
X117524819Y-58904649D02*
X117477200Y-58809411D01*
X117477200Y-58809411D02*
X117429580Y-58761792D01*
X116544819Y-77040077D02*
X116544819Y-76563887D01*
X116544819Y-76563887D02*
X117021009Y-76516268D01*
X117021009Y-76516268D02*
X116973390Y-76563887D01*
X116973390Y-76563887D02*
X116925771Y-76659125D01*
X116925771Y-76659125D02*
X116925771Y-76897220D01*
X116925771Y-76897220D02*
X116973390Y-76992458D01*
X116973390Y-76992458D02*
X117021009Y-77040077D01*
X117021009Y-77040077D02*
X117116247Y-77087696D01*
X117116247Y-77087696D02*
X117354342Y-77087696D01*
X117354342Y-77087696D02*
X117449580Y-77040077D01*
X117449580Y-77040077D02*
X117497200Y-76992458D01*
X117497200Y-76992458D02*
X117544819Y-76897220D01*
X117544819Y-76897220D02*
X117544819Y-76659125D01*
X117544819Y-76659125D02*
X117497200Y-76563887D01*
X117497200Y-76563887D02*
X117449580Y-76516268D01*
X116544819Y-77373411D02*
X117544819Y-77706744D01*
X117544819Y-77706744D02*
X116544819Y-78040077D01*
X125144819Y-56866554D02*
X124144819Y-56866554D01*
X124144819Y-56866554D02*
X124859104Y-57133220D01*
X124859104Y-57133220D02*
X124144819Y-57399887D01*
X124144819Y-57399887D02*
X125144819Y-57399887D01*
X124144819Y-57933221D02*
X124144819Y-58085602D01*
X124144819Y-58085602D02*
X124192438Y-58161792D01*
X124192438Y-58161792D02*
X124287676Y-58237983D01*
X124287676Y-58237983D02*
X124478152Y-58276078D01*
X124478152Y-58276078D02*
X124811485Y-58276078D01*
X124811485Y-58276078D02*
X125001961Y-58237983D01*
X125001961Y-58237983D02*
X125097200Y-58161792D01*
X125097200Y-58161792D02*
X125144819Y-58085602D01*
X125144819Y-58085602D02*
X125144819Y-57933221D01*
X125144819Y-57933221D02*
X125097200Y-57857030D01*
X125097200Y-57857030D02*
X125001961Y-57780840D01*
X125001961Y-57780840D02*
X124811485Y-57742744D01*
X124811485Y-57742744D02*
X124478152Y-57742744D01*
X124478152Y-57742744D02*
X124287676Y-57780840D01*
X124287676Y-57780840D02*
X124192438Y-57857030D01*
X124192438Y-57857030D02*
X124144819Y-57933221D01*
X125097200Y-58580839D02*
X125144819Y-58695125D01*
X125144819Y-58695125D02*
X125144819Y-58885601D01*
X125144819Y-58885601D02*
X125097200Y-58961792D01*
X125097200Y-58961792D02*
X125049580Y-58999887D01*
X125049580Y-58999887D02*
X124954342Y-59037982D01*
X124954342Y-59037982D02*
X124859104Y-59037982D01*
X124859104Y-59037982D02*
X124763866Y-58999887D01*
X124763866Y-58999887D02*
X124716247Y-58961792D01*
X124716247Y-58961792D02*
X124668628Y-58885601D01*
X124668628Y-58885601D02*
X124621009Y-58733220D01*
X124621009Y-58733220D02*
X124573390Y-58657030D01*
X124573390Y-58657030D02*
X124525771Y-58618935D01*
X124525771Y-58618935D02*
X124430533Y-58580839D01*
X124430533Y-58580839D02*
X124335295Y-58580839D01*
X124335295Y-58580839D02*
X124240057Y-58618935D01*
X124240057Y-58618935D02*
X124192438Y-58657030D01*
X124192438Y-58657030D02*
X124144819Y-58733220D01*
X124144819Y-58733220D02*
X124144819Y-58923697D01*
X124144819Y-58923697D02*
X124192438Y-59037982D01*
X125144819Y-59380840D02*
X124144819Y-59380840D01*
X122529580Y-76992458D02*
X122577200Y-76944839D01*
X122577200Y-76944839D02*
X122624819Y-76801982D01*
X122624819Y-76801982D02*
X122624819Y-76706744D01*
X122624819Y-76706744D02*
X122577200Y-76563887D01*
X122577200Y-76563887D02*
X122481961Y-76468649D01*
X122481961Y-76468649D02*
X122386723Y-76421030D01*
X122386723Y-76421030D02*
X122196247Y-76373411D01*
X122196247Y-76373411D02*
X122053390Y-76373411D01*
X122053390Y-76373411D02*
X121862914Y-76421030D01*
X121862914Y-76421030D02*
X121767676Y-76468649D01*
X121767676Y-76468649D02*
X121672438Y-76563887D01*
X121672438Y-76563887D02*
X121624819Y-76706744D01*
X121624819Y-76706744D02*
X121624819Y-76801982D01*
X121624819Y-76801982D02*
X121672438Y-76944839D01*
X121672438Y-76944839D02*
X121720057Y-76992458D01*
X122577200Y-77373411D02*
X122624819Y-77516268D01*
X122624819Y-77516268D02*
X122624819Y-77754363D01*
X122624819Y-77754363D02*
X122577200Y-77849601D01*
X122577200Y-77849601D02*
X122529580Y-77897220D01*
X122529580Y-77897220D02*
X122434342Y-77944839D01*
X122434342Y-77944839D02*
X122339104Y-77944839D01*
X122339104Y-77944839D02*
X122243866Y-77897220D01*
X122243866Y-77897220D02*
X122196247Y-77849601D01*
X122196247Y-77849601D02*
X122148628Y-77754363D01*
X122148628Y-77754363D02*
X122101009Y-77563887D01*
X122101009Y-77563887D02*
X122053390Y-77468649D01*
X122053390Y-77468649D02*
X122005771Y-77421030D01*
X122005771Y-77421030D02*
X121910533Y-77373411D01*
X121910533Y-77373411D02*
X121815295Y-77373411D01*
X121815295Y-77373411D02*
X121720057Y-77421030D01*
X121720057Y-77421030D02*
X121672438Y-77468649D01*
X121672438Y-77468649D02*
X121624819Y-77563887D01*
X121624819Y-77563887D02*
X121624819Y-77801982D01*
X121624819Y-77801982D02*
X121672438Y-77944839D01*
X134304819Y-58476077D02*
X134304819Y-57999887D01*
X134304819Y-57999887D02*
X134781009Y-57952268D01*
X134781009Y-57952268D02*
X134733390Y-57999887D01*
X134733390Y-57999887D02*
X134685771Y-58095125D01*
X134685771Y-58095125D02*
X134685771Y-58333220D01*
X134685771Y-58333220D02*
X134733390Y-58428458D01*
X134733390Y-58428458D02*
X134781009Y-58476077D01*
X134781009Y-58476077D02*
X134876247Y-58523696D01*
X134876247Y-58523696D02*
X135114342Y-58523696D01*
X135114342Y-58523696D02*
X135209580Y-58476077D01*
X135209580Y-58476077D02*
X135257200Y-58428458D01*
X135257200Y-58428458D02*
X135304819Y-58333220D01*
X135304819Y-58333220D02*
X135304819Y-58095125D01*
X135304819Y-58095125D02*
X135257200Y-57999887D01*
X135257200Y-57999887D02*
X135209580Y-57952268D01*
X134304819Y-58809411D02*
X135304819Y-59142744D01*
X135304819Y-59142744D02*
X134304819Y-59476077D01*
X127704819Y-75430554D02*
X126704819Y-75430554D01*
X126704819Y-75430554D02*
X127419104Y-75697220D01*
X127419104Y-75697220D02*
X126704819Y-75963887D01*
X126704819Y-75963887D02*
X127704819Y-75963887D01*
X126704819Y-76497221D02*
X126704819Y-76649602D01*
X126704819Y-76649602D02*
X126752438Y-76725792D01*
X126752438Y-76725792D02*
X126847676Y-76801983D01*
X126847676Y-76801983D02*
X127038152Y-76840078D01*
X127038152Y-76840078D02*
X127371485Y-76840078D01*
X127371485Y-76840078D02*
X127561961Y-76801983D01*
X127561961Y-76801983D02*
X127657200Y-76725792D01*
X127657200Y-76725792D02*
X127704819Y-76649602D01*
X127704819Y-76649602D02*
X127704819Y-76497221D01*
X127704819Y-76497221D02*
X127657200Y-76421030D01*
X127657200Y-76421030D02*
X127561961Y-76344840D01*
X127561961Y-76344840D02*
X127371485Y-76306744D01*
X127371485Y-76306744D02*
X127038152Y-76306744D01*
X127038152Y-76306744D02*
X126847676Y-76344840D01*
X126847676Y-76344840D02*
X126752438Y-76421030D01*
X126752438Y-76421030D02*
X126704819Y-76497221D01*
X127657200Y-77144839D02*
X127704819Y-77259125D01*
X127704819Y-77259125D02*
X127704819Y-77449601D01*
X127704819Y-77449601D02*
X127657200Y-77525792D01*
X127657200Y-77525792D02*
X127609580Y-77563887D01*
X127609580Y-77563887D02*
X127514342Y-77601982D01*
X127514342Y-77601982D02*
X127419104Y-77601982D01*
X127419104Y-77601982D02*
X127323866Y-77563887D01*
X127323866Y-77563887D02*
X127276247Y-77525792D01*
X127276247Y-77525792D02*
X127228628Y-77449601D01*
X127228628Y-77449601D02*
X127181009Y-77297220D01*
X127181009Y-77297220D02*
X127133390Y-77221030D01*
X127133390Y-77221030D02*
X127085771Y-77182935D01*
X127085771Y-77182935D02*
X126990533Y-77144839D01*
X126990533Y-77144839D02*
X126895295Y-77144839D01*
X126895295Y-77144839D02*
X126800057Y-77182935D01*
X126800057Y-77182935D02*
X126752438Y-77221030D01*
X126752438Y-77221030D02*
X126704819Y-77297220D01*
X126704819Y-77297220D02*
X126704819Y-77487697D01*
X126704819Y-77487697D02*
X126752438Y-77601982D01*
X127704819Y-77944840D02*
X126704819Y-77944840D01*
X164541009Y-58190363D02*
X164588628Y-58333220D01*
X164588628Y-58333220D02*
X164636247Y-58380839D01*
X164636247Y-58380839D02*
X164731485Y-58428458D01*
X164731485Y-58428458D02*
X164874342Y-58428458D01*
X164874342Y-58428458D02*
X164969580Y-58380839D01*
X164969580Y-58380839D02*
X165017200Y-58333220D01*
X165017200Y-58333220D02*
X165064819Y-58237982D01*
X165064819Y-58237982D02*
X165064819Y-57857030D01*
X165064819Y-57857030D02*
X164064819Y-57857030D01*
X164064819Y-57857030D02*
X164064819Y-58190363D01*
X164064819Y-58190363D02*
X164112438Y-58285601D01*
X164112438Y-58285601D02*
X164160057Y-58333220D01*
X164160057Y-58333220D02*
X164255295Y-58380839D01*
X164255295Y-58380839D02*
X164350533Y-58380839D01*
X164350533Y-58380839D02*
X164445771Y-58333220D01*
X164445771Y-58333220D02*
X164493390Y-58285601D01*
X164493390Y-58285601D02*
X164541009Y-58190363D01*
X164541009Y-58190363D02*
X164541009Y-57857030D01*
X164160057Y-58809411D02*
X164112438Y-58857030D01*
X164112438Y-58857030D02*
X164064819Y-58952268D01*
X164064819Y-58952268D02*
X164064819Y-59190363D01*
X164064819Y-59190363D02*
X164112438Y-59285601D01*
X164112438Y-59285601D02*
X164160057Y-59333220D01*
X164160057Y-59333220D02*
X164255295Y-59380839D01*
X164255295Y-59380839D02*
X164350533Y-59380839D01*
X164350533Y-59380839D02*
X164493390Y-59333220D01*
X164493390Y-59333220D02*
X165064819Y-58761792D01*
X165064819Y-58761792D02*
X165064819Y-59380839D01*
D11*
X182937279Y-31937028D02*
X182937279Y-30437028D01*
X182937279Y-30437028D02*
X182437279Y-31508457D01*
X182437279Y-31508457D02*
X181937279Y-30437028D01*
X181937279Y-30437028D02*
X181937279Y-31937028D01*
X181294421Y-31508457D02*
X180580136Y-31508457D01*
X181437278Y-31937028D02*
X180937278Y-30437028D01*
X180937278Y-30437028D02*
X180437278Y-31937028D01*
X180151564Y-30437028D02*
X179294422Y-30437028D01*
X179722993Y-31937028D02*
X179722993Y-30437028D01*
X177937279Y-31937028D02*
X178437279Y-31222742D01*
X178794422Y-31937028D02*
X178794422Y-30437028D01*
X178794422Y-30437028D02*
X178222993Y-30437028D01*
X178222993Y-30437028D02*
X178080136Y-30508457D01*
X178080136Y-30508457D02*
X178008707Y-30579885D01*
X178008707Y-30579885D02*
X177937279Y-30722742D01*
X177937279Y-30722742D02*
X177937279Y-30937028D01*
X177937279Y-30937028D02*
X178008707Y-31079885D01*
X178008707Y-31079885D02*
X178080136Y-31151314D01*
X178080136Y-31151314D02*
X178222993Y-31222742D01*
X178222993Y-31222742D02*
X178794422Y-31222742D01*
X177294422Y-31937028D02*
X177294422Y-30437028D01*
X176722993Y-30437028D02*
X175722993Y-31937028D01*
X175722993Y-30437028D02*
X176722993Y-31937028D01*
X173508708Y-31151314D02*
X173294422Y-31222742D01*
X173294422Y-31222742D02*
X173222993Y-31294171D01*
X173222993Y-31294171D02*
X173151565Y-31437028D01*
X173151565Y-31437028D02*
X173151565Y-31651314D01*
X173151565Y-31651314D02*
X173222993Y-31794171D01*
X173222993Y-31794171D02*
X173294422Y-31865600D01*
X173294422Y-31865600D02*
X173437279Y-31937028D01*
X173437279Y-31937028D02*
X174008708Y-31937028D01*
X174008708Y-31937028D02*
X174008708Y-30437028D01*
X174008708Y-30437028D02*
X173508708Y-30437028D01*
X173508708Y-30437028D02*
X173365851Y-30508457D01*
X173365851Y-30508457D02*
X173294422Y-30579885D01*
X173294422Y-30579885D02*
X173222993Y-30722742D01*
X173222993Y-30722742D02*
X173222993Y-30865600D01*
X173222993Y-30865600D02*
X173294422Y-31008457D01*
X173294422Y-31008457D02*
X173365851Y-31079885D01*
X173365851Y-31079885D02*
X173508708Y-31151314D01*
X173508708Y-31151314D02*
X174008708Y-31151314D01*
X172508708Y-30437028D02*
X172508708Y-31651314D01*
X172508708Y-31651314D02*
X172437279Y-31794171D01*
X172437279Y-31794171D02*
X172365851Y-31865600D01*
X172365851Y-31865600D02*
X172222993Y-31937028D01*
X172222993Y-31937028D02*
X171937279Y-31937028D01*
X171937279Y-31937028D02*
X171794422Y-31865600D01*
X171794422Y-31865600D02*
X171722993Y-31794171D01*
X171722993Y-31794171D02*
X171651565Y-31651314D01*
X171651565Y-31651314D02*
X171651565Y-30437028D01*
X170937279Y-31937028D02*
X170937279Y-30437028D01*
X170937279Y-30437028D02*
X170580136Y-30437028D01*
X170580136Y-30437028D02*
X170365850Y-30508457D01*
X170365850Y-30508457D02*
X170222993Y-30651314D01*
X170222993Y-30651314D02*
X170151564Y-30794171D01*
X170151564Y-30794171D02*
X170080136Y-31079885D01*
X170080136Y-31079885D02*
X170080136Y-31294171D01*
X170080136Y-31294171D02*
X170151564Y-31579885D01*
X170151564Y-31579885D02*
X170222993Y-31722742D01*
X170222993Y-31722742D02*
X170365850Y-31865600D01*
X170365850Y-31865600D02*
X170580136Y-31937028D01*
X170580136Y-31937028D02*
X170937279Y-31937028D01*
X169437279Y-31937028D02*
X169437279Y-30437028D01*
X169437279Y-30437028D02*
X169080136Y-30437028D01*
X169080136Y-30437028D02*
X168865850Y-30508457D01*
X168865850Y-30508457D02*
X168722993Y-30651314D01*
X168722993Y-30651314D02*
X168651564Y-30794171D01*
X168651564Y-30794171D02*
X168580136Y-31079885D01*
X168580136Y-31079885D02*
X168580136Y-31294171D01*
X168580136Y-31294171D02*
X168651564Y-31579885D01*
X168651564Y-31579885D02*
X168722993Y-31722742D01*
X168722993Y-31722742D02*
X168865850Y-31865600D01*
X168865850Y-31865600D02*
X169080136Y-31937028D01*
X169080136Y-31937028D02*
X169437279Y-31937028D01*
X167651564Y-31222742D02*
X167651564Y-31937028D01*
X168151564Y-30437028D02*
X167651564Y-31222742D01*
X167651564Y-31222742D02*
X167151564Y-30437028D01*
X165722993Y-30437028D02*
X165222993Y-31937028D01*
X165222993Y-31937028D02*
X164722993Y-30437028D01*
X164294422Y-30579885D02*
X164222994Y-30508457D01*
X164222994Y-30508457D02*
X164080137Y-30437028D01*
X164080137Y-30437028D02*
X163722994Y-30437028D01*
X163722994Y-30437028D02*
X163580137Y-30508457D01*
X163580137Y-30508457D02*
X163508708Y-30579885D01*
X163508708Y-30579885D02*
X163437279Y-30722742D01*
X163437279Y-30722742D02*
X163437279Y-30865600D01*
X163437279Y-30865600D02*
X163508708Y-31079885D01*
X163508708Y-31079885D02*
X164365851Y-31937028D01*
X164365851Y-31937028D02*
X163437279Y-31937028D01*
X162794423Y-31794171D02*
X162722994Y-31865600D01*
X162722994Y-31865600D02*
X162794423Y-31937028D01*
X162794423Y-31937028D02*
X162865851Y-31865600D01*
X162865851Y-31865600D02*
X162794423Y-31794171D01*
X162794423Y-31794171D02*
X162794423Y-31937028D01*
X161794422Y-30437028D02*
X161651565Y-30437028D01*
X161651565Y-30437028D02*
X161508708Y-30508457D01*
X161508708Y-30508457D02*
X161437280Y-30579885D01*
X161437280Y-30579885D02*
X161365851Y-30722742D01*
X161365851Y-30722742D02*
X161294422Y-31008457D01*
X161294422Y-31008457D02*
X161294422Y-31365600D01*
X161294422Y-31365600D02*
X161365851Y-31651314D01*
X161365851Y-31651314D02*
X161437280Y-31794171D01*
X161437280Y-31794171D02*
X161508708Y-31865600D01*
X161508708Y-31865600D02*
X161651565Y-31937028D01*
X161651565Y-31937028D02*
X161794422Y-31937028D01*
X161794422Y-31937028D02*
X161937280Y-31865600D01*
X161937280Y-31865600D02*
X162008708Y-31794171D01*
X162008708Y-31794171D02*
X162080137Y-31651314D01*
X162080137Y-31651314D02*
X162151565Y-31365600D01*
X162151565Y-31365600D02*
X162151565Y-31008457D01*
X162151565Y-31008457D02*
X162080137Y-30722742D01*
X162080137Y-30722742D02*
X162008708Y-30579885D01*
X162008708Y-30579885D02*
X161937280Y-30508457D01*
X161937280Y-30508457D02*
X161794422Y-30437028D01*
X182937279Y-34352028D02*
X182937279Y-32852028D01*
X182937279Y-32852028D02*
X182580136Y-32852028D01*
X182580136Y-32852028D02*
X182365850Y-32923457D01*
X182365850Y-32923457D02*
X182222993Y-33066314D01*
X182222993Y-33066314D02*
X182151564Y-33209171D01*
X182151564Y-33209171D02*
X182080136Y-33494885D01*
X182080136Y-33494885D02*
X182080136Y-33709171D01*
X182080136Y-33709171D02*
X182151564Y-33994885D01*
X182151564Y-33994885D02*
X182222993Y-34137742D01*
X182222993Y-34137742D02*
X182365850Y-34280600D01*
X182365850Y-34280600D02*
X182580136Y-34352028D01*
X182580136Y-34352028D02*
X182937279Y-34352028D01*
X181437279Y-33566314D02*
X180937279Y-33566314D01*
X180722993Y-34352028D02*
X181437279Y-34352028D01*
X181437279Y-34352028D02*
X181437279Y-32852028D01*
X181437279Y-32852028D02*
X180722993Y-32852028D01*
X180151564Y-34280600D02*
X179937279Y-34352028D01*
X179937279Y-34352028D02*
X179580136Y-34352028D01*
X179580136Y-34352028D02*
X179437279Y-34280600D01*
X179437279Y-34280600D02*
X179365850Y-34209171D01*
X179365850Y-34209171D02*
X179294421Y-34066314D01*
X179294421Y-34066314D02*
X179294421Y-33923457D01*
X179294421Y-33923457D02*
X179365850Y-33780600D01*
X179365850Y-33780600D02*
X179437279Y-33709171D01*
X179437279Y-33709171D02*
X179580136Y-33637742D01*
X179580136Y-33637742D02*
X179865850Y-33566314D01*
X179865850Y-33566314D02*
X180008707Y-33494885D01*
X180008707Y-33494885D02*
X180080136Y-33423457D01*
X180080136Y-33423457D02*
X180151564Y-33280600D01*
X180151564Y-33280600D02*
X180151564Y-33137742D01*
X180151564Y-33137742D02*
X180080136Y-32994885D01*
X180080136Y-32994885D02*
X180008707Y-32923457D01*
X180008707Y-32923457D02*
X179865850Y-32852028D01*
X179865850Y-32852028D02*
X179508707Y-32852028D01*
X179508707Y-32852028D02*
X179294421Y-32923457D01*
X178651565Y-34352028D02*
X178651565Y-32852028D01*
X177151564Y-32923457D02*
X177294422Y-32852028D01*
X177294422Y-32852028D02*
X177508707Y-32852028D01*
X177508707Y-32852028D02*
X177722993Y-32923457D01*
X177722993Y-32923457D02*
X177865850Y-33066314D01*
X177865850Y-33066314D02*
X177937279Y-33209171D01*
X177937279Y-33209171D02*
X178008707Y-33494885D01*
X178008707Y-33494885D02*
X178008707Y-33709171D01*
X178008707Y-33709171D02*
X177937279Y-33994885D01*
X177937279Y-33994885D02*
X177865850Y-34137742D01*
X177865850Y-34137742D02*
X177722993Y-34280600D01*
X177722993Y-34280600D02*
X177508707Y-34352028D01*
X177508707Y-34352028D02*
X177365850Y-34352028D01*
X177365850Y-34352028D02*
X177151564Y-34280600D01*
X177151564Y-34280600D02*
X177080136Y-34209171D01*
X177080136Y-34209171D02*
X177080136Y-33709171D01*
X177080136Y-33709171D02*
X177365850Y-33709171D01*
X176437279Y-34352028D02*
X176437279Y-32852028D01*
X176437279Y-32852028D02*
X175580136Y-34352028D01*
X175580136Y-34352028D02*
X175580136Y-32852028D01*
X174865850Y-33566314D02*
X174365850Y-33566314D01*
X174151564Y-34352028D02*
X174865850Y-34352028D01*
X174865850Y-34352028D02*
X174865850Y-32852028D01*
X174865850Y-32852028D02*
X174151564Y-32852028D01*
X173508707Y-34352028D02*
X173508707Y-32852028D01*
X173508707Y-32852028D02*
X173151564Y-32852028D01*
X173151564Y-32852028D02*
X172937278Y-32923457D01*
X172937278Y-32923457D02*
X172794421Y-33066314D01*
X172794421Y-33066314D02*
X172722992Y-33209171D01*
X172722992Y-33209171D02*
X172651564Y-33494885D01*
X172651564Y-33494885D02*
X172651564Y-33709171D01*
X172651564Y-33709171D02*
X172722992Y-33994885D01*
X172722992Y-33994885D02*
X172794421Y-34137742D01*
X172794421Y-34137742D02*
X172937278Y-34280600D01*
X172937278Y-34280600D02*
X173151564Y-34352028D01*
X173151564Y-34352028D02*
X173508707Y-34352028D01*
X170365850Y-33566314D02*
X170151564Y-33637742D01*
X170151564Y-33637742D02*
X170080135Y-33709171D01*
X170080135Y-33709171D02*
X170008707Y-33852028D01*
X170008707Y-33852028D02*
X170008707Y-34066314D01*
X170008707Y-34066314D02*
X170080135Y-34209171D01*
X170080135Y-34209171D02*
X170151564Y-34280600D01*
X170151564Y-34280600D02*
X170294421Y-34352028D01*
X170294421Y-34352028D02*
X170865850Y-34352028D01*
X170865850Y-34352028D02*
X170865850Y-32852028D01*
X170865850Y-32852028D02*
X170365850Y-32852028D01*
X170365850Y-32852028D02*
X170222993Y-32923457D01*
X170222993Y-32923457D02*
X170151564Y-32994885D01*
X170151564Y-32994885D02*
X170080135Y-33137742D01*
X170080135Y-33137742D02*
X170080135Y-33280600D01*
X170080135Y-33280600D02*
X170151564Y-33423457D01*
X170151564Y-33423457D02*
X170222993Y-33494885D01*
X170222993Y-33494885D02*
X170365850Y-33566314D01*
X170365850Y-33566314D02*
X170865850Y-33566314D01*
X169080135Y-33637742D02*
X169080135Y-34352028D01*
X169580135Y-32852028D02*
X169080135Y-33637742D01*
X169080135Y-33637742D02*
X168580135Y-32852028D01*
X166437279Y-33566314D02*
X166222993Y-33637742D01*
X166222993Y-33637742D02*
X166151564Y-33709171D01*
X166151564Y-33709171D02*
X166080136Y-33852028D01*
X166080136Y-33852028D02*
X166080136Y-34066314D01*
X166080136Y-34066314D02*
X166151564Y-34209171D01*
X166151564Y-34209171D02*
X166222993Y-34280600D01*
X166222993Y-34280600D02*
X166365850Y-34352028D01*
X166365850Y-34352028D02*
X166937279Y-34352028D01*
X166937279Y-34352028D02*
X166937279Y-32852028D01*
X166937279Y-32852028D02*
X166437279Y-32852028D01*
X166437279Y-32852028D02*
X166294422Y-32923457D01*
X166294422Y-32923457D02*
X166222993Y-32994885D01*
X166222993Y-32994885D02*
X166151564Y-33137742D01*
X166151564Y-33137742D02*
X166151564Y-33280600D01*
X166151564Y-33280600D02*
X166222993Y-33423457D01*
X166222993Y-33423457D02*
X166294422Y-33494885D01*
X166294422Y-33494885D02*
X166437279Y-33566314D01*
X166437279Y-33566314D02*
X166937279Y-33566314D01*
X165508707Y-33923457D02*
X164794422Y-33923457D01*
X165651564Y-34352028D02*
X165151564Y-32852028D01*
X165151564Y-32852028D02*
X164651564Y-34352028D01*
X164151565Y-34352028D02*
X164151565Y-32852028D01*
X164151565Y-32852028D02*
X163794422Y-32852028D01*
X163794422Y-32852028D02*
X163580136Y-32923457D01*
X163580136Y-32923457D02*
X163437279Y-33066314D01*
X163437279Y-33066314D02*
X163365850Y-33209171D01*
X163365850Y-33209171D02*
X163294422Y-33494885D01*
X163294422Y-33494885D02*
X163294422Y-33709171D01*
X163294422Y-33709171D02*
X163365850Y-33994885D01*
X163365850Y-33994885D02*
X163437279Y-34137742D01*
X163437279Y-34137742D02*
X163580136Y-34280600D01*
X163580136Y-34280600D02*
X163794422Y-34352028D01*
X163794422Y-34352028D02*
X164151565Y-34352028D01*
X161794422Y-34352028D02*
X162294422Y-33637742D01*
X162651565Y-34352028D02*
X162651565Y-32852028D01*
X162651565Y-32852028D02*
X162080136Y-32852028D01*
X162080136Y-32852028D02*
X161937279Y-32923457D01*
X161937279Y-32923457D02*
X161865850Y-32994885D01*
X161865850Y-32994885D02*
X161794422Y-33137742D01*
X161794422Y-33137742D02*
X161794422Y-33352028D01*
X161794422Y-33352028D02*
X161865850Y-33494885D01*
X161865850Y-33494885D02*
X161937279Y-33566314D01*
X161937279Y-33566314D02*
X162080136Y-33637742D01*
X162080136Y-33637742D02*
X162651565Y-33637742D01*
X161222993Y-33923457D02*
X160508708Y-33923457D01*
X161365850Y-34352028D02*
X160865850Y-32852028D01*
X160865850Y-32852028D02*
X160365850Y-34352028D01*
X159865851Y-34352028D02*
X159865851Y-32852028D01*
X159865851Y-32852028D02*
X159365851Y-33923457D01*
X159365851Y-33923457D02*
X158865851Y-32852028D01*
X158865851Y-32852028D02*
X158865851Y-34352028D01*
D10*
X134801009Y-76754363D02*
X134848628Y-76897220D01*
X134848628Y-76897220D02*
X134896247Y-76944839D01*
X134896247Y-76944839D02*
X134991485Y-76992458D01*
X134991485Y-76992458D02*
X135134342Y-76992458D01*
X135134342Y-76992458D02*
X135229580Y-76944839D01*
X135229580Y-76944839D02*
X135277200Y-76897220D01*
X135277200Y-76897220D02*
X135324819Y-76801982D01*
X135324819Y-76801982D02*
X135324819Y-76421030D01*
X135324819Y-76421030D02*
X134324819Y-76421030D01*
X134324819Y-76421030D02*
X134324819Y-76754363D01*
X134324819Y-76754363D02*
X134372438Y-76849601D01*
X134372438Y-76849601D02*
X134420057Y-76897220D01*
X134420057Y-76897220D02*
X134515295Y-76944839D01*
X134515295Y-76944839D02*
X134610533Y-76944839D01*
X134610533Y-76944839D02*
X134705771Y-76897220D01*
X134705771Y-76897220D02*
X134753390Y-76849601D01*
X134753390Y-76849601D02*
X134801009Y-76754363D01*
X134801009Y-76754363D02*
X134801009Y-76421030D01*
X134324819Y-77325792D02*
X134324819Y-77944839D01*
X134324819Y-77944839D02*
X134705771Y-77611506D01*
X134705771Y-77611506D02*
X134705771Y-77754363D01*
X134705771Y-77754363D02*
X134753390Y-77849601D01*
X134753390Y-77849601D02*
X134801009Y-77897220D01*
X134801009Y-77897220D02*
X134896247Y-77944839D01*
X134896247Y-77944839D02*
X135134342Y-77944839D01*
X135134342Y-77944839D02*
X135229580Y-77897220D01*
X135229580Y-77897220D02*
X135277200Y-77849601D01*
X135277200Y-77849601D02*
X135324819Y-77754363D01*
X135324819Y-77754363D02*
X135324819Y-77468649D01*
X135324819Y-77468649D02*
X135277200Y-77373411D01*
X135277200Y-77373411D02*
X135229580Y-77325792D01*
X177261009Y-76754363D02*
X177308628Y-76897220D01*
X177308628Y-76897220D02*
X177356247Y-76944839D01*
X177356247Y-76944839D02*
X177451485Y-76992458D01*
X177451485Y-76992458D02*
X177594342Y-76992458D01*
X177594342Y-76992458D02*
X177689580Y-76944839D01*
X177689580Y-76944839D02*
X177737200Y-76897220D01*
X177737200Y-76897220D02*
X177784819Y-76801982D01*
X177784819Y-76801982D02*
X177784819Y-76421030D01*
X177784819Y-76421030D02*
X176784819Y-76421030D01*
X176784819Y-76421030D02*
X176784819Y-76754363D01*
X176784819Y-76754363D02*
X176832438Y-76849601D01*
X176832438Y-76849601D02*
X176880057Y-76897220D01*
X176880057Y-76897220D02*
X176975295Y-76944839D01*
X176975295Y-76944839D02*
X177070533Y-76944839D01*
X177070533Y-76944839D02*
X177165771Y-76897220D01*
X177165771Y-76897220D02*
X177213390Y-76849601D01*
X177213390Y-76849601D02*
X177261009Y-76754363D01*
X177261009Y-76754363D02*
X177261009Y-76421030D01*
X176880057Y-77373411D02*
X176832438Y-77421030D01*
X176832438Y-77421030D02*
X176784819Y-77516268D01*
X176784819Y-77516268D02*
X176784819Y-77754363D01*
X176784819Y-77754363D02*
X176832438Y-77849601D01*
X176832438Y-77849601D02*
X176880057Y-77897220D01*
X176880057Y-77897220D02*
X176975295Y-77944839D01*
X176975295Y-77944839D02*
X177070533Y-77944839D01*
X177070533Y-77944839D02*
X177213390Y-77897220D01*
X177213390Y-77897220D02*
X177784819Y-77325792D01*
X177784819Y-77325792D02*
X177784819Y-77944839D01*
X132261009Y-76754363D02*
X132308628Y-76897220D01*
X132308628Y-76897220D02*
X132356247Y-76944839D01*
X132356247Y-76944839D02*
X132451485Y-76992458D01*
X132451485Y-76992458D02*
X132594342Y-76992458D01*
X132594342Y-76992458D02*
X132689580Y-76944839D01*
X132689580Y-76944839D02*
X132737200Y-76897220D01*
X132737200Y-76897220D02*
X132784819Y-76801982D01*
X132784819Y-76801982D02*
X132784819Y-76421030D01*
X132784819Y-76421030D02*
X131784819Y-76421030D01*
X131784819Y-76421030D02*
X131784819Y-76754363D01*
X131784819Y-76754363D02*
X131832438Y-76849601D01*
X131832438Y-76849601D02*
X131880057Y-76897220D01*
X131880057Y-76897220D02*
X131975295Y-76944839D01*
X131975295Y-76944839D02*
X132070533Y-76944839D01*
X132070533Y-76944839D02*
X132165771Y-76897220D01*
X132165771Y-76897220D02*
X132213390Y-76849601D01*
X132213390Y-76849601D02*
X132261009Y-76754363D01*
X132261009Y-76754363D02*
X132261009Y-76421030D01*
X131880057Y-77373411D02*
X131832438Y-77421030D01*
X131832438Y-77421030D02*
X131784819Y-77516268D01*
X131784819Y-77516268D02*
X131784819Y-77754363D01*
X131784819Y-77754363D02*
X131832438Y-77849601D01*
X131832438Y-77849601D02*
X131880057Y-77897220D01*
X131880057Y-77897220D02*
X131975295Y-77944839D01*
X131975295Y-77944839D02*
X132070533Y-77944839D01*
X132070533Y-77944839D02*
X132213390Y-77897220D01*
X132213390Y-77897220D02*
X132784819Y-77325792D01*
X132784819Y-77325792D02*
X132784819Y-77944839D01*
X174721009Y-76754363D02*
X174768628Y-76897220D01*
X174768628Y-76897220D02*
X174816247Y-76944839D01*
X174816247Y-76944839D02*
X174911485Y-76992458D01*
X174911485Y-76992458D02*
X175054342Y-76992458D01*
X175054342Y-76992458D02*
X175149580Y-76944839D01*
X175149580Y-76944839D02*
X175197200Y-76897220D01*
X175197200Y-76897220D02*
X175244819Y-76801982D01*
X175244819Y-76801982D02*
X175244819Y-76421030D01*
X175244819Y-76421030D02*
X174244819Y-76421030D01*
X174244819Y-76421030D02*
X174244819Y-76754363D01*
X174244819Y-76754363D02*
X174292438Y-76849601D01*
X174292438Y-76849601D02*
X174340057Y-76897220D01*
X174340057Y-76897220D02*
X174435295Y-76944839D01*
X174435295Y-76944839D02*
X174530533Y-76944839D01*
X174530533Y-76944839D02*
X174625771Y-76897220D01*
X174625771Y-76897220D02*
X174673390Y-76849601D01*
X174673390Y-76849601D02*
X174721009Y-76754363D01*
X174721009Y-76754363D02*
X174721009Y-76421030D01*
X175244819Y-77944839D02*
X175244819Y-77373411D01*
X175244819Y-77659125D02*
X174244819Y-77659125D01*
X174244819Y-77659125D02*
X174387676Y-77563887D01*
X174387676Y-77563887D02*
X174482914Y-77468649D01*
X174482914Y-77468649D02*
X174530533Y-77373411D01*
X119132438Y-75849601D02*
X119084819Y-75754363D01*
X119084819Y-75754363D02*
X119084819Y-75611506D01*
X119084819Y-75611506D02*
X119132438Y-75468649D01*
X119132438Y-75468649D02*
X119227676Y-75373411D01*
X119227676Y-75373411D02*
X119322914Y-75325792D01*
X119322914Y-75325792D02*
X119513390Y-75278173D01*
X119513390Y-75278173D02*
X119656247Y-75278173D01*
X119656247Y-75278173D02*
X119846723Y-75325792D01*
X119846723Y-75325792D02*
X119941961Y-75373411D01*
X119941961Y-75373411D02*
X120037200Y-75468649D01*
X120037200Y-75468649D02*
X120084819Y-75611506D01*
X120084819Y-75611506D02*
X120084819Y-75706744D01*
X120084819Y-75706744D02*
X120037200Y-75849601D01*
X120037200Y-75849601D02*
X119989580Y-75897220D01*
X119989580Y-75897220D02*
X119656247Y-75897220D01*
X119656247Y-75897220D02*
X119656247Y-75706744D01*
X120084819Y-76325792D02*
X119084819Y-76325792D01*
X119084819Y-76325792D02*
X120084819Y-76897220D01*
X120084819Y-76897220D02*
X119084819Y-76897220D01*
X120084819Y-77373411D02*
X119084819Y-77373411D01*
X119084819Y-77373411D02*
X119084819Y-77611506D01*
X119084819Y-77611506D02*
X119132438Y-77754363D01*
X119132438Y-77754363D02*
X119227676Y-77849601D01*
X119227676Y-77849601D02*
X119322914Y-77897220D01*
X119322914Y-77897220D02*
X119513390Y-77944839D01*
X119513390Y-77944839D02*
X119656247Y-77944839D01*
X119656247Y-77944839D02*
X119846723Y-77897220D01*
X119846723Y-77897220D02*
X119941961Y-77849601D01*
X119941961Y-77849601D02*
X120037200Y-77754363D01*
X120037200Y-77754363D02*
X120084819Y-77611506D01*
X120084819Y-77611506D02*
X120084819Y-77373411D01*
X162001009Y-58190363D02*
X162048628Y-58333220D01*
X162048628Y-58333220D02*
X162096247Y-58380839D01*
X162096247Y-58380839D02*
X162191485Y-58428458D01*
X162191485Y-58428458D02*
X162334342Y-58428458D01*
X162334342Y-58428458D02*
X162429580Y-58380839D01*
X162429580Y-58380839D02*
X162477200Y-58333220D01*
X162477200Y-58333220D02*
X162524819Y-58237982D01*
X162524819Y-58237982D02*
X162524819Y-57857030D01*
X162524819Y-57857030D02*
X161524819Y-57857030D01*
X161524819Y-57857030D02*
X161524819Y-58190363D01*
X161524819Y-58190363D02*
X161572438Y-58285601D01*
X161572438Y-58285601D02*
X161620057Y-58333220D01*
X161620057Y-58333220D02*
X161715295Y-58380839D01*
X161715295Y-58380839D02*
X161810533Y-58380839D01*
X161810533Y-58380839D02*
X161905771Y-58333220D01*
X161905771Y-58333220D02*
X161953390Y-58285601D01*
X161953390Y-58285601D02*
X162001009Y-58190363D01*
X162001009Y-58190363D02*
X162001009Y-57857030D01*
X161524819Y-58761792D02*
X161524819Y-59380839D01*
X161524819Y-59380839D02*
X161905771Y-59047506D01*
X161905771Y-59047506D02*
X161905771Y-59190363D01*
X161905771Y-59190363D02*
X161953390Y-59285601D01*
X161953390Y-59285601D02*
X162001009Y-59333220D01*
X162001009Y-59333220D02*
X162096247Y-59380839D01*
X162096247Y-59380839D02*
X162334342Y-59380839D01*
X162334342Y-59380839D02*
X162429580Y-59333220D01*
X162429580Y-59333220D02*
X162477200Y-59285601D01*
X162477200Y-59285601D02*
X162524819Y-59190363D01*
X162524819Y-59190363D02*
X162524819Y-58904649D01*
X162524819Y-58904649D02*
X162477200Y-58809411D01*
X162477200Y-58809411D02*
X162429580Y-58761792D01*
X130129580Y-58428458D02*
X130177200Y-58380839D01*
X130177200Y-58380839D02*
X130224819Y-58237982D01*
X130224819Y-58237982D02*
X130224819Y-58142744D01*
X130224819Y-58142744D02*
X130177200Y-57999887D01*
X130177200Y-57999887D02*
X130081961Y-57904649D01*
X130081961Y-57904649D02*
X129986723Y-57857030D01*
X129986723Y-57857030D02*
X129796247Y-57809411D01*
X129796247Y-57809411D02*
X129653390Y-57809411D01*
X129653390Y-57809411D02*
X129462914Y-57857030D01*
X129462914Y-57857030D02*
X129367676Y-57904649D01*
X129367676Y-57904649D02*
X129272438Y-57999887D01*
X129272438Y-57999887D02*
X129224819Y-58142744D01*
X129224819Y-58142744D02*
X129224819Y-58237982D01*
X129224819Y-58237982D02*
X129272438Y-58380839D01*
X129272438Y-58380839D02*
X129320057Y-58428458D01*
X130177200Y-58809411D02*
X130224819Y-58952268D01*
X130224819Y-58952268D02*
X130224819Y-59190363D01*
X130224819Y-59190363D02*
X130177200Y-59285601D01*
X130177200Y-59285601D02*
X130129580Y-59333220D01*
X130129580Y-59333220D02*
X130034342Y-59380839D01*
X130034342Y-59380839D02*
X129939104Y-59380839D01*
X129939104Y-59380839D02*
X129843866Y-59333220D01*
X129843866Y-59333220D02*
X129796247Y-59285601D01*
X129796247Y-59285601D02*
X129748628Y-59190363D01*
X129748628Y-59190363D02*
X129701009Y-58999887D01*
X129701009Y-58999887D02*
X129653390Y-58904649D01*
X129653390Y-58904649D02*
X129605771Y-58857030D01*
X129605771Y-58857030D02*
X129510533Y-58809411D01*
X129510533Y-58809411D02*
X129415295Y-58809411D01*
X129415295Y-58809411D02*
X129320057Y-58857030D01*
X129320057Y-58857030D02*
X129272438Y-58904649D01*
X129272438Y-58904649D02*
X129224819Y-58999887D01*
X129224819Y-58999887D02*
X129224819Y-59237982D01*
X129224819Y-59237982D02*
X129272438Y-59380839D01*
X172704819Y-75430554D02*
X171704819Y-75430554D01*
X171704819Y-75430554D02*
X172419104Y-75697220D01*
X172419104Y-75697220D02*
X171704819Y-75963887D01*
X171704819Y-75963887D02*
X172704819Y-75963887D01*
X171704819Y-76497221D02*
X171704819Y-76649602D01*
X171704819Y-76649602D02*
X171752438Y-76725792D01*
X171752438Y-76725792D02*
X171847676Y-76801983D01*
X171847676Y-76801983D02*
X172038152Y-76840078D01*
X172038152Y-76840078D02*
X172371485Y-76840078D01*
X172371485Y-76840078D02*
X172561961Y-76801983D01*
X172561961Y-76801983D02*
X172657200Y-76725792D01*
X172657200Y-76725792D02*
X172704819Y-76649602D01*
X172704819Y-76649602D02*
X172704819Y-76497221D01*
X172704819Y-76497221D02*
X172657200Y-76421030D01*
X172657200Y-76421030D02*
X172561961Y-76344840D01*
X172561961Y-76344840D02*
X172371485Y-76306744D01*
X172371485Y-76306744D02*
X172038152Y-76306744D01*
X172038152Y-76306744D02*
X171847676Y-76344840D01*
X171847676Y-76344840D02*
X171752438Y-76421030D01*
X171752438Y-76421030D02*
X171704819Y-76497221D01*
X172657200Y-77144839D02*
X172704819Y-77259125D01*
X172704819Y-77259125D02*
X172704819Y-77449601D01*
X172704819Y-77449601D02*
X172657200Y-77525792D01*
X172657200Y-77525792D02*
X172609580Y-77563887D01*
X172609580Y-77563887D02*
X172514342Y-77601982D01*
X172514342Y-77601982D02*
X172419104Y-77601982D01*
X172419104Y-77601982D02*
X172323866Y-77563887D01*
X172323866Y-77563887D02*
X172276247Y-77525792D01*
X172276247Y-77525792D02*
X172228628Y-77449601D01*
X172228628Y-77449601D02*
X172181009Y-77297220D01*
X172181009Y-77297220D02*
X172133390Y-77221030D01*
X172133390Y-77221030D02*
X172085771Y-77182935D01*
X172085771Y-77182935D02*
X171990533Y-77144839D01*
X171990533Y-77144839D02*
X171895295Y-77144839D01*
X171895295Y-77144839D02*
X171800057Y-77182935D01*
X171800057Y-77182935D02*
X171752438Y-77221030D01*
X171752438Y-77221030D02*
X171704819Y-77297220D01*
X171704819Y-77297220D02*
X171704819Y-77487697D01*
X171704819Y-77487697D02*
X171752438Y-77601982D01*
X172704819Y-77944840D02*
X171704819Y-77944840D01*
X170144819Y-56866554D02*
X169144819Y-56866554D01*
X169144819Y-56866554D02*
X169859104Y-57133220D01*
X169859104Y-57133220D02*
X169144819Y-57399887D01*
X169144819Y-57399887D02*
X170144819Y-57399887D01*
X169144819Y-57933221D02*
X169144819Y-58085602D01*
X169144819Y-58085602D02*
X169192438Y-58161792D01*
X169192438Y-58161792D02*
X169287676Y-58237983D01*
X169287676Y-58237983D02*
X169478152Y-58276078D01*
X169478152Y-58276078D02*
X169811485Y-58276078D01*
X169811485Y-58276078D02*
X170001961Y-58237983D01*
X170001961Y-58237983D02*
X170097200Y-58161792D01*
X170097200Y-58161792D02*
X170144819Y-58085602D01*
X170144819Y-58085602D02*
X170144819Y-57933221D01*
X170144819Y-57933221D02*
X170097200Y-57857030D01*
X170097200Y-57857030D02*
X170001961Y-57780840D01*
X170001961Y-57780840D02*
X169811485Y-57742744D01*
X169811485Y-57742744D02*
X169478152Y-57742744D01*
X169478152Y-57742744D02*
X169287676Y-57780840D01*
X169287676Y-57780840D02*
X169192438Y-57857030D01*
X169192438Y-57857030D02*
X169144819Y-57933221D01*
X170097200Y-58580839D02*
X170144819Y-58695125D01*
X170144819Y-58695125D02*
X170144819Y-58885601D01*
X170144819Y-58885601D02*
X170097200Y-58961792D01*
X170097200Y-58961792D02*
X170049580Y-58999887D01*
X170049580Y-58999887D02*
X169954342Y-59037982D01*
X169954342Y-59037982D02*
X169859104Y-59037982D01*
X169859104Y-59037982D02*
X169763866Y-58999887D01*
X169763866Y-58999887D02*
X169716247Y-58961792D01*
X169716247Y-58961792D02*
X169668628Y-58885601D01*
X169668628Y-58885601D02*
X169621009Y-58733220D01*
X169621009Y-58733220D02*
X169573390Y-58657030D01*
X169573390Y-58657030D02*
X169525771Y-58618935D01*
X169525771Y-58618935D02*
X169430533Y-58580839D01*
X169430533Y-58580839D02*
X169335295Y-58580839D01*
X169335295Y-58580839D02*
X169240057Y-58618935D01*
X169240057Y-58618935D02*
X169192438Y-58657030D01*
X169192438Y-58657030D02*
X169144819Y-58733220D01*
X169144819Y-58733220D02*
X169144819Y-58923697D01*
X169144819Y-58923697D02*
X169192438Y-59037982D01*
X170144819Y-59380840D02*
X169144819Y-59380840D01*
D11*
X137937279Y-31937028D02*
X137937279Y-30437028D01*
X137937279Y-30437028D02*
X137437279Y-31508457D01*
X137437279Y-31508457D02*
X136937279Y-30437028D01*
X136937279Y-30437028D02*
X136937279Y-31937028D01*
X136294421Y-31508457D02*
X135580136Y-31508457D01*
X136437278Y-31937028D02*
X135937278Y-30437028D01*
X135937278Y-30437028D02*
X135437278Y-31937028D01*
X135151564Y-30437028D02*
X134294422Y-30437028D01*
X134722993Y-31937028D02*
X134722993Y-30437028D01*
X132937279Y-31937028D02*
X133437279Y-31222742D01*
X133794422Y-31937028D02*
X133794422Y-30437028D01*
X133794422Y-30437028D02*
X133222993Y-30437028D01*
X133222993Y-30437028D02*
X133080136Y-30508457D01*
X133080136Y-30508457D02*
X133008707Y-30579885D01*
X133008707Y-30579885D02*
X132937279Y-30722742D01*
X132937279Y-30722742D02*
X132937279Y-30937028D01*
X132937279Y-30937028D02*
X133008707Y-31079885D01*
X133008707Y-31079885D02*
X133080136Y-31151314D01*
X133080136Y-31151314D02*
X133222993Y-31222742D01*
X133222993Y-31222742D02*
X133794422Y-31222742D01*
X132294422Y-31937028D02*
X132294422Y-30437028D01*
X131722993Y-30437028D02*
X130722993Y-31937028D01*
X130722993Y-30437028D02*
X131722993Y-31937028D01*
X128508708Y-31151314D02*
X128294422Y-31222742D01*
X128294422Y-31222742D02*
X128222993Y-31294171D01*
X128222993Y-31294171D02*
X128151565Y-31437028D01*
X128151565Y-31437028D02*
X128151565Y-31651314D01*
X128151565Y-31651314D02*
X128222993Y-31794171D01*
X128222993Y-31794171D02*
X128294422Y-31865600D01*
X128294422Y-31865600D02*
X128437279Y-31937028D01*
X128437279Y-31937028D02*
X129008708Y-31937028D01*
X129008708Y-31937028D02*
X129008708Y-30437028D01*
X129008708Y-30437028D02*
X128508708Y-30437028D01*
X128508708Y-30437028D02*
X128365851Y-30508457D01*
X128365851Y-30508457D02*
X128294422Y-30579885D01*
X128294422Y-30579885D02*
X128222993Y-30722742D01*
X128222993Y-30722742D02*
X128222993Y-30865600D01*
X128222993Y-30865600D02*
X128294422Y-31008457D01*
X128294422Y-31008457D02*
X128365851Y-31079885D01*
X128365851Y-31079885D02*
X128508708Y-31151314D01*
X128508708Y-31151314D02*
X129008708Y-31151314D01*
X127508708Y-30437028D02*
X127508708Y-31651314D01*
X127508708Y-31651314D02*
X127437279Y-31794171D01*
X127437279Y-31794171D02*
X127365851Y-31865600D01*
X127365851Y-31865600D02*
X127222993Y-31937028D01*
X127222993Y-31937028D02*
X126937279Y-31937028D01*
X126937279Y-31937028D02*
X126794422Y-31865600D01*
X126794422Y-31865600D02*
X126722993Y-31794171D01*
X126722993Y-31794171D02*
X126651565Y-31651314D01*
X126651565Y-31651314D02*
X126651565Y-30437028D01*
X125937279Y-31937028D02*
X125937279Y-30437028D01*
X125937279Y-30437028D02*
X125580136Y-30437028D01*
X125580136Y-30437028D02*
X125365850Y-30508457D01*
X125365850Y-30508457D02*
X125222993Y-30651314D01*
X125222993Y-30651314D02*
X125151564Y-30794171D01*
X125151564Y-30794171D02*
X125080136Y-31079885D01*
X125080136Y-31079885D02*
X125080136Y-31294171D01*
X125080136Y-31294171D02*
X125151564Y-31579885D01*
X125151564Y-31579885D02*
X125222993Y-31722742D01*
X125222993Y-31722742D02*
X125365850Y-31865600D01*
X125365850Y-31865600D02*
X125580136Y-31937028D01*
X125580136Y-31937028D02*
X125937279Y-31937028D01*
X124437279Y-31937028D02*
X124437279Y-30437028D01*
X124437279Y-30437028D02*
X124080136Y-30437028D01*
X124080136Y-30437028D02*
X123865850Y-30508457D01*
X123865850Y-30508457D02*
X123722993Y-30651314D01*
X123722993Y-30651314D02*
X123651564Y-30794171D01*
X123651564Y-30794171D02*
X123580136Y-31079885D01*
X123580136Y-31079885D02*
X123580136Y-31294171D01*
X123580136Y-31294171D02*
X123651564Y-31579885D01*
X123651564Y-31579885D02*
X123722993Y-31722742D01*
X123722993Y-31722742D02*
X123865850Y-31865600D01*
X123865850Y-31865600D02*
X124080136Y-31937028D01*
X124080136Y-31937028D02*
X124437279Y-31937028D01*
X122651564Y-31222742D02*
X122651564Y-31937028D01*
X123151564Y-30437028D02*
X122651564Y-31222742D01*
X122651564Y-31222742D02*
X122151564Y-30437028D01*
X120722993Y-30437028D02*
X120222993Y-31937028D01*
X120222993Y-31937028D02*
X119722993Y-30437028D01*
X119294422Y-30579885D02*
X119222994Y-30508457D01*
X119222994Y-30508457D02*
X119080137Y-30437028D01*
X119080137Y-30437028D02*
X118722994Y-30437028D01*
X118722994Y-30437028D02*
X118580137Y-30508457D01*
X118580137Y-30508457D02*
X118508708Y-30579885D01*
X118508708Y-30579885D02*
X118437279Y-30722742D01*
X118437279Y-30722742D02*
X118437279Y-30865600D01*
X118437279Y-30865600D02*
X118508708Y-31079885D01*
X118508708Y-31079885D02*
X119365851Y-31937028D01*
X119365851Y-31937028D02*
X118437279Y-31937028D01*
X117794423Y-31794171D02*
X117722994Y-31865600D01*
X117722994Y-31865600D02*
X117794423Y-31937028D01*
X117794423Y-31937028D02*
X117865851Y-31865600D01*
X117865851Y-31865600D02*
X117794423Y-31794171D01*
X117794423Y-31794171D02*
X117794423Y-31937028D01*
X116794422Y-30437028D02*
X116651565Y-30437028D01*
X116651565Y-30437028D02*
X116508708Y-30508457D01*
X116508708Y-30508457D02*
X116437280Y-30579885D01*
X116437280Y-30579885D02*
X116365851Y-30722742D01*
X116365851Y-30722742D02*
X116294422Y-31008457D01*
X116294422Y-31008457D02*
X116294422Y-31365600D01*
X116294422Y-31365600D02*
X116365851Y-31651314D01*
X116365851Y-31651314D02*
X116437280Y-31794171D01*
X116437280Y-31794171D02*
X116508708Y-31865600D01*
X116508708Y-31865600D02*
X116651565Y-31937028D01*
X116651565Y-31937028D02*
X116794422Y-31937028D01*
X116794422Y-31937028D02*
X116937280Y-31865600D01*
X116937280Y-31865600D02*
X117008708Y-31794171D01*
X117008708Y-31794171D02*
X117080137Y-31651314D01*
X117080137Y-31651314D02*
X117151565Y-31365600D01*
X117151565Y-31365600D02*
X117151565Y-31008457D01*
X117151565Y-31008457D02*
X117080137Y-30722742D01*
X117080137Y-30722742D02*
X117008708Y-30579885D01*
X117008708Y-30579885D02*
X116937280Y-30508457D01*
X116937280Y-30508457D02*
X116794422Y-30437028D01*
X137937279Y-34352028D02*
X137937279Y-32852028D01*
X137937279Y-32852028D02*
X137580136Y-32852028D01*
X137580136Y-32852028D02*
X137365850Y-32923457D01*
X137365850Y-32923457D02*
X137222993Y-33066314D01*
X137222993Y-33066314D02*
X137151564Y-33209171D01*
X137151564Y-33209171D02*
X137080136Y-33494885D01*
X137080136Y-33494885D02*
X137080136Y-33709171D01*
X137080136Y-33709171D02*
X137151564Y-33994885D01*
X137151564Y-33994885D02*
X137222993Y-34137742D01*
X137222993Y-34137742D02*
X137365850Y-34280600D01*
X137365850Y-34280600D02*
X137580136Y-34352028D01*
X137580136Y-34352028D02*
X137937279Y-34352028D01*
X136437279Y-33566314D02*
X135937279Y-33566314D01*
X135722993Y-34352028D02*
X136437279Y-34352028D01*
X136437279Y-34352028D02*
X136437279Y-32852028D01*
X136437279Y-32852028D02*
X135722993Y-32852028D01*
X135151564Y-34280600D02*
X134937279Y-34352028D01*
X134937279Y-34352028D02*
X134580136Y-34352028D01*
X134580136Y-34352028D02*
X134437279Y-34280600D01*
X134437279Y-34280600D02*
X134365850Y-34209171D01*
X134365850Y-34209171D02*
X134294421Y-34066314D01*
X134294421Y-34066314D02*
X134294421Y-33923457D01*
X134294421Y-33923457D02*
X134365850Y-33780600D01*
X134365850Y-33780600D02*
X134437279Y-33709171D01*
X134437279Y-33709171D02*
X134580136Y-33637742D01*
X134580136Y-33637742D02*
X134865850Y-33566314D01*
X134865850Y-33566314D02*
X135008707Y-33494885D01*
X135008707Y-33494885D02*
X135080136Y-33423457D01*
X135080136Y-33423457D02*
X135151564Y-33280600D01*
X135151564Y-33280600D02*
X135151564Y-33137742D01*
X135151564Y-33137742D02*
X135080136Y-32994885D01*
X135080136Y-32994885D02*
X135008707Y-32923457D01*
X135008707Y-32923457D02*
X134865850Y-32852028D01*
X134865850Y-32852028D02*
X134508707Y-32852028D01*
X134508707Y-32852028D02*
X134294421Y-32923457D01*
X133651565Y-34352028D02*
X133651565Y-32852028D01*
X132151564Y-32923457D02*
X132294422Y-32852028D01*
X132294422Y-32852028D02*
X132508707Y-32852028D01*
X132508707Y-32852028D02*
X132722993Y-32923457D01*
X132722993Y-32923457D02*
X132865850Y-33066314D01*
X132865850Y-33066314D02*
X132937279Y-33209171D01*
X132937279Y-33209171D02*
X133008707Y-33494885D01*
X133008707Y-33494885D02*
X133008707Y-33709171D01*
X133008707Y-33709171D02*
X132937279Y-33994885D01*
X132937279Y-33994885D02*
X132865850Y-34137742D01*
X132865850Y-34137742D02*
X132722993Y-34280600D01*
X132722993Y-34280600D02*
X132508707Y-34352028D01*
X132508707Y-34352028D02*
X132365850Y-34352028D01*
X132365850Y-34352028D02*
X132151564Y-34280600D01*
X132151564Y-34280600D02*
X132080136Y-34209171D01*
X132080136Y-34209171D02*
X132080136Y-33709171D01*
X132080136Y-33709171D02*
X132365850Y-33709171D01*
X131437279Y-34352028D02*
X131437279Y-32852028D01*
X131437279Y-32852028D02*
X130580136Y-34352028D01*
X130580136Y-34352028D02*
X130580136Y-32852028D01*
X129865850Y-33566314D02*
X129365850Y-33566314D01*
X129151564Y-34352028D02*
X129865850Y-34352028D01*
X129865850Y-34352028D02*
X129865850Y-32852028D01*
X129865850Y-32852028D02*
X129151564Y-32852028D01*
X128508707Y-34352028D02*
X128508707Y-32852028D01*
X128508707Y-32852028D02*
X128151564Y-32852028D01*
X128151564Y-32852028D02*
X127937278Y-32923457D01*
X127937278Y-32923457D02*
X127794421Y-33066314D01*
X127794421Y-33066314D02*
X127722992Y-33209171D01*
X127722992Y-33209171D02*
X127651564Y-33494885D01*
X127651564Y-33494885D02*
X127651564Y-33709171D01*
X127651564Y-33709171D02*
X127722992Y-33994885D01*
X127722992Y-33994885D02*
X127794421Y-34137742D01*
X127794421Y-34137742D02*
X127937278Y-34280600D01*
X127937278Y-34280600D02*
X128151564Y-34352028D01*
X128151564Y-34352028D02*
X128508707Y-34352028D01*
X125365850Y-33566314D02*
X125151564Y-33637742D01*
X125151564Y-33637742D02*
X125080135Y-33709171D01*
X125080135Y-33709171D02*
X125008707Y-33852028D01*
X125008707Y-33852028D02*
X125008707Y-34066314D01*
X125008707Y-34066314D02*
X125080135Y-34209171D01*
X125080135Y-34209171D02*
X125151564Y-34280600D01*
X125151564Y-34280600D02*
X125294421Y-34352028D01*
X125294421Y-34352028D02*
X125865850Y-34352028D01*
X125865850Y-34352028D02*
X125865850Y-32852028D01*
X125865850Y-32852028D02*
X125365850Y-32852028D01*
X125365850Y-32852028D02*
X125222993Y-32923457D01*
X125222993Y-32923457D02*
X125151564Y-32994885D01*
X125151564Y-32994885D02*
X125080135Y-33137742D01*
X125080135Y-33137742D02*
X125080135Y-33280600D01*
X125080135Y-33280600D02*
X125151564Y-33423457D01*
X125151564Y-33423457D02*
X125222993Y-33494885D01*
X125222993Y-33494885D02*
X125365850Y-33566314D01*
X125365850Y-33566314D02*
X125865850Y-33566314D01*
X124080135Y-33637742D02*
X124080135Y-34352028D01*
X124580135Y-32852028D02*
X124080135Y-33637742D01*
X124080135Y-33637742D02*
X123580135Y-32852028D01*
X121437279Y-33566314D02*
X121222993Y-33637742D01*
X121222993Y-33637742D02*
X121151564Y-33709171D01*
X121151564Y-33709171D02*
X121080136Y-33852028D01*
X121080136Y-33852028D02*
X121080136Y-34066314D01*
X121080136Y-34066314D02*
X121151564Y-34209171D01*
X121151564Y-34209171D02*
X121222993Y-34280600D01*
X121222993Y-34280600D02*
X121365850Y-34352028D01*
X121365850Y-34352028D02*
X121937279Y-34352028D01*
X121937279Y-34352028D02*
X121937279Y-32852028D01*
X121937279Y-32852028D02*
X121437279Y-32852028D01*
X121437279Y-32852028D02*
X121294422Y-32923457D01*
X121294422Y-32923457D02*
X121222993Y-32994885D01*
X121222993Y-32994885D02*
X121151564Y-33137742D01*
X121151564Y-33137742D02*
X121151564Y-33280600D01*
X121151564Y-33280600D02*
X121222993Y-33423457D01*
X121222993Y-33423457D02*
X121294422Y-33494885D01*
X121294422Y-33494885D02*
X121437279Y-33566314D01*
X121437279Y-33566314D02*
X121937279Y-33566314D01*
X120508707Y-33923457D02*
X119794422Y-33923457D01*
X120651564Y-34352028D02*
X120151564Y-32852028D01*
X120151564Y-32852028D02*
X119651564Y-34352028D01*
X119151565Y-34352028D02*
X119151565Y-32852028D01*
X119151565Y-32852028D02*
X118794422Y-32852028D01*
X118794422Y-32852028D02*
X118580136Y-32923457D01*
X118580136Y-32923457D02*
X118437279Y-33066314D01*
X118437279Y-33066314D02*
X118365850Y-33209171D01*
X118365850Y-33209171D02*
X118294422Y-33494885D01*
X118294422Y-33494885D02*
X118294422Y-33709171D01*
X118294422Y-33709171D02*
X118365850Y-33994885D01*
X118365850Y-33994885D02*
X118437279Y-34137742D01*
X118437279Y-34137742D02*
X118580136Y-34280600D01*
X118580136Y-34280600D02*
X118794422Y-34352028D01*
X118794422Y-34352028D02*
X119151565Y-34352028D01*
X116794422Y-34352028D02*
X117294422Y-33637742D01*
X117651565Y-34352028D02*
X117651565Y-32852028D01*
X117651565Y-32852028D02*
X117080136Y-32852028D01*
X117080136Y-32852028D02*
X116937279Y-32923457D01*
X116937279Y-32923457D02*
X116865850Y-32994885D01*
X116865850Y-32994885D02*
X116794422Y-33137742D01*
X116794422Y-33137742D02*
X116794422Y-33352028D01*
X116794422Y-33352028D02*
X116865850Y-33494885D01*
X116865850Y-33494885D02*
X116937279Y-33566314D01*
X116937279Y-33566314D02*
X117080136Y-33637742D01*
X117080136Y-33637742D02*
X117651565Y-33637742D01*
X116222993Y-33923457D02*
X115508708Y-33923457D01*
X116365850Y-34352028D02*
X115865850Y-32852028D01*
X115865850Y-32852028D02*
X115365850Y-34352028D01*
X114865851Y-34352028D02*
X114865851Y-32852028D01*
X114865851Y-32852028D02*
X114365851Y-33923457D01*
X114365851Y-33923457D02*
X113865851Y-32852028D01*
X113865851Y-32852028D02*
X113865851Y-34352028D01*
D10*
X133517220Y-88177819D02*
X133517220Y-87177819D01*
X133517220Y-87177819D02*
X133183887Y-87892104D01*
X133183887Y-87892104D02*
X132850554Y-87177819D01*
X132850554Y-87177819D02*
X132850554Y-88177819D01*
X132421982Y-87892104D02*
X131945792Y-87892104D01*
X132517220Y-88177819D02*
X132183887Y-87177819D01*
X132183887Y-87177819D02*
X131850554Y-88177819D01*
X131660077Y-87177819D02*
X131088649Y-87177819D01*
X131374363Y-88177819D02*
X131374363Y-87177819D01*
X130183887Y-88177819D02*
X130517220Y-87701628D01*
X130755315Y-88177819D02*
X130755315Y-87177819D01*
X130755315Y-87177819D02*
X130374363Y-87177819D01*
X130374363Y-87177819D02*
X130279125Y-87225438D01*
X130279125Y-87225438D02*
X130231506Y-87273057D01*
X130231506Y-87273057D02*
X130183887Y-87368295D01*
X130183887Y-87368295D02*
X130183887Y-87511152D01*
X130183887Y-87511152D02*
X130231506Y-87606390D01*
X130231506Y-87606390D02*
X130279125Y-87654009D01*
X130279125Y-87654009D02*
X130374363Y-87701628D01*
X130374363Y-87701628D02*
X130755315Y-87701628D01*
X129755315Y-88177819D02*
X129755315Y-87177819D01*
X129374363Y-87177819D02*
X128707697Y-88177819D01*
X128707697Y-87177819D02*
X129374363Y-88177819D01*
X127231506Y-87654009D02*
X127088649Y-87701628D01*
X127088649Y-87701628D02*
X127041030Y-87749247D01*
X127041030Y-87749247D02*
X126993411Y-87844485D01*
X126993411Y-87844485D02*
X126993411Y-87987342D01*
X126993411Y-87987342D02*
X127041030Y-88082580D01*
X127041030Y-88082580D02*
X127088649Y-88130200D01*
X127088649Y-88130200D02*
X127183887Y-88177819D01*
X127183887Y-88177819D02*
X127564839Y-88177819D01*
X127564839Y-88177819D02*
X127564839Y-87177819D01*
X127564839Y-87177819D02*
X127231506Y-87177819D01*
X127231506Y-87177819D02*
X127136268Y-87225438D01*
X127136268Y-87225438D02*
X127088649Y-87273057D01*
X127088649Y-87273057D02*
X127041030Y-87368295D01*
X127041030Y-87368295D02*
X127041030Y-87463533D01*
X127041030Y-87463533D02*
X127088649Y-87558771D01*
X127088649Y-87558771D02*
X127136268Y-87606390D01*
X127136268Y-87606390D02*
X127231506Y-87654009D01*
X127231506Y-87654009D02*
X127564839Y-87654009D01*
X126564839Y-87177819D02*
X126564839Y-87987342D01*
X126564839Y-87987342D02*
X126517220Y-88082580D01*
X126517220Y-88082580D02*
X126469601Y-88130200D01*
X126469601Y-88130200D02*
X126374363Y-88177819D01*
X126374363Y-88177819D02*
X126183887Y-88177819D01*
X126183887Y-88177819D02*
X126088649Y-88130200D01*
X126088649Y-88130200D02*
X126041030Y-88082580D01*
X126041030Y-88082580D02*
X125993411Y-87987342D01*
X125993411Y-87987342D02*
X125993411Y-87177819D01*
X125517220Y-88177819D02*
X125517220Y-87177819D01*
X125517220Y-87177819D02*
X125279125Y-87177819D01*
X125279125Y-87177819D02*
X125136268Y-87225438D01*
X125136268Y-87225438D02*
X125041030Y-87320676D01*
X125041030Y-87320676D02*
X124993411Y-87415914D01*
X124993411Y-87415914D02*
X124945792Y-87606390D01*
X124945792Y-87606390D02*
X124945792Y-87749247D01*
X124945792Y-87749247D02*
X124993411Y-87939723D01*
X124993411Y-87939723D02*
X125041030Y-88034961D01*
X125041030Y-88034961D02*
X125136268Y-88130200D01*
X125136268Y-88130200D02*
X125279125Y-88177819D01*
X125279125Y-88177819D02*
X125517220Y-88177819D01*
X124517220Y-88177819D02*
X124517220Y-87177819D01*
X124517220Y-87177819D02*
X124279125Y-87177819D01*
X124279125Y-87177819D02*
X124136268Y-87225438D01*
X124136268Y-87225438D02*
X124041030Y-87320676D01*
X124041030Y-87320676D02*
X123993411Y-87415914D01*
X123993411Y-87415914D02*
X123945792Y-87606390D01*
X123945792Y-87606390D02*
X123945792Y-87749247D01*
X123945792Y-87749247D02*
X123993411Y-87939723D01*
X123993411Y-87939723D02*
X124041030Y-88034961D01*
X124041030Y-88034961D02*
X124136268Y-88130200D01*
X124136268Y-88130200D02*
X124279125Y-88177819D01*
X124279125Y-88177819D02*
X124517220Y-88177819D01*
X123326744Y-87701628D02*
X123326744Y-88177819D01*
X123660077Y-87177819D02*
X123326744Y-87701628D01*
X123326744Y-87701628D02*
X122993411Y-87177819D01*
X122041029Y-87177819D02*
X121707696Y-88177819D01*
X121707696Y-88177819D02*
X121374363Y-87177819D01*
X121088648Y-87273057D02*
X121041029Y-87225438D01*
X121041029Y-87225438D02*
X120945791Y-87177819D01*
X120945791Y-87177819D02*
X120707696Y-87177819D01*
X120707696Y-87177819D02*
X120612458Y-87225438D01*
X120612458Y-87225438D02*
X120564839Y-87273057D01*
X120564839Y-87273057D02*
X120517220Y-87368295D01*
X120517220Y-87368295D02*
X120517220Y-87463533D01*
X120517220Y-87463533D02*
X120564839Y-87606390D01*
X120564839Y-87606390D02*
X121136267Y-88177819D01*
X121136267Y-88177819D02*
X120517220Y-88177819D01*
X120088648Y-88082580D02*
X120041029Y-88130200D01*
X120041029Y-88130200D02*
X120088648Y-88177819D01*
X120088648Y-88177819D02*
X120136267Y-88130200D01*
X120136267Y-88130200D02*
X120088648Y-88082580D01*
X120088648Y-88082580D02*
X120088648Y-88177819D01*
X119421982Y-87177819D02*
X119326744Y-87177819D01*
X119326744Y-87177819D02*
X119231506Y-87225438D01*
X119231506Y-87225438D02*
X119183887Y-87273057D01*
X119183887Y-87273057D02*
X119136268Y-87368295D01*
X119136268Y-87368295D02*
X119088649Y-87558771D01*
X119088649Y-87558771D02*
X119088649Y-87796866D01*
X119088649Y-87796866D02*
X119136268Y-87987342D01*
X119136268Y-87987342D02*
X119183887Y-88082580D01*
X119183887Y-88082580D02*
X119231506Y-88130200D01*
X119231506Y-88130200D02*
X119326744Y-88177819D01*
X119326744Y-88177819D02*
X119421982Y-88177819D01*
X119421982Y-88177819D02*
X119517220Y-88130200D01*
X119517220Y-88130200D02*
X119564839Y-88082580D01*
X119564839Y-88082580D02*
X119612458Y-87987342D01*
X119612458Y-87987342D02*
X119660077Y-87796866D01*
X119660077Y-87796866D02*
X119660077Y-87558771D01*
X119660077Y-87558771D02*
X119612458Y-87368295D01*
X119612458Y-87368295D02*
X119564839Y-87273057D01*
X119564839Y-87273057D02*
X119517220Y-87225438D01*
X119517220Y-87225438D02*
X119421982Y-87177819D01*
X133517220Y-89787819D02*
X133517220Y-88787819D01*
X133517220Y-88787819D02*
X133279125Y-88787819D01*
X133279125Y-88787819D02*
X133136268Y-88835438D01*
X133136268Y-88835438D02*
X133041030Y-88930676D01*
X133041030Y-88930676D02*
X132993411Y-89025914D01*
X132993411Y-89025914D02*
X132945792Y-89216390D01*
X132945792Y-89216390D02*
X132945792Y-89359247D01*
X132945792Y-89359247D02*
X132993411Y-89549723D01*
X132993411Y-89549723D02*
X133041030Y-89644961D01*
X133041030Y-89644961D02*
X133136268Y-89740200D01*
X133136268Y-89740200D02*
X133279125Y-89787819D01*
X133279125Y-89787819D02*
X133517220Y-89787819D01*
X132517220Y-89264009D02*
X132183887Y-89264009D01*
X132041030Y-89787819D02*
X132517220Y-89787819D01*
X132517220Y-89787819D02*
X132517220Y-88787819D01*
X132517220Y-88787819D02*
X132041030Y-88787819D01*
X131660077Y-89740200D02*
X131517220Y-89787819D01*
X131517220Y-89787819D02*
X131279125Y-89787819D01*
X131279125Y-89787819D02*
X131183887Y-89740200D01*
X131183887Y-89740200D02*
X131136268Y-89692580D01*
X131136268Y-89692580D02*
X131088649Y-89597342D01*
X131088649Y-89597342D02*
X131088649Y-89502104D01*
X131088649Y-89502104D02*
X131136268Y-89406866D01*
X131136268Y-89406866D02*
X131183887Y-89359247D01*
X131183887Y-89359247D02*
X131279125Y-89311628D01*
X131279125Y-89311628D02*
X131469601Y-89264009D01*
X131469601Y-89264009D02*
X131564839Y-89216390D01*
X131564839Y-89216390D02*
X131612458Y-89168771D01*
X131612458Y-89168771D02*
X131660077Y-89073533D01*
X131660077Y-89073533D02*
X131660077Y-88978295D01*
X131660077Y-88978295D02*
X131612458Y-88883057D01*
X131612458Y-88883057D02*
X131564839Y-88835438D01*
X131564839Y-88835438D02*
X131469601Y-88787819D01*
X131469601Y-88787819D02*
X131231506Y-88787819D01*
X131231506Y-88787819D02*
X131088649Y-88835438D01*
X130660077Y-89787819D02*
X130660077Y-88787819D01*
X129660078Y-88835438D02*
X129755316Y-88787819D01*
X129755316Y-88787819D02*
X129898173Y-88787819D01*
X129898173Y-88787819D02*
X130041030Y-88835438D01*
X130041030Y-88835438D02*
X130136268Y-88930676D01*
X130136268Y-88930676D02*
X130183887Y-89025914D01*
X130183887Y-89025914D02*
X130231506Y-89216390D01*
X130231506Y-89216390D02*
X130231506Y-89359247D01*
X130231506Y-89359247D02*
X130183887Y-89549723D01*
X130183887Y-89549723D02*
X130136268Y-89644961D01*
X130136268Y-89644961D02*
X130041030Y-89740200D01*
X130041030Y-89740200D02*
X129898173Y-89787819D01*
X129898173Y-89787819D02*
X129802935Y-89787819D01*
X129802935Y-89787819D02*
X129660078Y-89740200D01*
X129660078Y-89740200D02*
X129612459Y-89692580D01*
X129612459Y-89692580D02*
X129612459Y-89359247D01*
X129612459Y-89359247D02*
X129802935Y-89359247D01*
X129183887Y-89787819D02*
X129183887Y-88787819D01*
X129183887Y-88787819D02*
X128612459Y-89787819D01*
X128612459Y-89787819D02*
X128612459Y-88787819D01*
X128136268Y-89264009D02*
X127802935Y-89264009D01*
X127660078Y-89787819D02*
X128136268Y-89787819D01*
X128136268Y-89787819D02*
X128136268Y-88787819D01*
X128136268Y-88787819D02*
X127660078Y-88787819D01*
X127231506Y-89787819D02*
X127231506Y-88787819D01*
X127231506Y-88787819D02*
X126993411Y-88787819D01*
X126993411Y-88787819D02*
X126850554Y-88835438D01*
X126850554Y-88835438D02*
X126755316Y-88930676D01*
X126755316Y-88930676D02*
X126707697Y-89025914D01*
X126707697Y-89025914D02*
X126660078Y-89216390D01*
X126660078Y-89216390D02*
X126660078Y-89359247D01*
X126660078Y-89359247D02*
X126707697Y-89549723D01*
X126707697Y-89549723D02*
X126755316Y-89644961D01*
X126755316Y-89644961D02*
X126850554Y-89740200D01*
X126850554Y-89740200D02*
X126993411Y-89787819D01*
X126993411Y-89787819D02*
X127231506Y-89787819D01*
X125136268Y-89264009D02*
X124993411Y-89311628D01*
X124993411Y-89311628D02*
X124945792Y-89359247D01*
X124945792Y-89359247D02*
X124898173Y-89454485D01*
X124898173Y-89454485D02*
X124898173Y-89597342D01*
X124898173Y-89597342D02*
X124945792Y-89692580D01*
X124945792Y-89692580D02*
X124993411Y-89740200D01*
X124993411Y-89740200D02*
X125088649Y-89787819D01*
X125088649Y-89787819D02*
X125469601Y-89787819D01*
X125469601Y-89787819D02*
X125469601Y-88787819D01*
X125469601Y-88787819D02*
X125136268Y-88787819D01*
X125136268Y-88787819D02*
X125041030Y-88835438D01*
X125041030Y-88835438D02*
X124993411Y-88883057D01*
X124993411Y-88883057D02*
X124945792Y-88978295D01*
X124945792Y-88978295D02*
X124945792Y-89073533D01*
X124945792Y-89073533D02*
X124993411Y-89168771D01*
X124993411Y-89168771D02*
X125041030Y-89216390D01*
X125041030Y-89216390D02*
X125136268Y-89264009D01*
X125136268Y-89264009D02*
X125469601Y-89264009D01*
X124279125Y-89311628D02*
X124279125Y-89787819D01*
X124612458Y-88787819D02*
X124279125Y-89311628D01*
X124279125Y-89311628D02*
X123945792Y-88787819D01*
X122517220Y-89264009D02*
X122374363Y-89311628D01*
X122374363Y-89311628D02*
X122326744Y-89359247D01*
X122326744Y-89359247D02*
X122279125Y-89454485D01*
X122279125Y-89454485D02*
X122279125Y-89597342D01*
X122279125Y-89597342D02*
X122326744Y-89692580D01*
X122326744Y-89692580D02*
X122374363Y-89740200D01*
X122374363Y-89740200D02*
X122469601Y-89787819D01*
X122469601Y-89787819D02*
X122850553Y-89787819D01*
X122850553Y-89787819D02*
X122850553Y-88787819D01*
X122850553Y-88787819D02*
X122517220Y-88787819D01*
X122517220Y-88787819D02*
X122421982Y-88835438D01*
X122421982Y-88835438D02*
X122374363Y-88883057D01*
X122374363Y-88883057D02*
X122326744Y-88978295D01*
X122326744Y-88978295D02*
X122326744Y-89073533D01*
X122326744Y-89073533D02*
X122374363Y-89168771D01*
X122374363Y-89168771D02*
X122421982Y-89216390D01*
X122421982Y-89216390D02*
X122517220Y-89264009D01*
X122517220Y-89264009D02*
X122850553Y-89264009D01*
X121898172Y-89502104D02*
X121421982Y-89502104D01*
X121993410Y-89787819D02*
X121660077Y-88787819D01*
X121660077Y-88787819D02*
X121326744Y-89787819D01*
X120993410Y-89787819D02*
X120993410Y-88787819D01*
X120993410Y-88787819D02*
X120755315Y-88787819D01*
X120755315Y-88787819D02*
X120612458Y-88835438D01*
X120612458Y-88835438D02*
X120517220Y-88930676D01*
X120517220Y-88930676D02*
X120469601Y-89025914D01*
X120469601Y-89025914D02*
X120421982Y-89216390D01*
X120421982Y-89216390D02*
X120421982Y-89359247D01*
X120421982Y-89359247D02*
X120469601Y-89549723D01*
X120469601Y-89549723D02*
X120517220Y-89644961D01*
X120517220Y-89644961D02*
X120612458Y-89740200D01*
X120612458Y-89740200D02*
X120755315Y-89787819D01*
X120755315Y-89787819D02*
X120993410Y-89787819D01*
X119421982Y-89787819D02*
X119755315Y-89311628D01*
X119993410Y-89787819D02*
X119993410Y-88787819D01*
X119993410Y-88787819D02*
X119612458Y-88787819D01*
X119612458Y-88787819D02*
X119517220Y-88835438D01*
X119517220Y-88835438D02*
X119469601Y-88883057D01*
X119469601Y-88883057D02*
X119421982Y-88978295D01*
X119421982Y-88978295D02*
X119421982Y-89121152D01*
X119421982Y-89121152D02*
X119469601Y-89216390D01*
X119469601Y-89216390D02*
X119517220Y-89264009D01*
X119517220Y-89264009D02*
X119612458Y-89311628D01*
X119612458Y-89311628D02*
X119993410Y-89311628D01*
X119041029Y-89502104D02*
X118564839Y-89502104D01*
X119136267Y-89787819D02*
X118802934Y-88787819D01*
X118802934Y-88787819D02*
X118469601Y-89787819D01*
X118136267Y-89787819D02*
X118136267Y-88787819D01*
X118136267Y-88787819D02*
X117802934Y-89502104D01*
X117802934Y-89502104D02*
X117469601Y-88787819D01*
X117469601Y-88787819D02*
X117469601Y-89787819D01*
X167529580Y-76992458D02*
X167577200Y-76944839D01*
X167577200Y-76944839D02*
X167624819Y-76801982D01*
X167624819Y-76801982D02*
X167624819Y-76706744D01*
X167624819Y-76706744D02*
X167577200Y-76563887D01*
X167577200Y-76563887D02*
X167481961Y-76468649D01*
X167481961Y-76468649D02*
X167386723Y-76421030D01*
X167386723Y-76421030D02*
X167196247Y-76373411D01*
X167196247Y-76373411D02*
X167053390Y-76373411D01*
X167053390Y-76373411D02*
X166862914Y-76421030D01*
X166862914Y-76421030D02*
X166767676Y-76468649D01*
X166767676Y-76468649D02*
X166672438Y-76563887D01*
X166672438Y-76563887D02*
X166624819Y-76706744D01*
X166624819Y-76706744D02*
X166624819Y-76801982D01*
X166624819Y-76801982D02*
X166672438Y-76944839D01*
X166672438Y-76944839D02*
X166720057Y-76992458D01*
X167577200Y-77373411D02*
X167624819Y-77516268D01*
X167624819Y-77516268D02*
X167624819Y-77754363D01*
X167624819Y-77754363D02*
X167577200Y-77849601D01*
X167577200Y-77849601D02*
X167529580Y-77897220D01*
X167529580Y-77897220D02*
X167434342Y-77944839D01*
X167434342Y-77944839D02*
X167339104Y-77944839D01*
X167339104Y-77944839D02*
X167243866Y-77897220D01*
X167243866Y-77897220D02*
X167196247Y-77849601D01*
X167196247Y-77849601D02*
X167148628Y-77754363D01*
X167148628Y-77754363D02*
X167101009Y-77563887D01*
X167101009Y-77563887D02*
X167053390Y-77468649D01*
X167053390Y-77468649D02*
X167005771Y-77421030D01*
X167005771Y-77421030D02*
X166910533Y-77373411D01*
X166910533Y-77373411D02*
X166815295Y-77373411D01*
X166815295Y-77373411D02*
X166720057Y-77421030D01*
X166720057Y-77421030D02*
X166672438Y-77468649D01*
X166672438Y-77468649D02*
X166624819Y-77563887D01*
X166624819Y-77563887D02*
X166624819Y-77801982D01*
X166624819Y-77801982D02*
X166672438Y-77944839D01*
X179304819Y-58476077D02*
X179304819Y-57999887D01*
X179304819Y-57999887D02*
X179781009Y-57952268D01*
X179781009Y-57952268D02*
X179733390Y-57999887D01*
X179733390Y-57999887D02*
X179685771Y-58095125D01*
X179685771Y-58095125D02*
X179685771Y-58333220D01*
X179685771Y-58333220D02*
X179733390Y-58428458D01*
X179733390Y-58428458D02*
X179781009Y-58476077D01*
X179781009Y-58476077D02*
X179876247Y-58523696D01*
X179876247Y-58523696D02*
X180114342Y-58523696D01*
X180114342Y-58523696D02*
X180209580Y-58476077D01*
X180209580Y-58476077D02*
X180257200Y-58428458D01*
X180257200Y-58428458D02*
X180304819Y-58333220D01*
X180304819Y-58333220D02*
X180304819Y-58095125D01*
X180304819Y-58095125D02*
X180257200Y-57999887D01*
X180257200Y-57999887D02*
X180209580Y-57952268D01*
X179304819Y-58809411D02*
X180304819Y-59142744D01*
X180304819Y-59142744D02*
X179304819Y-59476077D01*
X178517220Y-88177819D02*
X178517220Y-87177819D01*
X178517220Y-87177819D02*
X178183887Y-87892104D01*
X178183887Y-87892104D02*
X177850554Y-87177819D01*
X177850554Y-87177819D02*
X177850554Y-88177819D01*
X177421982Y-87892104D02*
X176945792Y-87892104D01*
X177517220Y-88177819D02*
X177183887Y-87177819D01*
X177183887Y-87177819D02*
X176850554Y-88177819D01*
X176660077Y-87177819D02*
X176088649Y-87177819D01*
X176374363Y-88177819D02*
X176374363Y-87177819D01*
X175183887Y-88177819D02*
X175517220Y-87701628D01*
X175755315Y-88177819D02*
X175755315Y-87177819D01*
X175755315Y-87177819D02*
X175374363Y-87177819D01*
X175374363Y-87177819D02*
X175279125Y-87225438D01*
X175279125Y-87225438D02*
X175231506Y-87273057D01*
X175231506Y-87273057D02*
X175183887Y-87368295D01*
X175183887Y-87368295D02*
X175183887Y-87511152D01*
X175183887Y-87511152D02*
X175231506Y-87606390D01*
X175231506Y-87606390D02*
X175279125Y-87654009D01*
X175279125Y-87654009D02*
X175374363Y-87701628D01*
X175374363Y-87701628D02*
X175755315Y-87701628D01*
X174755315Y-88177819D02*
X174755315Y-87177819D01*
X174374363Y-87177819D02*
X173707697Y-88177819D01*
X173707697Y-87177819D02*
X174374363Y-88177819D01*
X172231506Y-87654009D02*
X172088649Y-87701628D01*
X172088649Y-87701628D02*
X172041030Y-87749247D01*
X172041030Y-87749247D02*
X171993411Y-87844485D01*
X171993411Y-87844485D02*
X171993411Y-87987342D01*
X171993411Y-87987342D02*
X172041030Y-88082580D01*
X172041030Y-88082580D02*
X172088649Y-88130200D01*
X172088649Y-88130200D02*
X172183887Y-88177819D01*
X172183887Y-88177819D02*
X172564839Y-88177819D01*
X172564839Y-88177819D02*
X172564839Y-87177819D01*
X172564839Y-87177819D02*
X172231506Y-87177819D01*
X172231506Y-87177819D02*
X172136268Y-87225438D01*
X172136268Y-87225438D02*
X172088649Y-87273057D01*
X172088649Y-87273057D02*
X172041030Y-87368295D01*
X172041030Y-87368295D02*
X172041030Y-87463533D01*
X172041030Y-87463533D02*
X172088649Y-87558771D01*
X172088649Y-87558771D02*
X172136268Y-87606390D01*
X172136268Y-87606390D02*
X172231506Y-87654009D01*
X172231506Y-87654009D02*
X172564839Y-87654009D01*
X171564839Y-87177819D02*
X171564839Y-87987342D01*
X171564839Y-87987342D02*
X171517220Y-88082580D01*
X171517220Y-88082580D02*
X171469601Y-88130200D01*
X171469601Y-88130200D02*
X171374363Y-88177819D01*
X171374363Y-88177819D02*
X171183887Y-88177819D01*
X171183887Y-88177819D02*
X171088649Y-88130200D01*
X171088649Y-88130200D02*
X171041030Y-88082580D01*
X171041030Y-88082580D02*
X170993411Y-87987342D01*
X170993411Y-87987342D02*
X170993411Y-87177819D01*
X170517220Y-88177819D02*
X170517220Y-87177819D01*
X170517220Y-87177819D02*
X170279125Y-87177819D01*
X170279125Y-87177819D02*
X170136268Y-87225438D01*
X170136268Y-87225438D02*
X170041030Y-87320676D01*
X170041030Y-87320676D02*
X169993411Y-87415914D01*
X169993411Y-87415914D02*
X169945792Y-87606390D01*
X169945792Y-87606390D02*
X169945792Y-87749247D01*
X169945792Y-87749247D02*
X169993411Y-87939723D01*
X169993411Y-87939723D02*
X170041030Y-88034961D01*
X170041030Y-88034961D02*
X170136268Y-88130200D01*
X170136268Y-88130200D02*
X170279125Y-88177819D01*
X170279125Y-88177819D02*
X170517220Y-88177819D01*
X169517220Y-88177819D02*
X169517220Y-87177819D01*
X169517220Y-87177819D02*
X169279125Y-87177819D01*
X169279125Y-87177819D02*
X169136268Y-87225438D01*
X169136268Y-87225438D02*
X169041030Y-87320676D01*
X169041030Y-87320676D02*
X168993411Y-87415914D01*
X168993411Y-87415914D02*
X168945792Y-87606390D01*
X168945792Y-87606390D02*
X168945792Y-87749247D01*
X168945792Y-87749247D02*
X168993411Y-87939723D01*
X168993411Y-87939723D02*
X169041030Y-88034961D01*
X169041030Y-88034961D02*
X169136268Y-88130200D01*
X169136268Y-88130200D02*
X169279125Y-88177819D01*
X169279125Y-88177819D02*
X169517220Y-88177819D01*
X168326744Y-87701628D02*
X168326744Y-88177819D01*
X168660077Y-87177819D02*
X168326744Y-87701628D01*
X168326744Y-87701628D02*
X167993411Y-87177819D01*
X167041029Y-87177819D02*
X166707696Y-88177819D01*
X166707696Y-88177819D02*
X166374363Y-87177819D01*
X166088648Y-87273057D02*
X166041029Y-87225438D01*
X166041029Y-87225438D02*
X165945791Y-87177819D01*
X165945791Y-87177819D02*
X165707696Y-87177819D01*
X165707696Y-87177819D02*
X165612458Y-87225438D01*
X165612458Y-87225438D02*
X165564839Y-87273057D01*
X165564839Y-87273057D02*
X165517220Y-87368295D01*
X165517220Y-87368295D02*
X165517220Y-87463533D01*
X165517220Y-87463533D02*
X165564839Y-87606390D01*
X165564839Y-87606390D02*
X166136267Y-88177819D01*
X166136267Y-88177819D02*
X165517220Y-88177819D01*
X165088648Y-88082580D02*
X165041029Y-88130200D01*
X165041029Y-88130200D02*
X165088648Y-88177819D01*
X165088648Y-88177819D02*
X165136267Y-88130200D01*
X165136267Y-88130200D02*
X165088648Y-88082580D01*
X165088648Y-88082580D02*
X165088648Y-88177819D01*
X164421982Y-87177819D02*
X164326744Y-87177819D01*
X164326744Y-87177819D02*
X164231506Y-87225438D01*
X164231506Y-87225438D02*
X164183887Y-87273057D01*
X164183887Y-87273057D02*
X164136268Y-87368295D01*
X164136268Y-87368295D02*
X164088649Y-87558771D01*
X164088649Y-87558771D02*
X164088649Y-87796866D01*
X164088649Y-87796866D02*
X164136268Y-87987342D01*
X164136268Y-87987342D02*
X164183887Y-88082580D01*
X164183887Y-88082580D02*
X164231506Y-88130200D01*
X164231506Y-88130200D02*
X164326744Y-88177819D01*
X164326744Y-88177819D02*
X164421982Y-88177819D01*
X164421982Y-88177819D02*
X164517220Y-88130200D01*
X164517220Y-88130200D02*
X164564839Y-88082580D01*
X164564839Y-88082580D02*
X164612458Y-87987342D01*
X164612458Y-87987342D02*
X164660077Y-87796866D01*
X164660077Y-87796866D02*
X164660077Y-87558771D01*
X164660077Y-87558771D02*
X164612458Y-87368295D01*
X164612458Y-87368295D02*
X164564839Y-87273057D01*
X164564839Y-87273057D02*
X164517220Y-87225438D01*
X164517220Y-87225438D02*
X164421982Y-87177819D01*
X178517220Y-89787819D02*
X178517220Y-88787819D01*
X178517220Y-88787819D02*
X178279125Y-88787819D01*
X178279125Y-88787819D02*
X178136268Y-88835438D01*
X178136268Y-88835438D02*
X178041030Y-88930676D01*
X178041030Y-88930676D02*
X177993411Y-89025914D01*
X177993411Y-89025914D02*
X177945792Y-89216390D01*
X177945792Y-89216390D02*
X177945792Y-89359247D01*
X177945792Y-89359247D02*
X177993411Y-89549723D01*
X177993411Y-89549723D02*
X178041030Y-89644961D01*
X178041030Y-89644961D02*
X178136268Y-89740200D01*
X178136268Y-89740200D02*
X178279125Y-89787819D01*
X178279125Y-89787819D02*
X178517220Y-89787819D01*
X177517220Y-89264009D02*
X177183887Y-89264009D01*
X177041030Y-89787819D02*
X177517220Y-89787819D01*
X177517220Y-89787819D02*
X177517220Y-88787819D01*
X177517220Y-88787819D02*
X177041030Y-88787819D01*
X176660077Y-89740200D02*
X176517220Y-89787819D01*
X176517220Y-89787819D02*
X176279125Y-89787819D01*
X176279125Y-89787819D02*
X176183887Y-89740200D01*
X176183887Y-89740200D02*
X176136268Y-89692580D01*
X176136268Y-89692580D02*
X176088649Y-89597342D01*
X176088649Y-89597342D02*
X176088649Y-89502104D01*
X176088649Y-89502104D02*
X176136268Y-89406866D01*
X176136268Y-89406866D02*
X176183887Y-89359247D01*
X176183887Y-89359247D02*
X176279125Y-89311628D01*
X176279125Y-89311628D02*
X176469601Y-89264009D01*
X176469601Y-89264009D02*
X176564839Y-89216390D01*
X176564839Y-89216390D02*
X176612458Y-89168771D01*
X176612458Y-89168771D02*
X176660077Y-89073533D01*
X176660077Y-89073533D02*
X176660077Y-88978295D01*
X176660077Y-88978295D02*
X176612458Y-88883057D01*
X176612458Y-88883057D02*
X176564839Y-88835438D01*
X176564839Y-88835438D02*
X176469601Y-88787819D01*
X176469601Y-88787819D02*
X176231506Y-88787819D01*
X176231506Y-88787819D02*
X176088649Y-88835438D01*
X175660077Y-89787819D02*
X175660077Y-88787819D01*
X174660078Y-88835438D02*
X174755316Y-88787819D01*
X174755316Y-88787819D02*
X174898173Y-88787819D01*
X174898173Y-88787819D02*
X175041030Y-88835438D01*
X175041030Y-88835438D02*
X175136268Y-88930676D01*
X175136268Y-88930676D02*
X175183887Y-89025914D01*
X175183887Y-89025914D02*
X175231506Y-89216390D01*
X175231506Y-89216390D02*
X175231506Y-89359247D01*
X175231506Y-89359247D02*
X175183887Y-89549723D01*
X175183887Y-89549723D02*
X175136268Y-89644961D01*
X175136268Y-89644961D02*
X175041030Y-89740200D01*
X175041030Y-89740200D02*
X174898173Y-89787819D01*
X174898173Y-89787819D02*
X174802935Y-89787819D01*
X174802935Y-89787819D02*
X174660078Y-89740200D01*
X174660078Y-89740200D02*
X174612459Y-89692580D01*
X174612459Y-89692580D02*
X174612459Y-89359247D01*
X174612459Y-89359247D02*
X174802935Y-89359247D01*
X174183887Y-89787819D02*
X174183887Y-88787819D01*
X174183887Y-88787819D02*
X173612459Y-89787819D01*
X173612459Y-89787819D02*
X173612459Y-88787819D01*
X173136268Y-89264009D02*
X172802935Y-89264009D01*
X172660078Y-89787819D02*
X173136268Y-89787819D01*
X173136268Y-89787819D02*
X173136268Y-88787819D01*
X173136268Y-88787819D02*
X172660078Y-88787819D01*
X172231506Y-89787819D02*
X172231506Y-88787819D01*
X172231506Y-88787819D02*
X171993411Y-88787819D01*
X171993411Y-88787819D02*
X171850554Y-88835438D01*
X171850554Y-88835438D02*
X171755316Y-88930676D01*
X171755316Y-88930676D02*
X171707697Y-89025914D01*
X171707697Y-89025914D02*
X171660078Y-89216390D01*
X171660078Y-89216390D02*
X171660078Y-89359247D01*
X171660078Y-89359247D02*
X171707697Y-89549723D01*
X171707697Y-89549723D02*
X171755316Y-89644961D01*
X171755316Y-89644961D02*
X171850554Y-89740200D01*
X171850554Y-89740200D02*
X171993411Y-89787819D01*
X171993411Y-89787819D02*
X172231506Y-89787819D01*
X170136268Y-89264009D02*
X169993411Y-89311628D01*
X169993411Y-89311628D02*
X169945792Y-89359247D01*
X169945792Y-89359247D02*
X169898173Y-89454485D01*
X169898173Y-89454485D02*
X169898173Y-89597342D01*
X169898173Y-89597342D02*
X169945792Y-89692580D01*
X169945792Y-89692580D02*
X169993411Y-89740200D01*
X169993411Y-89740200D02*
X170088649Y-89787819D01*
X170088649Y-89787819D02*
X170469601Y-89787819D01*
X170469601Y-89787819D02*
X170469601Y-88787819D01*
X170469601Y-88787819D02*
X170136268Y-88787819D01*
X170136268Y-88787819D02*
X170041030Y-88835438D01*
X170041030Y-88835438D02*
X169993411Y-88883057D01*
X169993411Y-88883057D02*
X169945792Y-88978295D01*
X169945792Y-88978295D02*
X169945792Y-89073533D01*
X169945792Y-89073533D02*
X169993411Y-89168771D01*
X169993411Y-89168771D02*
X170041030Y-89216390D01*
X170041030Y-89216390D02*
X170136268Y-89264009D01*
X170136268Y-89264009D02*
X170469601Y-89264009D01*
X169279125Y-89311628D02*
X169279125Y-89787819D01*
X169612458Y-88787819D02*
X169279125Y-89311628D01*
X169279125Y-89311628D02*
X168945792Y-88787819D01*
X167517220Y-89264009D02*
X167374363Y-89311628D01*
X167374363Y-89311628D02*
X167326744Y-89359247D01*
X167326744Y-89359247D02*
X167279125Y-89454485D01*
X167279125Y-89454485D02*
X167279125Y-89597342D01*
X167279125Y-89597342D02*
X167326744Y-89692580D01*
X167326744Y-89692580D02*
X167374363Y-89740200D01*
X167374363Y-89740200D02*
X167469601Y-89787819D01*
X167469601Y-89787819D02*
X167850553Y-89787819D01*
X167850553Y-89787819D02*
X167850553Y-88787819D01*
X167850553Y-88787819D02*
X167517220Y-88787819D01*
X167517220Y-88787819D02*
X167421982Y-88835438D01*
X167421982Y-88835438D02*
X167374363Y-88883057D01*
X167374363Y-88883057D02*
X167326744Y-88978295D01*
X167326744Y-88978295D02*
X167326744Y-89073533D01*
X167326744Y-89073533D02*
X167374363Y-89168771D01*
X167374363Y-89168771D02*
X167421982Y-89216390D01*
X167421982Y-89216390D02*
X167517220Y-89264009D01*
X167517220Y-89264009D02*
X167850553Y-89264009D01*
X166898172Y-89502104D02*
X166421982Y-89502104D01*
X166993410Y-89787819D02*
X166660077Y-88787819D01*
X166660077Y-88787819D02*
X166326744Y-89787819D01*
X165993410Y-89787819D02*
X165993410Y-88787819D01*
X165993410Y-88787819D02*
X165755315Y-88787819D01*
X165755315Y-88787819D02*
X165612458Y-88835438D01*
X165612458Y-88835438D02*
X165517220Y-88930676D01*
X165517220Y-88930676D02*
X165469601Y-89025914D01*
X165469601Y-89025914D02*
X165421982Y-89216390D01*
X165421982Y-89216390D02*
X165421982Y-89359247D01*
X165421982Y-89359247D02*
X165469601Y-89549723D01*
X165469601Y-89549723D02*
X165517220Y-89644961D01*
X165517220Y-89644961D02*
X165612458Y-89740200D01*
X165612458Y-89740200D02*
X165755315Y-89787819D01*
X165755315Y-89787819D02*
X165993410Y-89787819D01*
X164421982Y-89787819D02*
X164755315Y-89311628D01*
X164993410Y-89787819D02*
X164993410Y-88787819D01*
X164993410Y-88787819D02*
X164612458Y-88787819D01*
X164612458Y-88787819D02*
X164517220Y-88835438D01*
X164517220Y-88835438D02*
X164469601Y-88883057D01*
X164469601Y-88883057D02*
X164421982Y-88978295D01*
X164421982Y-88978295D02*
X164421982Y-89121152D01*
X164421982Y-89121152D02*
X164469601Y-89216390D01*
X164469601Y-89216390D02*
X164517220Y-89264009D01*
X164517220Y-89264009D02*
X164612458Y-89311628D01*
X164612458Y-89311628D02*
X164993410Y-89311628D01*
X164041029Y-89502104D02*
X163564839Y-89502104D01*
X164136267Y-89787819D02*
X163802934Y-88787819D01*
X163802934Y-88787819D02*
X163469601Y-89787819D01*
X163136267Y-89787819D02*
X163136267Y-88787819D01*
X163136267Y-88787819D02*
X162802934Y-89502104D01*
X162802934Y-89502104D02*
X162469601Y-88787819D01*
X162469601Y-88787819D02*
X162469601Y-89787819D01*
X119541009Y-58190363D02*
X119588628Y-58333220D01*
X119588628Y-58333220D02*
X119636247Y-58380839D01*
X119636247Y-58380839D02*
X119731485Y-58428458D01*
X119731485Y-58428458D02*
X119874342Y-58428458D01*
X119874342Y-58428458D02*
X119969580Y-58380839D01*
X119969580Y-58380839D02*
X120017200Y-58333220D01*
X120017200Y-58333220D02*
X120064819Y-58237982D01*
X120064819Y-58237982D02*
X120064819Y-57857030D01*
X120064819Y-57857030D02*
X119064819Y-57857030D01*
X119064819Y-57857030D02*
X119064819Y-58190363D01*
X119064819Y-58190363D02*
X119112438Y-58285601D01*
X119112438Y-58285601D02*
X119160057Y-58333220D01*
X119160057Y-58333220D02*
X119255295Y-58380839D01*
X119255295Y-58380839D02*
X119350533Y-58380839D01*
X119350533Y-58380839D02*
X119445771Y-58333220D01*
X119445771Y-58333220D02*
X119493390Y-58285601D01*
X119493390Y-58285601D02*
X119541009Y-58190363D01*
X119541009Y-58190363D02*
X119541009Y-57857030D01*
X119160057Y-58809411D02*
X119112438Y-58857030D01*
X119112438Y-58857030D02*
X119064819Y-58952268D01*
X119064819Y-58952268D02*
X119064819Y-59190363D01*
X119064819Y-59190363D02*
X119112438Y-59285601D01*
X119112438Y-59285601D02*
X119160057Y-59333220D01*
X119160057Y-59333220D02*
X119255295Y-59380839D01*
X119255295Y-59380839D02*
X119350533Y-59380839D01*
X119350533Y-59380839D02*
X119493390Y-59333220D01*
X119493390Y-59333220D02*
X120064819Y-58761792D01*
X120064819Y-58761792D02*
X120064819Y-59380839D01*
X170117200Y-75373411D02*
X170164819Y-75516268D01*
X170164819Y-75516268D02*
X170164819Y-75754363D01*
X170164819Y-75754363D02*
X170117200Y-75849601D01*
X170117200Y-75849601D02*
X170069580Y-75897220D01*
X170069580Y-75897220D02*
X169974342Y-75944839D01*
X169974342Y-75944839D02*
X169879104Y-75944839D01*
X169879104Y-75944839D02*
X169783866Y-75897220D01*
X169783866Y-75897220D02*
X169736247Y-75849601D01*
X169736247Y-75849601D02*
X169688628Y-75754363D01*
X169688628Y-75754363D02*
X169641009Y-75563887D01*
X169641009Y-75563887D02*
X169593390Y-75468649D01*
X169593390Y-75468649D02*
X169545771Y-75421030D01*
X169545771Y-75421030D02*
X169450533Y-75373411D01*
X169450533Y-75373411D02*
X169355295Y-75373411D01*
X169355295Y-75373411D02*
X169260057Y-75421030D01*
X169260057Y-75421030D02*
X169212438Y-75468649D01*
X169212438Y-75468649D02*
X169164819Y-75563887D01*
X169164819Y-75563887D02*
X169164819Y-75801982D01*
X169164819Y-75801982D02*
X169212438Y-75944839D01*
X170069580Y-76944839D02*
X170117200Y-76897220D01*
X170117200Y-76897220D02*
X170164819Y-76754363D01*
X170164819Y-76754363D02*
X170164819Y-76659125D01*
X170164819Y-76659125D02*
X170117200Y-76516268D01*
X170117200Y-76516268D02*
X170021961Y-76421030D01*
X170021961Y-76421030D02*
X169926723Y-76373411D01*
X169926723Y-76373411D02*
X169736247Y-76325792D01*
X169736247Y-76325792D02*
X169593390Y-76325792D01*
X169593390Y-76325792D02*
X169402914Y-76373411D01*
X169402914Y-76373411D02*
X169307676Y-76421030D01*
X169307676Y-76421030D02*
X169212438Y-76516268D01*
X169212438Y-76516268D02*
X169164819Y-76659125D01*
X169164819Y-76659125D02*
X169164819Y-76754363D01*
X169164819Y-76754363D02*
X169212438Y-76897220D01*
X169212438Y-76897220D02*
X169260057Y-76944839D01*
X170164819Y-77373411D02*
X169164819Y-77373411D01*
X170164819Y-77944839D02*
X169593390Y-77516268D01*
X169164819Y-77944839D02*
X169736247Y-77373411D01*
X127637200Y-56809411D02*
X127684819Y-56952268D01*
X127684819Y-56952268D02*
X127684819Y-57190363D01*
X127684819Y-57190363D02*
X127637200Y-57285601D01*
X127637200Y-57285601D02*
X127589580Y-57333220D01*
X127589580Y-57333220D02*
X127494342Y-57380839D01*
X127494342Y-57380839D02*
X127399104Y-57380839D01*
X127399104Y-57380839D02*
X127303866Y-57333220D01*
X127303866Y-57333220D02*
X127256247Y-57285601D01*
X127256247Y-57285601D02*
X127208628Y-57190363D01*
X127208628Y-57190363D02*
X127161009Y-56999887D01*
X127161009Y-56999887D02*
X127113390Y-56904649D01*
X127113390Y-56904649D02*
X127065771Y-56857030D01*
X127065771Y-56857030D02*
X126970533Y-56809411D01*
X126970533Y-56809411D02*
X126875295Y-56809411D01*
X126875295Y-56809411D02*
X126780057Y-56857030D01*
X126780057Y-56857030D02*
X126732438Y-56904649D01*
X126732438Y-56904649D02*
X126684819Y-56999887D01*
X126684819Y-56999887D02*
X126684819Y-57237982D01*
X126684819Y-57237982D02*
X126732438Y-57380839D01*
X127589580Y-58380839D02*
X127637200Y-58333220D01*
X127637200Y-58333220D02*
X127684819Y-58190363D01*
X127684819Y-58190363D02*
X127684819Y-58095125D01*
X127684819Y-58095125D02*
X127637200Y-57952268D01*
X127637200Y-57952268D02*
X127541961Y-57857030D01*
X127541961Y-57857030D02*
X127446723Y-57809411D01*
X127446723Y-57809411D02*
X127256247Y-57761792D01*
X127256247Y-57761792D02*
X127113390Y-57761792D01*
X127113390Y-57761792D02*
X126922914Y-57809411D01*
X126922914Y-57809411D02*
X126827676Y-57857030D01*
X126827676Y-57857030D02*
X126732438Y-57952268D01*
X126732438Y-57952268D02*
X126684819Y-58095125D01*
X126684819Y-58095125D02*
X126684819Y-58190363D01*
X126684819Y-58190363D02*
X126732438Y-58333220D01*
X126732438Y-58333220D02*
X126780057Y-58380839D01*
X127684819Y-58809411D02*
X126684819Y-58809411D01*
X127684819Y-59380839D02*
X127113390Y-58952268D01*
X126684819Y-59380839D02*
X127256247Y-58809411D01*
X122081009Y-58190363D02*
X122128628Y-58333220D01*
X122128628Y-58333220D02*
X122176247Y-58380839D01*
X122176247Y-58380839D02*
X122271485Y-58428458D01*
X122271485Y-58428458D02*
X122414342Y-58428458D01*
X122414342Y-58428458D02*
X122509580Y-58380839D01*
X122509580Y-58380839D02*
X122557200Y-58333220D01*
X122557200Y-58333220D02*
X122604819Y-58237982D01*
X122604819Y-58237982D02*
X122604819Y-57857030D01*
X122604819Y-57857030D02*
X121604819Y-57857030D01*
X121604819Y-57857030D02*
X121604819Y-58190363D01*
X121604819Y-58190363D02*
X121652438Y-58285601D01*
X121652438Y-58285601D02*
X121700057Y-58333220D01*
X121700057Y-58333220D02*
X121795295Y-58380839D01*
X121795295Y-58380839D02*
X121890533Y-58380839D01*
X121890533Y-58380839D02*
X121985771Y-58333220D01*
X121985771Y-58333220D02*
X122033390Y-58285601D01*
X122033390Y-58285601D02*
X122081009Y-58190363D01*
X122081009Y-58190363D02*
X122081009Y-57857030D01*
X122604819Y-59380839D02*
X122604819Y-58809411D01*
X122604819Y-59095125D02*
X121604819Y-59095125D01*
X121604819Y-59095125D02*
X121747676Y-58999887D01*
X121747676Y-58999887D02*
X121842914Y-58904649D01*
X121842914Y-58904649D02*
X121890533Y-58809411D01*
X164132438Y-75849601D02*
X164084819Y-75754363D01*
X164084819Y-75754363D02*
X164084819Y-75611506D01*
X164084819Y-75611506D02*
X164132438Y-75468649D01*
X164132438Y-75468649D02*
X164227676Y-75373411D01*
X164227676Y-75373411D02*
X164322914Y-75325792D01*
X164322914Y-75325792D02*
X164513390Y-75278173D01*
X164513390Y-75278173D02*
X164656247Y-75278173D01*
X164656247Y-75278173D02*
X164846723Y-75325792D01*
X164846723Y-75325792D02*
X164941961Y-75373411D01*
X164941961Y-75373411D02*
X165037200Y-75468649D01*
X165037200Y-75468649D02*
X165084819Y-75611506D01*
X165084819Y-75611506D02*
X165084819Y-75706744D01*
X165084819Y-75706744D02*
X165037200Y-75849601D01*
X165037200Y-75849601D02*
X164989580Y-75897220D01*
X164989580Y-75897220D02*
X164656247Y-75897220D01*
X164656247Y-75897220D02*
X164656247Y-75706744D01*
X165084819Y-76325792D02*
X164084819Y-76325792D01*
X164084819Y-76325792D02*
X165084819Y-76897220D01*
X165084819Y-76897220D02*
X164084819Y-76897220D01*
X165084819Y-77373411D02*
X164084819Y-77373411D01*
X164084819Y-77373411D02*
X164084819Y-77611506D01*
X164084819Y-77611506D02*
X164132438Y-77754363D01*
X164132438Y-77754363D02*
X164227676Y-77849601D01*
X164227676Y-77849601D02*
X164322914Y-77897220D01*
X164322914Y-77897220D02*
X164513390Y-77944839D01*
X164513390Y-77944839D02*
X164656247Y-77944839D01*
X164656247Y-77944839D02*
X164846723Y-77897220D01*
X164846723Y-77897220D02*
X164941961Y-77849601D01*
X164941961Y-77849601D02*
X165037200Y-77754363D01*
X165037200Y-77754363D02*
X165084819Y-77611506D01*
X165084819Y-77611506D02*
X165084819Y-77373411D01*
X167081009Y-58190363D02*
X167128628Y-58333220D01*
X167128628Y-58333220D02*
X167176247Y-58380839D01*
X167176247Y-58380839D02*
X167271485Y-58428458D01*
X167271485Y-58428458D02*
X167414342Y-58428458D01*
X167414342Y-58428458D02*
X167509580Y-58380839D01*
X167509580Y-58380839D02*
X167557200Y-58333220D01*
X167557200Y-58333220D02*
X167604819Y-58237982D01*
X167604819Y-58237982D02*
X167604819Y-57857030D01*
X167604819Y-57857030D02*
X166604819Y-57857030D01*
X166604819Y-57857030D02*
X166604819Y-58190363D01*
X166604819Y-58190363D02*
X166652438Y-58285601D01*
X166652438Y-58285601D02*
X166700057Y-58333220D01*
X166700057Y-58333220D02*
X166795295Y-58380839D01*
X166795295Y-58380839D02*
X166890533Y-58380839D01*
X166890533Y-58380839D02*
X166985771Y-58333220D01*
X166985771Y-58333220D02*
X167033390Y-58285601D01*
X167033390Y-58285601D02*
X167081009Y-58190363D01*
X167081009Y-58190363D02*
X167081009Y-57857030D01*
X167604819Y-59380839D02*
X167604819Y-58809411D01*
X167604819Y-59095125D02*
X166604819Y-59095125D01*
X166604819Y-59095125D02*
X166747676Y-58999887D01*
X166747676Y-58999887D02*
X166842914Y-58904649D01*
X166842914Y-58904649D02*
X166890533Y-58809411D01*
X175129580Y-58428458D02*
X175177200Y-58380839D01*
X175177200Y-58380839D02*
X175224819Y-58237982D01*
X175224819Y-58237982D02*
X175224819Y-58142744D01*
X175224819Y-58142744D02*
X175177200Y-57999887D01*
X175177200Y-57999887D02*
X175081961Y-57904649D01*
X175081961Y-57904649D02*
X174986723Y-57857030D01*
X174986723Y-57857030D02*
X174796247Y-57809411D01*
X174796247Y-57809411D02*
X174653390Y-57809411D01*
X174653390Y-57809411D02*
X174462914Y-57857030D01*
X174462914Y-57857030D02*
X174367676Y-57904649D01*
X174367676Y-57904649D02*
X174272438Y-57999887D01*
X174272438Y-57999887D02*
X174224819Y-58142744D01*
X174224819Y-58142744D02*
X174224819Y-58237982D01*
X174224819Y-58237982D02*
X174272438Y-58380839D01*
X174272438Y-58380839D02*
X174320057Y-58428458D01*
X175177200Y-58809411D02*
X175224819Y-58952268D01*
X175224819Y-58952268D02*
X175224819Y-59190363D01*
X175224819Y-59190363D02*
X175177200Y-59285601D01*
X175177200Y-59285601D02*
X175129580Y-59333220D01*
X175129580Y-59333220D02*
X175034342Y-59380839D01*
X175034342Y-59380839D02*
X174939104Y-59380839D01*
X174939104Y-59380839D02*
X174843866Y-59333220D01*
X174843866Y-59333220D02*
X174796247Y-59285601D01*
X174796247Y-59285601D02*
X174748628Y-59190363D01*
X174748628Y-59190363D02*
X174701009Y-58999887D01*
X174701009Y-58999887D02*
X174653390Y-58904649D01*
X174653390Y-58904649D02*
X174605771Y-58857030D01*
X174605771Y-58857030D02*
X174510533Y-58809411D01*
X174510533Y-58809411D02*
X174415295Y-58809411D01*
X174415295Y-58809411D02*
X174320057Y-58857030D01*
X174320057Y-58857030D02*
X174272438Y-58904649D01*
X174272438Y-58904649D02*
X174224819Y-58999887D01*
X174224819Y-58999887D02*
X174224819Y-59237982D01*
X174224819Y-59237982D02*
X174272438Y-59380839D01*
X179454819Y-50133333D02*
X178978628Y-49800000D01*
X179454819Y-49561905D02*
X178454819Y-49561905D01*
X178454819Y-49561905D02*
X178454819Y-49942857D01*
X178454819Y-49942857D02*
X178502438Y-50038095D01*
X178502438Y-50038095D02*
X178550057Y-50085714D01*
X178550057Y-50085714D02*
X178645295Y-50133333D01*
X178645295Y-50133333D02*
X178788152Y-50133333D01*
X178788152Y-50133333D02*
X178883390Y-50085714D01*
X178883390Y-50085714D02*
X178931009Y-50038095D01*
X178931009Y-50038095D02*
X178978628Y-49942857D01*
X178978628Y-49942857D02*
X178978628Y-49561905D01*
X178550057Y-50514286D02*
X178502438Y-50561905D01*
X178502438Y-50561905D02*
X178454819Y-50657143D01*
X178454819Y-50657143D02*
X178454819Y-50895238D01*
X178454819Y-50895238D02*
X178502438Y-50990476D01*
X178502438Y-50990476D02*
X178550057Y-51038095D01*
X178550057Y-51038095D02*
X178645295Y-51085714D01*
X178645295Y-51085714D02*
X178740533Y-51085714D01*
X178740533Y-51085714D02*
X178883390Y-51038095D01*
X178883390Y-51038095D02*
X179454819Y-50466667D01*
X179454819Y-50466667D02*
X179454819Y-51085714D01*
X123104819Y-103833333D02*
X122628628Y-103500000D01*
X123104819Y-103261905D02*
X122104819Y-103261905D01*
X122104819Y-103261905D02*
X122104819Y-103642857D01*
X122104819Y-103642857D02*
X122152438Y-103738095D01*
X122152438Y-103738095D02*
X122200057Y-103785714D01*
X122200057Y-103785714D02*
X122295295Y-103833333D01*
X122295295Y-103833333D02*
X122438152Y-103833333D01*
X122438152Y-103833333D02*
X122533390Y-103785714D01*
X122533390Y-103785714D02*
X122581009Y-103738095D01*
X122581009Y-103738095D02*
X122628628Y-103642857D01*
X122628628Y-103642857D02*
X122628628Y-103261905D01*
X122438152Y-104690476D02*
X123104819Y-104690476D01*
X122057200Y-104452381D02*
X122771485Y-104214286D01*
X122771485Y-104214286D02*
X122771485Y-104833333D01*
X134454819Y-50133333D02*
X133978628Y-49800000D01*
X134454819Y-49561905D02*
X133454819Y-49561905D01*
X133454819Y-49561905D02*
X133454819Y-49942857D01*
X133454819Y-49942857D02*
X133502438Y-50038095D01*
X133502438Y-50038095D02*
X133550057Y-50085714D01*
X133550057Y-50085714D02*
X133645295Y-50133333D01*
X133645295Y-50133333D02*
X133788152Y-50133333D01*
X133788152Y-50133333D02*
X133883390Y-50085714D01*
X133883390Y-50085714D02*
X133931009Y-50038095D01*
X133931009Y-50038095D02*
X133978628Y-49942857D01*
X133978628Y-49942857D02*
X133978628Y-49561905D01*
X133550057Y-50514286D02*
X133502438Y-50561905D01*
X133502438Y-50561905D02*
X133454819Y-50657143D01*
X133454819Y-50657143D02*
X133454819Y-50895238D01*
X133454819Y-50895238D02*
X133502438Y-50990476D01*
X133502438Y-50990476D02*
X133550057Y-51038095D01*
X133550057Y-51038095D02*
X133645295Y-51085714D01*
X133645295Y-51085714D02*
X133740533Y-51085714D01*
X133740533Y-51085714D02*
X133883390Y-51038095D01*
X133883390Y-51038095D02*
X134454819Y-50466667D01*
X134454819Y-50466667D02*
X134454819Y-51085714D01*
X168759580Y-55788445D02*
X168807200Y-55740826D01*
X168807200Y-55740826D02*
X168854819Y-55597969D01*
X168854819Y-55597969D02*
X168854819Y-55502731D01*
X168854819Y-55502731D02*
X168807200Y-55359874D01*
X168807200Y-55359874D02*
X168711961Y-55264636D01*
X168711961Y-55264636D02*
X168616723Y-55217017D01*
X168616723Y-55217017D02*
X168426247Y-55169398D01*
X168426247Y-55169398D02*
X168283390Y-55169398D01*
X168283390Y-55169398D02*
X168092914Y-55217017D01*
X168092914Y-55217017D02*
X167997676Y-55264636D01*
X167997676Y-55264636D02*
X167902438Y-55359874D01*
X167902438Y-55359874D02*
X167854819Y-55502731D01*
X167854819Y-55502731D02*
X167854819Y-55597969D01*
X167854819Y-55597969D02*
X167902438Y-55740826D01*
X167902438Y-55740826D02*
X167950057Y-55788445D01*
X167950057Y-56169398D02*
X167902438Y-56217017D01*
X167902438Y-56217017D02*
X167854819Y-56312255D01*
X167854819Y-56312255D02*
X167854819Y-56550350D01*
X167854819Y-56550350D02*
X167902438Y-56645588D01*
X167902438Y-56645588D02*
X167950057Y-56693207D01*
X167950057Y-56693207D02*
X168045295Y-56740826D01*
X168045295Y-56740826D02*
X168140533Y-56740826D01*
X168140533Y-56740826D02*
X168283390Y-56693207D01*
X168283390Y-56693207D02*
X168854819Y-56121779D01*
X168854819Y-56121779D02*
X168854819Y-56740826D01*
X182114819Y-60666666D02*
X182829104Y-60666666D01*
X182829104Y-60666666D02*
X182971961Y-60619047D01*
X182971961Y-60619047D02*
X183067200Y-60523809D01*
X183067200Y-60523809D02*
X183114819Y-60380952D01*
X183114819Y-60380952D02*
X183114819Y-60285714D01*
X182210057Y-61095238D02*
X182162438Y-61142857D01*
X182162438Y-61142857D02*
X182114819Y-61238095D01*
X182114819Y-61238095D02*
X182114819Y-61476190D01*
X182114819Y-61476190D02*
X182162438Y-61571428D01*
X182162438Y-61571428D02*
X182210057Y-61619047D01*
X182210057Y-61619047D02*
X182305295Y-61666666D01*
X182305295Y-61666666D02*
X182400533Y-61666666D01*
X182400533Y-61666666D02*
X182543390Y-61619047D01*
X182543390Y-61619047D02*
X183114819Y-61047619D01*
X183114819Y-61047619D02*
X183114819Y-61666666D01*
X129050057Y-103904761D02*
X129002438Y-103809523D01*
X129002438Y-103809523D02*
X128907200Y-103714285D01*
X128907200Y-103714285D02*
X128764342Y-103571428D01*
X128764342Y-103571428D02*
X128716723Y-103476190D01*
X128716723Y-103476190D02*
X128716723Y-103380952D01*
X128954819Y-103428571D02*
X128907200Y-103333333D01*
X128907200Y-103333333D02*
X128811961Y-103238095D01*
X128811961Y-103238095D02*
X128621485Y-103190476D01*
X128621485Y-103190476D02*
X128288152Y-103190476D01*
X128288152Y-103190476D02*
X128097676Y-103238095D01*
X128097676Y-103238095D02*
X128002438Y-103333333D01*
X128002438Y-103333333D02*
X127954819Y-103428571D01*
X127954819Y-103428571D02*
X127954819Y-103619047D01*
X127954819Y-103619047D02*
X128002438Y-103714285D01*
X128002438Y-103714285D02*
X128097676Y-103809523D01*
X128097676Y-103809523D02*
X128288152Y-103857142D01*
X128288152Y-103857142D02*
X128621485Y-103857142D01*
X128621485Y-103857142D02*
X128811961Y-103809523D01*
X128811961Y-103809523D02*
X128907200Y-103714285D01*
X128907200Y-103714285D02*
X128954819Y-103619047D01*
X128954819Y-103619047D02*
X128954819Y-103428571D01*
X128954819Y-104809523D02*
X128954819Y-104238095D01*
X128954819Y-104523809D02*
X127954819Y-104523809D01*
X127954819Y-104523809D02*
X128097676Y-104428571D01*
X128097676Y-104428571D02*
X128192914Y-104333333D01*
X128192914Y-104333333D02*
X128240533Y-104238095D01*
X125361904Y-51804819D02*
X125361904Y-52614342D01*
X125361904Y-52614342D02*
X125314285Y-52709580D01*
X125314285Y-52709580D02*
X125266666Y-52757200D01*
X125266666Y-52757200D02*
X125171428Y-52804819D01*
X125171428Y-52804819D02*
X124980952Y-52804819D01*
X124980952Y-52804819D02*
X124885714Y-52757200D01*
X124885714Y-52757200D02*
X124838095Y-52709580D01*
X124838095Y-52709580D02*
X124790476Y-52614342D01*
X124790476Y-52614342D02*
X124790476Y-51804819D01*
X123790476Y-52804819D02*
X124361904Y-52804819D01*
X124076190Y-52804819D02*
X124076190Y-51804819D01*
X124076190Y-51804819D02*
X124171428Y-51947676D01*
X124171428Y-51947676D02*
X124266666Y-52042914D01*
X124266666Y-52042914D02*
X124361904Y-52090533D01*
X178104819Y-103833333D02*
X177628628Y-103500000D01*
X178104819Y-103261905D02*
X177104819Y-103261905D01*
X177104819Y-103261905D02*
X177104819Y-103642857D01*
X177104819Y-103642857D02*
X177152438Y-103738095D01*
X177152438Y-103738095D02*
X177200057Y-103785714D01*
X177200057Y-103785714D02*
X177295295Y-103833333D01*
X177295295Y-103833333D02*
X177438152Y-103833333D01*
X177438152Y-103833333D02*
X177533390Y-103785714D01*
X177533390Y-103785714D02*
X177581009Y-103738095D01*
X177581009Y-103738095D02*
X177628628Y-103642857D01*
X177628628Y-103642857D02*
X177628628Y-103261905D01*
X177104819Y-104166667D02*
X177104819Y-104785714D01*
X177104819Y-104785714D02*
X177485771Y-104452381D01*
X177485771Y-104452381D02*
X177485771Y-104595238D01*
X177485771Y-104595238D02*
X177533390Y-104690476D01*
X177533390Y-104690476D02*
X177581009Y-104738095D01*
X177581009Y-104738095D02*
X177676247Y-104785714D01*
X177676247Y-104785714D02*
X177914342Y-104785714D01*
X177914342Y-104785714D02*
X178009580Y-104738095D01*
X178009580Y-104738095D02*
X178057200Y-104690476D01*
X178057200Y-104690476D02*
X178104819Y-104595238D01*
X178104819Y-104595238D02*
X178104819Y-104309524D01*
X178104819Y-104309524D02*
X178057200Y-104214286D01*
X178057200Y-104214286D02*
X178009580Y-104166667D01*
X134359580Y-55583333D02*
X134407200Y-55535714D01*
X134407200Y-55535714D02*
X134454819Y-55392857D01*
X134454819Y-55392857D02*
X134454819Y-55297619D01*
X134454819Y-55297619D02*
X134407200Y-55154762D01*
X134407200Y-55154762D02*
X134311961Y-55059524D01*
X134311961Y-55059524D02*
X134216723Y-55011905D01*
X134216723Y-55011905D02*
X134026247Y-54964286D01*
X134026247Y-54964286D02*
X133883390Y-54964286D01*
X133883390Y-54964286D02*
X133692914Y-55011905D01*
X133692914Y-55011905D02*
X133597676Y-55059524D01*
X133597676Y-55059524D02*
X133502438Y-55154762D01*
X133502438Y-55154762D02*
X133454819Y-55297619D01*
X133454819Y-55297619D02*
X133454819Y-55392857D01*
X133454819Y-55392857D02*
X133502438Y-55535714D01*
X133502438Y-55535714D02*
X133550057Y-55583333D01*
X134454819Y-56535714D02*
X134454819Y-55964286D01*
X134454819Y-56250000D02*
X133454819Y-56250000D01*
X133454819Y-56250000D02*
X133597676Y-56154762D01*
X133597676Y-56154762D02*
X133692914Y-56059524D01*
X133692914Y-56059524D02*
X133740533Y-55964286D01*
X179359580Y-55583333D02*
X179407200Y-55535714D01*
X179407200Y-55535714D02*
X179454819Y-55392857D01*
X179454819Y-55392857D02*
X179454819Y-55297619D01*
X179454819Y-55297619D02*
X179407200Y-55154762D01*
X179407200Y-55154762D02*
X179311961Y-55059524D01*
X179311961Y-55059524D02*
X179216723Y-55011905D01*
X179216723Y-55011905D02*
X179026247Y-54964286D01*
X179026247Y-54964286D02*
X178883390Y-54964286D01*
X178883390Y-54964286D02*
X178692914Y-55011905D01*
X178692914Y-55011905D02*
X178597676Y-55059524D01*
X178597676Y-55059524D02*
X178502438Y-55154762D01*
X178502438Y-55154762D02*
X178454819Y-55297619D01*
X178454819Y-55297619D02*
X178454819Y-55392857D01*
X178454819Y-55392857D02*
X178502438Y-55535714D01*
X178502438Y-55535714D02*
X178550057Y-55583333D01*
X179454819Y-56535714D02*
X179454819Y-55964286D01*
X179454819Y-56250000D02*
X178454819Y-56250000D01*
X178454819Y-56250000D02*
X178597676Y-56154762D01*
X178597676Y-56154762D02*
X178692914Y-56059524D01*
X178692914Y-56059524D02*
X178740533Y-55964286D01*
X168104819Y-103833333D02*
X167628628Y-103500000D01*
X168104819Y-103261905D02*
X167104819Y-103261905D01*
X167104819Y-103261905D02*
X167104819Y-103642857D01*
X167104819Y-103642857D02*
X167152438Y-103738095D01*
X167152438Y-103738095D02*
X167200057Y-103785714D01*
X167200057Y-103785714D02*
X167295295Y-103833333D01*
X167295295Y-103833333D02*
X167438152Y-103833333D01*
X167438152Y-103833333D02*
X167533390Y-103785714D01*
X167533390Y-103785714D02*
X167581009Y-103738095D01*
X167581009Y-103738095D02*
X167628628Y-103642857D01*
X167628628Y-103642857D02*
X167628628Y-103261905D01*
X167438152Y-104690476D02*
X168104819Y-104690476D01*
X167057200Y-104452381D02*
X167771485Y-104214286D01*
X167771485Y-104214286D02*
X167771485Y-104833333D01*
X170361904Y-51804819D02*
X170361904Y-52614342D01*
X170361904Y-52614342D02*
X170314285Y-52709580D01*
X170314285Y-52709580D02*
X170266666Y-52757200D01*
X170266666Y-52757200D02*
X170171428Y-52804819D01*
X170171428Y-52804819D02*
X169980952Y-52804819D01*
X169980952Y-52804819D02*
X169885714Y-52757200D01*
X169885714Y-52757200D02*
X169838095Y-52709580D01*
X169838095Y-52709580D02*
X169790476Y-52614342D01*
X169790476Y-52614342D02*
X169790476Y-51804819D01*
X168790476Y-52804819D02*
X169361904Y-52804819D01*
X169076190Y-52804819D02*
X169076190Y-51804819D01*
X169076190Y-51804819D02*
X169171428Y-51947676D01*
X169171428Y-51947676D02*
X169266666Y-52042914D01*
X169266666Y-52042914D02*
X169361904Y-52090533D01*
X133104819Y-103833333D02*
X132628628Y-103500000D01*
X133104819Y-103261905D02*
X132104819Y-103261905D01*
X132104819Y-103261905D02*
X132104819Y-103642857D01*
X132104819Y-103642857D02*
X132152438Y-103738095D01*
X132152438Y-103738095D02*
X132200057Y-103785714D01*
X132200057Y-103785714D02*
X132295295Y-103833333D01*
X132295295Y-103833333D02*
X132438152Y-103833333D01*
X132438152Y-103833333D02*
X132533390Y-103785714D01*
X132533390Y-103785714D02*
X132581009Y-103738095D01*
X132581009Y-103738095D02*
X132628628Y-103642857D01*
X132628628Y-103642857D02*
X132628628Y-103261905D01*
X132104819Y-104166667D02*
X132104819Y-104785714D01*
X132104819Y-104785714D02*
X132485771Y-104452381D01*
X132485771Y-104452381D02*
X132485771Y-104595238D01*
X132485771Y-104595238D02*
X132533390Y-104690476D01*
X132533390Y-104690476D02*
X132581009Y-104738095D01*
X132581009Y-104738095D02*
X132676247Y-104785714D01*
X132676247Y-104785714D02*
X132914342Y-104785714D01*
X132914342Y-104785714D02*
X133009580Y-104738095D01*
X133009580Y-104738095D02*
X133057200Y-104690476D01*
X133057200Y-104690476D02*
X133104819Y-104595238D01*
X133104819Y-104595238D02*
X133104819Y-104309524D01*
X133104819Y-104309524D02*
X133057200Y-104214286D01*
X133057200Y-104214286D02*
X133009580Y-104166667D01*
X137114819Y-60666666D02*
X137829104Y-60666666D01*
X137829104Y-60666666D02*
X137971961Y-60619047D01*
X137971961Y-60619047D02*
X138067200Y-60523809D01*
X138067200Y-60523809D02*
X138114819Y-60380952D01*
X138114819Y-60380952D02*
X138114819Y-60285714D01*
X137210057Y-61095238D02*
X137162438Y-61142857D01*
X137162438Y-61142857D02*
X137114819Y-61238095D01*
X137114819Y-61238095D02*
X137114819Y-61476190D01*
X137114819Y-61476190D02*
X137162438Y-61571428D01*
X137162438Y-61571428D02*
X137210057Y-61619047D01*
X137210057Y-61619047D02*
X137305295Y-61666666D01*
X137305295Y-61666666D02*
X137400533Y-61666666D01*
X137400533Y-61666666D02*
X137543390Y-61619047D01*
X137543390Y-61619047D02*
X138114819Y-61047619D01*
X138114819Y-61047619D02*
X138114819Y-61666666D01*
X174050057Y-103904761D02*
X174002438Y-103809523D01*
X174002438Y-103809523D02*
X173907200Y-103714285D01*
X173907200Y-103714285D02*
X173764342Y-103571428D01*
X173764342Y-103571428D02*
X173716723Y-103476190D01*
X173716723Y-103476190D02*
X173716723Y-103380952D01*
X173954819Y-103428571D02*
X173907200Y-103333333D01*
X173907200Y-103333333D02*
X173811961Y-103238095D01*
X173811961Y-103238095D02*
X173621485Y-103190476D01*
X173621485Y-103190476D02*
X173288152Y-103190476D01*
X173288152Y-103190476D02*
X173097676Y-103238095D01*
X173097676Y-103238095D02*
X173002438Y-103333333D01*
X173002438Y-103333333D02*
X172954819Y-103428571D01*
X172954819Y-103428571D02*
X172954819Y-103619047D01*
X172954819Y-103619047D02*
X173002438Y-103714285D01*
X173002438Y-103714285D02*
X173097676Y-103809523D01*
X173097676Y-103809523D02*
X173288152Y-103857142D01*
X173288152Y-103857142D02*
X173621485Y-103857142D01*
X173621485Y-103857142D02*
X173811961Y-103809523D01*
X173811961Y-103809523D02*
X173907200Y-103714285D01*
X173907200Y-103714285D02*
X173954819Y-103619047D01*
X173954819Y-103619047D02*
X173954819Y-103428571D01*
X173954819Y-104809523D02*
X173954819Y-104238095D01*
X173954819Y-104523809D02*
X172954819Y-104523809D01*
X172954819Y-104523809D02*
X173097676Y-104428571D01*
X173097676Y-104428571D02*
X173192914Y-104333333D01*
X173192914Y-104333333D02*
X173240533Y-104238095D01*
X123759580Y-55788445D02*
X123807200Y-55740826D01*
X123807200Y-55740826D02*
X123854819Y-55597969D01*
X123854819Y-55597969D02*
X123854819Y-55502731D01*
X123854819Y-55502731D02*
X123807200Y-55359874D01*
X123807200Y-55359874D02*
X123711961Y-55264636D01*
X123711961Y-55264636D02*
X123616723Y-55217017D01*
X123616723Y-55217017D02*
X123426247Y-55169398D01*
X123426247Y-55169398D02*
X123283390Y-55169398D01*
X123283390Y-55169398D02*
X123092914Y-55217017D01*
X123092914Y-55217017D02*
X122997676Y-55264636D01*
X122997676Y-55264636D02*
X122902438Y-55359874D01*
X122902438Y-55359874D02*
X122854819Y-55502731D01*
X122854819Y-55502731D02*
X122854819Y-55597969D01*
X122854819Y-55597969D02*
X122902438Y-55740826D01*
X122902438Y-55740826D02*
X122950057Y-55788445D01*
X122950057Y-56169398D02*
X122902438Y-56217017D01*
X122902438Y-56217017D02*
X122854819Y-56312255D01*
X122854819Y-56312255D02*
X122854819Y-56550350D01*
X122854819Y-56550350D02*
X122902438Y-56645588D01*
X122902438Y-56645588D02*
X122950057Y-56693207D01*
X122950057Y-56693207D02*
X123045295Y-56740826D01*
X123045295Y-56740826D02*
X123140533Y-56740826D01*
X123140533Y-56740826D02*
X123283390Y-56693207D01*
X123283390Y-56693207D02*
X123854819Y-56121779D01*
X123854819Y-56121779D02*
X123854819Y-56740826D01*
D12*
%TO.C,R2*%
X177630000Y-47770000D02*
X177630000Y-41230000D01*
X177960000Y-47770000D02*
X177630000Y-47770000D01*
X180040000Y-47770000D02*
X180370000Y-47770000D01*
X180370000Y-47770000D02*
X180370000Y-41230000D01*
X177630000Y-41230000D02*
X177960000Y-41230000D01*
X180370000Y-41230000D02*
X180040000Y-41230000D01*
%TO.C,R4*%
X120265000Y-104227064D02*
X120265000Y-103772936D01*
X121735000Y-104227064D02*
X121735000Y-103772936D01*
%TO.C,R2*%
X132630000Y-47770000D02*
X132630000Y-41230000D01*
X132960000Y-47770000D02*
X132630000Y-47770000D01*
X135040000Y-47770000D02*
X135370000Y-47770000D01*
X135370000Y-47770000D02*
X135370000Y-41230000D01*
X132630000Y-41230000D02*
X132960000Y-41230000D01*
X135370000Y-41230000D02*
X135040000Y-41230000D01*
%TO.C,C2*%
X173475000Y-58759887D02*
X173475000Y-58259887D01*
X173725000Y-58509887D02*
X173225000Y-58509887D01*
X170960000Y-55955112D02*
X169420000Y-55955112D01*
X174580000Y-55955112D02*
X173040000Y-55955112D01*
X170960000Y-55915112D02*
X169420000Y-55915112D01*
X174580000Y-55915112D02*
X173040000Y-55915112D01*
X170960000Y-55875112D02*
X169421000Y-55875112D01*
X174579000Y-55875112D02*
X173040000Y-55875112D01*
X170960000Y-55835112D02*
X169422000Y-55835112D01*
X174578000Y-55835112D02*
X173040000Y-55835112D01*
X170960000Y-55795112D02*
X169424000Y-55795112D01*
X174576000Y-55795112D02*
X173040000Y-55795112D01*
X170960000Y-55755112D02*
X169427000Y-55755112D01*
X174573000Y-55755112D02*
X173040000Y-55755112D01*
X170960000Y-55715112D02*
X169431000Y-55715112D01*
X174569000Y-55715112D02*
X173040000Y-55715112D01*
X170960000Y-55675112D02*
X169435000Y-55675112D01*
X174565000Y-55675112D02*
X173040000Y-55675112D01*
X170960000Y-55635112D02*
X169439000Y-55635112D01*
X174561000Y-55635112D02*
X173040000Y-55635112D01*
X170960000Y-55595112D02*
X169444000Y-55595112D01*
X174556000Y-55595112D02*
X173040000Y-55595112D01*
X170960000Y-55555112D02*
X169450000Y-55555112D01*
X174550000Y-55555112D02*
X173040000Y-55555112D01*
X170960000Y-55515112D02*
X169457000Y-55515112D01*
X174543000Y-55515112D02*
X173040000Y-55515112D01*
X170960000Y-55475112D02*
X169464000Y-55475112D01*
X174536000Y-55475112D02*
X173040000Y-55475112D01*
X170960000Y-55435112D02*
X169472000Y-55435112D01*
X174528000Y-55435112D02*
X173040000Y-55435112D01*
X170960000Y-55395112D02*
X169480000Y-55395112D01*
X174520000Y-55395112D02*
X173040000Y-55395112D01*
X170960000Y-55355112D02*
X169489000Y-55355112D01*
X174511000Y-55355112D02*
X173040000Y-55355112D01*
X170960000Y-55315112D02*
X169499000Y-55315112D01*
X174501000Y-55315112D02*
X173040000Y-55315112D01*
X170960000Y-55275112D02*
X169509000Y-55275112D01*
X174491000Y-55275112D02*
X173040000Y-55275112D01*
X170960000Y-55234112D02*
X169520000Y-55234112D01*
X174480000Y-55234112D02*
X173040000Y-55234112D01*
X170960000Y-55194112D02*
X169532000Y-55194112D01*
X174468000Y-55194112D02*
X173040000Y-55194112D01*
X170960000Y-55154112D02*
X169545000Y-55154112D01*
X174455000Y-55154112D02*
X173040000Y-55154112D01*
X170960000Y-55114112D02*
X169558000Y-55114112D01*
X174442000Y-55114112D02*
X173040000Y-55114112D01*
X170960000Y-55074112D02*
X169572000Y-55074112D01*
X174428000Y-55074112D02*
X173040000Y-55074112D01*
X170960000Y-55034112D02*
X169586000Y-55034112D01*
X174414000Y-55034112D02*
X173040000Y-55034112D01*
X170960000Y-54994112D02*
X169602000Y-54994112D01*
X174398000Y-54994112D02*
X173040000Y-54994112D01*
X170960000Y-54954112D02*
X169618000Y-54954112D01*
X174382000Y-54954112D02*
X173040000Y-54954112D01*
X170960000Y-54914112D02*
X169635000Y-54914112D01*
X174365000Y-54914112D02*
X173040000Y-54914112D01*
X170960000Y-54874112D02*
X169652000Y-54874112D01*
X174348000Y-54874112D02*
X173040000Y-54874112D01*
X170960000Y-54834112D02*
X169671000Y-54834112D01*
X174329000Y-54834112D02*
X173040000Y-54834112D01*
X170960000Y-54794112D02*
X169690000Y-54794112D01*
X174310000Y-54794112D02*
X173040000Y-54794112D01*
X170960000Y-54754112D02*
X169710000Y-54754112D01*
X174290000Y-54754112D02*
X173040000Y-54754112D01*
X170960000Y-54714112D02*
X169732000Y-54714112D01*
X174268000Y-54714112D02*
X173040000Y-54714112D01*
X170960000Y-54674112D02*
X169753000Y-54674112D01*
X174247000Y-54674112D02*
X173040000Y-54674112D01*
X170960000Y-54634112D02*
X169776000Y-54634112D01*
X174224000Y-54634112D02*
X173040000Y-54634112D01*
X170960000Y-54594112D02*
X169800000Y-54594112D01*
X174200000Y-54594112D02*
X173040000Y-54594112D01*
X170960000Y-54554112D02*
X169825000Y-54554112D01*
X174175000Y-54554112D02*
X173040000Y-54554112D01*
X170960000Y-54514112D02*
X169851000Y-54514112D01*
X174149000Y-54514112D02*
X173040000Y-54514112D01*
X170960000Y-54474112D02*
X169878000Y-54474112D01*
X174122000Y-54474112D02*
X173040000Y-54474112D01*
X170960000Y-54434112D02*
X169905000Y-54434112D01*
X174095000Y-54434112D02*
X173040000Y-54434112D01*
X170960000Y-54394112D02*
X169935000Y-54394112D01*
X174065000Y-54394112D02*
X173040000Y-54394112D01*
X170960000Y-54354112D02*
X169965000Y-54354112D01*
X174035000Y-54354112D02*
X173040000Y-54354112D01*
X170960000Y-54314112D02*
X169996000Y-54314112D01*
X174004000Y-54314112D02*
X173040000Y-54314112D01*
X170960000Y-54274112D02*
X170029000Y-54274112D01*
X173971000Y-54274112D02*
X173040000Y-54274112D01*
X170960000Y-54234112D02*
X170063000Y-54234112D01*
X173937000Y-54234112D02*
X173040000Y-54234112D01*
X170960000Y-54194112D02*
X170099000Y-54194112D01*
X173901000Y-54194112D02*
X173040000Y-54194112D01*
X170960000Y-54154112D02*
X170136000Y-54154112D01*
X173864000Y-54154112D02*
X173040000Y-54154112D01*
X170960000Y-54114112D02*
X170174000Y-54114112D01*
X173826000Y-54114112D02*
X173040000Y-54114112D01*
X170960000Y-54074112D02*
X170215000Y-54074112D01*
X173785000Y-54074112D02*
X173040000Y-54074112D01*
X170960000Y-54034112D02*
X170257000Y-54034112D01*
X173743000Y-54034112D02*
X173040000Y-54034112D01*
X170960000Y-53994112D02*
X170301000Y-53994112D01*
X173699000Y-53994112D02*
X173040000Y-53994112D01*
X170960000Y-53954112D02*
X170347000Y-53954112D01*
X173653000Y-53954112D02*
X173040000Y-53954112D01*
X173605000Y-53914112D02*
X170395000Y-53914112D01*
X173554000Y-53874112D02*
X170446000Y-53874112D01*
X173500000Y-53834112D02*
X170500000Y-53834112D01*
X173443000Y-53794112D02*
X170557000Y-53794112D01*
X173383000Y-53754112D02*
X170617000Y-53754112D01*
X173319000Y-53714112D02*
X170681000Y-53714112D01*
X173251000Y-53674112D02*
X170749000Y-53674112D01*
X173178000Y-53634112D02*
X170822000Y-53634112D01*
X173098000Y-53594112D02*
X170902000Y-53594112D01*
X173011000Y-53554112D02*
X170989000Y-53554112D01*
X172915000Y-53514112D02*
X171085000Y-53514112D01*
X172805000Y-53474112D02*
X171195000Y-53474112D01*
X172677000Y-53434112D02*
X171323000Y-53434112D01*
X172518000Y-53394112D02*
X171482000Y-53394112D01*
X172284000Y-53354112D02*
X171716000Y-53354112D01*
X174620000Y-55955112D02*
G75*
G03*
X174620000Y-55955112I-2620000J0D01*
G01*
%TO.C,J2*%
X160780000Y-62330000D02*
X160780000Y-59670000D01*
X178620000Y-62330000D02*
X160780000Y-62330000D01*
X178620000Y-62330000D02*
X178620000Y-59670000D01*
X181220000Y-61000000D02*
X181220000Y-59670000D01*
X178620000Y-59670000D02*
X160780000Y-59670000D01*
X181220000Y-59670000D02*
X179890000Y-59670000D01*
%TO.C,Q1*%
X124285500Y-106984500D02*
X124285500Y-101015500D01*
X127714500Y-106984500D02*
X124285500Y-106984500D01*
X124285500Y-101015500D02*
X127714500Y-101015500D01*
X127714500Y-101015500D02*
X127714500Y-106984500D01*
%TO.C,U1*%
X120740000Y-35890000D02*
X120740000Y-36155000D01*
X120740000Y-51245000D02*
X118925000Y-51245000D01*
X120740000Y-51510000D02*
X120740000Y-51245000D01*
X124600000Y-35890000D02*
X120740000Y-35890000D01*
X124600000Y-35890000D02*
X128460000Y-35890000D01*
X124600000Y-51510000D02*
X120740000Y-51510000D01*
X124600000Y-51510000D02*
X128460000Y-51510000D01*
X128460000Y-35890000D02*
X128460000Y-36155000D01*
X128460000Y-51510000D02*
X128460000Y-51245000D01*
%TO.C,R3*%
X175265000Y-104227064D02*
X175265000Y-103772936D01*
X176735000Y-104227064D02*
X176735000Y-103772936D01*
%TO.C,C1*%
X130880000Y-57370000D02*
X130880000Y-54130000D01*
X130945000Y-57370000D02*
X130880000Y-57370000D01*
X133120000Y-57370000D02*
X133055000Y-57370000D01*
X133120000Y-57370000D02*
X133120000Y-54130000D01*
X130945000Y-54130000D02*
X130880000Y-54130000D01*
X133120000Y-54130000D02*
X133055000Y-54130000D01*
X175880000Y-57370000D02*
X175880000Y-54130000D01*
X175945000Y-57370000D02*
X175880000Y-57370000D01*
X178120000Y-57370000D02*
X178055000Y-57370000D01*
X178120000Y-57370000D02*
X178120000Y-54130000D01*
X175945000Y-54130000D02*
X175880000Y-54130000D01*
X178120000Y-54130000D02*
X178055000Y-54130000D01*
%TO.C,R4*%
X165265000Y-104227064D02*
X165265000Y-103772936D01*
X166735000Y-104227064D02*
X166735000Y-103772936D01*
%TO.C,U1*%
X165740000Y-35890000D02*
X165740000Y-36155000D01*
X165740000Y-51245000D02*
X163925000Y-51245000D01*
X165740000Y-51510000D02*
X165740000Y-51245000D01*
X169600000Y-35890000D02*
X165740000Y-35890000D01*
X169600000Y-35890000D02*
X173460000Y-35890000D01*
X169600000Y-51510000D02*
X165740000Y-51510000D01*
X169600000Y-51510000D02*
X173460000Y-51510000D01*
X173460000Y-35890000D02*
X173460000Y-36155000D01*
X173460000Y-51510000D02*
X173460000Y-51245000D01*
%TO.C,R3*%
X130265000Y-104227064D02*
X130265000Y-103772936D01*
X131735000Y-104227064D02*
X131735000Y-103772936D01*
%TO.C,J2*%
X115780000Y-62330000D02*
X115780000Y-59670000D01*
X133620000Y-62330000D02*
X115780000Y-62330000D01*
X133620000Y-62330000D02*
X133620000Y-59670000D01*
X136220000Y-61000000D02*
X136220000Y-59670000D01*
X133620000Y-59670000D02*
X115780000Y-59670000D01*
X136220000Y-59670000D02*
X134890000Y-59670000D01*
%TO.C,Q1*%
X169285500Y-106984500D02*
X169285500Y-101015500D01*
X172714500Y-106984500D02*
X169285500Y-106984500D01*
X169285500Y-101015500D02*
X172714500Y-101015500D01*
X172714500Y-101015500D02*
X172714500Y-106984500D01*
%TO.C,C2*%
X128475000Y-58759887D02*
X128475000Y-58259887D01*
X128725000Y-58509887D02*
X128225000Y-58509887D01*
X125960000Y-55955112D02*
X124420000Y-55955112D01*
X129580000Y-55955112D02*
X128040000Y-55955112D01*
X125960000Y-55915112D02*
X124420000Y-55915112D01*
X129580000Y-55915112D02*
X128040000Y-55915112D01*
X125960000Y-55875112D02*
X124421000Y-55875112D01*
X129579000Y-55875112D02*
X128040000Y-55875112D01*
X125960000Y-55835112D02*
X124422000Y-55835112D01*
X129578000Y-55835112D02*
X128040000Y-55835112D01*
X125960000Y-55795112D02*
X124424000Y-55795112D01*
X129576000Y-55795112D02*
X128040000Y-55795112D01*
X125960000Y-55755112D02*
X124427000Y-55755112D01*
X129573000Y-55755112D02*
X128040000Y-55755112D01*
X125960000Y-55715112D02*
X124431000Y-55715112D01*
X129569000Y-55715112D02*
X128040000Y-55715112D01*
X125960000Y-55675112D02*
X124435000Y-55675112D01*
X129565000Y-55675112D02*
X128040000Y-55675112D01*
X125960000Y-55635112D02*
X124439000Y-55635112D01*
X129561000Y-55635112D02*
X128040000Y-55635112D01*
X125960000Y-55595112D02*
X124444000Y-55595112D01*
X129556000Y-55595112D02*
X128040000Y-55595112D01*
X125960000Y-55555112D02*
X124450000Y-55555112D01*
X129550000Y-55555112D02*
X128040000Y-55555112D01*
X125960000Y-55515112D02*
X124457000Y-55515112D01*
X129543000Y-55515112D02*
X128040000Y-55515112D01*
X125960000Y-55475112D02*
X124464000Y-55475112D01*
X129536000Y-55475112D02*
X128040000Y-55475112D01*
X125960000Y-55435112D02*
X124472000Y-55435112D01*
X129528000Y-55435112D02*
X128040000Y-55435112D01*
X125960000Y-55395112D02*
X124480000Y-55395112D01*
X129520000Y-55395112D02*
X128040000Y-55395112D01*
X125960000Y-55355112D02*
X124489000Y-55355112D01*
X129511000Y-55355112D02*
X128040000Y-55355112D01*
X125960000Y-55315112D02*
X124499000Y-55315112D01*
X129501000Y-55315112D02*
X128040000Y-55315112D01*
X125960000Y-55275112D02*
X124509000Y-55275112D01*
X129491000Y-55275112D02*
X128040000Y-55275112D01*
X125960000Y-55234112D02*
X124520000Y-55234112D01*
X129480000Y-55234112D02*
X128040000Y-55234112D01*
X125960000Y-55194112D02*
X124532000Y-55194112D01*
X129468000Y-55194112D02*
X128040000Y-55194112D01*
X125960000Y-55154112D02*
X124545000Y-55154112D01*
X129455000Y-55154112D02*
X128040000Y-55154112D01*
X125960000Y-55114112D02*
X124558000Y-55114112D01*
X129442000Y-55114112D02*
X128040000Y-55114112D01*
X125960000Y-55074112D02*
X124572000Y-55074112D01*
X129428000Y-55074112D02*
X128040000Y-55074112D01*
X125960000Y-55034112D02*
X124586000Y-55034112D01*
X129414000Y-55034112D02*
X128040000Y-55034112D01*
X125960000Y-54994112D02*
X124602000Y-54994112D01*
X129398000Y-54994112D02*
X128040000Y-54994112D01*
X125960000Y-54954112D02*
X124618000Y-54954112D01*
X129382000Y-54954112D02*
X128040000Y-54954112D01*
X125960000Y-54914112D02*
X124635000Y-54914112D01*
X129365000Y-54914112D02*
X128040000Y-54914112D01*
X125960000Y-54874112D02*
X124652000Y-54874112D01*
X129348000Y-54874112D02*
X128040000Y-54874112D01*
X125960000Y-54834112D02*
X124671000Y-54834112D01*
X129329000Y-54834112D02*
X128040000Y-54834112D01*
X125960000Y-54794112D02*
X124690000Y-54794112D01*
X129310000Y-54794112D02*
X128040000Y-54794112D01*
X125960000Y-54754112D02*
X124710000Y-54754112D01*
X129290000Y-54754112D02*
X128040000Y-54754112D01*
X125960000Y-54714112D02*
X124732000Y-54714112D01*
X129268000Y-54714112D02*
X128040000Y-54714112D01*
X125960000Y-54674112D02*
X124753000Y-54674112D01*
X129247000Y-54674112D02*
X128040000Y-54674112D01*
X125960000Y-54634112D02*
X124776000Y-54634112D01*
X129224000Y-54634112D02*
X128040000Y-54634112D01*
X125960000Y-54594112D02*
X124800000Y-54594112D01*
X129200000Y-54594112D02*
X128040000Y-54594112D01*
X125960000Y-54554112D02*
X124825000Y-54554112D01*
X129175000Y-54554112D02*
X128040000Y-54554112D01*
X125960000Y-54514112D02*
X124851000Y-54514112D01*
X129149000Y-54514112D02*
X128040000Y-54514112D01*
X125960000Y-54474112D02*
X124878000Y-54474112D01*
X129122000Y-54474112D02*
X128040000Y-54474112D01*
X125960000Y-54434112D02*
X124905000Y-54434112D01*
X129095000Y-54434112D02*
X128040000Y-54434112D01*
X125960000Y-54394112D02*
X124935000Y-54394112D01*
X129065000Y-54394112D02*
X128040000Y-54394112D01*
X125960000Y-54354112D02*
X124965000Y-54354112D01*
X129035000Y-54354112D02*
X128040000Y-54354112D01*
X125960000Y-54314112D02*
X124996000Y-54314112D01*
X129004000Y-54314112D02*
X128040000Y-54314112D01*
X125960000Y-54274112D02*
X125029000Y-54274112D01*
X128971000Y-54274112D02*
X128040000Y-54274112D01*
X125960000Y-54234112D02*
X125063000Y-54234112D01*
X128937000Y-54234112D02*
X128040000Y-54234112D01*
X125960000Y-54194112D02*
X125099000Y-54194112D01*
X128901000Y-54194112D02*
X128040000Y-54194112D01*
X125960000Y-54154112D02*
X125136000Y-54154112D01*
X128864000Y-54154112D02*
X128040000Y-54154112D01*
X125960000Y-54114112D02*
X125174000Y-54114112D01*
X128826000Y-54114112D02*
X128040000Y-54114112D01*
X125960000Y-54074112D02*
X125215000Y-54074112D01*
X128785000Y-54074112D02*
X128040000Y-54074112D01*
X125960000Y-54034112D02*
X125257000Y-54034112D01*
X128743000Y-54034112D02*
X128040000Y-54034112D01*
X125960000Y-53994112D02*
X125301000Y-53994112D01*
X128699000Y-53994112D02*
X128040000Y-53994112D01*
X125960000Y-53954112D02*
X125347000Y-53954112D01*
X128653000Y-53954112D02*
X128040000Y-53954112D01*
X128605000Y-53914112D02*
X125395000Y-53914112D01*
X128554000Y-53874112D02*
X125446000Y-53874112D01*
X128500000Y-53834112D02*
X125500000Y-53834112D01*
X128443000Y-53794112D02*
X125557000Y-53794112D01*
X128383000Y-53754112D02*
X125617000Y-53754112D01*
X128319000Y-53714112D02*
X125681000Y-53714112D01*
X128251000Y-53674112D02*
X125749000Y-53674112D01*
X128178000Y-53634112D02*
X125822000Y-53634112D01*
X128098000Y-53594112D02*
X125902000Y-53594112D01*
X128011000Y-53554112D02*
X125989000Y-53554112D01*
X127915000Y-53514112D02*
X126085000Y-53514112D01*
X127805000Y-53474112D02*
X126195000Y-53474112D01*
X127677000Y-53434112D02*
X126323000Y-53434112D01*
X127518000Y-53394112D02*
X126482000Y-53394112D01*
X127284000Y-53354112D02*
X126716000Y-53354112D01*
X129620000Y-55955112D02*
G75*
G03*
X129620000Y-55955112I-2620000J0D01*
G01*
%TD*%
M02*
