M48
; DRILL file {KiCad 7.0.8} date Thu Feb  8 03:58:03 2024
; FORMAT={-:-/ absolute / inch / decimal}
; #@! TF.CreationDate,2024-02-08T03:58:03-08:00
; #@! TF.GenerationSoftware,Kicad,Pcbnew,7.0.8
; #@! TF.FileFunction,NonPlated,1,2,NPTH
FMAT,2
INCH
; #@! TA.AperFunction,NonPlated,NPTH,ComponentDrill
T1C0.0197
; #@! TA.AperFunction,NonPlated,NPTH,ComponentDrill
T2C0.1260
%
G90
G05
T1
X4.2618Y-1.3484
X4.2618Y-1.378
X4.2618Y-1.4075
X4.2618Y-2.6083
X4.2618Y-2.6378
X4.2618Y-2.6673
X4.3209Y-1.3484
X4.3209Y-1.378
X4.3209Y-1.4075
X4.3209Y-2.6083
X4.3209Y-2.6378
X4.3209Y-2.6673
X4.5079Y-1.1417
X4.5079Y-4.3307
X4.5472Y-1.1417
X4.5472Y-4.3307
X4.5866Y-1.1417
X4.5866Y-4.3307
X4.5965Y-2.8839
X4.5965Y-2.9429
X4.626Y-1.1417
X4.626Y-2.8839
X4.626Y-2.9429
X4.626Y-4.3307
X4.6555Y-2.8839
X4.6555Y-2.9429
X5.2657Y-2.8839
X5.2657Y-2.9429
X5.2953Y-1.1417
X5.2953Y-2.8839
X5.2953Y-2.9429
X5.2953Y-4.3307
X5.3248Y-2.8839
X5.3248Y-2.9429
X5.3346Y-1.1417
X5.3346Y-4.3307
X5.374Y-1.1417
X5.374Y-4.3307
X5.4134Y-1.1417
X5.4134Y-4.3307
X5.6004Y-1.3484
X5.6004Y-1.378
X5.6004Y-1.4075
X5.6004Y-2.6083
X5.6004Y-2.6378
X5.6004Y-2.6673
X5.6594Y-1.3484
X5.6594Y-1.378
X5.6594Y-1.4075
X5.6594Y-2.6083
X5.6594Y-2.6378
X5.6594Y-2.6673
X6.0335Y-1.3484
X6.0335Y-1.378
X6.0335Y-1.4075
X6.0335Y-2.6083
X6.0335Y-2.6378
X6.0335Y-2.6673
X6.0925Y-1.3484
X6.0925Y-1.378
X6.0925Y-1.4075
X6.0925Y-2.6083
X6.0925Y-2.6378
X6.0925Y-2.6673
X6.2795Y-1.1417
X6.2795Y-4.3307
X6.3189Y-1.1417
X6.3189Y-4.3307
X6.3583Y-1.1417
X6.3583Y-4.3307
X6.3681Y-2.8839
X6.3681Y-2.9429
X6.3976Y-1.1417
X6.3976Y-2.8839
X6.3976Y-2.9429
X6.3976Y-4.3307
X6.4272Y-2.8839
X6.4272Y-2.9429
X7.0374Y-2.8839
X7.0374Y-2.9429
X7.0669Y-1.1417
X7.0669Y-2.8839
X7.0669Y-2.9429
X7.0669Y-4.3307
X7.0965Y-2.8839
X7.0965Y-2.9429
X7.1063Y-1.1417
X7.1063Y-4.3307
X7.1457Y-1.1417
X7.1457Y-4.3307
X7.185Y-1.1417
X7.185Y-4.3307
X7.372Y-1.3484
X7.372Y-1.378
X7.372Y-1.4075
X7.372Y-2.6083
X7.372Y-2.6378
X7.372Y-2.6673
X7.4311Y-1.3484
X7.4311Y-1.378
X7.4311Y-1.4075
X7.4311Y-2.6083
X7.4311Y-2.6378
X7.4311Y-2.6673
T2
X4.252Y-1.063
X4.252Y-2.9528
X5.6693Y-1.063
X5.6693Y-2.9528
X6.0236Y-1.063
X6.0236Y-2.9528
X7.4409Y-1.063
X7.4409Y-2.9528
T0
M30
