%TF.GenerationSoftware,KiCad,Pcbnew,7.0.8*%
%TF.CreationDate,2024-02-08T03:58:00-08:00*%
%TF.ProjectId,panel,70616e65-6c2e-46b6-9963-61645f706362,rev?*%
%TF.SameCoordinates,Original*%
%TF.FileFunction,Copper,L1,Top*%
%TF.FilePolarity,Positive*%
%FSLAX46Y46*%
G04 Gerber Fmt 4.6, Leading zero omitted, Abs format (unit mm)*
G04 Created by KiCad (PCBNEW 7.0.8) date 2024-02-08 03:58:00*
%MOMM*%
%LPD*%
G01*
G04 APERTURE LIST*
G04 Aperture macros list*
%AMRoundRect*
0 Rectangle with rounded corners*
0 $1 Rounding radius*
0 $2 $3 $4 $5 $6 $7 $8 $9 X,Y pos of 4 corners*
0 Add a 4 corners polygon primitive as box body*
4,1,4,$2,$3,$4,$5,$6,$7,$8,$9,$2,$3,0*
0 Add four circle primitives for the rounded corners*
1,1,$1+$1,$2,$3*
1,1,$1+$1,$4,$5*
1,1,$1+$1,$6,$7*
1,1,$1+$1,$8,$9*
0 Add four rect primitives between the rounded corners*
20,1,$1+$1,$2,$3,$4,$5,0*
20,1,$1+$1,$4,$5,$6,$7,0*
20,1,$1+$1,$6,$7,$8,$9,0*
20,1,$1+$1,$8,$9,$2,$3,0*%
G04 Aperture macros list end*
%TA.AperFunction,ComponentPad*%
%ADD10C,1.600000*%
%TD*%
%TA.AperFunction,ComponentPad*%
%ADD11O,1.600000X1.600000*%
%TD*%
%TA.AperFunction,ComponentPad*%
%ADD12R,1.600000X1.600000*%
%TD*%
%TA.AperFunction,ComponentPad*%
%ADD13R,1.700000X1.700000*%
%TD*%
%TA.AperFunction,ComponentPad*%
%ADD14O,1.700000X1.700000*%
%TD*%
%TA.AperFunction,SMDPad,CuDef*%
%ADD15RoundRect,0.150000X-0.150000X0.725000X-0.150000X-0.725000X0.150000X-0.725000X0.150000X0.725000X0*%
%TD*%
%TA.AperFunction,ComponentPad*%
%ADD16C,2.000000*%
%TD*%
%TA.AperFunction,SMDPad,CuDef*%
%ADD17O,2.748280X1.998980*%
%TD*%
%TA.AperFunction,ViaPad*%
%ADD18C,0.500000*%
%TD*%
%TA.AperFunction,ViaPad*%
%ADD19C,1.000000*%
%TD*%
%TA.AperFunction,Conductor*%
%ADD20C,0.250000*%
%TD*%
%TA.AperFunction,Conductor*%
%ADD21C,0.500000*%
%TD*%
%TA.AperFunction,Conductor*%
%ADD22C,0.750000*%
%TD*%
G04 APERTURE END LIST*
D10*
%TO.P,R2,1*%
%TO.N,Board_1-+5V*%
X179000000Y-48310000D03*
D11*
%TO.P,R2,2*%
%TO.N,Board_1-Net-(U1-ISET)*%
X179000000Y-40690000D03*
%TD*%
D10*
%TO.P,R2,1*%
%TO.N,Board_0-+5V*%
X134000000Y-48310000D03*
D11*
%TO.P,R2,2*%
%TO.N,Board_0-Net-(U1-ISET)*%
X134000000Y-40690000D03*
%TD*%
D12*
%TO.P,C2,1*%
%TO.N,Board_1-+5V*%
X172000000Y-56955112D03*
D10*
%TO.P,C2,2*%
%TO.N,Board_1-Earth*%
X172000000Y-54955112D03*
%TD*%
D13*
%TO.P,J2,1,Pin_1*%
%TO.N,Board_1-+5V*%
X179890000Y-61000000D03*
D14*
%TO.P,J2,2,Pin_2*%
%TO.N,Board_1-Earth*%
X177350000Y-61000000D03*
%TO.P,J2,3,Pin_3*%
%TO.N,Board_1-Net-(J2-Pin_3)*%
X174810000Y-61000000D03*
%TO.P,J2,4,Pin_4*%
%TO.N,Board_1-Net-(J2-Pin_4)*%
X172270000Y-61000000D03*
%TO.P,J2,5,Pin_5*%
%TO.N,Board_1-Net-(J2-Pin_5)*%
X169730000Y-61000000D03*
%TO.P,J2,6,Pin_6*%
%TO.N,Board_1-Net-(J2-Pin_6)*%
X167190000Y-61000000D03*
%TO.P,J2,7,Pin_7*%
%TO.N,Board_1-Net-(J2-Pin_7)*%
X164650000Y-61000000D03*
%TO.P,J2,8,Pin_8*%
%TO.N,Board_1-Net-(J2-Pin_8)*%
X162110000Y-61000000D03*
%TD*%
D10*
%TO.P,C1,1*%
%TO.N,Board_0-+5V*%
X132000000Y-57000000D03*
%TO.P,C1,2*%
%TO.N,Board_0-Earth*%
X132000000Y-54500000D03*
%TD*%
%TO.P,C1,1*%
%TO.N,Board_1-+5V*%
X177000000Y-57000000D03*
%TO.P,C1,2*%
%TO.N,Board_1-Earth*%
X177000000Y-54500000D03*
%TD*%
D13*
%TO.P,J2,1,Pin_1*%
%TO.N,Board_0-+5V*%
X134890000Y-61000000D03*
D14*
%TO.P,J2,2,Pin_2*%
%TO.N,Board_0-Earth*%
X132350000Y-61000000D03*
%TO.P,J2,3,Pin_3*%
%TO.N,Board_0-Net-(J2-Pin_3)*%
X129810000Y-61000000D03*
%TO.P,J2,4,Pin_4*%
%TO.N,Board_0-Net-(J2-Pin_4)*%
X127270000Y-61000000D03*
%TO.P,J2,5,Pin_5*%
%TO.N,Board_0-Net-(J2-Pin_5)*%
X124730000Y-61000000D03*
%TO.P,J2,6,Pin_6*%
%TO.N,Board_0-Net-(J2-Pin_6)*%
X122190000Y-61000000D03*
%TO.P,J2,7,Pin_7*%
%TO.N,Board_0-Net-(J2-Pin_7)*%
X119650000Y-61000000D03*
%TO.P,J2,8,Pin_8*%
%TO.N,Board_0-Net-(J2-Pin_8)*%
X117110000Y-61000000D03*
%TD*%
D12*
%TO.P,C2,1*%
%TO.N,Board_0-+5V*%
X127000000Y-56955112D03*
D10*
%TO.P,C2,2*%
%TO.N,Board_0-Earth*%
X127000000Y-54955112D03*
%TD*%
D13*
%TO.P,J1,1,Pin_1*%
%TO.N,Board_1-/5V_B2*%
X162090000Y-79250000D03*
D14*
%TO.P,J1,2,Pin_2*%
%TO.N,Board_1-/GND_B2*%
X164630000Y-79250000D03*
%TO.P,J1,3,Pin_3*%
%TO.N,Board_1-/CS_5V_B2*%
X167170000Y-79250000D03*
%TO.P,J1,4,Pin_4*%
%TO.N,Board_1-/SCK_5V_B2*%
X169710000Y-79250000D03*
%TO.P,J1,5,Pin_5*%
%TO.N,Board_1-/MOSI_5V_B2*%
X172250000Y-79250000D03*
%TO.P,J1,6,Pin_6*%
%TO.N,Board_1-/BUTT1_B2*%
X174790000Y-79250000D03*
%TO.P,J1,7,Pin_7*%
%TO.N,Board_1-/BUTT2_B2*%
X177330000Y-79250000D03*
%TO.P,J1,8,Pin_8*%
%TO.N,Board_1-/BUTT3_B2*%
X179870000Y-79250000D03*
%TD*%
D15*
%TO.P,U2,1,Vddo*%
%TO.N,Board_1-/5V_B2*%
X175640000Y-82850000D03*
%TO.P,U2,2*%
%TO.N,Board_1-unconnected-(U2-Pad2)*%
X174370000Y-82850000D03*
%TO.P,U2,3*%
%TO.N,Board_1-/CS_5V_B2*%
X173100000Y-82850000D03*
%TO.P,U2,4*%
%TO.N,Board_1-/MOSI_B2*%
X171830000Y-82850000D03*
%TO.P,U2,5*%
%TO.N,Board_1-/SCK_B2*%
X170560000Y-82850000D03*
%TO.P,U2,6*%
%TO.N,Board_1-/SCK_5V_B2*%
X169290000Y-82850000D03*
%TO.P,U2,7*%
%TO.N,Board_1-unconnected-(U2-Pad7)*%
X168020000Y-82850000D03*
%TO.P,U2,8,Vss*%
%TO.N,Board_1-/GND_B2*%
X166750000Y-82850000D03*
%TO.P,U2,9*%
%TO.N,Board_1-unconnected-(U2-Pad9)*%
X166750000Y-88000000D03*
%TO.P,U2,10*%
%TO.N,Board_1-/MOSI_5V_B2*%
X168020000Y-88000000D03*
%TO.P,U2,11*%
%TO.N,Board_1-/CS_B2*%
X169290000Y-88000000D03*
%TO.P,U2,12*%
%TO.N,Board_1-/GND_B2*%
X170560000Y-88000000D03*
%TO.P,U2,13*%
%TO.N,Board_1-unconnected-(U2-Pad13)*%
X171830000Y-88000000D03*
%TO.P,U2,14*%
%TO.N,Board_1-unconnected-(U2-Pad14)*%
X173100000Y-88000000D03*
%TO.P,U2,15,EN*%
%TO.N,Board_1-/3V3*%
X174370000Y-88000000D03*
%TO.P,U2,16,Vddi*%
X175640000Y-88000000D03*
%TD*%
D12*
%TO.P,D1,1,Row5*%
%TO.N,Board_1-ROW5*%
X159000000Y-36000000D03*
D11*
%TO.P,D1,2,Row7*%
%TO.N,Board_1-ROW7*%
X159000000Y-38540000D03*
%TO.P,D1,3,Col2*%
%TO.N,Board_1-COL2*%
X159000000Y-41080000D03*
%TO.P,D1,4,Col3*%
%TO.N,Board_1-COL3*%
X159000000Y-43620000D03*
%TO.P,D1,5,Row8*%
%TO.N,Board_1-ROW8*%
X159000000Y-46160000D03*
%TO.P,D1,6,Col5*%
%TO.N,Board_1-COL5*%
X159000000Y-48700000D03*
%TO.P,D1,7,Col6*%
%TO.N,Board_1-ROW6*%
X159000000Y-51240000D03*
%TO.P,D1,8,Row3*%
%TO.N,Board_1-ROW3*%
X159000000Y-53780000D03*
%TO.P,D1,9,Row1*%
%TO.N,Board_1-ROW1*%
X183000000Y-53780000D03*
%TO.P,D1,10,Col4*%
%TO.N,Board_1-COL4*%
X183000000Y-51240000D03*
%TO.P,D1,11,Row6*%
%TO.N,Board_1-COL6*%
X183000000Y-48700000D03*
%TO.P,D1,12,Row4*%
%TO.N,Board_1-ROW4*%
X183000000Y-46160000D03*
%TO.P,D1,13,Col1*%
%TO.N,Board_1-COL1*%
X183000000Y-43620000D03*
%TO.P,D1,14,Row2*%
%TO.N,Board_1-ROW2*%
X183000000Y-41080000D03*
%TO.P,D1,15,Col7*%
%TO.N,Board_1-COL7*%
X183000000Y-38540000D03*
%TO.P,D1,16,Col8*%
%TO.N,Board_1-COL8*%
X183000000Y-36000000D03*
%TD*%
D16*
%TO.P,SW3,1,1*%
%TO.N,Board_1-Net-(J2-Pin_8)*%
X180750000Y-70250000D03*
X180750000Y-63750000D03*
%TO.P,SW3,2,2*%
%TO.N,Board_1-Earth*%
X185250000Y-70250000D03*
X185250000Y-63750000D03*
%TD*%
%TO.P,SW1,1,1*%
%TO.N,Board_0-Net-(J2-Pin_6)*%
X111750000Y-70250000D03*
X111750000Y-63750000D03*
%TO.P,SW1,2,2*%
%TO.N,Board_0-Earth*%
X116250000Y-70250000D03*
X116250000Y-63750000D03*
%TD*%
D13*
%TO.P,J1,1,Pin_1*%
%TO.N,Board_0-/5V_B2*%
X117090000Y-79250000D03*
D14*
%TO.P,J1,2,Pin_2*%
%TO.N,Board_0-/GND_B2*%
X119630000Y-79250000D03*
%TO.P,J1,3,Pin_3*%
%TO.N,Board_0-/CS_5V_B2*%
X122170000Y-79250000D03*
%TO.P,J1,4,Pin_4*%
%TO.N,Board_0-/SCK_5V_B2*%
X124710000Y-79250000D03*
%TO.P,J1,5,Pin_5*%
%TO.N,Board_0-/MOSI_5V_B2*%
X127250000Y-79250000D03*
%TO.P,J1,6,Pin_6*%
%TO.N,Board_0-/BUTT1_B2*%
X129790000Y-79250000D03*
%TO.P,J1,7,Pin_7*%
%TO.N,Board_0-/BUTT2_B2*%
X132330000Y-79250000D03*
%TO.P,J1,8,Pin_8*%
%TO.N,Board_0-/BUTT3_B2*%
X134870000Y-79250000D03*
%TD*%
D12*
%TO.P,D1,1,Row5*%
%TO.N,Board_0-ROW5*%
X114000000Y-36000000D03*
D11*
%TO.P,D1,2,Row7*%
%TO.N,Board_0-ROW7*%
X114000000Y-38540000D03*
%TO.P,D1,3,Col2*%
%TO.N,Board_0-COL2*%
X114000000Y-41080000D03*
%TO.P,D1,4,Col3*%
%TO.N,Board_0-COL3*%
X114000000Y-43620000D03*
%TO.P,D1,5,Row8*%
%TO.N,Board_0-ROW8*%
X114000000Y-46160000D03*
%TO.P,D1,6,Col5*%
%TO.N,Board_0-COL5*%
X114000000Y-48700000D03*
%TO.P,D1,7,Col6*%
%TO.N,Board_0-ROW6*%
X114000000Y-51240000D03*
%TO.P,D1,8,Row3*%
%TO.N,Board_0-ROW3*%
X114000000Y-53780000D03*
%TO.P,D1,9,Row1*%
%TO.N,Board_0-ROW1*%
X138000000Y-53780000D03*
%TO.P,D1,10,Col4*%
%TO.N,Board_0-COL4*%
X138000000Y-51240000D03*
%TO.P,D1,11,Row6*%
%TO.N,Board_0-COL6*%
X138000000Y-48700000D03*
%TO.P,D1,12,Row4*%
%TO.N,Board_0-ROW4*%
X138000000Y-46160000D03*
%TO.P,D1,13,Col1*%
%TO.N,Board_0-COL1*%
X138000000Y-43620000D03*
%TO.P,D1,14,Row2*%
%TO.N,Board_0-ROW2*%
X138000000Y-41080000D03*
%TO.P,D1,15,Col7*%
%TO.N,Board_0-COL7*%
X138000000Y-38540000D03*
%TO.P,D1,16,Col8*%
%TO.N,Board_0-COL8*%
X138000000Y-36000000D03*
%TD*%
D13*
%TO.P,J3,1,Pin_1*%
%TO.N,Board_1-/GND_B2*%
X162250000Y-85500000D03*
D14*
%TO.P,J3,2,Pin_2*%
%TO.N,Board_1-/5V_B2*%
X162250000Y-82960000D03*
%TD*%
D16*
%TO.P,SW2,1,1*%
%TO.N,Board_0-Net-(J2-Pin_7)*%
X123750000Y-70250000D03*
X123750000Y-63750000D03*
%TO.P,SW2,2,2*%
%TO.N,Board_0-Earth*%
X128250000Y-70250000D03*
X128250000Y-63750000D03*
%TD*%
D17*
%TO.P,U3,1,PA02_A0_D0*%
%TO.N,Board_1-/PHOTO_SENSE*%
X179065770Y-108367820D03*
%TO.P,U3,2,PA4_A1_D1*%
%TO.N,Board_1-/BUTT1_B2*%
X179065770Y-105827820D03*
%TO.P,U3,3,PA10_A2_D2*%
%TO.N,Board_1-/BUTT2_B2*%
X179065770Y-103287820D03*
%TO.P,U3,4,PA11_A3_D3*%
%TO.N,Board_1-/BUTT3_B2*%
X179065770Y-100747820D03*
%TO.P,U3,5,PA8_A4_D4_SDA*%
%TO.N,Board_1-Net-(Q1-G)*%
X179065770Y-98207820D03*
%TO.P,U3,6,PA9_A5_D5_SCL*%
%TO.N,Board_1-unconnected-(U3-PA9_A5_D5_SCL-Pad6)*%
X179065770Y-95667820D03*
%TO.P,U3,7,PB08_A6_D6_TX*%
%TO.N,Board_1-unconnected-(U3-PB08_A6_D6_TX-Pad7)*%
X179065770Y-93127820D03*
%TO.P,U3,8,PB09_A7_D7_RX*%
%TO.N,Board_1-unconnected-(U3-PB09_A7_D7_RX-Pad8)*%
X162901210Y-93127820D03*
%TO.P,U3,9,PA7_A8_D8_SCK*%
%TO.N,Board_1-/SCK_B2*%
X162901210Y-95667820D03*
%TO.P,U3,10,PA5_A9_D9_MISO*%
%TO.N,Board_1-/CS_B2*%
X162901210Y-98207820D03*
%TO.P,U3,11,PA6_A10_D10_MOSI*%
%TO.N,Board_1-/MOSI_B2*%
X162901210Y-100747820D03*
%TO.P,U3,12,3V3*%
%TO.N,Board_1-/3V3*%
X162901210Y-103287820D03*
%TO.P,U3,13,GND*%
%TO.N,Board_1-/GND_B2*%
X162901210Y-105827820D03*
%TO.P,U3,14,5V*%
%TO.N,Board_1-/5V_B2*%
X162901210Y-108367820D03*
%TD*%
D13*
%TO.P,R1,1*%
%TO.N,Board_1-/GND_B2*%
X179750000Y-85500000D03*
D14*
%TO.P,R1,2*%
%TO.N,Board_1-/PHOTO_SENSE*%
X179750000Y-82960000D03*
%TD*%
D17*
%TO.P,U3,1,PA02_A0_D0*%
%TO.N,Board_0-/PHOTO_SENSE*%
X134065770Y-108367820D03*
%TO.P,U3,2,PA4_A1_D1*%
%TO.N,Board_0-/BUTT1_B2*%
X134065770Y-105827820D03*
%TO.P,U3,3,PA10_A2_D2*%
%TO.N,Board_0-/BUTT2_B2*%
X134065770Y-103287820D03*
%TO.P,U3,4,PA11_A3_D3*%
%TO.N,Board_0-/BUTT3_B2*%
X134065770Y-100747820D03*
%TO.P,U3,5,PA8_A4_D4_SDA*%
%TO.N,Board_0-Net-(Q1-G)*%
X134065770Y-98207820D03*
%TO.P,U3,6,PA9_A5_D5_SCL*%
%TO.N,Board_0-unconnected-(U3-PA9_A5_D5_SCL-Pad6)*%
X134065770Y-95667820D03*
%TO.P,U3,7,PB08_A6_D6_TX*%
%TO.N,Board_0-unconnected-(U3-PB08_A6_D6_TX-Pad7)*%
X134065770Y-93127820D03*
%TO.P,U3,8,PB09_A7_D7_RX*%
%TO.N,Board_0-unconnected-(U3-PB09_A7_D7_RX-Pad8)*%
X117901210Y-93127820D03*
%TO.P,U3,9,PA7_A8_D8_SCK*%
%TO.N,Board_0-/SCK_B2*%
X117901210Y-95667820D03*
%TO.P,U3,10,PA5_A9_D9_MISO*%
%TO.N,Board_0-/CS_B2*%
X117901210Y-98207820D03*
%TO.P,U3,11,PA6_A10_D10_MOSI*%
%TO.N,Board_0-/MOSI_B2*%
X117901210Y-100747820D03*
%TO.P,U3,12,3V3*%
%TO.N,Board_0-/3V3*%
X117901210Y-103287820D03*
%TO.P,U3,13,GND*%
%TO.N,Board_0-/GND_B2*%
X117901210Y-105827820D03*
%TO.P,U3,14,5V*%
%TO.N,Board_0-/5V_B2*%
X117901210Y-108367820D03*
%TD*%
D16*
%TO.P,SW1,1,1*%
%TO.N,Board_1-Net-(J2-Pin_6)*%
X156750000Y-70250000D03*
X156750000Y-63750000D03*
%TO.P,SW1,2,2*%
%TO.N,Board_1-Earth*%
X161250000Y-70250000D03*
X161250000Y-63750000D03*
%TD*%
%TO.P,SW2,1,1*%
%TO.N,Board_1-Net-(J2-Pin_7)*%
X168750000Y-70250000D03*
X168750000Y-63750000D03*
%TO.P,SW2,2,2*%
%TO.N,Board_1-Earth*%
X173250000Y-70250000D03*
X173250000Y-63750000D03*
%TD*%
D15*
%TO.P,U2,1,Vddo*%
%TO.N,Board_0-/5V_B2*%
X130640000Y-82850000D03*
%TO.P,U2,2*%
%TO.N,Board_0-unconnected-(U2-Pad2)*%
X129370000Y-82850000D03*
%TO.P,U2,3*%
%TO.N,Board_0-/CS_5V_B2*%
X128100000Y-82850000D03*
%TO.P,U2,4*%
%TO.N,Board_0-/MOSI_B2*%
X126830000Y-82850000D03*
%TO.P,U2,5*%
%TO.N,Board_0-/SCK_B2*%
X125560000Y-82850000D03*
%TO.P,U2,6*%
%TO.N,Board_0-/SCK_5V_B2*%
X124290000Y-82850000D03*
%TO.P,U2,7*%
%TO.N,Board_0-unconnected-(U2-Pad7)*%
X123020000Y-82850000D03*
%TO.P,U2,8,Vss*%
%TO.N,Board_0-/GND_B2*%
X121750000Y-82850000D03*
%TO.P,U2,9*%
%TO.N,Board_0-unconnected-(U2-Pad9)*%
X121750000Y-88000000D03*
%TO.P,U2,10*%
%TO.N,Board_0-/MOSI_5V_B2*%
X123020000Y-88000000D03*
%TO.P,U2,11*%
%TO.N,Board_0-/CS_B2*%
X124290000Y-88000000D03*
%TO.P,U2,12*%
%TO.N,Board_0-/GND_B2*%
X125560000Y-88000000D03*
%TO.P,U2,13*%
%TO.N,Board_0-unconnected-(U2-Pad13)*%
X126830000Y-88000000D03*
%TO.P,U2,14*%
%TO.N,Board_0-unconnected-(U2-Pad14)*%
X128100000Y-88000000D03*
%TO.P,U2,15,EN*%
%TO.N,Board_0-/3V3*%
X129370000Y-88000000D03*
%TO.P,U2,16,Vddi*%
X130640000Y-88000000D03*
%TD*%
D13*
%TO.P,J3,1,Pin_1*%
%TO.N,Board_0-/GND_B2*%
X117250000Y-85500000D03*
D14*
%TO.P,J3,2,Pin_2*%
%TO.N,Board_0-/5V_B2*%
X117250000Y-82960000D03*
%TD*%
D13*
%TO.P,R1,1*%
%TO.N,Board_0-/GND_B2*%
X134750000Y-85500000D03*
D14*
%TO.P,R1,2*%
%TO.N,Board_0-/PHOTO_SENSE*%
X134750000Y-82960000D03*
%TD*%
D16*
%TO.P,SW3,1,1*%
%TO.N,Board_0-Net-(J2-Pin_8)*%
X135750000Y-70250000D03*
X135750000Y-63750000D03*
%TO.P,SW3,2,2*%
%TO.N,Board_0-Earth*%
X140250000Y-70250000D03*
X140250000Y-63750000D03*
%TD*%
D18*
%TO.N,Board_1-ROW8*%
X160400000Y-42100000D03*
%TO.N,Board_1-ROW7*%
X161200000Y-45500000D03*
%TO.N,Board_1-ROW6*%
X162374500Y-39300000D03*
%TO.N,Board_1-ROW5*%
X162000000Y-48100000D03*
%TO.N,Board_1-ROW3*%
X163200000Y-44500000D03*
%TO.N,Board_1-Net-(U1-ISET)*%
X179000000Y-43100000D03*
%TO.N,Board_1-Net-(Q1-G)*%
X180800000Y-99700000D03*
%TO.N,Board_1-Net-(J2-Pin_4)*%
X172400000Y-38055500D03*
%TO.N,Board_1-Net-(J2-Pin_3)*%
X171600000Y-36700000D03*
D19*
%TO.N,Board_1-Earth*%
X166600000Y-40345500D03*
X166600000Y-46675500D03*
D18*
%TO.N,Board_1-COL8*%
X184800000Y-47500000D03*
%TO.N,Board_1-COL7*%
X184200000Y-42300000D03*
%TO.N,Board_1-COL6*%
X180993767Y-39906233D03*
%TO.N,Board_1-COL1*%
X181600000Y-38500000D03*
%TO.N,Board_1-/PHOTO_SENSE*%
X175600000Y-95700000D03*
D19*
%TO.N,Board_1-/GND_B2*%
X167400000Y-96500000D03*
D18*
X167800000Y-102500000D03*
X166000000Y-85300000D03*
%TO.N,Board_1-/CS_5V_B2*%
X171400000Y-81100000D03*
%TO.N,Board_1-/5V_B2*%
X168200000Y-103300000D03*
D19*
X169000000Y-98100000D03*
D18*
%TO.N,Board_1-/3V3*%
X170200000Y-98500000D03*
X166575500Y-99100000D03*
D19*
%TO.N,Board_1-+5V*%
X176300000Y-45000000D03*
D18*
X179000000Y-44300000D03*
%TO.N,Board_0-ROW8*%
X115400000Y-42100000D03*
%TO.N,Board_0-ROW7*%
X116200000Y-45500000D03*
%TO.N,Board_0-ROW6*%
X117374500Y-39300000D03*
%TO.N,Board_0-ROW5*%
X117000000Y-48100000D03*
%TO.N,Board_0-ROW3*%
X118200000Y-44500000D03*
%TO.N,Board_0-Net-(U1-ISET)*%
X134000000Y-43100000D03*
%TO.N,Board_0-Net-(Q1-G)*%
X135800000Y-99700000D03*
%TO.N,Board_0-Net-(J2-Pin_4)*%
X127400000Y-38055500D03*
%TO.N,Board_0-Net-(J2-Pin_3)*%
X126600000Y-36700000D03*
D19*
%TO.N,Board_0-Earth*%
X121600000Y-40345500D03*
X121600000Y-46675500D03*
D18*
%TO.N,Board_0-COL8*%
X139800000Y-47500000D03*
%TO.N,Board_0-COL7*%
X139200000Y-42300000D03*
%TO.N,Board_0-COL6*%
X135993767Y-39906233D03*
%TO.N,Board_0-COL1*%
X136600000Y-38500000D03*
%TO.N,Board_0-/PHOTO_SENSE*%
X130600000Y-95700000D03*
D19*
%TO.N,Board_0-/GND_B2*%
X122400000Y-96500000D03*
D18*
X121000000Y-85300000D03*
X122800000Y-102500000D03*
%TO.N,Board_0-/CS_5V_B2*%
X126400000Y-81100000D03*
D19*
%TO.N,Board_0-/5V_B2*%
X124000000Y-98100000D03*
D18*
X123200000Y-103300000D03*
%TO.N,Board_0-/3V3*%
X125200000Y-98500000D03*
X121575500Y-99100000D03*
D19*
%TO.N,Board_0-+5V*%
X131300000Y-45000000D03*
D18*
X134000000Y-44300000D03*
%TD*%
D20*
%TO.N,Board_1-ROW8*%
X160200000Y-42500000D02*
X160200000Y-44960000D01*
X160400000Y-42300000D02*
X160200000Y-42500000D01*
X160200000Y-44960000D02*
X159000000Y-46160000D01*
X160400000Y-42100000D02*
X160400000Y-42300000D01*
%TO.N,Board_1-ROW7*%
X161200000Y-45500000D02*
X161000000Y-45300000D01*
X161000000Y-45300000D02*
X161000000Y-40540000D01*
X161000000Y-40540000D02*
X159000000Y-38540000D01*
%TO.N,Board_1-ROW6*%
X160473173Y-51240000D02*
X159000000Y-51240000D01*
X162600000Y-39525500D02*
X162600000Y-49113173D01*
X162374500Y-39300000D02*
X162600000Y-39525500D01*
X162600000Y-49113173D02*
X160473173Y-51240000D01*
%TO.N,Board_1-ROW5*%
X161800000Y-47900000D02*
X161800000Y-38700000D01*
X162000000Y-48100000D02*
X161800000Y-47900000D01*
X159100000Y-36000000D02*
X159000000Y-36000000D01*
X161800000Y-38700000D02*
X159100000Y-36000000D01*
%TO.N,Board_1-ROW3*%
X159000000Y-53780000D02*
X163200000Y-49580000D01*
X163200000Y-49580000D02*
X163200000Y-44500000D01*
%TO.N,Board_1-Net-(U1-ISET)*%
X179000000Y-40690000D02*
X179000000Y-43100000D01*
%TO.N,Board_1-Net-(Q1-G)*%
X180800000Y-99700000D02*
X179307820Y-98207820D01*
X179307820Y-98207820D02*
X179065770Y-98207820D01*
%TO.N,Board_1-Net-(J2-Pin_8)*%
X180750000Y-63750000D02*
X180750000Y-70250000D01*
%TO.N,Board_1-Net-(J2-Pin_7)*%
X168750000Y-63750000D02*
X168750000Y-70250000D01*
%TO.N,Board_1-Net-(J2-Pin_6)*%
X165890000Y-62300000D02*
X167190000Y-61000000D01*
X156750000Y-63750000D02*
X156750000Y-70250000D01*
X156750000Y-63750000D02*
X158200000Y-62300000D01*
X158200000Y-62300000D02*
X165890000Y-62300000D01*
%TO.N,Board_1-Net-(J2-Pin_4)*%
X174360000Y-58910000D02*
X174360000Y-54300000D01*
X174350000Y-40005500D02*
X172400000Y-38055500D01*
X172270000Y-61000000D02*
X174360000Y-58910000D01*
X174360000Y-54300000D02*
X174350000Y-54290000D01*
X174350000Y-54290000D02*
X174350000Y-40005500D01*
%TO.N,Board_1-Net-(J2-Pin_3)*%
X171857673Y-36700000D02*
X174800000Y-39642327D01*
X174800000Y-39900000D02*
X174810000Y-39910000D01*
X174800000Y-39642327D02*
X174800000Y-39900000D01*
X174810000Y-39910000D02*
X174810000Y-61000000D01*
X171600000Y-36700000D02*
X171857673Y-36700000D01*
%TO.N,Board_1-Earth*%
X171925000Y-71575000D02*
X173250000Y-70250000D01*
X174575000Y-71575000D02*
X183925000Y-71575000D01*
X173250000Y-63750000D02*
X173250000Y-70250000D01*
X185250000Y-63750000D02*
X185250000Y-70250000D01*
D21*
X169655112Y-54955112D02*
X172000000Y-54955112D01*
D20*
X161250000Y-63750000D02*
X161250000Y-70250000D01*
X161250000Y-70250000D02*
X162575000Y-71575000D01*
D21*
X166600000Y-40345500D02*
X166600000Y-46675500D01*
D20*
X183925000Y-71575000D02*
X185250000Y-70250000D01*
X173250000Y-70250000D02*
X174575000Y-71575000D01*
D21*
X166600000Y-46675500D02*
X166600000Y-51900000D01*
D20*
X162575000Y-71575000D02*
X171925000Y-71575000D01*
D21*
X166600000Y-51900000D02*
X169655112Y-54955112D01*
D20*
%TO.N,Board_1-COL8*%
X183000000Y-36000000D02*
X184800000Y-37800000D01*
X184800000Y-37800000D02*
X184800000Y-47500000D01*
%TO.N,Board_1-COL7*%
X183000000Y-38540000D02*
X184200000Y-39740000D01*
X184200000Y-39740000D02*
X184200000Y-42300000D01*
%TO.N,Board_1-COL6*%
X183000000Y-48700000D02*
X180993767Y-46693767D01*
X180993767Y-46693767D02*
X180993767Y-39906233D01*
%TO.N,Board_1-COL1*%
X183000000Y-43620000D02*
X181600000Y-42220000D01*
X181600000Y-42220000D02*
X181600000Y-38500000D01*
%TO.N,Board_1-/SCK_B2*%
X170560000Y-84598896D02*
X170560000Y-82850000D01*
X162901210Y-95667820D02*
X168665000Y-89904030D01*
X168665000Y-86493896D02*
X170560000Y-84598896D01*
X168665000Y-89904030D02*
X168665000Y-86493896D01*
%TO.N,Board_1-/SCK_5V_B2*%
X169290000Y-79670000D02*
X169710000Y-79250000D01*
X169290000Y-82850000D02*
X169290000Y-79670000D01*
%TO.N,Board_1-/PHOTO_SENSE*%
X175600000Y-104902050D02*
X179065770Y-108367820D01*
X175600000Y-95700000D02*
X175600000Y-104902050D01*
%TO.N,Board_1-/MOSI_B2*%
X169915000Y-87098248D02*
X169915000Y-92818273D01*
X171830000Y-85183248D02*
X169915000Y-87098248D01*
X164600000Y-99049030D02*
X162901210Y-100747820D01*
X164600000Y-98133273D02*
X164600000Y-99049030D01*
X169915000Y-92818273D02*
X164600000Y-98133273D01*
X171830000Y-82850000D02*
X171830000Y-85183248D01*
%TO.N,Board_1-/MOSI_5V_B2*%
X168020000Y-86502500D02*
X168020000Y-88000000D01*
X172250000Y-79250000D02*
X169935000Y-81565000D01*
X169935000Y-81565000D02*
X169935000Y-84587500D01*
X169935000Y-84587500D02*
X168020000Y-86502500D01*
%TO.N,Board_1-/GND_B2*%
X170560000Y-88000000D02*
X170560000Y-93340000D01*
X167800000Y-102500000D02*
X167800000Y-101789893D01*
D22*
X162901210Y-105827820D02*
X162962073Y-105827820D01*
D20*
X166750000Y-82850000D02*
X166750000Y-84550000D01*
X167800000Y-101789893D02*
X167400000Y-101389893D01*
X170560000Y-93340000D02*
X167400000Y-96500000D01*
D22*
X167400000Y-101389893D02*
X167400000Y-96500000D01*
X162962073Y-105827820D02*
X167400000Y-101389893D01*
D20*
X166750000Y-84550000D02*
X166000000Y-85300000D01*
%TO.N,Board_1-/CS_B2*%
X162901210Y-98207820D02*
X169290000Y-91819030D01*
X169290000Y-91819030D02*
X169290000Y-88000000D01*
%TO.N,Board_1-/CS_5V_B2*%
X173100000Y-82850000D02*
X173100000Y-81975000D01*
X172225000Y-81100000D02*
X171400000Y-81100000D01*
X173100000Y-81975000D02*
X172225000Y-81100000D01*
%TO.N,Board_1-/BUTT3_B2*%
X179870000Y-79250000D02*
X177250000Y-81870000D01*
X177250000Y-98932050D02*
X179065770Y-100747820D01*
X177250000Y-81870000D02*
X177250000Y-98932050D01*
%TO.N,Board_1-/BUTT2_B2*%
X176800000Y-79780000D02*
X176800000Y-101022050D01*
X177330000Y-79250000D02*
X176800000Y-79780000D01*
X176800000Y-101022050D02*
X179065770Y-103287820D01*
%TO.N,Board_1-/BUTT1_B2*%
X174790000Y-79250000D02*
X176265000Y-80725000D01*
X176265000Y-103027050D02*
X179065770Y-105827820D01*
X176265000Y-80725000D02*
X176265000Y-103027050D01*
%TO.N,Board_1-/5V_B2*%
X171185000Y-95915000D02*
X169000000Y-98100000D01*
X175640000Y-83725000D02*
X173865000Y-85500000D01*
D21*
X162250000Y-79410000D02*
X162090000Y-79250000D01*
D22*
X162901210Y-108367820D02*
X164271500Y-108367820D01*
D20*
X171185000Y-86715000D02*
X171185000Y-95915000D01*
D22*
X169000000Y-103639320D02*
X169000000Y-98100000D01*
D20*
X172400000Y-85500000D02*
X171185000Y-86715000D01*
X175640000Y-82850000D02*
X175640000Y-83725000D01*
X168200000Y-103300000D02*
X168200000Y-104439320D01*
D22*
X167269660Y-105369660D02*
X169000000Y-103639320D01*
X164271500Y-108367820D02*
X167269660Y-105369660D01*
D20*
X173865000Y-85500000D02*
X172400000Y-85500000D01*
%TO.N,Board_1-/3V3*%
X166575500Y-99100000D02*
X166575500Y-99613530D01*
X174370000Y-88000000D02*
X174370000Y-88276752D01*
X171635000Y-91011752D02*
X171635000Y-97065000D01*
X174370000Y-88276752D02*
X171635000Y-91011752D01*
X166575500Y-99613530D02*
X162901210Y-103287820D01*
X175640000Y-88000000D02*
X174370000Y-88000000D01*
X171635000Y-97065000D02*
X170200000Y-98500000D01*
D21*
%TO.N,Board_1-+5V*%
X175750000Y-45550000D02*
X175750000Y-55750000D01*
X175750000Y-55750000D02*
X177000000Y-57000000D01*
X176300000Y-45000000D02*
X175750000Y-45550000D01*
X177000000Y-58110000D02*
X179890000Y-61000000D01*
D20*
X179000000Y-48310000D02*
X179000000Y-44300000D01*
D21*
X177000000Y-57000000D02*
X177000000Y-58110000D01*
D20*
%TO.N,Board_0-ROW8*%
X115200000Y-42500000D02*
X115200000Y-44960000D01*
X115400000Y-42300000D02*
X115200000Y-42500000D01*
X115400000Y-42100000D02*
X115400000Y-42300000D01*
X115200000Y-44960000D02*
X114000000Y-46160000D01*
%TO.N,Board_0-ROW7*%
X116000000Y-40540000D02*
X114000000Y-38540000D01*
X116200000Y-45500000D02*
X116000000Y-45300000D01*
X116000000Y-45300000D02*
X116000000Y-40540000D01*
%TO.N,Board_0-ROW6*%
X117600000Y-49113173D02*
X115473173Y-51240000D01*
X117374500Y-39300000D02*
X117600000Y-39525500D01*
X117600000Y-39525500D02*
X117600000Y-49113173D01*
X115473173Y-51240000D02*
X114000000Y-51240000D01*
%TO.N,Board_0-ROW5*%
X116800000Y-47900000D02*
X116800000Y-38700000D01*
X116800000Y-38700000D02*
X114100000Y-36000000D01*
X117000000Y-48100000D02*
X116800000Y-47900000D01*
X114100000Y-36000000D02*
X114000000Y-36000000D01*
%TO.N,Board_0-ROW3*%
X118200000Y-49580000D02*
X118200000Y-44500000D01*
X114000000Y-53780000D02*
X118200000Y-49580000D01*
%TO.N,Board_0-Net-(U1-ISET)*%
X134000000Y-40690000D02*
X134000000Y-43100000D01*
%TO.N,Board_0-Net-(Q1-G)*%
X134307820Y-98207820D02*
X134065770Y-98207820D01*
X135800000Y-99700000D02*
X134307820Y-98207820D01*
%TO.N,Board_0-Net-(J2-Pin_8)*%
X135750000Y-63750000D02*
X135750000Y-70250000D01*
%TO.N,Board_0-Net-(J2-Pin_7)*%
X123750000Y-63750000D02*
X123750000Y-70250000D01*
%TO.N,Board_0-Net-(J2-Pin_6)*%
X111750000Y-63750000D02*
X113200000Y-62300000D01*
X111750000Y-63750000D02*
X111750000Y-70250000D01*
X120890000Y-62300000D02*
X122190000Y-61000000D01*
X113200000Y-62300000D02*
X120890000Y-62300000D01*
%TO.N,Board_0-Net-(J2-Pin_4)*%
X129360000Y-58910000D02*
X129360000Y-54300000D01*
X129360000Y-54300000D02*
X129350000Y-54290000D01*
X129350000Y-54290000D02*
X129350000Y-40005500D01*
X127270000Y-61000000D02*
X129360000Y-58910000D01*
X129350000Y-40005500D02*
X127400000Y-38055500D01*
%TO.N,Board_0-Net-(J2-Pin_3)*%
X129800000Y-39900000D02*
X129810000Y-39910000D01*
X126857673Y-36700000D02*
X129800000Y-39642327D01*
X129800000Y-39642327D02*
X129800000Y-39900000D01*
X126600000Y-36700000D02*
X126857673Y-36700000D01*
X129810000Y-39910000D02*
X129810000Y-61000000D01*
%TO.N,Board_0-Earth*%
X117575000Y-71575000D02*
X126925000Y-71575000D01*
D21*
X121600000Y-46675500D02*
X121600000Y-51900000D01*
D20*
X126925000Y-71575000D02*
X128250000Y-70250000D01*
D21*
X121600000Y-40345500D02*
X121600000Y-46675500D01*
D20*
X138925000Y-71575000D02*
X140250000Y-70250000D01*
X116250000Y-70250000D02*
X117575000Y-71575000D01*
X116250000Y-63750000D02*
X116250000Y-70250000D01*
X140250000Y-63750000D02*
X140250000Y-70250000D01*
X128250000Y-70250000D02*
X129575000Y-71575000D01*
X129575000Y-71575000D02*
X138925000Y-71575000D01*
D21*
X124655112Y-54955112D02*
X127000000Y-54955112D01*
D20*
X128250000Y-63750000D02*
X128250000Y-70250000D01*
D21*
X121600000Y-51900000D02*
X124655112Y-54955112D01*
D20*
%TO.N,Board_0-COL8*%
X138000000Y-36000000D02*
X139800000Y-37800000D01*
X139800000Y-37800000D02*
X139800000Y-47500000D01*
%TO.N,Board_0-COL7*%
X139200000Y-39740000D02*
X139200000Y-42300000D01*
X138000000Y-38540000D02*
X139200000Y-39740000D01*
%TO.N,Board_0-COL6*%
X135993767Y-46693767D02*
X135993767Y-39906233D01*
X138000000Y-48700000D02*
X135993767Y-46693767D01*
%TO.N,Board_0-COL1*%
X138000000Y-43620000D02*
X136600000Y-42220000D01*
X136600000Y-42220000D02*
X136600000Y-38500000D01*
%TO.N,Board_0-/SCK_B2*%
X117901210Y-95667820D02*
X123665000Y-89904030D01*
X123665000Y-86493896D02*
X125560000Y-84598896D01*
X125560000Y-84598896D02*
X125560000Y-82850000D01*
X123665000Y-89904030D02*
X123665000Y-86493896D01*
%TO.N,Board_0-/SCK_5V_B2*%
X124290000Y-79670000D02*
X124710000Y-79250000D01*
X124290000Y-82850000D02*
X124290000Y-79670000D01*
%TO.N,Board_0-/PHOTO_SENSE*%
X130600000Y-95700000D02*
X130600000Y-104902050D01*
X130600000Y-104902050D02*
X134065770Y-108367820D01*
%TO.N,Board_0-/MOSI_B2*%
X124915000Y-92818273D02*
X119600000Y-98133273D01*
X119600000Y-99049030D02*
X117901210Y-100747820D01*
X126830000Y-85183248D02*
X124915000Y-87098248D01*
X124915000Y-87098248D02*
X124915000Y-92818273D01*
X119600000Y-98133273D02*
X119600000Y-99049030D01*
X126830000Y-82850000D02*
X126830000Y-85183248D01*
%TO.N,Board_0-/MOSI_5V_B2*%
X124935000Y-81565000D02*
X124935000Y-84587500D01*
X123020000Y-86502500D02*
X123020000Y-88000000D01*
X124935000Y-84587500D02*
X123020000Y-86502500D01*
X127250000Y-79250000D02*
X124935000Y-81565000D01*
%TO.N,Board_0-/GND_B2*%
X121750000Y-82850000D02*
X121750000Y-84550000D01*
X125560000Y-88000000D02*
X125560000Y-93340000D01*
D22*
X122400000Y-101389893D02*
X122400000Y-96500000D01*
D20*
X125560000Y-93340000D02*
X122400000Y-96500000D01*
D22*
X117901210Y-105827820D02*
X117962073Y-105827820D01*
D20*
X121750000Y-84550000D02*
X121000000Y-85300000D01*
X122800000Y-101789893D02*
X122400000Y-101389893D01*
D22*
X117962073Y-105827820D02*
X122400000Y-101389893D01*
D20*
X122800000Y-102500000D02*
X122800000Y-101789893D01*
%TO.N,Board_0-/CS_B2*%
X124290000Y-91819030D02*
X124290000Y-88000000D01*
X117901210Y-98207820D02*
X124290000Y-91819030D01*
%TO.N,Board_0-/CS_5V_B2*%
X127225000Y-81100000D02*
X126400000Y-81100000D01*
X128100000Y-81975000D02*
X127225000Y-81100000D01*
X128100000Y-82850000D02*
X128100000Y-81975000D01*
%TO.N,Board_0-/BUTT3_B2*%
X134870000Y-79250000D02*
X132250000Y-81870000D01*
X132250000Y-81870000D02*
X132250000Y-98932050D01*
X132250000Y-98932050D02*
X134065770Y-100747820D01*
%TO.N,Board_0-/BUTT2_B2*%
X131800000Y-101022050D02*
X134065770Y-103287820D01*
X131800000Y-79780000D02*
X131800000Y-101022050D01*
X132330000Y-79250000D02*
X131800000Y-79780000D01*
%TO.N,Board_0-/BUTT1_B2*%
X131265000Y-80725000D02*
X131265000Y-103027050D01*
X131265000Y-103027050D02*
X134065770Y-105827820D01*
X129790000Y-79250000D02*
X131265000Y-80725000D01*
D22*
%TO.N,Board_0-/5V_B2*%
X117901210Y-108367820D02*
X119271500Y-108367820D01*
D20*
X123200000Y-103300000D02*
X123200000Y-104439320D01*
D22*
X119271500Y-108367820D02*
X122269660Y-105369660D01*
D20*
X128865000Y-85500000D02*
X127400000Y-85500000D01*
D21*
X117250000Y-79410000D02*
X117090000Y-79250000D01*
D20*
X130640000Y-83725000D02*
X128865000Y-85500000D01*
X126185000Y-86715000D02*
X126185000Y-95915000D01*
X127400000Y-85500000D02*
X126185000Y-86715000D01*
X130640000Y-82850000D02*
X130640000Y-83725000D01*
X126185000Y-95915000D02*
X124000000Y-98100000D01*
D22*
X122269660Y-105369660D02*
X124000000Y-103639320D01*
X124000000Y-103639320D02*
X124000000Y-98100000D01*
D20*
%TO.N,Board_0-/3V3*%
X129370000Y-88000000D02*
X129370000Y-88276752D01*
X130640000Y-88000000D02*
X129370000Y-88000000D01*
X126635000Y-91011752D02*
X126635000Y-97065000D01*
X129370000Y-88276752D02*
X126635000Y-91011752D01*
X126635000Y-97065000D02*
X125200000Y-98500000D01*
X121575500Y-99613530D02*
X117901210Y-103287820D01*
X121575500Y-99100000D02*
X121575500Y-99613530D01*
D21*
%TO.N,Board_0-+5V*%
X132000000Y-57000000D02*
X132000000Y-58110000D01*
X130750000Y-55750000D02*
X132000000Y-57000000D01*
X130750000Y-45550000D02*
X130750000Y-55750000D01*
X132000000Y-58110000D02*
X134890000Y-61000000D01*
X131300000Y-45000000D02*
X130750000Y-45550000D01*
D20*
X134000000Y-48310000D02*
X134000000Y-44300000D01*
%TD*%
%TA.AperFunction,Conductor*%
%TO.N,Board_0-Earth*%
G36*
X114459424Y-29500158D02*
G01*
X114464198Y-29500499D01*
X114464201Y-29500500D01*
X114464204Y-29500500D01*
X114535796Y-29500500D01*
X114535799Y-29500500D01*
X114535801Y-29500499D01*
X114540576Y-29500158D01*
X114545002Y-29500000D01*
X115454998Y-29500000D01*
X115459424Y-29500158D01*
X115464198Y-29500499D01*
X115464201Y-29500500D01*
X115464204Y-29500500D01*
X115535796Y-29500500D01*
X115535799Y-29500500D01*
X115535801Y-29500499D01*
X115540576Y-29500158D01*
X115545002Y-29500000D01*
X116454998Y-29500000D01*
X116459424Y-29500158D01*
X116464198Y-29500499D01*
X116464201Y-29500500D01*
X116464204Y-29500500D01*
X116535796Y-29500500D01*
X116535799Y-29500500D01*
X116535801Y-29500499D01*
X116540576Y-29500158D01*
X116545002Y-29500000D01*
X117454998Y-29500000D01*
X117459424Y-29500158D01*
X117464198Y-29500499D01*
X117464201Y-29500500D01*
X117464204Y-29500500D01*
X117535796Y-29500500D01*
X117535799Y-29500500D01*
X117535801Y-29500499D01*
X117540576Y-29500158D01*
X117545002Y-29500000D01*
X134454998Y-29500000D01*
X134459424Y-29500158D01*
X134464198Y-29500499D01*
X134464201Y-29500500D01*
X134464204Y-29500500D01*
X134535796Y-29500500D01*
X134535799Y-29500500D01*
X134535801Y-29500499D01*
X134540576Y-29500158D01*
X134545002Y-29500000D01*
X135454998Y-29500000D01*
X135459424Y-29500158D01*
X135464198Y-29500499D01*
X135464201Y-29500500D01*
X135464204Y-29500500D01*
X135535796Y-29500500D01*
X135535799Y-29500500D01*
X135535801Y-29500499D01*
X135540576Y-29500158D01*
X135545002Y-29500000D01*
X136454998Y-29500000D01*
X136459424Y-29500158D01*
X136464198Y-29500499D01*
X136464201Y-29500500D01*
X136464204Y-29500500D01*
X136535796Y-29500500D01*
X136535799Y-29500500D01*
X136535801Y-29500499D01*
X136540576Y-29500158D01*
X136545002Y-29500000D01*
X137454998Y-29500000D01*
X137459424Y-29500158D01*
X137464198Y-29500499D01*
X137464201Y-29500500D01*
X137464204Y-29500500D01*
X137535796Y-29500500D01*
X137535799Y-29500500D01*
X137535801Y-29500499D01*
X137540576Y-29500158D01*
X137545002Y-29500000D01*
X141376000Y-29500000D01*
X141443039Y-29519685D01*
X141488794Y-29572489D01*
X141500000Y-29624000D01*
X141500000Y-62802190D01*
X141480315Y-62869229D01*
X141463681Y-62889871D01*
X140775929Y-63577622D01*
X140773116Y-63564085D01*
X140703558Y-63429844D01*
X140600362Y-63319348D01*
X140471181Y-63240791D01*
X140419997Y-63226450D01*
X141120057Y-62526390D01*
X141120056Y-62526389D01*
X141073229Y-62489943D01*
X140854614Y-62371635D01*
X140854603Y-62371630D01*
X140619493Y-62290916D01*
X140374293Y-62250000D01*
X140125707Y-62250000D01*
X139880506Y-62290916D01*
X139645396Y-62371630D01*
X139645390Y-62371632D01*
X139426761Y-62489949D01*
X139379942Y-62526388D01*
X139379942Y-62526390D01*
X140078431Y-63224878D01*
X139961542Y-63275651D01*
X139844261Y-63371066D01*
X139757072Y-63494585D01*
X139726645Y-63580197D01*
X139026564Y-62880116D01*
X138926267Y-63033632D01*
X138826412Y-63261282D01*
X138765387Y-63502261D01*
X138765385Y-63502270D01*
X138744859Y-63749994D01*
X138744859Y-63750005D01*
X138765385Y-63997729D01*
X138765387Y-63997738D01*
X138826412Y-64238717D01*
X138926266Y-64466364D01*
X139026564Y-64619882D01*
X139724070Y-63922376D01*
X139726884Y-63935915D01*
X139796442Y-64070156D01*
X139899638Y-64180652D01*
X140028819Y-64259209D01*
X140080002Y-64273549D01*
X139379942Y-64973609D01*
X139426768Y-65010055D01*
X139426770Y-65010056D01*
X139645385Y-65128364D01*
X139645396Y-65128369D01*
X139880506Y-65209083D01*
X140125707Y-65250000D01*
X140374293Y-65250000D01*
X140619493Y-65209083D01*
X140854603Y-65128369D01*
X140854614Y-65128364D01*
X141073228Y-65010057D01*
X141073231Y-65010055D01*
X141120056Y-64973609D01*
X140421568Y-64275121D01*
X140538458Y-64224349D01*
X140655739Y-64128934D01*
X140742928Y-64005415D01*
X140773354Y-63919801D01*
X141463681Y-64610128D01*
X141497166Y-64671451D01*
X141500000Y-64697809D01*
X141500000Y-69302190D01*
X141480315Y-69369229D01*
X141463681Y-69389871D01*
X140775929Y-70077622D01*
X140773116Y-70064085D01*
X140703558Y-69929844D01*
X140600362Y-69819348D01*
X140471181Y-69740791D01*
X140419997Y-69726450D01*
X141120057Y-69026390D01*
X141120056Y-69026389D01*
X141073229Y-68989943D01*
X140854614Y-68871635D01*
X140854603Y-68871630D01*
X140619493Y-68790916D01*
X140374293Y-68750000D01*
X140125707Y-68750000D01*
X139880506Y-68790916D01*
X139645396Y-68871630D01*
X139645390Y-68871632D01*
X139426761Y-68989949D01*
X139379942Y-69026388D01*
X139379942Y-69026390D01*
X140078431Y-69724878D01*
X139961542Y-69775651D01*
X139844261Y-69871066D01*
X139757072Y-69994585D01*
X139726645Y-70080197D01*
X139026564Y-69380116D01*
X138926267Y-69533632D01*
X138826412Y-69761282D01*
X138765387Y-70002261D01*
X138765385Y-70002270D01*
X138744859Y-70249994D01*
X138744859Y-70250005D01*
X138765385Y-70497729D01*
X138765387Y-70497738D01*
X138826412Y-70738717D01*
X138926266Y-70966364D01*
X139026564Y-71119882D01*
X139724070Y-70422376D01*
X139726884Y-70435915D01*
X139796442Y-70570156D01*
X139899638Y-70680652D01*
X140028819Y-70759209D01*
X140080002Y-70773549D01*
X139379942Y-71473609D01*
X139426768Y-71510055D01*
X139426770Y-71510056D01*
X139645385Y-71628364D01*
X139645396Y-71628369D01*
X139880506Y-71709083D01*
X140125707Y-71750000D01*
X140374293Y-71750000D01*
X140619493Y-71709083D01*
X140854603Y-71628369D01*
X140854614Y-71628364D01*
X141073228Y-71510057D01*
X141073231Y-71510055D01*
X141120056Y-71473609D01*
X140421568Y-70775121D01*
X140538458Y-70724349D01*
X140655739Y-70628934D01*
X140742928Y-70505415D01*
X140773354Y-70419801D01*
X141463681Y-71110128D01*
X141497166Y-71171451D01*
X141500000Y-71197809D01*
X141500000Y-72376000D01*
X141480315Y-72443039D01*
X141427511Y-72488794D01*
X141376000Y-72500000D01*
X110624000Y-72500000D01*
X110556961Y-72480315D01*
X110511206Y-72427511D01*
X110500000Y-72376000D01*
X110500000Y-71425397D01*
X110519685Y-71358358D01*
X110572489Y-71312603D01*
X110641647Y-71302659D01*
X110705203Y-71331684D01*
X110715226Y-71341411D01*
X110730256Y-71357738D01*
X110926491Y-71510474D01*
X110926493Y-71510475D01*
X111144332Y-71628364D01*
X111145190Y-71628828D01*
X111364141Y-71703994D01*
X111378964Y-71709083D01*
X111380386Y-71709571D01*
X111625665Y-71750500D01*
X111874335Y-71750500D01*
X112119614Y-71709571D01*
X112354810Y-71628828D01*
X112573509Y-71510474D01*
X112769744Y-71357738D01*
X112938164Y-71174785D01*
X113074173Y-70966607D01*
X113174063Y-70738881D01*
X113235108Y-70497821D01*
X113240238Y-70435915D01*
X113255643Y-70250005D01*
X114744859Y-70250005D01*
X114765385Y-70497729D01*
X114765387Y-70497738D01*
X114826412Y-70738717D01*
X114926266Y-70966364D01*
X115026564Y-71119882D01*
X115724070Y-70422376D01*
X115726884Y-70435915D01*
X115796442Y-70570156D01*
X115899638Y-70680652D01*
X116028819Y-70759209D01*
X116080002Y-70773549D01*
X115379942Y-71473609D01*
X115426768Y-71510055D01*
X115426770Y-71510056D01*
X115645385Y-71628364D01*
X115645396Y-71628369D01*
X115880506Y-71709083D01*
X116125707Y-71750000D01*
X116374293Y-71750000D01*
X116619493Y-71709083D01*
X116854603Y-71628369D01*
X116854614Y-71628364D01*
X117073228Y-71510057D01*
X117073231Y-71510055D01*
X117120056Y-71473609D01*
X116421568Y-70775121D01*
X116538458Y-70724349D01*
X116655739Y-70628934D01*
X116742928Y-70505415D01*
X116773354Y-70419802D01*
X117473434Y-71119882D01*
X117573731Y-70966369D01*
X117673587Y-70738717D01*
X117734612Y-70497738D01*
X117734614Y-70497729D01*
X117755141Y-70250005D01*
X117755141Y-70249994D01*
X117734614Y-70002270D01*
X117734612Y-70002261D01*
X117673587Y-69761282D01*
X117573731Y-69533630D01*
X117473434Y-69380116D01*
X116775929Y-70077622D01*
X116773116Y-70064085D01*
X116703558Y-69929844D01*
X116600362Y-69819348D01*
X116471181Y-69740791D01*
X116419997Y-69726450D01*
X117120057Y-69026390D01*
X117120056Y-69026389D01*
X117073229Y-68989943D01*
X116854614Y-68871635D01*
X116854603Y-68871630D01*
X116619493Y-68790916D01*
X116374293Y-68750000D01*
X116125707Y-68750000D01*
X115880506Y-68790916D01*
X115645396Y-68871630D01*
X115645390Y-68871632D01*
X115426761Y-68989949D01*
X115379942Y-69026388D01*
X115379942Y-69026390D01*
X116078431Y-69724878D01*
X115961542Y-69775651D01*
X115844261Y-69871066D01*
X115757072Y-69994585D01*
X115726645Y-70080197D01*
X115026564Y-69380116D01*
X114926267Y-69533632D01*
X114826412Y-69761282D01*
X114765387Y-70002261D01*
X114765385Y-70002270D01*
X114744859Y-70249994D01*
X114744859Y-70250005D01*
X113255643Y-70250005D01*
X113255643Y-70249994D01*
X113235109Y-70002187D01*
X113235107Y-70002175D01*
X113174063Y-69761118D01*
X113074173Y-69533393D01*
X112938166Y-69325217D01*
X112815968Y-69192475D01*
X112769744Y-69142262D01*
X112573509Y-68989526D01*
X112573508Y-68989525D01*
X112573505Y-68989523D01*
X112573503Y-68989522D01*
X112440481Y-68917533D01*
X112390891Y-68868313D01*
X112375500Y-68808479D01*
X112375500Y-65191519D01*
X112395185Y-65124480D01*
X112440483Y-65082464D01*
X112500534Y-65049966D01*
X112573509Y-65010474D01*
X112769744Y-64857738D01*
X112938164Y-64674785D01*
X113074173Y-64466607D01*
X113174063Y-64238881D01*
X113235108Y-63997821D01*
X113240238Y-63935915D01*
X113255643Y-63750005D01*
X113255643Y-63749994D01*
X113235109Y-63502187D01*
X113235107Y-63502175D01*
X113181136Y-63289049D01*
X113183761Y-63219229D01*
X113213661Y-63170928D01*
X113317443Y-63067147D01*
X113422771Y-62961819D01*
X113484094Y-62928334D01*
X113510452Y-62925500D01*
X114783903Y-62925500D01*
X114850942Y-62945185D01*
X114896697Y-62997989D01*
X114906641Y-63067147D01*
X114897459Y-63099310D01*
X114826412Y-63261282D01*
X114765387Y-63502261D01*
X114765385Y-63502270D01*
X114744859Y-63749994D01*
X114744859Y-63750005D01*
X114765385Y-63997729D01*
X114765387Y-63997738D01*
X114826412Y-64238717D01*
X114926266Y-64466364D01*
X115026564Y-64619882D01*
X115724070Y-63922375D01*
X115726884Y-63935915D01*
X115796442Y-64070156D01*
X115899638Y-64180652D01*
X116028819Y-64259209D01*
X116080002Y-64273549D01*
X115379942Y-64973609D01*
X115426768Y-65010055D01*
X115426770Y-65010056D01*
X115645385Y-65128364D01*
X115645396Y-65128369D01*
X115880506Y-65209083D01*
X116125707Y-65250000D01*
X116374293Y-65250000D01*
X116619493Y-65209083D01*
X116854603Y-65128369D01*
X116854614Y-65128364D01*
X117073228Y-65010057D01*
X117073231Y-65010055D01*
X117120056Y-64973609D01*
X116421568Y-64275121D01*
X116538458Y-64224349D01*
X116655739Y-64128934D01*
X116742928Y-64005415D01*
X116773354Y-63919802D01*
X117473434Y-64619882D01*
X117573731Y-64466369D01*
X117673587Y-64238717D01*
X117734612Y-63997738D01*
X117734614Y-63997729D01*
X117755141Y-63750005D01*
X117755141Y-63749994D01*
X117734614Y-63502270D01*
X117734612Y-63502261D01*
X117673587Y-63261282D01*
X117602541Y-63099310D01*
X117593638Y-63030010D01*
X117623616Y-62966897D01*
X117682955Y-62930011D01*
X117716097Y-62925500D01*
X120807257Y-62925500D01*
X120822877Y-62927224D01*
X120822904Y-62926939D01*
X120830660Y-62927671D01*
X120830667Y-62927673D01*
X120899814Y-62925500D01*
X120929350Y-62925500D01*
X120936228Y-62924630D01*
X120942041Y-62924172D01*
X120988627Y-62922709D01*
X121007869Y-62917117D01*
X121026912Y-62913174D01*
X121046792Y-62910664D01*
X121090122Y-62893507D01*
X121095646Y-62891617D01*
X121101656Y-62889871D01*
X121140390Y-62878618D01*
X121157629Y-62868422D01*
X121175103Y-62859862D01*
X121193727Y-62852488D01*
X121193727Y-62852487D01*
X121193732Y-62852486D01*
X121231449Y-62825082D01*
X121236305Y-62821892D01*
X121276420Y-62798170D01*
X121290589Y-62783999D01*
X121305379Y-62771368D01*
X121321587Y-62759594D01*
X121351299Y-62723676D01*
X121355212Y-62719376D01*
X121734353Y-62340235D01*
X121795674Y-62306752D01*
X121854125Y-62308143D01*
X121888780Y-62317428D01*
X121954592Y-62335063D01*
X122131034Y-62350500D01*
X122189999Y-62355659D01*
X122190000Y-62355659D01*
X122190001Y-62355659D01*
X122248966Y-62350500D01*
X122425408Y-62335063D01*
X122653663Y-62273903D01*
X122867830Y-62174035D01*
X123061401Y-62038495D01*
X123228495Y-61871401D01*
X123358425Y-61685842D01*
X123413002Y-61642217D01*
X123482500Y-61635023D01*
X123544855Y-61666546D01*
X123561575Y-61685842D01*
X123691501Y-61871396D01*
X123691506Y-61871402D01*
X123857923Y-62037819D01*
X123891408Y-62099142D01*
X123886424Y-62168834D01*
X123844552Y-62224767D01*
X123779088Y-62249184D01*
X123770242Y-62249500D01*
X123625665Y-62249500D01*
X123380383Y-62290429D01*
X123145197Y-62371169D01*
X123145188Y-62371172D01*
X122926493Y-62489524D01*
X122730257Y-62642261D01*
X122561833Y-62825217D01*
X122425826Y-63033393D01*
X122325936Y-63261118D01*
X122264892Y-63502175D01*
X122264890Y-63502187D01*
X122244357Y-63749994D01*
X122244357Y-63750005D01*
X122264890Y-63997812D01*
X122264892Y-63997824D01*
X122325936Y-64238881D01*
X122425826Y-64466606D01*
X122561833Y-64674782D01*
X122561836Y-64674785D01*
X122730256Y-64857738D01*
X122731053Y-64858358D01*
X122926488Y-65010472D01*
X122926493Y-65010475D01*
X123059517Y-65082464D01*
X123109108Y-65131683D01*
X123124500Y-65191519D01*
X123124500Y-68808479D01*
X123104815Y-68875518D01*
X123059519Y-68917533D01*
X122926496Y-68989522D01*
X122926494Y-68989523D01*
X122730257Y-69142261D01*
X122561833Y-69325217D01*
X122425826Y-69533393D01*
X122325936Y-69761118D01*
X122264892Y-70002175D01*
X122264890Y-70002187D01*
X122244357Y-70249994D01*
X122244357Y-70250005D01*
X122264890Y-70497812D01*
X122264892Y-70497824D01*
X122325936Y-70738881D01*
X122425826Y-70966606D01*
X122561833Y-71174782D01*
X122561836Y-71174785D01*
X122730256Y-71357738D01*
X122926491Y-71510474D01*
X122926493Y-71510475D01*
X123144332Y-71628364D01*
X123145190Y-71628828D01*
X123364141Y-71703994D01*
X123378964Y-71709083D01*
X123380386Y-71709571D01*
X123625665Y-71750500D01*
X123874335Y-71750500D01*
X124119614Y-71709571D01*
X124354810Y-71628828D01*
X124573509Y-71510474D01*
X124769744Y-71357738D01*
X124938164Y-71174785D01*
X125074173Y-70966607D01*
X125174063Y-70738881D01*
X125235108Y-70497821D01*
X125240238Y-70435915D01*
X125255643Y-70250005D01*
X126744859Y-70250005D01*
X126765385Y-70497729D01*
X126765387Y-70497738D01*
X126826412Y-70738717D01*
X126926266Y-70966364D01*
X127026564Y-71119882D01*
X127724070Y-70422376D01*
X127726884Y-70435915D01*
X127796442Y-70570156D01*
X127899638Y-70680652D01*
X128028819Y-70759209D01*
X128080002Y-70773549D01*
X127379942Y-71473609D01*
X127426768Y-71510055D01*
X127426770Y-71510056D01*
X127645385Y-71628364D01*
X127645396Y-71628369D01*
X127880506Y-71709083D01*
X128125707Y-71750000D01*
X128374293Y-71750000D01*
X128619493Y-71709083D01*
X128854603Y-71628369D01*
X128854614Y-71628364D01*
X129073228Y-71510057D01*
X129073231Y-71510055D01*
X129120056Y-71473609D01*
X128421568Y-70775121D01*
X128538458Y-70724349D01*
X128655739Y-70628934D01*
X128742928Y-70505415D01*
X128773354Y-70419802D01*
X129473434Y-71119882D01*
X129573731Y-70966369D01*
X129673587Y-70738717D01*
X129734612Y-70497738D01*
X129734614Y-70497729D01*
X129755141Y-70250005D01*
X129755141Y-70249994D01*
X129734614Y-70002270D01*
X129734612Y-70002261D01*
X129673587Y-69761282D01*
X129573731Y-69533630D01*
X129473434Y-69380116D01*
X128775929Y-70077622D01*
X128773116Y-70064085D01*
X128703558Y-69929844D01*
X128600362Y-69819348D01*
X128471181Y-69740791D01*
X128419997Y-69726450D01*
X129120057Y-69026390D01*
X129120056Y-69026389D01*
X129073229Y-68989943D01*
X128854614Y-68871635D01*
X128854603Y-68871630D01*
X128619493Y-68790916D01*
X128374293Y-68750000D01*
X128125707Y-68750000D01*
X127880506Y-68790916D01*
X127645396Y-68871630D01*
X127645390Y-68871632D01*
X127426761Y-68989949D01*
X127379942Y-69026388D01*
X127379942Y-69026390D01*
X128078431Y-69724878D01*
X127961542Y-69775651D01*
X127844261Y-69871066D01*
X127757072Y-69994585D01*
X127726645Y-70080197D01*
X127026564Y-69380116D01*
X126926267Y-69533632D01*
X126826412Y-69761282D01*
X126765387Y-70002261D01*
X126765385Y-70002270D01*
X126744859Y-70249994D01*
X126744859Y-70250005D01*
X125255643Y-70250005D01*
X125255643Y-70249994D01*
X125235109Y-70002187D01*
X125235107Y-70002175D01*
X125174063Y-69761118D01*
X125074173Y-69533393D01*
X124938166Y-69325217D01*
X124815968Y-69192475D01*
X124769744Y-69142262D01*
X124573509Y-68989526D01*
X124573508Y-68989525D01*
X124573505Y-68989523D01*
X124573503Y-68989522D01*
X124440481Y-68917533D01*
X124390891Y-68868313D01*
X124375500Y-68808479D01*
X124375500Y-65191519D01*
X124395185Y-65124480D01*
X124440483Y-65082464D01*
X124500534Y-65049966D01*
X124573509Y-65010474D01*
X124769744Y-64857738D01*
X124938164Y-64674785D01*
X125074173Y-64466607D01*
X125174063Y-64238881D01*
X125235108Y-63997821D01*
X125240238Y-63935915D01*
X125255643Y-63750005D01*
X125255643Y-63749994D01*
X125235109Y-63502187D01*
X125235107Y-63502175D01*
X125174063Y-63261118D01*
X125074173Y-63033393D01*
X124938166Y-62825217D01*
X124900235Y-62784013D01*
X124769744Y-62642262D01*
X124683792Y-62575363D01*
X124642981Y-62518654D01*
X124639306Y-62448881D01*
X124673937Y-62388198D01*
X124735879Y-62355871D01*
X124749137Y-62353984D01*
X124965408Y-62335063D01*
X125193663Y-62273903D01*
X125407830Y-62174035D01*
X125601401Y-62038495D01*
X125768495Y-61871401D01*
X125898425Y-61685842D01*
X125953002Y-61642217D01*
X126022500Y-61635023D01*
X126084855Y-61666546D01*
X126101575Y-61685842D01*
X126231278Y-61871078D01*
X126231505Y-61871401D01*
X126398599Y-62038495D01*
X126485212Y-62099142D01*
X126592165Y-62174032D01*
X126592167Y-62174033D01*
X126592170Y-62174035D01*
X126806337Y-62273903D01*
X127034592Y-62335063D01*
X127269445Y-62355610D01*
X127334513Y-62381062D01*
X127375492Y-62437653D01*
X127382399Y-62486823D01*
X127379942Y-62526390D01*
X128078431Y-63224878D01*
X127961542Y-63275651D01*
X127844261Y-63371066D01*
X127757072Y-63494585D01*
X127726645Y-63580197D01*
X127026564Y-62880116D01*
X126926267Y-63033632D01*
X126826412Y-63261282D01*
X126765387Y-63502261D01*
X126765385Y-63502270D01*
X126744859Y-63749994D01*
X126744859Y-63750005D01*
X126765385Y-63997729D01*
X126765387Y-63997738D01*
X126826412Y-64238717D01*
X126926266Y-64466364D01*
X127026564Y-64619882D01*
X127724070Y-63922376D01*
X127726884Y-63935915D01*
X127796442Y-64070156D01*
X127899638Y-64180652D01*
X128028819Y-64259209D01*
X128080002Y-64273549D01*
X127379942Y-64973609D01*
X127426768Y-65010055D01*
X127426770Y-65010056D01*
X127645385Y-65128364D01*
X127645396Y-65128369D01*
X127880506Y-65209083D01*
X128125707Y-65250000D01*
X128374293Y-65250000D01*
X128619493Y-65209083D01*
X128854603Y-65128369D01*
X128854614Y-65128364D01*
X129073228Y-65010057D01*
X129073231Y-65010055D01*
X129120056Y-64973609D01*
X128421568Y-64275121D01*
X128538458Y-64224349D01*
X128655739Y-64128934D01*
X128742928Y-64005415D01*
X128773354Y-63919802D01*
X129473434Y-64619882D01*
X129573731Y-64466369D01*
X129673587Y-64238717D01*
X129734612Y-63997738D01*
X129734614Y-63997729D01*
X129755141Y-63750005D01*
X129755141Y-63749994D01*
X129734614Y-63502270D01*
X129734612Y-63502261D01*
X129673587Y-63261282D01*
X129573731Y-63033630D01*
X129473434Y-62880116D01*
X128775929Y-63577622D01*
X128773116Y-63564085D01*
X128703558Y-63429844D01*
X128600362Y-63319348D01*
X128471181Y-63240791D01*
X128419997Y-63226450D01*
X129120057Y-62526390D01*
X129120056Y-62526389D01*
X129073229Y-62489943D01*
X128854614Y-62371635D01*
X128854603Y-62371630D01*
X128619493Y-62290916D01*
X128374293Y-62250000D01*
X128229258Y-62250000D01*
X128162219Y-62230315D01*
X128116464Y-62177511D01*
X128106520Y-62108353D01*
X128135545Y-62044797D01*
X128141577Y-62038319D01*
X128222414Y-61957482D01*
X128308495Y-61871401D01*
X128438425Y-61685842D01*
X128493002Y-61642217D01*
X128562500Y-61635023D01*
X128624855Y-61666546D01*
X128641575Y-61685842D01*
X128771278Y-61871078D01*
X128771505Y-61871401D01*
X128938599Y-62038495D01*
X129025212Y-62099142D01*
X129132165Y-62174032D01*
X129132167Y-62174033D01*
X129132170Y-62174035D01*
X129346337Y-62273903D01*
X129574592Y-62335063D01*
X129751034Y-62350500D01*
X129809999Y-62355659D01*
X129810000Y-62355659D01*
X129810001Y-62355659D01*
X129868966Y-62350500D01*
X130045408Y-62335063D01*
X130273663Y-62273903D01*
X130487830Y-62174035D01*
X130681401Y-62038495D01*
X130848495Y-61871401D01*
X130978730Y-61685405D01*
X131033307Y-61641781D01*
X131102805Y-61634587D01*
X131165160Y-61666110D01*
X131181879Y-61685405D01*
X131311890Y-61871078D01*
X131478917Y-62038105D01*
X131672421Y-62173600D01*
X131886507Y-62273429D01*
X131886516Y-62273433D01*
X132100000Y-62330634D01*
X132100000Y-61435501D01*
X132207685Y-61484680D01*
X132314237Y-61500000D01*
X132385763Y-61500000D01*
X132492315Y-61484680D01*
X132600000Y-61435501D01*
X132600000Y-62330633D01*
X132813483Y-62273433D01*
X132813492Y-62273429D01*
X133027578Y-62173600D01*
X133221078Y-62038108D01*
X133343133Y-61916053D01*
X133404456Y-61882568D01*
X133474148Y-61887552D01*
X133530082Y-61929423D01*
X133546997Y-61960401D01*
X133596202Y-62092328D01*
X133596206Y-62092335D01*
X133682452Y-62207544D01*
X133682455Y-62207547D01*
X133797664Y-62293793D01*
X133797671Y-62293797D01*
X133932517Y-62344091D01*
X133932516Y-62344091D01*
X133939444Y-62344835D01*
X133992127Y-62350500D01*
X134743914Y-62350499D01*
X134810952Y-62370183D01*
X134856707Y-62422987D01*
X134866651Y-62492146D01*
X134837626Y-62555702D01*
X134820076Y-62572352D01*
X134730258Y-62642260D01*
X134561833Y-62825217D01*
X134425826Y-63033393D01*
X134325936Y-63261118D01*
X134264892Y-63502175D01*
X134264890Y-63502187D01*
X134244357Y-63749994D01*
X134244357Y-63750005D01*
X134264890Y-63997812D01*
X134264892Y-63997824D01*
X134325936Y-64238881D01*
X134425826Y-64466606D01*
X134561833Y-64674782D01*
X134561836Y-64674785D01*
X134730256Y-64857738D01*
X134731053Y-64858358D01*
X134926488Y-65010472D01*
X134926493Y-65010475D01*
X135059517Y-65082464D01*
X135109108Y-65131683D01*
X135124500Y-65191519D01*
X135124500Y-68808479D01*
X135104815Y-68875518D01*
X135059519Y-68917533D01*
X134926496Y-68989522D01*
X134926494Y-68989523D01*
X134730257Y-69142261D01*
X134561833Y-69325217D01*
X134425826Y-69533393D01*
X134325936Y-69761118D01*
X134264892Y-70002175D01*
X134264890Y-70002187D01*
X134244357Y-70249994D01*
X134244357Y-70250005D01*
X134264890Y-70497812D01*
X134264892Y-70497824D01*
X134325936Y-70738881D01*
X134425826Y-70966606D01*
X134561833Y-71174782D01*
X134561836Y-71174785D01*
X134730256Y-71357738D01*
X134926491Y-71510474D01*
X134926493Y-71510475D01*
X135144332Y-71628364D01*
X135145190Y-71628828D01*
X135364141Y-71703994D01*
X135378964Y-71709083D01*
X135380386Y-71709571D01*
X135625665Y-71750500D01*
X135874335Y-71750500D01*
X136119614Y-71709571D01*
X136354810Y-71628828D01*
X136573509Y-71510474D01*
X136769744Y-71357738D01*
X136938164Y-71174785D01*
X137074173Y-70966607D01*
X137174063Y-70738881D01*
X137235108Y-70497821D01*
X137240238Y-70435915D01*
X137255643Y-70250005D01*
X137255643Y-70249994D01*
X137235109Y-70002187D01*
X137235107Y-70002175D01*
X137174063Y-69761118D01*
X137074173Y-69533393D01*
X136938166Y-69325217D01*
X136815968Y-69192475D01*
X136769744Y-69142262D01*
X136573509Y-68989526D01*
X136573508Y-68989525D01*
X136573505Y-68989523D01*
X136573503Y-68989522D01*
X136440481Y-68917533D01*
X136390891Y-68868313D01*
X136375500Y-68808479D01*
X136375500Y-65191519D01*
X136395185Y-65124480D01*
X136440483Y-65082464D01*
X136500534Y-65049966D01*
X136573509Y-65010474D01*
X136769744Y-64857738D01*
X136938164Y-64674785D01*
X137074173Y-64466607D01*
X137174063Y-64238881D01*
X137235108Y-63997821D01*
X137240238Y-63935915D01*
X137255643Y-63750005D01*
X137255643Y-63749994D01*
X137235109Y-63502187D01*
X137235107Y-63502175D01*
X137174063Y-63261118D01*
X137074173Y-63033393D01*
X136938166Y-62825217D01*
X136900235Y-62784013D01*
X136769744Y-62642262D01*
X136573509Y-62489526D01*
X136573507Y-62489525D01*
X136573506Y-62489524D01*
X136354811Y-62371172D01*
X136354802Y-62371169D01*
X136213740Y-62322742D01*
X136156725Y-62282357D01*
X136130594Y-62217557D01*
X136143645Y-62148917D01*
X136154736Y-62131150D01*
X136183796Y-62092331D01*
X136234091Y-61957483D01*
X136240500Y-61897873D01*
X136240499Y-60102128D01*
X136234091Y-60042517D01*
X136204019Y-59961891D01*
X136183797Y-59907671D01*
X136183793Y-59907664D01*
X136097547Y-59792455D01*
X136097544Y-59792452D01*
X135982335Y-59706206D01*
X135982328Y-59706202D01*
X135847482Y-59655908D01*
X135847483Y-59655908D01*
X135787883Y-59649501D01*
X135787881Y-59649500D01*
X135787873Y-59649500D01*
X135787865Y-59649500D01*
X134652230Y-59649500D01*
X134585191Y-59629815D01*
X134564549Y-59613181D01*
X132982958Y-58031590D01*
X132949473Y-57970267D01*
X132954457Y-57900575D01*
X132982960Y-57856226D01*
X133000046Y-57839140D01*
X133025362Y-57802985D01*
X133130568Y-57652734D01*
X133226739Y-57446496D01*
X133285635Y-57226692D01*
X133305468Y-57000000D01*
X133285635Y-56773308D01*
X133226739Y-56553504D01*
X133130568Y-56347266D01*
X133000047Y-56160861D01*
X133000045Y-56160858D01*
X132839141Y-55999954D01*
X132652734Y-55869432D01*
X132652730Y-55869430D01*
X132637022Y-55862105D01*
X132584583Y-55815931D01*
X132565433Y-55748737D01*
X132585650Y-55681857D01*
X132637028Y-55637340D01*
X132652481Y-55630134D01*
X132725472Y-55579025D01*
X132044400Y-54897953D01*
X132125148Y-54885165D01*
X132238045Y-54827641D01*
X132327641Y-54738045D01*
X132385165Y-54625148D01*
X132397953Y-54544400D01*
X133079025Y-55225472D01*
X133130136Y-55152478D01*
X133226264Y-54946331D01*
X133226269Y-54946317D01*
X133285139Y-54726610D01*
X133285141Y-54726599D01*
X133304966Y-54500002D01*
X133304966Y-54499997D01*
X133285141Y-54273400D01*
X133285139Y-54273389D01*
X133226269Y-54053682D01*
X133226265Y-54053673D01*
X133130133Y-53847516D01*
X133130131Y-53847512D01*
X133079026Y-53774526D01*
X133079025Y-53774526D01*
X132397953Y-54455598D01*
X132385165Y-54374852D01*
X132327641Y-54261955D01*
X132238045Y-54172359D01*
X132125148Y-54114835D01*
X132044400Y-54102046D01*
X132725472Y-53420974D01*
X132725471Y-53420973D01*
X132652483Y-53369866D01*
X132652481Y-53369865D01*
X132446326Y-53273734D01*
X132446317Y-53273730D01*
X132226610Y-53214860D01*
X132226599Y-53214858D01*
X132000002Y-53195034D01*
X131999998Y-53195034D01*
X131773400Y-53214858D01*
X131773389Y-53214860D01*
X131656593Y-53246155D01*
X131586743Y-53244492D01*
X131528880Y-53205329D01*
X131501377Y-53141100D01*
X131500500Y-53126380D01*
X131500500Y-48310001D01*
X132694532Y-48310001D01*
X132714364Y-48536686D01*
X132714366Y-48536697D01*
X132773258Y-48756488D01*
X132773261Y-48756497D01*
X132869431Y-48962732D01*
X132869432Y-48962734D01*
X132999954Y-49149141D01*
X133160858Y-49310045D01*
X133160861Y-49310047D01*
X133347266Y-49440568D01*
X133553504Y-49536739D01*
X133773308Y-49595635D01*
X133935230Y-49609801D01*
X133999998Y-49615468D01*
X134000000Y-49615468D01*
X134000002Y-49615468D01*
X134056673Y-49610509D01*
X134226692Y-49595635D01*
X134446496Y-49536739D01*
X134652734Y-49440568D01*
X134839139Y-49310047D01*
X135000047Y-49149139D01*
X135130568Y-48962734D01*
X135226739Y-48756496D01*
X135285635Y-48536692D01*
X135305468Y-48310000D01*
X135285635Y-48083308D01*
X135226739Y-47863504D01*
X135130568Y-47657266D01*
X135017796Y-47496210D01*
X135000045Y-47470858D01*
X134839140Y-47309953D01*
X134678377Y-47197386D01*
X134634752Y-47142809D01*
X134625500Y-47095811D01*
X134625500Y-44750875D01*
X134644507Y-44684902D01*
X134680456Y-44627690D01*
X134684803Y-44615266D01*
X134736313Y-44468059D01*
X134755249Y-44300000D01*
X134752177Y-44272732D01*
X134736314Y-44131943D01*
X134680454Y-43972305D01*
X134680452Y-43972302D01*
X134590481Y-43829115D01*
X134590476Y-43829109D01*
X134549048Y-43787681D01*
X134515563Y-43726358D01*
X134520547Y-43656666D01*
X134549048Y-43612319D01*
X134590477Y-43570890D01*
X134680452Y-43427697D01*
X134680454Y-43427694D01*
X134680454Y-43427692D01*
X134680456Y-43427690D01*
X134736313Y-43268059D01*
X134736313Y-43268058D01*
X134736314Y-43268056D01*
X134755249Y-43100002D01*
X134755249Y-43099997D01*
X134736314Y-42931943D01*
X134722904Y-42893621D01*
X134680456Y-42772310D01*
X134674295Y-42762505D01*
X134644506Y-42715095D01*
X134625500Y-42649123D01*
X134625500Y-41904188D01*
X134645185Y-41837149D01*
X134678377Y-41802613D01*
X134778178Y-41732732D01*
X134839139Y-41690047D01*
X135000047Y-41529139D01*
X135130568Y-41342734D01*
X135131885Y-41339910D01*
X135132794Y-41338877D01*
X135133276Y-41338043D01*
X135133443Y-41338139D01*
X135178057Y-41287470D01*
X135245250Y-41268318D01*
X135312132Y-41288534D01*
X135357466Y-41341699D01*
X135368267Y-41392314D01*
X135368267Y-46611022D01*
X135366542Y-46626639D01*
X135366828Y-46626666D01*
X135366093Y-46634432D01*
X135368267Y-46703581D01*
X135368267Y-46733110D01*
X135368268Y-46733127D01*
X135369135Y-46739998D01*
X135369593Y-46745817D01*
X135371057Y-46792391D01*
X135371058Y-46792394D01*
X135376647Y-46811634D01*
X135380591Y-46830678D01*
X135383103Y-46850558D01*
X135400257Y-46893886D01*
X135402149Y-46899414D01*
X135415148Y-46944155D01*
X135425347Y-46961401D01*
X135433905Y-46978870D01*
X135441281Y-46997499D01*
X135468665Y-47035190D01*
X135471873Y-47040074D01*
X135495594Y-47080183D01*
X135495600Y-47080191D01*
X135509757Y-47094347D01*
X135522395Y-47109143D01*
X135534172Y-47125353D01*
X135534173Y-47125354D01*
X135570076Y-47155055D01*
X135574387Y-47158977D01*
X136433267Y-48017858D01*
X136700586Y-48285177D01*
X136734071Y-48346500D01*
X136732680Y-48404949D01*
X136714367Y-48473296D01*
X136714364Y-48473313D01*
X136694532Y-48699999D01*
X136694532Y-48700001D01*
X136714364Y-48926686D01*
X136714366Y-48926697D01*
X136773258Y-49146488D01*
X136773261Y-49146497D01*
X136869431Y-49352732D01*
X136869432Y-49352734D01*
X136999954Y-49539141D01*
X137160858Y-49700045D01*
X137170764Y-49706981D01*
X137347266Y-49830568D01*
X137405275Y-49857618D01*
X137457714Y-49903791D01*
X137476866Y-49970984D01*
X137456650Y-50037865D01*
X137405275Y-50082382D01*
X137347267Y-50109431D01*
X137347265Y-50109432D01*
X137160858Y-50239954D01*
X136999954Y-50400858D01*
X136869432Y-50587265D01*
X136869431Y-50587267D01*
X136773261Y-50793502D01*
X136773258Y-50793511D01*
X136714366Y-51013302D01*
X136714364Y-51013313D01*
X136694532Y-51239998D01*
X136694532Y-51240001D01*
X136714364Y-51466686D01*
X136714366Y-51466697D01*
X136773258Y-51686488D01*
X136773261Y-51686497D01*
X136869431Y-51892732D01*
X136869432Y-51892734D01*
X136999954Y-52079141D01*
X137160858Y-52240045D01*
X137160861Y-52240047D01*
X137347266Y-52370568D01*
X137405275Y-52397618D01*
X137457714Y-52443791D01*
X137476866Y-52510984D01*
X137456650Y-52577865D01*
X137405275Y-52622382D01*
X137347267Y-52649431D01*
X137347265Y-52649432D01*
X137160858Y-52779954D01*
X136999954Y-52940858D01*
X136869432Y-53127265D01*
X136869431Y-53127267D01*
X136773261Y-53333502D01*
X136773258Y-53333511D01*
X136714366Y-53553302D01*
X136714364Y-53553313D01*
X136694532Y-53779998D01*
X136694532Y-53780001D01*
X136714364Y-54006686D01*
X136714366Y-54006697D01*
X136773258Y-54226488D01*
X136773261Y-54226497D01*
X136869431Y-54432732D01*
X136869432Y-54432734D01*
X136999954Y-54619141D01*
X137160858Y-54780045D01*
X137160861Y-54780047D01*
X137347266Y-54910568D01*
X137553504Y-55006739D01*
X137773308Y-55065635D01*
X137935230Y-55079801D01*
X137999998Y-55085468D01*
X138000000Y-55085468D01*
X138000002Y-55085468D01*
X138059528Y-55080260D01*
X138226692Y-55065635D01*
X138446496Y-55006739D01*
X138652734Y-54910568D01*
X138839139Y-54780047D01*
X139000047Y-54619139D01*
X139130568Y-54432734D01*
X139226739Y-54226496D01*
X139285635Y-54006692D01*
X139305468Y-53780000D01*
X139285635Y-53553308D01*
X139226739Y-53333504D01*
X139130568Y-53127266D01*
X139000047Y-52940861D01*
X139000045Y-52940858D01*
X138839141Y-52779954D01*
X138652734Y-52649432D01*
X138652728Y-52649429D01*
X138594725Y-52622382D01*
X138542285Y-52576210D01*
X138523133Y-52509017D01*
X138543348Y-52442135D01*
X138594725Y-52397618D01*
X138652734Y-52370568D01*
X138839139Y-52240047D01*
X139000047Y-52079139D01*
X139130568Y-51892734D01*
X139226739Y-51686496D01*
X139285635Y-51466692D01*
X139305468Y-51240000D01*
X139285635Y-51013308D01*
X139226739Y-50793504D01*
X139130568Y-50587266D01*
X139000047Y-50400861D01*
X139000045Y-50400858D01*
X138839141Y-50239954D01*
X138652734Y-50109432D01*
X138652728Y-50109429D01*
X138594725Y-50082382D01*
X138542285Y-50036210D01*
X138523133Y-49969017D01*
X138543348Y-49902135D01*
X138594725Y-49857618D01*
X138652734Y-49830568D01*
X138839139Y-49700047D01*
X139000047Y-49539139D01*
X139130568Y-49352734D01*
X139226739Y-49146496D01*
X139285635Y-48926692D01*
X139305468Y-48700000D01*
X139285635Y-48473308D01*
X139248790Y-48335800D01*
X139235261Y-48285307D01*
X139236924Y-48215457D01*
X139276087Y-48157595D01*
X139340315Y-48130091D01*
X139409218Y-48141678D01*
X139421005Y-48148218D01*
X139435927Y-48157595D01*
X139472306Y-48180454D01*
X139472307Y-48180454D01*
X139472310Y-48180456D01*
X139560375Y-48211271D01*
X139631943Y-48236314D01*
X139799997Y-48255249D01*
X139800000Y-48255249D01*
X139800003Y-48255249D01*
X139968056Y-48236314D01*
X140027662Y-48215457D01*
X140127690Y-48180456D01*
X140127692Y-48180454D01*
X140127694Y-48180454D01*
X140127697Y-48180452D01*
X140270884Y-48090481D01*
X140270885Y-48090480D01*
X140270890Y-48090477D01*
X140390477Y-47970890D01*
X140404150Y-47949130D01*
X140480452Y-47827697D01*
X140480454Y-47827694D01*
X140480454Y-47827692D01*
X140480456Y-47827690D01*
X140536313Y-47668059D01*
X140536313Y-47668058D01*
X140536314Y-47668056D01*
X140555249Y-47500002D01*
X140555249Y-47499997D01*
X140536314Y-47331943D01*
X140489230Y-47197386D01*
X140480456Y-47172310D01*
X140469614Y-47155055D01*
X140444506Y-47115095D01*
X140425500Y-47049123D01*
X140425500Y-37882737D01*
X140427224Y-37867123D01*
X140426938Y-37867096D01*
X140427672Y-37859333D01*
X140425500Y-37790202D01*
X140425500Y-37760651D01*
X140425500Y-37760650D01*
X140424629Y-37753759D01*
X140424172Y-37747945D01*
X140423539Y-37727810D01*
X140422709Y-37701372D01*
X140417120Y-37682137D01*
X140413174Y-37663084D01*
X140410664Y-37643208D01*
X140393501Y-37599859D01*
X140391614Y-37594346D01*
X140388785Y-37584610D01*
X140378617Y-37549610D01*
X140376735Y-37546427D01*
X140368421Y-37532369D01*
X140359860Y-37514893D01*
X140352486Y-37496269D01*
X140352486Y-37496267D01*
X140342474Y-37482488D01*
X140325083Y-37458550D01*
X140321900Y-37453705D01*
X140298170Y-37413579D01*
X140298165Y-37413573D01*
X140284005Y-37399413D01*
X140271370Y-37384620D01*
X140259593Y-37368412D01*
X140223693Y-37338713D01*
X140219381Y-37334790D01*
X139299413Y-36414822D01*
X139265928Y-36353499D01*
X139267319Y-36295048D01*
X139279182Y-36250773D01*
X139285635Y-36226692D01*
X139305468Y-36000000D01*
X139285635Y-35773308D01*
X139226739Y-35553504D01*
X139130568Y-35347266D01*
X139000047Y-35160861D01*
X139000045Y-35160858D01*
X138839141Y-34999954D01*
X138652734Y-34869432D01*
X138652732Y-34869431D01*
X138446497Y-34773261D01*
X138446488Y-34773258D01*
X138226697Y-34714366D01*
X138226693Y-34714365D01*
X138226692Y-34714365D01*
X138226691Y-34714364D01*
X138226686Y-34714364D01*
X138000002Y-34694532D01*
X137999998Y-34694532D01*
X137773313Y-34714364D01*
X137773302Y-34714366D01*
X137553511Y-34773258D01*
X137553502Y-34773261D01*
X137347267Y-34869431D01*
X137347265Y-34869432D01*
X137160858Y-34999954D01*
X136999954Y-35160858D01*
X136869432Y-35347265D01*
X136869431Y-35347267D01*
X136773261Y-35553502D01*
X136773258Y-35553511D01*
X136714366Y-35773302D01*
X136714364Y-35773313D01*
X136694532Y-35999998D01*
X136694532Y-36000001D01*
X136714364Y-36226686D01*
X136714366Y-36226697D01*
X136773258Y-36446488D01*
X136773261Y-36446497D01*
X136869431Y-36652732D01*
X136869432Y-36652734D01*
X136999954Y-36839141D01*
X137160858Y-37000045D01*
X137160861Y-37000047D01*
X137347266Y-37130568D01*
X137405275Y-37157618D01*
X137457714Y-37203791D01*
X137476866Y-37270984D01*
X137456650Y-37337865D01*
X137405275Y-37382381D01*
X137388272Y-37390310D01*
X137347267Y-37409431D01*
X137347265Y-37409432D01*
X137160858Y-37539954D01*
X136999954Y-37700858D01*
X136972856Y-37739558D01*
X136918278Y-37783182D01*
X136848780Y-37790374D01*
X136830329Y-37785475D01*
X136768058Y-37763686D01*
X136600003Y-37744751D01*
X136599997Y-37744751D01*
X136431943Y-37763685D01*
X136272305Y-37819545D01*
X136272302Y-37819547D01*
X136129115Y-37909518D01*
X136129109Y-37909523D01*
X136009523Y-38029109D01*
X136009518Y-38029115D01*
X135919547Y-38172302D01*
X135919545Y-38172305D01*
X135863685Y-38331943D01*
X135844751Y-38499997D01*
X135844751Y-38500002D01*
X135863686Y-38668057D01*
X135919543Y-38827690D01*
X135955493Y-38884902D01*
X135974500Y-38950875D01*
X135974500Y-39042342D01*
X135954815Y-39109381D01*
X135902011Y-39155136D01*
X135864385Y-39165561D01*
X135825708Y-39169920D01*
X135785800Y-39183884D01*
X135666074Y-39225777D01*
X135666069Y-39225780D01*
X135522882Y-39315751D01*
X135522876Y-39315756D01*
X135403290Y-39435342D01*
X135403285Y-39435348D01*
X135313314Y-39578535D01*
X135313312Y-39578538D01*
X135257452Y-39738177D01*
X135247551Y-39826054D01*
X135220484Y-39890468D01*
X135162889Y-39930023D01*
X135093052Y-39932160D01*
X135033146Y-39896201D01*
X135022755Y-39883292D01*
X135007052Y-39860866D01*
X135000047Y-39850861D01*
X135000046Y-39850860D01*
X135000044Y-39850857D01*
X134839141Y-39689954D01*
X134652734Y-39559432D01*
X134652732Y-39559431D01*
X134446497Y-39463261D01*
X134446488Y-39463258D01*
X134226697Y-39404366D01*
X134226693Y-39404365D01*
X134226692Y-39404365D01*
X134226691Y-39404364D01*
X134226686Y-39404364D01*
X134000002Y-39384532D01*
X133999998Y-39384532D01*
X133773313Y-39404364D01*
X133773302Y-39404366D01*
X133553511Y-39463258D01*
X133553502Y-39463261D01*
X133347267Y-39559431D01*
X133347265Y-39559432D01*
X133160858Y-39689954D01*
X132999954Y-39850858D01*
X132869432Y-40037265D01*
X132869431Y-40037267D01*
X132773261Y-40243502D01*
X132773258Y-40243511D01*
X132714366Y-40463302D01*
X132714364Y-40463313D01*
X132694532Y-40689998D01*
X132694532Y-40690001D01*
X132714364Y-40916686D01*
X132714366Y-40916697D01*
X132773258Y-41136488D01*
X132773261Y-41136497D01*
X132869431Y-41342732D01*
X132869432Y-41342734D01*
X132999954Y-41529141D01*
X133160858Y-41690045D01*
X133321623Y-41802613D01*
X133365248Y-41857189D01*
X133374500Y-41904188D01*
X133374500Y-42649123D01*
X133355494Y-42715095D01*
X133319545Y-42772307D01*
X133263685Y-42931943D01*
X133244751Y-43099997D01*
X133244751Y-43100002D01*
X133263685Y-43268056D01*
X133319545Y-43427694D01*
X133319547Y-43427697D01*
X133409518Y-43570884D01*
X133409524Y-43570891D01*
X133450952Y-43612320D01*
X133484436Y-43673643D01*
X133479451Y-43743335D01*
X133450952Y-43787680D01*
X133409524Y-43829108D01*
X133409518Y-43829115D01*
X133319547Y-43972302D01*
X133319545Y-43972305D01*
X133263685Y-44131943D01*
X133244751Y-44299997D01*
X133244751Y-44300002D01*
X133263686Y-44468057D01*
X133319543Y-44627690D01*
X133355493Y-44684902D01*
X133374500Y-44750875D01*
X133374500Y-47095811D01*
X133354815Y-47162850D01*
X133321623Y-47197386D01*
X133160859Y-47309953D01*
X132999954Y-47470858D01*
X132869432Y-47657265D01*
X132869431Y-47657267D01*
X132773261Y-47863502D01*
X132773258Y-47863511D01*
X132714366Y-48083302D01*
X132714364Y-48083313D01*
X132694532Y-48309998D01*
X132694532Y-48310001D01*
X131500500Y-48310001D01*
X131500500Y-46076662D01*
X131520185Y-46009623D01*
X131572989Y-45963868D01*
X131588492Y-45958005D01*
X131684727Y-45928814D01*
X131858538Y-45835910D01*
X132010883Y-45710883D01*
X132135910Y-45558538D01*
X132228814Y-45384727D01*
X132286024Y-45196132D01*
X132305341Y-45000000D01*
X132286024Y-44803868D01*
X132228814Y-44615273D01*
X132228811Y-44615269D01*
X132228811Y-44615266D01*
X132135913Y-44441467D01*
X132135909Y-44441460D01*
X132010883Y-44289116D01*
X131858539Y-44164090D01*
X131858532Y-44164086D01*
X131684733Y-44071188D01*
X131684727Y-44071186D01*
X131496132Y-44013976D01*
X131496129Y-44013975D01*
X131300000Y-43994659D01*
X131103870Y-44013975D01*
X130915266Y-44071188D01*
X130741467Y-44164086D01*
X130741460Y-44164091D01*
X130638165Y-44248863D01*
X130573855Y-44276176D01*
X130504987Y-44264385D01*
X130453427Y-44217233D01*
X130435500Y-44153010D01*
X130435500Y-39992738D01*
X130437224Y-39977124D01*
X130436938Y-39977097D01*
X130437672Y-39969334D01*
X130435500Y-39900203D01*
X130435500Y-39870651D01*
X130435500Y-39870650D01*
X130434629Y-39863759D01*
X130434172Y-39857945D01*
X130434025Y-39853261D01*
X130432709Y-39811373D01*
X130432310Y-39810000D01*
X130430423Y-39803501D01*
X130425500Y-39768910D01*
X130425500Y-39725069D01*
X130427224Y-39709449D01*
X130426939Y-39709422D01*
X130427673Y-39701660D01*
X130425500Y-39632499D01*
X130425500Y-39602983D01*
X130425500Y-39602977D01*
X130424631Y-39596106D01*
X130424173Y-39590279D01*
X130423804Y-39578535D01*
X130422710Y-39543700D01*
X130417119Y-39524457D01*
X130413173Y-39505405D01*
X130410664Y-39485535D01*
X130393504Y-39442194D01*
X130391624Y-39436706D01*
X130378618Y-39391937D01*
X130368422Y-39374697D01*
X130359861Y-39357221D01*
X130352487Y-39338597D01*
X130352486Y-39338595D01*
X130325079Y-39300872D01*
X130321888Y-39296013D01*
X130309526Y-39275110D01*
X130298170Y-39255907D01*
X130298168Y-39255905D01*
X130298165Y-39255901D01*
X130284006Y-39241742D01*
X130271368Y-39226946D01*
X130267604Y-39221765D01*
X130259594Y-39210740D01*
X130237828Y-39192734D01*
X130223688Y-39181036D01*
X130219376Y-39177113D01*
X127358476Y-36316212D01*
X127348653Y-36303950D01*
X127348432Y-36304134D01*
X127343459Y-36298123D01*
X127340184Y-36295048D01*
X127293037Y-36250773D01*
X127277429Y-36235165D01*
X127272148Y-36229883D01*
X127268040Y-36226696D01*
X127266657Y-36225624D01*
X127262234Y-36221847D01*
X127228255Y-36189938D01*
X127228253Y-36189936D01*
X127228250Y-36189935D01*
X127210702Y-36180288D01*
X127194436Y-36169604D01*
X127178606Y-36157325D01*
X127135841Y-36138818D01*
X127130595Y-36136248D01*
X127089766Y-36113803D01*
X127089767Y-36113803D01*
X127088106Y-36113377D01*
X127052978Y-36098268D01*
X126927692Y-36019545D01*
X126927691Y-36019544D01*
X126927690Y-36019544D01*
X126871839Y-36000001D01*
X126768056Y-35963685D01*
X126600003Y-35944751D01*
X126599997Y-35944751D01*
X126431943Y-35963685D01*
X126272305Y-36019545D01*
X126272302Y-36019547D01*
X126129115Y-36109518D01*
X126129109Y-36109523D01*
X126009523Y-36229109D01*
X126009518Y-36229115D01*
X125919547Y-36372302D01*
X125919545Y-36372305D01*
X125863685Y-36531943D01*
X125844751Y-36699997D01*
X125844751Y-36700002D01*
X125863685Y-36868056D01*
X125919545Y-37027694D01*
X125919547Y-37027697D01*
X126009518Y-37170884D01*
X126009523Y-37170890D01*
X126129109Y-37290476D01*
X126129115Y-37290481D01*
X126272302Y-37380452D01*
X126272305Y-37380454D01*
X126272309Y-37380455D01*
X126272310Y-37380456D01*
X126326486Y-37399413D01*
X126431943Y-37436314D01*
X126599997Y-37455249D01*
X126600000Y-37455249D01*
X126655996Y-37448939D01*
X126724816Y-37460993D01*
X126757561Y-37484478D01*
X126758187Y-37485104D01*
X126791672Y-37546427D01*
X126786688Y-37616119D01*
X126775500Y-37638757D01*
X126719545Y-37727807D01*
X126663685Y-37887443D01*
X126644751Y-38055497D01*
X126644751Y-38055502D01*
X126663685Y-38223556D01*
X126719545Y-38383194D01*
X126719547Y-38383197D01*
X126809518Y-38526384D01*
X126809523Y-38526390D01*
X126929109Y-38645976D01*
X126929115Y-38645981D01*
X127072302Y-38735952D01*
X127072307Y-38735955D01*
X127072310Y-38735956D01*
X127231941Y-38791813D01*
X127231944Y-38791813D01*
X127235656Y-38793112D01*
X127282383Y-38822473D01*
X128688181Y-40228271D01*
X128721666Y-40289594D01*
X128724500Y-40315952D01*
X128724500Y-54207255D01*
X128722775Y-54222872D01*
X128723061Y-54222899D01*
X128722326Y-54230665D01*
X128724500Y-54299814D01*
X128724500Y-54329343D01*
X128724501Y-54329360D01*
X128725368Y-54336231D01*
X128725826Y-54342050D01*
X128727290Y-54388624D01*
X128727291Y-54388627D01*
X128729576Y-54396493D01*
X128734500Y-54431088D01*
X128734500Y-58599546D01*
X128714815Y-58666585D01*
X128698181Y-58687227D01*
X127725646Y-59659761D01*
X127664323Y-59693246D01*
X127605873Y-59691855D01*
X127505408Y-59664937D01*
X127270001Y-59644341D01*
X127269999Y-59644341D01*
X127034596Y-59664936D01*
X127034586Y-59664938D01*
X126806344Y-59726094D01*
X126806335Y-59726098D01*
X126592171Y-59825964D01*
X126592169Y-59825965D01*
X126398597Y-59961505D01*
X126231505Y-60128597D01*
X126101575Y-60314158D01*
X126046998Y-60357783D01*
X125977500Y-60364977D01*
X125915145Y-60333454D01*
X125898425Y-60314158D01*
X125768494Y-60128597D01*
X125601402Y-59961506D01*
X125601395Y-59961501D01*
X125407834Y-59825967D01*
X125407830Y-59825965D01*
X125355500Y-59801563D01*
X125193663Y-59726097D01*
X125193659Y-59726096D01*
X125193655Y-59726094D01*
X124965413Y-59664938D01*
X124965403Y-59664936D01*
X124730001Y-59644341D01*
X124729999Y-59644341D01*
X124494596Y-59664936D01*
X124494586Y-59664938D01*
X124266344Y-59726094D01*
X124266335Y-59726098D01*
X124052171Y-59825964D01*
X124052169Y-59825965D01*
X123858597Y-59961505D01*
X123691505Y-60128597D01*
X123561575Y-60314158D01*
X123506998Y-60357783D01*
X123437500Y-60364977D01*
X123375145Y-60333454D01*
X123358425Y-60314158D01*
X123228494Y-60128597D01*
X123061402Y-59961506D01*
X123061395Y-59961501D01*
X122867834Y-59825967D01*
X122867830Y-59825965D01*
X122815500Y-59801563D01*
X122653663Y-59726097D01*
X122653659Y-59726096D01*
X122653655Y-59726094D01*
X122425413Y-59664938D01*
X122425403Y-59664936D01*
X122190001Y-59644341D01*
X122189999Y-59644341D01*
X121954596Y-59664936D01*
X121954586Y-59664938D01*
X121726344Y-59726094D01*
X121726335Y-59726098D01*
X121512171Y-59825964D01*
X121512169Y-59825965D01*
X121318597Y-59961505D01*
X121151505Y-60128597D01*
X121021575Y-60314158D01*
X120966998Y-60357783D01*
X120897500Y-60364977D01*
X120835145Y-60333454D01*
X120818425Y-60314158D01*
X120688494Y-60128597D01*
X120521402Y-59961506D01*
X120521395Y-59961501D01*
X120327834Y-59825967D01*
X120327830Y-59825965D01*
X120275500Y-59801563D01*
X120113663Y-59726097D01*
X120113659Y-59726096D01*
X120113655Y-59726094D01*
X119885413Y-59664938D01*
X119885403Y-59664936D01*
X119650001Y-59644341D01*
X119649999Y-59644341D01*
X119414596Y-59664936D01*
X119414586Y-59664938D01*
X119186344Y-59726094D01*
X119186335Y-59726098D01*
X118972171Y-59825964D01*
X118972169Y-59825965D01*
X118778597Y-59961505D01*
X118611505Y-60128597D01*
X118481575Y-60314158D01*
X118426998Y-60357783D01*
X118357500Y-60364977D01*
X118295145Y-60333454D01*
X118278425Y-60314158D01*
X118148494Y-60128597D01*
X117981402Y-59961506D01*
X117981395Y-59961501D01*
X117787834Y-59825967D01*
X117787830Y-59825965D01*
X117735500Y-59801563D01*
X117573663Y-59726097D01*
X117573659Y-59726096D01*
X117573655Y-59726094D01*
X117345413Y-59664938D01*
X117345403Y-59664936D01*
X117110001Y-59644341D01*
X117109999Y-59644341D01*
X116874596Y-59664936D01*
X116874586Y-59664938D01*
X116646344Y-59726094D01*
X116646335Y-59726098D01*
X116432171Y-59825964D01*
X116432169Y-59825965D01*
X116238597Y-59961505D01*
X116071505Y-60128597D01*
X115935965Y-60322169D01*
X115935964Y-60322171D01*
X115836098Y-60536335D01*
X115836094Y-60536344D01*
X115774938Y-60764586D01*
X115774936Y-60764596D01*
X115754341Y-60999999D01*
X115754341Y-61000000D01*
X115774936Y-61235403D01*
X115774938Y-61235413D01*
X115836094Y-61463655D01*
X115836099Y-61463669D01*
X115852153Y-61498096D01*
X115862645Y-61567173D01*
X115834125Y-61630957D01*
X115775648Y-61669196D01*
X115739771Y-61674500D01*
X113282743Y-61674500D01*
X113267122Y-61672775D01*
X113267095Y-61673061D01*
X113259333Y-61672326D01*
X113190172Y-61674500D01*
X113160649Y-61674500D01*
X113153778Y-61675367D01*
X113147959Y-61675825D01*
X113101374Y-61677289D01*
X113101368Y-61677290D01*
X113082126Y-61682880D01*
X113063087Y-61686823D01*
X113043217Y-61689334D01*
X113043203Y-61689337D01*
X112999883Y-61706488D01*
X112994358Y-61708380D01*
X112949613Y-61721380D01*
X112949610Y-61721381D01*
X112932366Y-61731579D01*
X112914905Y-61740133D01*
X112896274Y-61747510D01*
X112896262Y-61747517D01*
X112858570Y-61774902D01*
X112853687Y-61778109D01*
X112813580Y-61801829D01*
X112799414Y-61815995D01*
X112784624Y-61828627D01*
X112768414Y-61840404D01*
X112768411Y-61840407D01*
X112738710Y-61876309D01*
X112734777Y-61880631D01*
X112327229Y-62288179D01*
X112265906Y-62321664D01*
X112199286Y-62317780D01*
X112119613Y-62290428D01*
X111874335Y-62249500D01*
X111625665Y-62249500D01*
X111380383Y-62290429D01*
X111145197Y-62371169D01*
X111145188Y-62371172D01*
X110926493Y-62489524D01*
X110730256Y-62642261D01*
X110715229Y-62658586D01*
X110655342Y-62694576D01*
X110585504Y-62692475D01*
X110527888Y-62652950D01*
X110500787Y-62588551D01*
X110500000Y-62574602D01*
X110500000Y-53780001D01*
X112694532Y-53780001D01*
X112714364Y-54006686D01*
X112714366Y-54006697D01*
X112773258Y-54226488D01*
X112773261Y-54226497D01*
X112869431Y-54432732D01*
X112869432Y-54432734D01*
X112999954Y-54619141D01*
X113160858Y-54780045D01*
X113160861Y-54780047D01*
X113347266Y-54910568D01*
X113553504Y-55006739D01*
X113773308Y-55065635D01*
X113935230Y-55079801D01*
X113999998Y-55085468D01*
X114000000Y-55085468D01*
X114000002Y-55085468D01*
X114059528Y-55080260D01*
X114226692Y-55065635D01*
X114446496Y-55006739D01*
X114557205Y-54955114D01*
X125695034Y-54955114D01*
X125714858Y-55181711D01*
X125714860Y-55181722D01*
X125773730Y-55401429D01*
X125773734Y-55401438D01*
X125869865Y-55607593D01*
X125869868Y-55607597D01*
X125878812Y-55620372D01*
X125901138Y-55686579D01*
X125884125Y-55754346D01*
X125851549Y-55790757D01*
X125842456Y-55797564D01*
X125842451Y-55797569D01*
X125756206Y-55912776D01*
X125756202Y-55912783D01*
X125705908Y-56047629D01*
X125699501Y-56107228D01*
X125699501Y-56107235D01*
X125699500Y-56107247D01*
X125699500Y-57802982D01*
X125699501Y-57802988D01*
X125705908Y-57862595D01*
X125756202Y-57997440D01*
X125756206Y-57997447D01*
X125842452Y-58112656D01*
X125842455Y-58112659D01*
X125957664Y-58198905D01*
X125957671Y-58198909D01*
X126092517Y-58249203D01*
X126092516Y-58249203D01*
X126099444Y-58249947D01*
X126152127Y-58255612D01*
X127847872Y-58255611D01*
X127907483Y-58249203D01*
X128042331Y-58198908D01*
X128157546Y-58112658D01*
X128243796Y-57997443D01*
X128294091Y-57862595D01*
X128300500Y-57802985D01*
X128300499Y-56107240D01*
X128294091Y-56047629D01*
X128276309Y-55999954D01*
X128243797Y-55912783D01*
X128243793Y-55912776D01*
X128157547Y-55797568D01*
X128157548Y-55797568D01*
X128157546Y-55797566D01*
X128148449Y-55790756D01*
X128106581Y-55734822D01*
X128101599Y-55665130D01*
X128121191Y-55620365D01*
X128130134Y-55607593D01*
X128226265Y-55401438D01*
X128226269Y-55401429D01*
X128285139Y-55181722D01*
X128285141Y-55181711D01*
X128304966Y-54955114D01*
X128304966Y-54955109D01*
X128285141Y-54728512D01*
X128285139Y-54728501D01*
X128226269Y-54508794D01*
X128226265Y-54508785D01*
X128130133Y-54302628D01*
X128130131Y-54302624D01*
X128079025Y-54229638D01*
X127397953Y-54910710D01*
X127385165Y-54829964D01*
X127327641Y-54717067D01*
X127238045Y-54627471D01*
X127125148Y-54569947D01*
X127044400Y-54557158D01*
X127725472Y-53876086D01*
X127725471Y-53876085D01*
X127652483Y-53824978D01*
X127652481Y-53824977D01*
X127446326Y-53728846D01*
X127446317Y-53728842D01*
X127226610Y-53669972D01*
X127226599Y-53669970D01*
X127000002Y-53650146D01*
X126999998Y-53650146D01*
X126773400Y-53669970D01*
X126773389Y-53669972D01*
X126553682Y-53728842D01*
X126553673Y-53728846D01*
X126347513Y-53824980D01*
X126274527Y-53876084D01*
X126274526Y-53876085D01*
X126955600Y-54557158D01*
X126874852Y-54569947D01*
X126761955Y-54627471D01*
X126672359Y-54717067D01*
X126614835Y-54829964D01*
X126602046Y-54910712D01*
X125920973Y-54229639D01*
X125869868Y-54302625D01*
X125773734Y-54508785D01*
X125773730Y-54508794D01*
X125714860Y-54728501D01*
X125714858Y-54728512D01*
X125695034Y-54955109D01*
X125695034Y-54955114D01*
X114557205Y-54955114D01*
X114652734Y-54910568D01*
X114839139Y-54780047D01*
X115000047Y-54619139D01*
X115130568Y-54432734D01*
X115226739Y-54226496D01*
X115285635Y-54006692D01*
X115305468Y-53780000D01*
X115285635Y-53553308D01*
X115267318Y-53484948D01*
X115268981Y-53415103D01*
X115299410Y-53365179D01*
X118583788Y-50080801D01*
X118596042Y-50070986D01*
X118595859Y-50070764D01*
X118601866Y-50065792D01*
X118601877Y-50065786D01*
X118632775Y-50032882D01*
X118649227Y-50015364D01*
X118659671Y-50004918D01*
X118670120Y-49994471D01*
X118674379Y-49988978D01*
X118678152Y-49984561D01*
X118710062Y-49950582D01*
X118719715Y-49933020D01*
X118730389Y-49916770D01*
X118742673Y-49900936D01*
X118761180Y-49858167D01*
X118763749Y-49852924D01*
X118776038Y-49830570D01*
X118786197Y-49812092D01*
X118791177Y-49792691D01*
X118797478Y-49774288D01*
X118805438Y-49755896D01*
X118812730Y-49709849D01*
X118813911Y-49704152D01*
X118814965Y-49700047D01*
X118825500Y-49659019D01*
X118825500Y-49638983D01*
X118827027Y-49619582D01*
X118830160Y-49599804D01*
X118825775Y-49553415D01*
X118825500Y-49547577D01*
X118825500Y-44950875D01*
X118844507Y-44884902D01*
X118880456Y-44827690D01*
X118897977Y-44777618D01*
X118936313Y-44668059D01*
X118955249Y-44500000D01*
X118951650Y-44468057D01*
X118936314Y-44331943D01*
X118890798Y-44201867D01*
X118880456Y-44172310D01*
X118880455Y-44172309D01*
X118880454Y-44172305D01*
X118880452Y-44172302D01*
X118790481Y-44029115D01*
X118790476Y-44029109D01*
X118670890Y-43909523D01*
X118670884Y-43909518D01*
X118527697Y-43819547D01*
X118527694Y-43819545D01*
X118368056Y-43763686D01*
X118335614Y-43760030D01*
X118271200Y-43732962D01*
X118231647Y-43675366D01*
X118225500Y-43636810D01*
X118225500Y-39608238D01*
X118227224Y-39592624D01*
X118226938Y-39592597D01*
X118227672Y-39584834D01*
X118225500Y-39515703D01*
X118225500Y-39486151D01*
X118225500Y-39486150D01*
X118224629Y-39479259D01*
X118224172Y-39473445D01*
X118222709Y-39426872D01*
X118217122Y-39407644D01*
X118213174Y-39388584D01*
X118212662Y-39384532D01*
X118210664Y-39368708D01*
X118193507Y-39325375D01*
X118191619Y-39319859D01*
X118178619Y-39275112D01*
X118168418Y-39257863D01*
X118159860Y-39240394D01*
X118152486Y-39221768D01*
X118134380Y-39196848D01*
X118111477Y-39137837D01*
X118110813Y-39131941D01*
X118054955Y-38972308D01*
X118054952Y-38972302D01*
X117964981Y-38829115D01*
X117964976Y-38829109D01*
X117845390Y-38709523D01*
X117845384Y-38709518D01*
X117702197Y-38619547D01*
X117702192Y-38619544D01*
X117542553Y-38563685D01*
X117489466Y-38557704D01*
X117425052Y-38530637D01*
X117385497Y-38473042D01*
X117384273Y-38469076D01*
X117378618Y-38449610D01*
X117368422Y-38432370D01*
X117359861Y-38414894D01*
X117352487Y-38396270D01*
X117345250Y-38386309D01*
X117325079Y-38358545D01*
X117321888Y-38353686D01*
X117298172Y-38313583D01*
X117298165Y-38313574D01*
X117284006Y-38299415D01*
X117271368Y-38284619D01*
X117264428Y-38275067D01*
X117259594Y-38268413D01*
X117223688Y-38238709D01*
X117219376Y-38234786D01*
X115336818Y-36352227D01*
X115303333Y-36290904D01*
X115300499Y-36264546D01*
X115300499Y-35152129D01*
X115300498Y-35152123D01*
X115300497Y-35152116D01*
X115294091Y-35092517D01*
X115259567Y-34999954D01*
X115243797Y-34957671D01*
X115243793Y-34957664D01*
X115157547Y-34842455D01*
X115157544Y-34842452D01*
X115042335Y-34756206D01*
X115042328Y-34756202D01*
X114907482Y-34705908D01*
X114907483Y-34705908D01*
X114847883Y-34699501D01*
X114847881Y-34699500D01*
X114847873Y-34699500D01*
X114847864Y-34699500D01*
X113152129Y-34699500D01*
X113152123Y-34699501D01*
X113092516Y-34705908D01*
X112957671Y-34756202D01*
X112957664Y-34756206D01*
X112842455Y-34842452D01*
X112842452Y-34842455D01*
X112756206Y-34957664D01*
X112756202Y-34957671D01*
X112705908Y-35092517D01*
X112699501Y-35152116D01*
X112699501Y-35152123D01*
X112699500Y-35152135D01*
X112699500Y-36847870D01*
X112699501Y-36847876D01*
X112705908Y-36907483D01*
X112756202Y-37042328D01*
X112756206Y-37042335D01*
X112842452Y-37157544D01*
X112842455Y-37157547D01*
X112957664Y-37243793D01*
X112957671Y-37243797D01*
X113002618Y-37260561D01*
X113092517Y-37294091D01*
X113127596Y-37297862D01*
X113192144Y-37324599D01*
X113231993Y-37381991D01*
X113234488Y-37451816D01*
X113198836Y-37511905D01*
X113185464Y-37522725D01*
X113160858Y-37539954D01*
X112999954Y-37700858D01*
X112869432Y-37887265D01*
X112869431Y-37887267D01*
X112773261Y-38093502D01*
X112773258Y-38093511D01*
X112714366Y-38313302D01*
X112714364Y-38313313D01*
X112694532Y-38539998D01*
X112694532Y-38540001D01*
X112714364Y-38766686D01*
X112714366Y-38766697D01*
X112773258Y-38986488D01*
X112773261Y-38986497D01*
X112869431Y-39192732D01*
X112869432Y-39192734D01*
X112999954Y-39379141D01*
X113160858Y-39540045D01*
X113160861Y-39540047D01*
X113347266Y-39670568D01*
X113405275Y-39697618D01*
X113457714Y-39743791D01*
X113476866Y-39810984D01*
X113456650Y-39877865D01*
X113405275Y-39922382D01*
X113347267Y-39949431D01*
X113347265Y-39949432D01*
X113160858Y-40079954D01*
X112999954Y-40240858D01*
X112869432Y-40427265D01*
X112869431Y-40427267D01*
X112773261Y-40633502D01*
X112773258Y-40633511D01*
X112714366Y-40853302D01*
X112714364Y-40853313D01*
X112694532Y-41079998D01*
X112694532Y-41080001D01*
X112714364Y-41306686D01*
X112714366Y-41306697D01*
X112773258Y-41526488D01*
X112773261Y-41526497D01*
X112869431Y-41732732D01*
X112869432Y-41732734D01*
X112999954Y-41919141D01*
X113160858Y-42080045D01*
X113160861Y-42080047D01*
X113347266Y-42210568D01*
X113405275Y-42237618D01*
X113457714Y-42283791D01*
X113476866Y-42350984D01*
X113456650Y-42417865D01*
X113405275Y-42462382D01*
X113347267Y-42489431D01*
X113347265Y-42489432D01*
X113160858Y-42619954D01*
X112999954Y-42780858D01*
X112869432Y-42967265D01*
X112869431Y-42967267D01*
X112773261Y-43173502D01*
X112773258Y-43173511D01*
X112714366Y-43393302D01*
X112714364Y-43393313D01*
X112694532Y-43619998D01*
X112694532Y-43620001D01*
X112714364Y-43846686D01*
X112714366Y-43846697D01*
X112773258Y-44066488D01*
X112773261Y-44066497D01*
X112869431Y-44272732D01*
X112869432Y-44272734D01*
X112999954Y-44459141D01*
X113160858Y-44620045D01*
X113160861Y-44620047D01*
X113347266Y-44750568D01*
X113405275Y-44777618D01*
X113457714Y-44823791D01*
X113476866Y-44890984D01*
X113456650Y-44957865D01*
X113405275Y-45002382D01*
X113347267Y-45029431D01*
X113347265Y-45029432D01*
X113160858Y-45159954D01*
X112999954Y-45320858D01*
X112869432Y-45507265D01*
X112869431Y-45507267D01*
X112773261Y-45713502D01*
X112773258Y-45713511D01*
X112714366Y-45933302D01*
X112714364Y-45933313D01*
X112694532Y-46159998D01*
X112694532Y-46160001D01*
X112714364Y-46386686D01*
X112714366Y-46386697D01*
X112773258Y-46606488D01*
X112773261Y-46606497D01*
X112869431Y-46812732D01*
X112869432Y-46812734D01*
X112999954Y-46999141D01*
X113160858Y-47160045D01*
X113188546Y-47179432D01*
X113347266Y-47290568D01*
X113405275Y-47317618D01*
X113457714Y-47363791D01*
X113476866Y-47430984D01*
X113456650Y-47497865D01*
X113405275Y-47542382D01*
X113347267Y-47569431D01*
X113347265Y-47569432D01*
X113160858Y-47699954D01*
X112999954Y-47860858D01*
X112869432Y-48047265D01*
X112869431Y-48047267D01*
X112773261Y-48253502D01*
X112773258Y-48253511D01*
X112714366Y-48473302D01*
X112714364Y-48473313D01*
X112694532Y-48699998D01*
X112694532Y-48700001D01*
X112714364Y-48926686D01*
X112714366Y-48926697D01*
X112773258Y-49146488D01*
X112773261Y-49146497D01*
X112869431Y-49352732D01*
X112869432Y-49352734D01*
X112999954Y-49539141D01*
X113160858Y-49700045D01*
X113170764Y-49706981D01*
X113347266Y-49830568D01*
X113405275Y-49857618D01*
X113457714Y-49903791D01*
X113476866Y-49970984D01*
X113456650Y-50037865D01*
X113405275Y-50082382D01*
X113347267Y-50109431D01*
X113347265Y-50109432D01*
X113160858Y-50239954D01*
X112999954Y-50400858D01*
X112869432Y-50587265D01*
X112869431Y-50587267D01*
X112773261Y-50793502D01*
X112773258Y-50793511D01*
X112714366Y-51013302D01*
X112714364Y-51013313D01*
X112694532Y-51239998D01*
X112694532Y-51240001D01*
X112714364Y-51466686D01*
X112714366Y-51466697D01*
X112773258Y-51686488D01*
X112773261Y-51686497D01*
X112869431Y-51892732D01*
X112869432Y-51892734D01*
X112999954Y-52079141D01*
X113160858Y-52240045D01*
X113160861Y-52240047D01*
X113347266Y-52370568D01*
X113405275Y-52397618D01*
X113457714Y-52443791D01*
X113476866Y-52510984D01*
X113456650Y-52577865D01*
X113405275Y-52622382D01*
X113347267Y-52649431D01*
X113347265Y-52649432D01*
X113160858Y-52779954D01*
X112999954Y-52940858D01*
X112869432Y-53127265D01*
X112869431Y-53127267D01*
X112773261Y-53333502D01*
X112773258Y-53333511D01*
X112714366Y-53553302D01*
X112714364Y-53553313D01*
X112694532Y-53779998D01*
X112694532Y-53780001D01*
X110500000Y-53780001D01*
X110500000Y-29624000D01*
X110519685Y-29556961D01*
X110572489Y-29511206D01*
X110624000Y-29500000D01*
X114454998Y-29500000D01*
X114459424Y-29500158D01*
G37*
%TD.AperFunction*%
%TD*%
%TA.AperFunction,Conductor*%
%TO.N,Board_1-Earth*%
G36*
X159459424Y-29500158D02*
G01*
X159464198Y-29500499D01*
X159464201Y-29500500D01*
X159464204Y-29500500D01*
X159535796Y-29500500D01*
X159535799Y-29500500D01*
X159535801Y-29500499D01*
X159540576Y-29500158D01*
X159545002Y-29500000D01*
X160454998Y-29500000D01*
X160459424Y-29500158D01*
X160464198Y-29500499D01*
X160464201Y-29500500D01*
X160464204Y-29500500D01*
X160535796Y-29500500D01*
X160535799Y-29500500D01*
X160535801Y-29500499D01*
X160540576Y-29500158D01*
X160545002Y-29500000D01*
X161454998Y-29500000D01*
X161459424Y-29500158D01*
X161464198Y-29500499D01*
X161464201Y-29500500D01*
X161464204Y-29500500D01*
X161535796Y-29500500D01*
X161535799Y-29500500D01*
X161535801Y-29500499D01*
X161540576Y-29500158D01*
X161545002Y-29500000D01*
X162454998Y-29500000D01*
X162459424Y-29500158D01*
X162464198Y-29500499D01*
X162464201Y-29500500D01*
X162464204Y-29500500D01*
X162535796Y-29500500D01*
X162535799Y-29500500D01*
X162535801Y-29500499D01*
X162540576Y-29500158D01*
X162545002Y-29500000D01*
X179454998Y-29500000D01*
X179459424Y-29500158D01*
X179464198Y-29500499D01*
X179464201Y-29500500D01*
X179464204Y-29500500D01*
X179535796Y-29500500D01*
X179535799Y-29500500D01*
X179535801Y-29500499D01*
X179540576Y-29500158D01*
X179545002Y-29500000D01*
X180454998Y-29500000D01*
X180459424Y-29500158D01*
X180464198Y-29500499D01*
X180464201Y-29500500D01*
X180464204Y-29500500D01*
X180535796Y-29500500D01*
X180535799Y-29500500D01*
X180535801Y-29500499D01*
X180540576Y-29500158D01*
X180545002Y-29500000D01*
X181454998Y-29500000D01*
X181459424Y-29500158D01*
X181464198Y-29500499D01*
X181464201Y-29500500D01*
X181464204Y-29500500D01*
X181535796Y-29500500D01*
X181535799Y-29500500D01*
X181535801Y-29500499D01*
X181540576Y-29500158D01*
X181545002Y-29500000D01*
X182454998Y-29500000D01*
X182459424Y-29500158D01*
X182464198Y-29500499D01*
X182464201Y-29500500D01*
X182464204Y-29500500D01*
X182535796Y-29500500D01*
X182535799Y-29500500D01*
X182535801Y-29500499D01*
X182540576Y-29500158D01*
X182545002Y-29500000D01*
X186376000Y-29500000D01*
X186443039Y-29519685D01*
X186488794Y-29572489D01*
X186500000Y-29624000D01*
X186500000Y-62802190D01*
X186480315Y-62869229D01*
X186463681Y-62889871D01*
X185775929Y-63577622D01*
X185773116Y-63564085D01*
X185703558Y-63429844D01*
X185600362Y-63319348D01*
X185471181Y-63240791D01*
X185419997Y-63226450D01*
X186120057Y-62526390D01*
X186120056Y-62526389D01*
X186073229Y-62489943D01*
X185854614Y-62371635D01*
X185854603Y-62371630D01*
X185619493Y-62290916D01*
X185374293Y-62250000D01*
X185125707Y-62250000D01*
X184880506Y-62290916D01*
X184645396Y-62371630D01*
X184645390Y-62371632D01*
X184426761Y-62489949D01*
X184379942Y-62526388D01*
X184379942Y-62526390D01*
X185078431Y-63224878D01*
X184961542Y-63275651D01*
X184844261Y-63371066D01*
X184757072Y-63494585D01*
X184726645Y-63580197D01*
X184026564Y-62880116D01*
X183926267Y-63033632D01*
X183826412Y-63261282D01*
X183765387Y-63502261D01*
X183765385Y-63502270D01*
X183744859Y-63749994D01*
X183744859Y-63750005D01*
X183765385Y-63997729D01*
X183765387Y-63997738D01*
X183826412Y-64238717D01*
X183926266Y-64466364D01*
X184026564Y-64619882D01*
X184724070Y-63922376D01*
X184726884Y-63935915D01*
X184796442Y-64070156D01*
X184899638Y-64180652D01*
X185028819Y-64259209D01*
X185080002Y-64273549D01*
X184379942Y-64973609D01*
X184426768Y-65010055D01*
X184426770Y-65010056D01*
X184645385Y-65128364D01*
X184645396Y-65128369D01*
X184880506Y-65209083D01*
X185125707Y-65250000D01*
X185374293Y-65250000D01*
X185619493Y-65209083D01*
X185854603Y-65128369D01*
X185854614Y-65128364D01*
X186073228Y-65010057D01*
X186073231Y-65010055D01*
X186120056Y-64973609D01*
X185421568Y-64275121D01*
X185538458Y-64224349D01*
X185655739Y-64128934D01*
X185742928Y-64005415D01*
X185773354Y-63919801D01*
X186463681Y-64610128D01*
X186497166Y-64671451D01*
X186500000Y-64697809D01*
X186500000Y-69302190D01*
X186480315Y-69369229D01*
X186463681Y-69389871D01*
X185775929Y-70077622D01*
X185773116Y-70064085D01*
X185703558Y-69929844D01*
X185600362Y-69819348D01*
X185471181Y-69740791D01*
X185419997Y-69726450D01*
X186120057Y-69026390D01*
X186120056Y-69026389D01*
X186073229Y-68989943D01*
X185854614Y-68871635D01*
X185854603Y-68871630D01*
X185619493Y-68790916D01*
X185374293Y-68750000D01*
X185125707Y-68750000D01*
X184880506Y-68790916D01*
X184645396Y-68871630D01*
X184645390Y-68871632D01*
X184426761Y-68989949D01*
X184379942Y-69026388D01*
X184379942Y-69026390D01*
X185078431Y-69724878D01*
X184961542Y-69775651D01*
X184844261Y-69871066D01*
X184757072Y-69994585D01*
X184726645Y-70080197D01*
X184026564Y-69380116D01*
X183926267Y-69533632D01*
X183826412Y-69761282D01*
X183765387Y-70002261D01*
X183765385Y-70002270D01*
X183744859Y-70249994D01*
X183744859Y-70250005D01*
X183765385Y-70497729D01*
X183765387Y-70497738D01*
X183826412Y-70738717D01*
X183926266Y-70966364D01*
X184026564Y-71119882D01*
X184724070Y-70422376D01*
X184726884Y-70435915D01*
X184796442Y-70570156D01*
X184899638Y-70680652D01*
X185028819Y-70759209D01*
X185080002Y-70773549D01*
X184379942Y-71473609D01*
X184426768Y-71510055D01*
X184426770Y-71510056D01*
X184645385Y-71628364D01*
X184645396Y-71628369D01*
X184880506Y-71709083D01*
X185125707Y-71750000D01*
X185374293Y-71750000D01*
X185619493Y-71709083D01*
X185854603Y-71628369D01*
X185854614Y-71628364D01*
X186073228Y-71510057D01*
X186073231Y-71510055D01*
X186120056Y-71473609D01*
X185421568Y-70775121D01*
X185538458Y-70724349D01*
X185655739Y-70628934D01*
X185742928Y-70505415D01*
X185773354Y-70419801D01*
X186463681Y-71110128D01*
X186497166Y-71171451D01*
X186500000Y-71197809D01*
X186500000Y-72376000D01*
X186480315Y-72443039D01*
X186427511Y-72488794D01*
X186376000Y-72500000D01*
X155624000Y-72500000D01*
X155556961Y-72480315D01*
X155511206Y-72427511D01*
X155500000Y-72376000D01*
X155500000Y-71425397D01*
X155519685Y-71358358D01*
X155572489Y-71312603D01*
X155641647Y-71302659D01*
X155705203Y-71331684D01*
X155715226Y-71341411D01*
X155730256Y-71357738D01*
X155926491Y-71510474D01*
X155926493Y-71510475D01*
X156144332Y-71628364D01*
X156145190Y-71628828D01*
X156364141Y-71703994D01*
X156378964Y-71709083D01*
X156380386Y-71709571D01*
X156625665Y-71750500D01*
X156874335Y-71750500D01*
X157119614Y-71709571D01*
X157354810Y-71628828D01*
X157573509Y-71510474D01*
X157769744Y-71357738D01*
X157938164Y-71174785D01*
X158074173Y-70966607D01*
X158174063Y-70738881D01*
X158235108Y-70497821D01*
X158240238Y-70435915D01*
X158255643Y-70250005D01*
X159744859Y-70250005D01*
X159765385Y-70497729D01*
X159765387Y-70497738D01*
X159826412Y-70738717D01*
X159926266Y-70966364D01*
X160026564Y-71119882D01*
X160724070Y-70422376D01*
X160726884Y-70435915D01*
X160796442Y-70570156D01*
X160899638Y-70680652D01*
X161028819Y-70759209D01*
X161080002Y-70773549D01*
X160379942Y-71473609D01*
X160426768Y-71510055D01*
X160426770Y-71510056D01*
X160645385Y-71628364D01*
X160645396Y-71628369D01*
X160880506Y-71709083D01*
X161125707Y-71750000D01*
X161374293Y-71750000D01*
X161619493Y-71709083D01*
X161854603Y-71628369D01*
X161854614Y-71628364D01*
X162073228Y-71510057D01*
X162073231Y-71510055D01*
X162120056Y-71473609D01*
X161421568Y-70775121D01*
X161538458Y-70724349D01*
X161655739Y-70628934D01*
X161742928Y-70505415D01*
X161773354Y-70419802D01*
X162473434Y-71119882D01*
X162573731Y-70966369D01*
X162673587Y-70738717D01*
X162734612Y-70497738D01*
X162734614Y-70497729D01*
X162755141Y-70250005D01*
X162755141Y-70249994D01*
X162734614Y-70002270D01*
X162734612Y-70002261D01*
X162673587Y-69761282D01*
X162573731Y-69533630D01*
X162473434Y-69380116D01*
X161775929Y-70077622D01*
X161773116Y-70064085D01*
X161703558Y-69929844D01*
X161600362Y-69819348D01*
X161471181Y-69740791D01*
X161419997Y-69726450D01*
X162120057Y-69026390D01*
X162120056Y-69026389D01*
X162073229Y-68989943D01*
X161854614Y-68871635D01*
X161854603Y-68871630D01*
X161619493Y-68790916D01*
X161374293Y-68750000D01*
X161125707Y-68750000D01*
X160880506Y-68790916D01*
X160645396Y-68871630D01*
X160645390Y-68871632D01*
X160426761Y-68989949D01*
X160379942Y-69026388D01*
X160379942Y-69026390D01*
X161078431Y-69724878D01*
X160961542Y-69775651D01*
X160844261Y-69871066D01*
X160757072Y-69994585D01*
X160726645Y-70080197D01*
X160026564Y-69380116D01*
X159926267Y-69533632D01*
X159826412Y-69761282D01*
X159765387Y-70002261D01*
X159765385Y-70002270D01*
X159744859Y-70249994D01*
X159744859Y-70250005D01*
X158255643Y-70250005D01*
X158255643Y-70249994D01*
X158235109Y-70002187D01*
X158235107Y-70002175D01*
X158174063Y-69761118D01*
X158074173Y-69533393D01*
X157938166Y-69325217D01*
X157815968Y-69192475D01*
X157769744Y-69142262D01*
X157573509Y-68989526D01*
X157573508Y-68989525D01*
X157573505Y-68989523D01*
X157573503Y-68989522D01*
X157440481Y-68917533D01*
X157390891Y-68868313D01*
X157375500Y-68808479D01*
X157375500Y-65191519D01*
X157395185Y-65124480D01*
X157440483Y-65082464D01*
X157500534Y-65049966D01*
X157573509Y-65010474D01*
X157769744Y-64857738D01*
X157938164Y-64674785D01*
X158074173Y-64466607D01*
X158174063Y-64238881D01*
X158235108Y-63997821D01*
X158240238Y-63935915D01*
X158255643Y-63750005D01*
X158255643Y-63749994D01*
X158235109Y-63502187D01*
X158235107Y-63502175D01*
X158181136Y-63289049D01*
X158183761Y-63219229D01*
X158213661Y-63170928D01*
X158317443Y-63067147D01*
X158422771Y-62961819D01*
X158484094Y-62928334D01*
X158510452Y-62925500D01*
X159783903Y-62925500D01*
X159850942Y-62945185D01*
X159896697Y-62997989D01*
X159906641Y-63067147D01*
X159897459Y-63099310D01*
X159826412Y-63261282D01*
X159765387Y-63502261D01*
X159765385Y-63502270D01*
X159744859Y-63749994D01*
X159744859Y-63750005D01*
X159765385Y-63997729D01*
X159765387Y-63997738D01*
X159826412Y-64238717D01*
X159926266Y-64466364D01*
X160026564Y-64619882D01*
X160724070Y-63922375D01*
X160726884Y-63935915D01*
X160796442Y-64070156D01*
X160899638Y-64180652D01*
X161028819Y-64259209D01*
X161080002Y-64273549D01*
X160379942Y-64973609D01*
X160426768Y-65010055D01*
X160426770Y-65010056D01*
X160645385Y-65128364D01*
X160645396Y-65128369D01*
X160880506Y-65209083D01*
X161125707Y-65250000D01*
X161374293Y-65250000D01*
X161619493Y-65209083D01*
X161854603Y-65128369D01*
X161854614Y-65128364D01*
X162073228Y-65010057D01*
X162073231Y-65010055D01*
X162120056Y-64973609D01*
X161421568Y-64275121D01*
X161538458Y-64224349D01*
X161655739Y-64128934D01*
X161742928Y-64005415D01*
X161773354Y-63919802D01*
X162473434Y-64619882D01*
X162573731Y-64466369D01*
X162673587Y-64238717D01*
X162734612Y-63997738D01*
X162734614Y-63997729D01*
X162755141Y-63750005D01*
X162755141Y-63749994D01*
X162734614Y-63502270D01*
X162734612Y-63502261D01*
X162673587Y-63261282D01*
X162602541Y-63099310D01*
X162593638Y-63030010D01*
X162623616Y-62966897D01*
X162682955Y-62930011D01*
X162716097Y-62925500D01*
X165807257Y-62925500D01*
X165822877Y-62927224D01*
X165822904Y-62926939D01*
X165830660Y-62927671D01*
X165830667Y-62927673D01*
X165899814Y-62925500D01*
X165929350Y-62925500D01*
X165936228Y-62924630D01*
X165942041Y-62924172D01*
X165988627Y-62922709D01*
X166007869Y-62917117D01*
X166026912Y-62913174D01*
X166046792Y-62910664D01*
X166090122Y-62893507D01*
X166095646Y-62891617D01*
X166101656Y-62889871D01*
X166140390Y-62878618D01*
X166157629Y-62868422D01*
X166175103Y-62859862D01*
X166193727Y-62852488D01*
X166193727Y-62852487D01*
X166193732Y-62852486D01*
X166231449Y-62825082D01*
X166236305Y-62821892D01*
X166276420Y-62798170D01*
X166290589Y-62783999D01*
X166305379Y-62771368D01*
X166321587Y-62759594D01*
X166351299Y-62723676D01*
X166355212Y-62719376D01*
X166734353Y-62340235D01*
X166795674Y-62306752D01*
X166854125Y-62308143D01*
X166888780Y-62317428D01*
X166954592Y-62335063D01*
X167131034Y-62350500D01*
X167189999Y-62355659D01*
X167190000Y-62355659D01*
X167190001Y-62355659D01*
X167248966Y-62350500D01*
X167425408Y-62335063D01*
X167653663Y-62273903D01*
X167867830Y-62174035D01*
X168061401Y-62038495D01*
X168228495Y-61871401D01*
X168358425Y-61685842D01*
X168413002Y-61642217D01*
X168482500Y-61635023D01*
X168544855Y-61666546D01*
X168561575Y-61685842D01*
X168691501Y-61871396D01*
X168691506Y-61871402D01*
X168857923Y-62037819D01*
X168891408Y-62099142D01*
X168886424Y-62168834D01*
X168844552Y-62224767D01*
X168779088Y-62249184D01*
X168770242Y-62249500D01*
X168625665Y-62249500D01*
X168380383Y-62290429D01*
X168145197Y-62371169D01*
X168145188Y-62371172D01*
X167926493Y-62489524D01*
X167730257Y-62642261D01*
X167561833Y-62825217D01*
X167425826Y-63033393D01*
X167325936Y-63261118D01*
X167264892Y-63502175D01*
X167264890Y-63502187D01*
X167244357Y-63749994D01*
X167244357Y-63750005D01*
X167264890Y-63997812D01*
X167264892Y-63997824D01*
X167325936Y-64238881D01*
X167425826Y-64466606D01*
X167561833Y-64674782D01*
X167561836Y-64674785D01*
X167730256Y-64857738D01*
X167731053Y-64858358D01*
X167926488Y-65010472D01*
X167926493Y-65010475D01*
X168059517Y-65082464D01*
X168109108Y-65131683D01*
X168124500Y-65191519D01*
X168124500Y-68808479D01*
X168104815Y-68875518D01*
X168059519Y-68917533D01*
X167926496Y-68989522D01*
X167926494Y-68989523D01*
X167730257Y-69142261D01*
X167561833Y-69325217D01*
X167425826Y-69533393D01*
X167325936Y-69761118D01*
X167264892Y-70002175D01*
X167264890Y-70002187D01*
X167244357Y-70249994D01*
X167244357Y-70250005D01*
X167264890Y-70497812D01*
X167264892Y-70497824D01*
X167325936Y-70738881D01*
X167425826Y-70966606D01*
X167561833Y-71174782D01*
X167561836Y-71174785D01*
X167730256Y-71357738D01*
X167926491Y-71510474D01*
X167926493Y-71510475D01*
X168144332Y-71628364D01*
X168145190Y-71628828D01*
X168364141Y-71703994D01*
X168378964Y-71709083D01*
X168380386Y-71709571D01*
X168625665Y-71750500D01*
X168874335Y-71750500D01*
X169119614Y-71709571D01*
X169354810Y-71628828D01*
X169573509Y-71510474D01*
X169769744Y-71357738D01*
X169938164Y-71174785D01*
X170074173Y-70966607D01*
X170174063Y-70738881D01*
X170235108Y-70497821D01*
X170240238Y-70435915D01*
X170255643Y-70250005D01*
X171744859Y-70250005D01*
X171765385Y-70497729D01*
X171765387Y-70497738D01*
X171826412Y-70738717D01*
X171926266Y-70966364D01*
X172026564Y-71119882D01*
X172724070Y-70422376D01*
X172726884Y-70435915D01*
X172796442Y-70570156D01*
X172899638Y-70680652D01*
X173028819Y-70759209D01*
X173080002Y-70773549D01*
X172379942Y-71473609D01*
X172426768Y-71510055D01*
X172426770Y-71510056D01*
X172645385Y-71628364D01*
X172645396Y-71628369D01*
X172880506Y-71709083D01*
X173125707Y-71750000D01*
X173374293Y-71750000D01*
X173619493Y-71709083D01*
X173854603Y-71628369D01*
X173854614Y-71628364D01*
X174073228Y-71510057D01*
X174073231Y-71510055D01*
X174120056Y-71473609D01*
X173421568Y-70775121D01*
X173538458Y-70724349D01*
X173655739Y-70628934D01*
X173742928Y-70505415D01*
X173773354Y-70419802D01*
X174473434Y-71119882D01*
X174573731Y-70966369D01*
X174673587Y-70738717D01*
X174734612Y-70497738D01*
X174734614Y-70497729D01*
X174755141Y-70250005D01*
X174755141Y-70249994D01*
X174734614Y-70002270D01*
X174734612Y-70002261D01*
X174673587Y-69761282D01*
X174573731Y-69533630D01*
X174473434Y-69380116D01*
X173775929Y-70077622D01*
X173773116Y-70064085D01*
X173703558Y-69929844D01*
X173600362Y-69819348D01*
X173471181Y-69740791D01*
X173419997Y-69726450D01*
X174120057Y-69026390D01*
X174120056Y-69026389D01*
X174073229Y-68989943D01*
X173854614Y-68871635D01*
X173854603Y-68871630D01*
X173619493Y-68790916D01*
X173374293Y-68750000D01*
X173125707Y-68750000D01*
X172880506Y-68790916D01*
X172645396Y-68871630D01*
X172645390Y-68871632D01*
X172426761Y-68989949D01*
X172379942Y-69026388D01*
X172379942Y-69026390D01*
X173078431Y-69724878D01*
X172961542Y-69775651D01*
X172844261Y-69871066D01*
X172757072Y-69994585D01*
X172726645Y-70080197D01*
X172026564Y-69380116D01*
X171926267Y-69533632D01*
X171826412Y-69761282D01*
X171765387Y-70002261D01*
X171765385Y-70002270D01*
X171744859Y-70249994D01*
X171744859Y-70250005D01*
X170255643Y-70250005D01*
X170255643Y-70249994D01*
X170235109Y-70002187D01*
X170235107Y-70002175D01*
X170174063Y-69761118D01*
X170074173Y-69533393D01*
X169938166Y-69325217D01*
X169815968Y-69192475D01*
X169769744Y-69142262D01*
X169573509Y-68989526D01*
X169573508Y-68989525D01*
X169573505Y-68989523D01*
X169573503Y-68989522D01*
X169440481Y-68917533D01*
X169390891Y-68868313D01*
X169375500Y-68808479D01*
X169375500Y-65191519D01*
X169395185Y-65124480D01*
X169440483Y-65082464D01*
X169500534Y-65049966D01*
X169573509Y-65010474D01*
X169769744Y-64857738D01*
X169938164Y-64674785D01*
X170074173Y-64466607D01*
X170174063Y-64238881D01*
X170235108Y-63997821D01*
X170240238Y-63935915D01*
X170255643Y-63750005D01*
X170255643Y-63749994D01*
X170235109Y-63502187D01*
X170235107Y-63502175D01*
X170174063Y-63261118D01*
X170074173Y-63033393D01*
X169938166Y-62825217D01*
X169900235Y-62784013D01*
X169769744Y-62642262D01*
X169683792Y-62575363D01*
X169642981Y-62518654D01*
X169639306Y-62448881D01*
X169673937Y-62388198D01*
X169735879Y-62355871D01*
X169749137Y-62353984D01*
X169965408Y-62335063D01*
X170193663Y-62273903D01*
X170407830Y-62174035D01*
X170601401Y-62038495D01*
X170768495Y-61871401D01*
X170898425Y-61685842D01*
X170953002Y-61642217D01*
X171022500Y-61635023D01*
X171084855Y-61666546D01*
X171101575Y-61685842D01*
X171231278Y-61871078D01*
X171231505Y-61871401D01*
X171398599Y-62038495D01*
X171485212Y-62099142D01*
X171592165Y-62174032D01*
X171592167Y-62174033D01*
X171592170Y-62174035D01*
X171806337Y-62273903D01*
X172034592Y-62335063D01*
X172269445Y-62355610D01*
X172334513Y-62381062D01*
X172375492Y-62437653D01*
X172382399Y-62486823D01*
X172379942Y-62526390D01*
X173078431Y-63224878D01*
X172961542Y-63275651D01*
X172844261Y-63371066D01*
X172757072Y-63494585D01*
X172726645Y-63580197D01*
X172026564Y-62880116D01*
X171926267Y-63033632D01*
X171826412Y-63261282D01*
X171765387Y-63502261D01*
X171765385Y-63502270D01*
X171744859Y-63749994D01*
X171744859Y-63750005D01*
X171765385Y-63997729D01*
X171765387Y-63997738D01*
X171826412Y-64238717D01*
X171926266Y-64466364D01*
X172026564Y-64619882D01*
X172724070Y-63922376D01*
X172726884Y-63935915D01*
X172796442Y-64070156D01*
X172899638Y-64180652D01*
X173028819Y-64259209D01*
X173080002Y-64273549D01*
X172379942Y-64973609D01*
X172426768Y-65010055D01*
X172426770Y-65010056D01*
X172645385Y-65128364D01*
X172645396Y-65128369D01*
X172880506Y-65209083D01*
X173125707Y-65250000D01*
X173374293Y-65250000D01*
X173619493Y-65209083D01*
X173854603Y-65128369D01*
X173854614Y-65128364D01*
X174073228Y-65010057D01*
X174073231Y-65010055D01*
X174120056Y-64973609D01*
X173421568Y-64275121D01*
X173538458Y-64224349D01*
X173655739Y-64128934D01*
X173742928Y-64005415D01*
X173773354Y-63919802D01*
X174473434Y-64619882D01*
X174573731Y-64466369D01*
X174673587Y-64238717D01*
X174734612Y-63997738D01*
X174734614Y-63997729D01*
X174755141Y-63750005D01*
X174755141Y-63749994D01*
X174734614Y-63502270D01*
X174734612Y-63502261D01*
X174673587Y-63261282D01*
X174573731Y-63033630D01*
X174473434Y-62880116D01*
X173775929Y-63577622D01*
X173773116Y-63564085D01*
X173703558Y-63429844D01*
X173600362Y-63319348D01*
X173471181Y-63240791D01*
X173419997Y-63226450D01*
X174120057Y-62526390D01*
X174120056Y-62526389D01*
X174073229Y-62489943D01*
X173854614Y-62371635D01*
X173854603Y-62371630D01*
X173619493Y-62290916D01*
X173374293Y-62250000D01*
X173229258Y-62250000D01*
X173162219Y-62230315D01*
X173116464Y-62177511D01*
X173106520Y-62108353D01*
X173135545Y-62044797D01*
X173141577Y-62038319D01*
X173222414Y-61957482D01*
X173308495Y-61871401D01*
X173438425Y-61685842D01*
X173493002Y-61642217D01*
X173562500Y-61635023D01*
X173624855Y-61666546D01*
X173641575Y-61685842D01*
X173771278Y-61871078D01*
X173771505Y-61871401D01*
X173938599Y-62038495D01*
X174025212Y-62099142D01*
X174132165Y-62174032D01*
X174132167Y-62174033D01*
X174132170Y-62174035D01*
X174346337Y-62273903D01*
X174574592Y-62335063D01*
X174751034Y-62350500D01*
X174809999Y-62355659D01*
X174810000Y-62355659D01*
X174810001Y-62355659D01*
X174868966Y-62350500D01*
X175045408Y-62335063D01*
X175273663Y-62273903D01*
X175487830Y-62174035D01*
X175681401Y-62038495D01*
X175848495Y-61871401D01*
X175978730Y-61685405D01*
X176033307Y-61641781D01*
X176102805Y-61634587D01*
X176165160Y-61666110D01*
X176181879Y-61685405D01*
X176311890Y-61871078D01*
X176478917Y-62038105D01*
X176672421Y-62173600D01*
X176886507Y-62273429D01*
X176886516Y-62273433D01*
X177100000Y-62330634D01*
X177100000Y-61435501D01*
X177207685Y-61484680D01*
X177314237Y-61500000D01*
X177385763Y-61500000D01*
X177492315Y-61484680D01*
X177600000Y-61435501D01*
X177600000Y-62330633D01*
X177813483Y-62273433D01*
X177813492Y-62273429D01*
X178027578Y-62173600D01*
X178221078Y-62038108D01*
X178343133Y-61916053D01*
X178404456Y-61882568D01*
X178474148Y-61887552D01*
X178530082Y-61929423D01*
X178546997Y-61960401D01*
X178596202Y-62092328D01*
X178596206Y-62092335D01*
X178682452Y-62207544D01*
X178682455Y-62207547D01*
X178797664Y-62293793D01*
X178797671Y-62293797D01*
X178932517Y-62344091D01*
X178932516Y-62344091D01*
X178939444Y-62344835D01*
X178992127Y-62350500D01*
X179743914Y-62350499D01*
X179810952Y-62370183D01*
X179856707Y-62422987D01*
X179866651Y-62492146D01*
X179837626Y-62555702D01*
X179820076Y-62572352D01*
X179730258Y-62642260D01*
X179561833Y-62825217D01*
X179425826Y-63033393D01*
X179325936Y-63261118D01*
X179264892Y-63502175D01*
X179264890Y-63502187D01*
X179244357Y-63749994D01*
X179244357Y-63750005D01*
X179264890Y-63997812D01*
X179264892Y-63997824D01*
X179325936Y-64238881D01*
X179425826Y-64466606D01*
X179561833Y-64674782D01*
X179561836Y-64674785D01*
X179730256Y-64857738D01*
X179731053Y-64858358D01*
X179926488Y-65010472D01*
X179926493Y-65010475D01*
X180059517Y-65082464D01*
X180109108Y-65131683D01*
X180124500Y-65191519D01*
X180124500Y-68808479D01*
X180104815Y-68875518D01*
X180059519Y-68917533D01*
X179926496Y-68989522D01*
X179926494Y-68989523D01*
X179730257Y-69142261D01*
X179561833Y-69325217D01*
X179425826Y-69533393D01*
X179325936Y-69761118D01*
X179264892Y-70002175D01*
X179264890Y-70002187D01*
X179244357Y-70249994D01*
X179244357Y-70250005D01*
X179264890Y-70497812D01*
X179264892Y-70497824D01*
X179325936Y-70738881D01*
X179425826Y-70966606D01*
X179561833Y-71174782D01*
X179561836Y-71174785D01*
X179730256Y-71357738D01*
X179926491Y-71510474D01*
X179926493Y-71510475D01*
X180144332Y-71628364D01*
X180145190Y-71628828D01*
X180364141Y-71703994D01*
X180378964Y-71709083D01*
X180380386Y-71709571D01*
X180625665Y-71750500D01*
X180874335Y-71750500D01*
X181119614Y-71709571D01*
X181354810Y-71628828D01*
X181573509Y-71510474D01*
X181769744Y-71357738D01*
X181938164Y-71174785D01*
X182074173Y-70966607D01*
X182174063Y-70738881D01*
X182235108Y-70497821D01*
X182240238Y-70435915D01*
X182255643Y-70250005D01*
X182255643Y-70249994D01*
X182235109Y-70002187D01*
X182235107Y-70002175D01*
X182174063Y-69761118D01*
X182074173Y-69533393D01*
X181938166Y-69325217D01*
X181815968Y-69192475D01*
X181769744Y-69142262D01*
X181573509Y-68989526D01*
X181573508Y-68989525D01*
X181573505Y-68989523D01*
X181573503Y-68989522D01*
X181440481Y-68917533D01*
X181390891Y-68868313D01*
X181375500Y-68808479D01*
X181375500Y-65191519D01*
X181395185Y-65124480D01*
X181440483Y-65082464D01*
X181500534Y-65049966D01*
X181573509Y-65010474D01*
X181769744Y-64857738D01*
X181938164Y-64674785D01*
X182074173Y-64466607D01*
X182174063Y-64238881D01*
X182235108Y-63997821D01*
X182240238Y-63935915D01*
X182255643Y-63750005D01*
X182255643Y-63749994D01*
X182235109Y-63502187D01*
X182235107Y-63502175D01*
X182174063Y-63261118D01*
X182074173Y-63033393D01*
X181938166Y-62825217D01*
X181900235Y-62784013D01*
X181769744Y-62642262D01*
X181573509Y-62489526D01*
X181573507Y-62489525D01*
X181573506Y-62489524D01*
X181354811Y-62371172D01*
X181354802Y-62371169D01*
X181213740Y-62322742D01*
X181156725Y-62282357D01*
X181130594Y-62217557D01*
X181143645Y-62148917D01*
X181154736Y-62131150D01*
X181183796Y-62092331D01*
X181234091Y-61957483D01*
X181240500Y-61897873D01*
X181240499Y-60102128D01*
X181234091Y-60042517D01*
X181204019Y-59961891D01*
X181183797Y-59907671D01*
X181183793Y-59907664D01*
X181097547Y-59792455D01*
X181097544Y-59792452D01*
X180982335Y-59706206D01*
X180982328Y-59706202D01*
X180847482Y-59655908D01*
X180847483Y-59655908D01*
X180787883Y-59649501D01*
X180787881Y-59649500D01*
X180787873Y-59649500D01*
X180787865Y-59649500D01*
X179652230Y-59649500D01*
X179585191Y-59629815D01*
X179564549Y-59613181D01*
X177982958Y-58031590D01*
X177949473Y-57970267D01*
X177954457Y-57900575D01*
X177982960Y-57856226D01*
X178000046Y-57839140D01*
X178025362Y-57802985D01*
X178130568Y-57652734D01*
X178226739Y-57446496D01*
X178285635Y-57226692D01*
X178305468Y-57000000D01*
X178285635Y-56773308D01*
X178226739Y-56553504D01*
X178130568Y-56347266D01*
X178000047Y-56160861D01*
X178000045Y-56160858D01*
X177839141Y-55999954D01*
X177652734Y-55869432D01*
X177652730Y-55869430D01*
X177637022Y-55862105D01*
X177584583Y-55815931D01*
X177565433Y-55748737D01*
X177585650Y-55681857D01*
X177637028Y-55637340D01*
X177652481Y-55630134D01*
X177725472Y-55579025D01*
X177044400Y-54897953D01*
X177125148Y-54885165D01*
X177238045Y-54827641D01*
X177327641Y-54738045D01*
X177385165Y-54625148D01*
X177397953Y-54544400D01*
X178079025Y-55225472D01*
X178130136Y-55152478D01*
X178226264Y-54946331D01*
X178226269Y-54946317D01*
X178285139Y-54726610D01*
X178285141Y-54726599D01*
X178304966Y-54500002D01*
X178304966Y-54499997D01*
X178285141Y-54273400D01*
X178285139Y-54273389D01*
X178226269Y-54053682D01*
X178226265Y-54053673D01*
X178130133Y-53847516D01*
X178130131Y-53847512D01*
X178079026Y-53774526D01*
X178079025Y-53774526D01*
X177397953Y-54455598D01*
X177385165Y-54374852D01*
X177327641Y-54261955D01*
X177238045Y-54172359D01*
X177125148Y-54114835D01*
X177044400Y-54102046D01*
X177725472Y-53420974D01*
X177725471Y-53420973D01*
X177652483Y-53369866D01*
X177652481Y-53369865D01*
X177446326Y-53273734D01*
X177446317Y-53273730D01*
X177226610Y-53214860D01*
X177226599Y-53214858D01*
X177000002Y-53195034D01*
X176999998Y-53195034D01*
X176773400Y-53214858D01*
X176773389Y-53214860D01*
X176656593Y-53246155D01*
X176586743Y-53244492D01*
X176528880Y-53205329D01*
X176501377Y-53141100D01*
X176500500Y-53126380D01*
X176500500Y-48310001D01*
X177694532Y-48310001D01*
X177714364Y-48536686D01*
X177714366Y-48536697D01*
X177773258Y-48756488D01*
X177773261Y-48756497D01*
X177869431Y-48962732D01*
X177869432Y-48962734D01*
X177999954Y-49149141D01*
X178160858Y-49310045D01*
X178160861Y-49310047D01*
X178347266Y-49440568D01*
X178553504Y-49536739D01*
X178773308Y-49595635D01*
X178935230Y-49609801D01*
X178999998Y-49615468D01*
X179000000Y-49615468D01*
X179000002Y-49615468D01*
X179056673Y-49610509D01*
X179226692Y-49595635D01*
X179446496Y-49536739D01*
X179652734Y-49440568D01*
X179839139Y-49310047D01*
X180000047Y-49149139D01*
X180130568Y-48962734D01*
X180226739Y-48756496D01*
X180285635Y-48536692D01*
X180305468Y-48310000D01*
X180285635Y-48083308D01*
X180226739Y-47863504D01*
X180130568Y-47657266D01*
X180017796Y-47496210D01*
X180000045Y-47470858D01*
X179839140Y-47309953D01*
X179678377Y-47197386D01*
X179634752Y-47142809D01*
X179625500Y-47095811D01*
X179625500Y-44750875D01*
X179644507Y-44684902D01*
X179680456Y-44627690D01*
X179684803Y-44615266D01*
X179736313Y-44468059D01*
X179755249Y-44300000D01*
X179752177Y-44272732D01*
X179736314Y-44131943D01*
X179680454Y-43972305D01*
X179680452Y-43972302D01*
X179590481Y-43829115D01*
X179590476Y-43829109D01*
X179549048Y-43787681D01*
X179515563Y-43726358D01*
X179520547Y-43656666D01*
X179549048Y-43612319D01*
X179590477Y-43570890D01*
X179680452Y-43427697D01*
X179680454Y-43427694D01*
X179680454Y-43427692D01*
X179680456Y-43427690D01*
X179736313Y-43268059D01*
X179736313Y-43268058D01*
X179736314Y-43268056D01*
X179755249Y-43100002D01*
X179755249Y-43099997D01*
X179736314Y-42931943D01*
X179722904Y-42893621D01*
X179680456Y-42772310D01*
X179674295Y-42762505D01*
X179644506Y-42715095D01*
X179625500Y-42649123D01*
X179625500Y-41904188D01*
X179645185Y-41837149D01*
X179678377Y-41802613D01*
X179778178Y-41732732D01*
X179839139Y-41690047D01*
X180000047Y-41529139D01*
X180130568Y-41342734D01*
X180131885Y-41339910D01*
X180132794Y-41338877D01*
X180133276Y-41338043D01*
X180133443Y-41338139D01*
X180178057Y-41287470D01*
X180245250Y-41268318D01*
X180312132Y-41288534D01*
X180357466Y-41341699D01*
X180368267Y-41392314D01*
X180368267Y-46611022D01*
X180366542Y-46626639D01*
X180366828Y-46626666D01*
X180366093Y-46634432D01*
X180368267Y-46703581D01*
X180368267Y-46733110D01*
X180368268Y-46733127D01*
X180369135Y-46739998D01*
X180369593Y-46745817D01*
X180371057Y-46792391D01*
X180371058Y-46792394D01*
X180376647Y-46811634D01*
X180380591Y-46830678D01*
X180383103Y-46850558D01*
X180400257Y-46893886D01*
X180402149Y-46899414D01*
X180415148Y-46944155D01*
X180425347Y-46961401D01*
X180433905Y-46978870D01*
X180441281Y-46997499D01*
X180468665Y-47035190D01*
X180471873Y-47040074D01*
X180495594Y-47080183D01*
X180495600Y-47080191D01*
X180509757Y-47094347D01*
X180522395Y-47109143D01*
X180534172Y-47125353D01*
X180534173Y-47125354D01*
X180570076Y-47155055D01*
X180574387Y-47158977D01*
X181433267Y-48017858D01*
X181700586Y-48285177D01*
X181734071Y-48346500D01*
X181732680Y-48404949D01*
X181714367Y-48473296D01*
X181714364Y-48473313D01*
X181694532Y-48699999D01*
X181694532Y-48700001D01*
X181714364Y-48926686D01*
X181714366Y-48926697D01*
X181773258Y-49146488D01*
X181773261Y-49146497D01*
X181869431Y-49352732D01*
X181869432Y-49352734D01*
X181999954Y-49539141D01*
X182160858Y-49700045D01*
X182170764Y-49706981D01*
X182347266Y-49830568D01*
X182405275Y-49857618D01*
X182457714Y-49903791D01*
X182476866Y-49970984D01*
X182456650Y-50037865D01*
X182405275Y-50082382D01*
X182347267Y-50109431D01*
X182347265Y-50109432D01*
X182160858Y-50239954D01*
X181999954Y-50400858D01*
X181869432Y-50587265D01*
X181869431Y-50587267D01*
X181773261Y-50793502D01*
X181773258Y-50793511D01*
X181714366Y-51013302D01*
X181714364Y-51013313D01*
X181694532Y-51239998D01*
X181694532Y-51240001D01*
X181714364Y-51466686D01*
X181714366Y-51466697D01*
X181773258Y-51686488D01*
X181773261Y-51686497D01*
X181869431Y-51892732D01*
X181869432Y-51892734D01*
X181999954Y-52079141D01*
X182160858Y-52240045D01*
X182160861Y-52240047D01*
X182347266Y-52370568D01*
X182405275Y-52397618D01*
X182457714Y-52443791D01*
X182476866Y-52510984D01*
X182456650Y-52577865D01*
X182405275Y-52622382D01*
X182347267Y-52649431D01*
X182347265Y-52649432D01*
X182160858Y-52779954D01*
X181999954Y-52940858D01*
X181869432Y-53127265D01*
X181869431Y-53127267D01*
X181773261Y-53333502D01*
X181773258Y-53333511D01*
X181714366Y-53553302D01*
X181714364Y-53553313D01*
X181694532Y-53779998D01*
X181694532Y-53780001D01*
X181714364Y-54006686D01*
X181714366Y-54006697D01*
X181773258Y-54226488D01*
X181773261Y-54226497D01*
X181869431Y-54432732D01*
X181869432Y-54432734D01*
X181999954Y-54619141D01*
X182160858Y-54780045D01*
X182160861Y-54780047D01*
X182347266Y-54910568D01*
X182553504Y-55006739D01*
X182773308Y-55065635D01*
X182935230Y-55079801D01*
X182999998Y-55085468D01*
X183000000Y-55085468D01*
X183000002Y-55085468D01*
X183059528Y-55080260D01*
X183226692Y-55065635D01*
X183446496Y-55006739D01*
X183652734Y-54910568D01*
X183839139Y-54780047D01*
X184000047Y-54619139D01*
X184130568Y-54432734D01*
X184226739Y-54226496D01*
X184285635Y-54006692D01*
X184305468Y-53780000D01*
X184285635Y-53553308D01*
X184226739Y-53333504D01*
X184130568Y-53127266D01*
X184000047Y-52940861D01*
X184000045Y-52940858D01*
X183839141Y-52779954D01*
X183652734Y-52649432D01*
X183652728Y-52649429D01*
X183594725Y-52622382D01*
X183542285Y-52576210D01*
X183523133Y-52509017D01*
X183543348Y-52442135D01*
X183594725Y-52397618D01*
X183652734Y-52370568D01*
X183839139Y-52240047D01*
X184000047Y-52079139D01*
X184130568Y-51892734D01*
X184226739Y-51686496D01*
X184285635Y-51466692D01*
X184305468Y-51240000D01*
X184285635Y-51013308D01*
X184226739Y-50793504D01*
X184130568Y-50587266D01*
X184000047Y-50400861D01*
X184000045Y-50400858D01*
X183839141Y-50239954D01*
X183652734Y-50109432D01*
X183652728Y-50109429D01*
X183594725Y-50082382D01*
X183542285Y-50036210D01*
X183523133Y-49969017D01*
X183543348Y-49902135D01*
X183594725Y-49857618D01*
X183652734Y-49830568D01*
X183839139Y-49700047D01*
X184000047Y-49539139D01*
X184130568Y-49352734D01*
X184226739Y-49146496D01*
X184285635Y-48926692D01*
X184305468Y-48700000D01*
X184285635Y-48473308D01*
X184248790Y-48335800D01*
X184235261Y-48285307D01*
X184236924Y-48215457D01*
X184276087Y-48157595D01*
X184340315Y-48130091D01*
X184409218Y-48141678D01*
X184421005Y-48148218D01*
X184435927Y-48157595D01*
X184472306Y-48180454D01*
X184472307Y-48180454D01*
X184472310Y-48180456D01*
X184560375Y-48211271D01*
X184631943Y-48236314D01*
X184799997Y-48255249D01*
X184800000Y-48255249D01*
X184800003Y-48255249D01*
X184968056Y-48236314D01*
X185027662Y-48215457D01*
X185127690Y-48180456D01*
X185127692Y-48180454D01*
X185127694Y-48180454D01*
X185127697Y-48180452D01*
X185270884Y-48090481D01*
X185270885Y-48090480D01*
X185270890Y-48090477D01*
X185390477Y-47970890D01*
X185404150Y-47949130D01*
X185480452Y-47827697D01*
X185480454Y-47827694D01*
X185480454Y-47827692D01*
X185480456Y-47827690D01*
X185536313Y-47668059D01*
X185536313Y-47668058D01*
X185536314Y-47668056D01*
X185555249Y-47500002D01*
X185555249Y-47499997D01*
X185536314Y-47331943D01*
X185489230Y-47197386D01*
X185480456Y-47172310D01*
X185469614Y-47155055D01*
X185444506Y-47115095D01*
X185425500Y-47049123D01*
X185425500Y-37882737D01*
X185427224Y-37867123D01*
X185426938Y-37867096D01*
X185427672Y-37859333D01*
X185425500Y-37790202D01*
X185425500Y-37760651D01*
X185425500Y-37760650D01*
X185424629Y-37753759D01*
X185424172Y-37747945D01*
X185423539Y-37727810D01*
X185422709Y-37701372D01*
X185417120Y-37682137D01*
X185413174Y-37663084D01*
X185410664Y-37643208D01*
X185393501Y-37599859D01*
X185391614Y-37594346D01*
X185388785Y-37584610D01*
X185378617Y-37549610D01*
X185376735Y-37546427D01*
X185368421Y-37532369D01*
X185359860Y-37514893D01*
X185352486Y-37496269D01*
X185352486Y-37496267D01*
X185342474Y-37482488D01*
X185325083Y-37458550D01*
X185321900Y-37453705D01*
X185298170Y-37413579D01*
X185298165Y-37413573D01*
X185284005Y-37399413D01*
X185271370Y-37384620D01*
X185259593Y-37368412D01*
X185223693Y-37338713D01*
X185219381Y-37334790D01*
X184299413Y-36414822D01*
X184265928Y-36353499D01*
X184267319Y-36295048D01*
X184279182Y-36250773D01*
X184285635Y-36226692D01*
X184305468Y-36000000D01*
X184285635Y-35773308D01*
X184226739Y-35553504D01*
X184130568Y-35347266D01*
X184000047Y-35160861D01*
X184000045Y-35160858D01*
X183839141Y-34999954D01*
X183652734Y-34869432D01*
X183652732Y-34869431D01*
X183446497Y-34773261D01*
X183446488Y-34773258D01*
X183226697Y-34714366D01*
X183226693Y-34714365D01*
X183226692Y-34714365D01*
X183226691Y-34714364D01*
X183226686Y-34714364D01*
X183000002Y-34694532D01*
X182999998Y-34694532D01*
X182773313Y-34714364D01*
X182773302Y-34714366D01*
X182553511Y-34773258D01*
X182553502Y-34773261D01*
X182347267Y-34869431D01*
X182347265Y-34869432D01*
X182160858Y-34999954D01*
X181999954Y-35160858D01*
X181869432Y-35347265D01*
X181869431Y-35347267D01*
X181773261Y-35553502D01*
X181773258Y-35553511D01*
X181714366Y-35773302D01*
X181714364Y-35773313D01*
X181694532Y-35999998D01*
X181694532Y-36000001D01*
X181714364Y-36226686D01*
X181714366Y-36226697D01*
X181773258Y-36446488D01*
X181773261Y-36446497D01*
X181869431Y-36652732D01*
X181869432Y-36652734D01*
X181999954Y-36839141D01*
X182160858Y-37000045D01*
X182160861Y-37000047D01*
X182347266Y-37130568D01*
X182405275Y-37157618D01*
X182457714Y-37203791D01*
X182476866Y-37270984D01*
X182456650Y-37337865D01*
X182405275Y-37382381D01*
X182388272Y-37390310D01*
X182347267Y-37409431D01*
X182347265Y-37409432D01*
X182160858Y-37539954D01*
X181999954Y-37700858D01*
X181972856Y-37739558D01*
X181918278Y-37783182D01*
X181848780Y-37790374D01*
X181830329Y-37785475D01*
X181768058Y-37763686D01*
X181600003Y-37744751D01*
X181599997Y-37744751D01*
X181431943Y-37763685D01*
X181272305Y-37819545D01*
X181272302Y-37819547D01*
X181129115Y-37909518D01*
X181129109Y-37909523D01*
X181009523Y-38029109D01*
X181009518Y-38029115D01*
X180919547Y-38172302D01*
X180919545Y-38172305D01*
X180863685Y-38331943D01*
X180844751Y-38499997D01*
X180844751Y-38500002D01*
X180863686Y-38668057D01*
X180919543Y-38827690D01*
X180955493Y-38884902D01*
X180974500Y-38950875D01*
X180974500Y-39042342D01*
X180954815Y-39109381D01*
X180902011Y-39155136D01*
X180864385Y-39165561D01*
X180825708Y-39169920D01*
X180785800Y-39183884D01*
X180666074Y-39225777D01*
X180666069Y-39225780D01*
X180522882Y-39315751D01*
X180522876Y-39315756D01*
X180403290Y-39435342D01*
X180403285Y-39435348D01*
X180313314Y-39578535D01*
X180313312Y-39578538D01*
X180257452Y-39738177D01*
X180247551Y-39826054D01*
X180220484Y-39890468D01*
X180162889Y-39930023D01*
X180093052Y-39932160D01*
X180033146Y-39896201D01*
X180022755Y-39883292D01*
X180007052Y-39860866D01*
X180000047Y-39850861D01*
X180000046Y-39850860D01*
X180000044Y-39850857D01*
X179839141Y-39689954D01*
X179652734Y-39559432D01*
X179652732Y-39559431D01*
X179446497Y-39463261D01*
X179446488Y-39463258D01*
X179226697Y-39404366D01*
X179226693Y-39404365D01*
X179226692Y-39404365D01*
X179226691Y-39404364D01*
X179226686Y-39404364D01*
X179000002Y-39384532D01*
X178999998Y-39384532D01*
X178773313Y-39404364D01*
X178773302Y-39404366D01*
X178553511Y-39463258D01*
X178553502Y-39463261D01*
X178347267Y-39559431D01*
X178347265Y-39559432D01*
X178160858Y-39689954D01*
X177999954Y-39850858D01*
X177869432Y-40037265D01*
X177869431Y-40037267D01*
X177773261Y-40243502D01*
X177773258Y-40243511D01*
X177714366Y-40463302D01*
X177714364Y-40463313D01*
X177694532Y-40689998D01*
X177694532Y-40690001D01*
X177714364Y-40916686D01*
X177714366Y-40916697D01*
X177773258Y-41136488D01*
X177773261Y-41136497D01*
X177869431Y-41342732D01*
X177869432Y-41342734D01*
X177999954Y-41529141D01*
X178160858Y-41690045D01*
X178321623Y-41802613D01*
X178365248Y-41857189D01*
X178374500Y-41904188D01*
X178374500Y-42649123D01*
X178355494Y-42715095D01*
X178319545Y-42772307D01*
X178263685Y-42931943D01*
X178244751Y-43099997D01*
X178244751Y-43100002D01*
X178263685Y-43268056D01*
X178319545Y-43427694D01*
X178319547Y-43427697D01*
X178409518Y-43570884D01*
X178409524Y-43570891D01*
X178450952Y-43612320D01*
X178484436Y-43673643D01*
X178479451Y-43743335D01*
X178450952Y-43787680D01*
X178409524Y-43829108D01*
X178409518Y-43829115D01*
X178319547Y-43972302D01*
X178319545Y-43972305D01*
X178263685Y-44131943D01*
X178244751Y-44299997D01*
X178244751Y-44300002D01*
X178263686Y-44468057D01*
X178319543Y-44627690D01*
X178355493Y-44684902D01*
X178374500Y-44750875D01*
X178374500Y-47095811D01*
X178354815Y-47162850D01*
X178321623Y-47197386D01*
X178160859Y-47309953D01*
X177999954Y-47470858D01*
X177869432Y-47657265D01*
X177869431Y-47657267D01*
X177773261Y-47863502D01*
X177773258Y-47863511D01*
X177714366Y-48083302D01*
X177714364Y-48083313D01*
X177694532Y-48309998D01*
X177694532Y-48310001D01*
X176500500Y-48310001D01*
X176500500Y-46076662D01*
X176520185Y-46009623D01*
X176572989Y-45963868D01*
X176588492Y-45958005D01*
X176684727Y-45928814D01*
X176858538Y-45835910D01*
X177010883Y-45710883D01*
X177135910Y-45558538D01*
X177228814Y-45384727D01*
X177286024Y-45196132D01*
X177305341Y-45000000D01*
X177286024Y-44803868D01*
X177228814Y-44615273D01*
X177228811Y-44615269D01*
X177228811Y-44615266D01*
X177135913Y-44441467D01*
X177135909Y-44441460D01*
X177010883Y-44289116D01*
X176858539Y-44164090D01*
X176858532Y-44164086D01*
X176684733Y-44071188D01*
X176684727Y-44071186D01*
X176496132Y-44013976D01*
X176496129Y-44013975D01*
X176300000Y-43994659D01*
X176103870Y-44013975D01*
X175915266Y-44071188D01*
X175741467Y-44164086D01*
X175741460Y-44164091D01*
X175638165Y-44248863D01*
X175573855Y-44276176D01*
X175504987Y-44264385D01*
X175453427Y-44217233D01*
X175435500Y-44153010D01*
X175435500Y-39992738D01*
X175437224Y-39977124D01*
X175436938Y-39977097D01*
X175437672Y-39969334D01*
X175435500Y-39900203D01*
X175435500Y-39870651D01*
X175435500Y-39870650D01*
X175434629Y-39863759D01*
X175434172Y-39857945D01*
X175434025Y-39853261D01*
X175432709Y-39811373D01*
X175432310Y-39810000D01*
X175430423Y-39803501D01*
X175425500Y-39768910D01*
X175425500Y-39725069D01*
X175427224Y-39709449D01*
X175426939Y-39709422D01*
X175427673Y-39701660D01*
X175425500Y-39632499D01*
X175425500Y-39602983D01*
X175425500Y-39602977D01*
X175424631Y-39596106D01*
X175424173Y-39590279D01*
X175423804Y-39578535D01*
X175422710Y-39543700D01*
X175417119Y-39524457D01*
X175413173Y-39505405D01*
X175410664Y-39485535D01*
X175393504Y-39442194D01*
X175391624Y-39436706D01*
X175378618Y-39391937D01*
X175368422Y-39374697D01*
X175359861Y-39357221D01*
X175352487Y-39338597D01*
X175352486Y-39338595D01*
X175325079Y-39300872D01*
X175321888Y-39296013D01*
X175309526Y-39275110D01*
X175298170Y-39255907D01*
X175298168Y-39255905D01*
X175298165Y-39255901D01*
X175284006Y-39241742D01*
X175271368Y-39226946D01*
X175267604Y-39221765D01*
X175259594Y-39210740D01*
X175237828Y-39192734D01*
X175223688Y-39181036D01*
X175219376Y-39177113D01*
X172358476Y-36316212D01*
X172348653Y-36303950D01*
X172348432Y-36304134D01*
X172343459Y-36298123D01*
X172340184Y-36295048D01*
X172293037Y-36250773D01*
X172277429Y-36235165D01*
X172272148Y-36229883D01*
X172268040Y-36226696D01*
X172266657Y-36225624D01*
X172262234Y-36221847D01*
X172228255Y-36189938D01*
X172228253Y-36189936D01*
X172228250Y-36189935D01*
X172210702Y-36180288D01*
X172194436Y-36169604D01*
X172178606Y-36157325D01*
X172135841Y-36138818D01*
X172130595Y-36136248D01*
X172089766Y-36113803D01*
X172089767Y-36113803D01*
X172088106Y-36113377D01*
X172052978Y-36098268D01*
X171927692Y-36019545D01*
X171927691Y-36019544D01*
X171927690Y-36019544D01*
X171871839Y-36000001D01*
X171768056Y-35963685D01*
X171600003Y-35944751D01*
X171599997Y-35944751D01*
X171431943Y-35963685D01*
X171272305Y-36019545D01*
X171272302Y-36019547D01*
X171129115Y-36109518D01*
X171129109Y-36109523D01*
X171009523Y-36229109D01*
X171009518Y-36229115D01*
X170919547Y-36372302D01*
X170919545Y-36372305D01*
X170863685Y-36531943D01*
X170844751Y-36699997D01*
X170844751Y-36700002D01*
X170863685Y-36868056D01*
X170919545Y-37027694D01*
X170919547Y-37027697D01*
X171009518Y-37170884D01*
X171009523Y-37170890D01*
X171129109Y-37290476D01*
X171129115Y-37290481D01*
X171272302Y-37380452D01*
X171272305Y-37380454D01*
X171272309Y-37380455D01*
X171272310Y-37380456D01*
X171326486Y-37399413D01*
X171431943Y-37436314D01*
X171599997Y-37455249D01*
X171600000Y-37455249D01*
X171655996Y-37448939D01*
X171724816Y-37460993D01*
X171757561Y-37484478D01*
X171758187Y-37485104D01*
X171791672Y-37546427D01*
X171786688Y-37616119D01*
X171775500Y-37638757D01*
X171719545Y-37727807D01*
X171663685Y-37887443D01*
X171644751Y-38055497D01*
X171644751Y-38055502D01*
X171663685Y-38223556D01*
X171719545Y-38383194D01*
X171719547Y-38383197D01*
X171809518Y-38526384D01*
X171809523Y-38526390D01*
X171929109Y-38645976D01*
X171929115Y-38645981D01*
X172072302Y-38735952D01*
X172072307Y-38735955D01*
X172072310Y-38735956D01*
X172231941Y-38791813D01*
X172231944Y-38791813D01*
X172235656Y-38793112D01*
X172282383Y-38822473D01*
X173688181Y-40228271D01*
X173721666Y-40289594D01*
X173724500Y-40315952D01*
X173724500Y-54207255D01*
X173722775Y-54222872D01*
X173723061Y-54222899D01*
X173722326Y-54230665D01*
X173724500Y-54299814D01*
X173724500Y-54329343D01*
X173724501Y-54329360D01*
X173725368Y-54336231D01*
X173725826Y-54342050D01*
X173727290Y-54388624D01*
X173727291Y-54388627D01*
X173729576Y-54396493D01*
X173734500Y-54431088D01*
X173734500Y-58599546D01*
X173714815Y-58666585D01*
X173698181Y-58687227D01*
X172725646Y-59659761D01*
X172664323Y-59693246D01*
X172605873Y-59691855D01*
X172505408Y-59664937D01*
X172270001Y-59644341D01*
X172269999Y-59644341D01*
X172034596Y-59664936D01*
X172034586Y-59664938D01*
X171806344Y-59726094D01*
X171806335Y-59726098D01*
X171592171Y-59825964D01*
X171592169Y-59825965D01*
X171398597Y-59961505D01*
X171231505Y-60128597D01*
X171101575Y-60314158D01*
X171046998Y-60357783D01*
X170977500Y-60364977D01*
X170915145Y-60333454D01*
X170898425Y-60314158D01*
X170768494Y-60128597D01*
X170601402Y-59961506D01*
X170601395Y-59961501D01*
X170407834Y-59825967D01*
X170407830Y-59825965D01*
X170355500Y-59801563D01*
X170193663Y-59726097D01*
X170193659Y-59726096D01*
X170193655Y-59726094D01*
X169965413Y-59664938D01*
X169965403Y-59664936D01*
X169730001Y-59644341D01*
X169729999Y-59644341D01*
X169494596Y-59664936D01*
X169494586Y-59664938D01*
X169266344Y-59726094D01*
X169266335Y-59726098D01*
X169052171Y-59825964D01*
X169052169Y-59825965D01*
X168858597Y-59961505D01*
X168691505Y-60128597D01*
X168561575Y-60314158D01*
X168506998Y-60357783D01*
X168437500Y-60364977D01*
X168375145Y-60333454D01*
X168358425Y-60314158D01*
X168228494Y-60128597D01*
X168061402Y-59961506D01*
X168061395Y-59961501D01*
X167867834Y-59825967D01*
X167867830Y-59825965D01*
X167815500Y-59801563D01*
X167653663Y-59726097D01*
X167653659Y-59726096D01*
X167653655Y-59726094D01*
X167425413Y-59664938D01*
X167425403Y-59664936D01*
X167190001Y-59644341D01*
X167189999Y-59644341D01*
X166954596Y-59664936D01*
X166954586Y-59664938D01*
X166726344Y-59726094D01*
X166726335Y-59726098D01*
X166512171Y-59825964D01*
X166512169Y-59825965D01*
X166318597Y-59961505D01*
X166151505Y-60128597D01*
X166021575Y-60314158D01*
X165966998Y-60357783D01*
X165897500Y-60364977D01*
X165835145Y-60333454D01*
X165818425Y-60314158D01*
X165688494Y-60128597D01*
X165521402Y-59961506D01*
X165521395Y-59961501D01*
X165327834Y-59825967D01*
X165327830Y-59825965D01*
X165275500Y-59801563D01*
X165113663Y-59726097D01*
X165113659Y-59726096D01*
X165113655Y-59726094D01*
X164885413Y-59664938D01*
X164885403Y-59664936D01*
X164650001Y-59644341D01*
X164649999Y-59644341D01*
X164414596Y-59664936D01*
X164414586Y-59664938D01*
X164186344Y-59726094D01*
X164186335Y-59726098D01*
X163972171Y-59825964D01*
X163972169Y-59825965D01*
X163778597Y-59961505D01*
X163611505Y-60128597D01*
X163481575Y-60314158D01*
X163426998Y-60357783D01*
X163357500Y-60364977D01*
X163295145Y-60333454D01*
X163278425Y-60314158D01*
X163148494Y-60128597D01*
X162981402Y-59961506D01*
X162981395Y-59961501D01*
X162787834Y-59825967D01*
X162787830Y-59825965D01*
X162735500Y-59801563D01*
X162573663Y-59726097D01*
X162573659Y-59726096D01*
X162573655Y-59726094D01*
X162345413Y-59664938D01*
X162345403Y-59664936D01*
X162110001Y-59644341D01*
X162109999Y-59644341D01*
X161874596Y-59664936D01*
X161874586Y-59664938D01*
X161646344Y-59726094D01*
X161646335Y-59726098D01*
X161432171Y-59825964D01*
X161432169Y-59825965D01*
X161238597Y-59961505D01*
X161071505Y-60128597D01*
X160935965Y-60322169D01*
X160935964Y-60322171D01*
X160836098Y-60536335D01*
X160836094Y-60536344D01*
X160774938Y-60764586D01*
X160774936Y-60764596D01*
X160754341Y-60999999D01*
X160754341Y-61000000D01*
X160774936Y-61235403D01*
X160774938Y-61235413D01*
X160836094Y-61463655D01*
X160836099Y-61463669D01*
X160852153Y-61498096D01*
X160862645Y-61567173D01*
X160834125Y-61630957D01*
X160775648Y-61669196D01*
X160739771Y-61674500D01*
X158282743Y-61674500D01*
X158267122Y-61672775D01*
X158267095Y-61673061D01*
X158259333Y-61672326D01*
X158190172Y-61674500D01*
X158160649Y-61674500D01*
X158153778Y-61675367D01*
X158147959Y-61675825D01*
X158101374Y-61677289D01*
X158101368Y-61677290D01*
X158082126Y-61682880D01*
X158063087Y-61686823D01*
X158043217Y-61689334D01*
X158043203Y-61689337D01*
X157999883Y-61706488D01*
X157994358Y-61708380D01*
X157949613Y-61721380D01*
X157949610Y-61721381D01*
X157932366Y-61731579D01*
X157914905Y-61740133D01*
X157896274Y-61747510D01*
X157896262Y-61747517D01*
X157858570Y-61774902D01*
X157853687Y-61778109D01*
X157813580Y-61801829D01*
X157799414Y-61815995D01*
X157784624Y-61828627D01*
X157768414Y-61840404D01*
X157768411Y-61840407D01*
X157738710Y-61876309D01*
X157734777Y-61880631D01*
X157327229Y-62288179D01*
X157265906Y-62321664D01*
X157199286Y-62317780D01*
X157119613Y-62290428D01*
X156874335Y-62249500D01*
X156625665Y-62249500D01*
X156380383Y-62290429D01*
X156145197Y-62371169D01*
X156145188Y-62371172D01*
X155926493Y-62489524D01*
X155730256Y-62642261D01*
X155715229Y-62658586D01*
X155655342Y-62694576D01*
X155585504Y-62692475D01*
X155527888Y-62652950D01*
X155500787Y-62588551D01*
X155500000Y-62574602D01*
X155500000Y-53780001D01*
X157694532Y-53780001D01*
X157714364Y-54006686D01*
X157714366Y-54006697D01*
X157773258Y-54226488D01*
X157773261Y-54226497D01*
X157869431Y-54432732D01*
X157869432Y-54432734D01*
X157999954Y-54619141D01*
X158160858Y-54780045D01*
X158160861Y-54780047D01*
X158347266Y-54910568D01*
X158553504Y-55006739D01*
X158773308Y-55065635D01*
X158935230Y-55079801D01*
X158999998Y-55085468D01*
X159000000Y-55085468D01*
X159000002Y-55085468D01*
X159059528Y-55080260D01*
X159226692Y-55065635D01*
X159446496Y-55006739D01*
X159557205Y-54955114D01*
X170695034Y-54955114D01*
X170714858Y-55181711D01*
X170714860Y-55181722D01*
X170773730Y-55401429D01*
X170773734Y-55401438D01*
X170869865Y-55607593D01*
X170869868Y-55607597D01*
X170878812Y-55620372D01*
X170901138Y-55686579D01*
X170884125Y-55754346D01*
X170851549Y-55790757D01*
X170842456Y-55797564D01*
X170842451Y-55797569D01*
X170756206Y-55912776D01*
X170756202Y-55912783D01*
X170705908Y-56047629D01*
X170699501Y-56107228D01*
X170699501Y-56107235D01*
X170699500Y-56107247D01*
X170699500Y-57802982D01*
X170699501Y-57802988D01*
X170705908Y-57862595D01*
X170756202Y-57997440D01*
X170756206Y-57997447D01*
X170842452Y-58112656D01*
X170842455Y-58112659D01*
X170957664Y-58198905D01*
X170957671Y-58198909D01*
X171092517Y-58249203D01*
X171092516Y-58249203D01*
X171099444Y-58249947D01*
X171152127Y-58255612D01*
X172847872Y-58255611D01*
X172907483Y-58249203D01*
X173042331Y-58198908D01*
X173157546Y-58112658D01*
X173243796Y-57997443D01*
X173294091Y-57862595D01*
X173300500Y-57802985D01*
X173300499Y-56107240D01*
X173294091Y-56047629D01*
X173276309Y-55999954D01*
X173243797Y-55912783D01*
X173243793Y-55912776D01*
X173157547Y-55797568D01*
X173157548Y-55797568D01*
X173157546Y-55797566D01*
X173148449Y-55790756D01*
X173106581Y-55734822D01*
X173101599Y-55665130D01*
X173121191Y-55620365D01*
X173130134Y-55607593D01*
X173226265Y-55401438D01*
X173226269Y-55401429D01*
X173285139Y-55181722D01*
X173285141Y-55181711D01*
X173304966Y-54955114D01*
X173304966Y-54955109D01*
X173285141Y-54728512D01*
X173285139Y-54728501D01*
X173226269Y-54508794D01*
X173226265Y-54508785D01*
X173130133Y-54302628D01*
X173130131Y-54302624D01*
X173079025Y-54229638D01*
X172397953Y-54910710D01*
X172385165Y-54829964D01*
X172327641Y-54717067D01*
X172238045Y-54627471D01*
X172125148Y-54569947D01*
X172044400Y-54557158D01*
X172725472Y-53876086D01*
X172725471Y-53876085D01*
X172652483Y-53824978D01*
X172652481Y-53824977D01*
X172446326Y-53728846D01*
X172446317Y-53728842D01*
X172226610Y-53669972D01*
X172226599Y-53669970D01*
X172000002Y-53650146D01*
X171999998Y-53650146D01*
X171773400Y-53669970D01*
X171773389Y-53669972D01*
X171553682Y-53728842D01*
X171553673Y-53728846D01*
X171347513Y-53824980D01*
X171274527Y-53876084D01*
X171274526Y-53876085D01*
X171955600Y-54557158D01*
X171874852Y-54569947D01*
X171761955Y-54627471D01*
X171672359Y-54717067D01*
X171614835Y-54829964D01*
X171602046Y-54910712D01*
X170920973Y-54229639D01*
X170869868Y-54302625D01*
X170773734Y-54508785D01*
X170773730Y-54508794D01*
X170714860Y-54728501D01*
X170714858Y-54728512D01*
X170695034Y-54955109D01*
X170695034Y-54955114D01*
X159557205Y-54955114D01*
X159652734Y-54910568D01*
X159839139Y-54780047D01*
X160000047Y-54619139D01*
X160130568Y-54432734D01*
X160226739Y-54226496D01*
X160285635Y-54006692D01*
X160305468Y-53780000D01*
X160285635Y-53553308D01*
X160267318Y-53484948D01*
X160268981Y-53415103D01*
X160299410Y-53365179D01*
X163583788Y-50080801D01*
X163596042Y-50070986D01*
X163595859Y-50070764D01*
X163601866Y-50065792D01*
X163601877Y-50065786D01*
X163632775Y-50032882D01*
X163649227Y-50015364D01*
X163659671Y-50004918D01*
X163670120Y-49994471D01*
X163674379Y-49988978D01*
X163678152Y-49984561D01*
X163710062Y-49950582D01*
X163719715Y-49933020D01*
X163730389Y-49916770D01*
X163742673Y-49900936D01*
X163761180Y-49858167D01*
X163763749Y-49852924D01*
X163776038Y-49830570D01*
X163786197Y-49812092D01*
X163791177Y-49792691D01*
X163797478Y-49774288D01*
X163805438Y-49755896D01*
X163812730Y-49709849D01*
X163813911Y-49704152D01*
X163814965Y-49700047D01*
X163825500Y-49659019D01*
X163825500Y-49638983D01*
X163827027Y-49619582D01*
X163830160Y-49599804D01*
X163825775Y-49553415D01*
X163825500Y-49547577D01*
X163825500Y-44950875D01*
X163844507Y-44884902D01*
X163880456Y-44827690D01*
X163897977Y-44777618D01*
X163936313Y-44668059D01*
X163955249Y-44500000D01*
X163951650Y-44468057D01*
X163936314Y-44331943D01*
X163890798Y-44201867D01*
X163880456Y-44172310D01*
X163880455Y-44172309D01*
X163880454Y-44172305D01*
X163880452Y-44172302D01*
X163790481Y-44029115D01*
X163790476Y-44029109D01*
X163670890Y-43909523D01*
X163670884Y-43909518D01*
X163527697Y-43819547D01*
X163527694Y-43819545D01*
X163368056Y-43763686D01*
X163335614Y-43760030D01*
X163271200Y-43732962D01*
X163231647Y-43675366D01*
X163225500Y-43636810D01*
X163225500Y-39608238D01*
X163227224Y-39592624D01*
X163226938Y-39592597D01*
X163227672Y-39584834D01*
X163225500Y-39515703D01*
X163225500Y-39486151D01*
X163225500Y-39486150D01*
X163224629Y-39479259D01*
X163224172Y-39473445D01*
X163222709Y-39426872D01*
X163217122Y-39407644D01*
X163213174Y-39388584D01*
X163212662Y-39384532D01*
X163210664Y-39368708D01*
X163193507Y-39325375D01*
X163191619Y-39319859D01*
X163178619Y-39275112D01*
X163168418Y-39257863D01*
X163159860Y-39240394D01*
X163152486Y-39221768D01*
X163134380Y-39196848D01*
X163111477Y-39137837D01*
X163110813Y-39131941D01*
X163054955Y-38972308D01*
X163054952Y-38972302D01*
X162964981Y-38829115D01*
X162964976Y-38829109D01*
X162845390Y-38709523D01*
X162845384Y-38709518D01*
X162702197Y-38619547D01*
X162702192Y-38619544D01*
X162542553Y-38563685D01*
X162489466Y-38557704D01*
X162425052Y-38530637D01*
X162385497Y-38473042D01*
X162384273Y-38469076D01*
X162378618Y-38449610D01*
X162368422Y-38432370D01*
X162359861Y-38414894D01*
X162352487Y-38396270D01*
X162345250Y-38386309D01*
X162325079Y-38358545D01*
X162321888Y-38353686D01*
X162298172Y-38313583D01*
X162298165Y-38313574D01*
X162284006Y-38299415D01*
X162271368Y-38284619D01*
X162264428Y-38275067D01*
X162259594Y-38268413D01*
X162223688Y-38238709D01*
X162219376Y-38234786D01*
X160336818Y-36352227D01*
X160303333Y-36290904D01*
X160300499Y-36264546D01*
X160300499Y-35152129D01*
X160300498Y-35152123D01*
X160300497Y-35152116D01*
X160294091Y-35092517D01*
X160259567Y-34999954D01*
X160243797Y-34957671D01*
X160243793Y-34957664D01*
X160157547Y-34842455D01*
X160157544Y-34842452D01*
X160042335Y-34756206D01*
X160042328Y-34756202D01*
X159907482Y-34705908D01*
X159907483Y-34705908D01*
X159847883Y-34699501D01*
X159847881Y-34699500D01*
X159847873Y-34699500D01*
X159847864Y-34699500D01*
X158152129Y-34699500D01*
X158152123Y-34699501D01*
X158092516Y-34705908D01*
X157957671Y-34756202D01*
X157957664Y-34756206D01*
X157842455Y-34842452D01*
X157842452Y-34842455D01*
X157756206Y-34957664D01*
X157756202Y-34957671D01*
X157705908Y-35092517D01*
X157699501Y-35152116D01*
X157699501Y-35152123D01*
X157699500Y-35152135D01*
X157699500Y-36847870D01*
X157699501Y-36847876D01*
X157705908Y-36907483D01*
X157756202Y-37042328D01*
X157756206Y-37042335D01*
X157842452Y-37157544D01*
X157842455Y-37157547D01*
X157957664Y-37243793D01*
X157957671Y-37243797D01*
X158002618Y-37260561D01*
X158092517Y-37294091D01*
X158127596Y-37297862D01*
X158192144Y-37324599D01*
X158231993Y-37381991D01*
X158234488Y-37451816D01*
X158198836Y-37511905D01*
X158185464Y-37522725D01*
X158160858Y-37539954D01*
X157999954Y-37700858D01*
X157869432Y-37887265D01*
X157869431Y-37887267D01*
X157773261Y-38093502D01*
X157773258Y-38093511D01*
X157714366Y-38313302D01*
X157714364Y-38313313D01*
X157694532Y-38539998D01*
X157694532Y-38540001D01*
X157714364Y-38766686D01*
X157714366Y-38766697D01*
X157773258Y-38986488D01*
X157773261Y-38986497D01*
X157869431Y-39192732D01*
X157869432Y-39192734D01*
X157999954Y-39379141D01*
X158160858Y-39540045D01*
X158160861Y-39540047D01*
X158347266Y-39670568D01*
X158405275Y-39697618D01*
X158457714Y-39743791D01*
X158476866Y-39810984D01*
X158456650Y-39877865D01*
X158405275Y-39922382D01*
X158347267Y-39949431D01*
X158347265Y-39949432D01*
X158160858Y-40079954D01*
X157999954Y-40240858D01*
X157869432Y-40427265D01*
X157869431Y-40427267D01*
X157773261Y-40633502D01*
X157773258Y-40633511D01*
X157714366Y-40853302D01*
X157714364Y-40853313D01*
X157694532Y-41079998D01*
X157694532Y-41080001D01*
X157714364Y-41306686D01*
X157714366Y-41306697D01*
X157773258Y-41526488D01*
X157773261Y-41526497D01*
X157869431Y-41732732D01*
X157869432Y-41732734D01*
X157999954Y-41919141D01*
X158160858Y-42080045D01*
X158160861Y-42080047D01*
X158347266Y-42210568D01*
X158405275Y-42237618D01*
X158457714Y-42283791D01*
X158476866Y-42350984D01*
X158456650Y-42417865D01*
X158405275Y-42462382D01*
X158347267Y-42489431D01*
X158347265Y-42489432D01*
X158160858Y-42619954D01*
X157999954Y-42780858D01*
X157869432Y-42967265D01*
X157869431Y-42967267D01*
X157773261Y-43173502D01*
X157773258Y-43173511D01*
X157714366Y-43393302D01*
X157714364Y-43393313D01*
X157694532Y-43619998D01*
X157694532Y-43620001D01*
X157714364Y-43846686D01*
X157714366Y-43846697D01*
X157773258Y-44066488D01*
X157773261Y-44066497D01*
X157869431Y-44272732D01*
X157869432Y-44272734D01*
X157999954Y-44459141D01*
X158160858Y-44620045D01*
X158160861Y-44620047D01*
X158347266Y-44750568D01*
X158405275Y-44777618D01*
X158457714Y-44823791D01*
X158476866Y-44890984D01*
X158456650Y-44957865D01*
X158405275Y-45002382D01*
X158347267Y-45029431D01*
X158347265Y-45029432D01*
X158160858Y-45159954D01*
X157999954Y-45320858D01*
X157869432Y-45507265D01*
X157869431Y-45507267D01*
X157773261Y-45713502D01*
X157773258Y-45713511D01*
X157714366Y-45933302D01*
X157714364Y-45933313D01*
X157694532Y-46159998D01*
X157694532Y-46160001D01*
X157714364Y-46386686D01*
X157714366Y-46386697D01*
X157773258Y-46606488D01*
X157773261Y-46606497D01*
X157869431Y-46812732D01*
X157869432Y-46812734D01*
X157999954Y-46999141D01*
X158160858Y-47160045D01*
X158188546Y-47179432D01*
X158347266Y-47290568D01*
X158405275Y-47317618D01*
X158457714Y-47363791D01*
X158476866Y-47430984D01*
X158456650Y-47497865D01*
X158405275Y-47542382D01*
X158347267Y-47569431D01*
X158347265Y-47569432D01*
X158160858Y-47699954D01*
X157999954Y-47860858D01*
X157869432Y-48047265D01*
X157869431Y-48047267D01*
X157773261Y-48253502D01*
X157773258Y-48253511D01*
X157714366Y-48473302D01*
X157714364Y-48473313D01*
X157694532Y-48699998D01*
X157694532Y-48700001D01*
X157714364Y-48926686D01*
X157714366Y-48926697D01*
X157773258Y-49146488D01*
X157773261Y-49146497D01*
X157869431Y-49352732D01*
X157869432Y-49352734D01*
X157999954Y-49539141D01*
X158160858Y-49700045D01*
X158170764Y-49706981D01*
X158347266Y-49830568D01*
X158405275Y-49857618D01*
X158457714Y-49903791D01*
X158476866Y-49970984D01*
X158456650Y-50037865D01*
X158405275Y-50082382D01*
X158347267Y-50109431D01*
X158347265Y-50109432D01*
X158160858Y-50239954D01*
X157999954Y-50400858D01*
X157869432Y-50587265D01*
X157869431Y-50587267D01*
X157773261Y-50793502D01*
X157773258Y-50793511D01*
X157714366Y-51013302D01*
X157714364Y-51013313D01*
X157694532Y-51239998D01*
X157694532Y-51240001D01*
X157714364Y-51466686D01*
X157714366Y-51466697D01*
X157773258Y-51686488D01*
X157773261Y-51686497D01*
X157869431Y-51892732D01*
X157869432Y-51892734D01*
X157999954Y-52079141D01*
X158160858Y-52240045D01*
X158160861Y-52240047D01*
X158347266Y-52370568D01*
X158405275Y-52397618D01*
X158457714Y-52443791D01*
X158476866Y-52510984D01*
X158456650Y-52577865D01*
X158405275Y-52622382D01*
X158347267Y-52649431D01*
X158347265Y-52649432D01*
X158160858Y-52779954D01*
X157999954Y-52940858D01*
X157869432Y-53127265D01*
X157869431Y-53127267D01*
X157773261Y-53333502D01*
X157773258Y-53333511D01*
X157714366Y-53553302D01*
X157714364Y-53553313D01*
X157694532Y-53779998D01*
X157694532Y-53780001D01*
X155500000Y-53780001D01*
X155500000Y-29624000D01*
X155519685Y-29556961D01*
X155572489Y-29511206D01*
X155624000Y-29500000D01*
X159454998Y-29500000D01*
X159459424Y-29500158D01*
G37*
%TD.AperFunction*%
%TD*%
M02*
