%TF.GenerationSoftware,KiCad,Pcbnew,7.0.8*%
%TF.CreationDate,2024-02-08T03:58:00-08:00*%
%TF.ProjectId,panel,70616e65-6c2e-46b6-9963-61645f706362,rev?*%
%TF.SameCoordinates,Original*%
%TF.FileFunction,Legend,Top*%
%TF.FilePolarity,Positive*%
%FSLAX46Y46*%
G04 Gerber Fmt 4.6, Leading zero omitted, Abs format (unit mm)*
G04 Created by KiCad (PCBNEW 7.0.8) date 2024-02-08 03:58:00*
%MOMM*%
%LPD*%
G01*
G04 APERTURE LIST*
%ADD10C,0.150000*%
%ADD11C,0.100000*%
%ADD12C,0.101600*%
%ADD13C,0.076200*%
%ADD14C,0.120000*%
%ADD15C,0.127000*%
%ADD16C,0.066040*%
%ADD17C,0.254000*%
G04 APERTURE END LIST*
D10*
X132398990Y-76754363D02*
X132351371Y-76897220D01*
X132351371Y-76897220D02*
X132303752Y-76944839D01*
X132303752Y-76944839D02*
X132208514Y-76992458D01*
X132208514Y-76992458D02*
X132065657Y-76992458D01*
X132065657Y-76992458D02*
X131970419Y-76944839D01*
X131970419Y-76944839D02*
X131922800Y-76897220D01*
X131922800Y-76897220D02*
X131875180Y-76801982D01*
X131875180Y-76801982D02*
X131875180Y-76421030D01*
X131875180Y-76421030D02*
X132875180Y-76421030D01*
X132875180Y-76421030D02*
X132875180Y-76754363D01*
X132875180Y-76754363D02*
X132827561Y-76849601D01*
X132827561Y-76849601D02*
X132779942Y-76897220D01*
X132779942Y-76897220D02*
X132684704Y-76944839D01*
X132684704Y-76944839D02*
X132589466Y-76944839D01*
X132589466Y-76944839D02*
X132494228Y-76897220D01*
X132494228Y-76897220D02*
X132446609Y-76849601D01*
X132446609Y-76849601D02*
X132398990Y-76754363D01*
X132398990Y-76754363D02*
X132398990Y-76421030D01*
X132779942Y-77373411D02*
X132827561Y-77421030D01*
X132827561Y-77421030D02*
X132875180Y-77516268D01*
X132875180Y-77516268D02*
X132875180Y-77754363D01*
X132875180Y-77754363D02*
X132827561Y-77849601D01*
X132827561Y-77849601D02*
X132779942Y-77897220D01*
X132779942Y-77897220D02*
X132684704Y-77944839D01*
X132684704Y-77944839D02*
X132589466Y-77944839D01*
X132589466Y-77944839D02*
X132446609Y-77897220D01*
X132446609Y-77897220D02*
X131875180Y-77325792D01*
X131875180Y-77325792D02*
X131875180Y-77944839D01*
X165127561Y-75849601D02*
X165175180Y-75754363D01*
X165175180Y-75754363D02*
X165175180Y-75611506D01*
X165175180Y-75611506D02*
X165127561Y-75468649D01*
X165127561Y-75468649D02*
X165032323Y-75373411D01*
X165032323Y-75373411D02*
X164937085Y-75325792D01*
X164937085Y-75325792D02*
X164746609Y-75278173D01*
X164746609Y-75278173D02*
X164603752Y-75278173D01*
X164603752Y-75278173D02*
X164413276Y-75325792D01*
X164413276Y-75325792D02*
X164318038Y-75373411D01*
X164318038Y-75373411D02*
X164222800Y-75468649D01*
X164222800Y-75468649D02*
X164175180Y-75611506D01*
X164175180Y-75611506D02*
X164175180Y-75706744D01*
X164175180Y-75706744D02*
X164222800Y-75849601D01*
X164222800Y-75849601D02*
X164270419Y-75897220D01*
X164270419Y-75897220D02*
X164603752Y-75897220D01*
X164603752Y-75897220D02*
X164603752Y-75706744D01*
X164175180Y-76325792D02*
X165175180Y-76325792D01*
X165175180Y-76325792D02*
X164175180Y-76897220D01*
X164175180Y-76897220D02*
X165175180Y-76897220D01*
X164175180Y-77373411D02*
X165175180Y-77373411D01*
X165175180Y-77373411D02*
X165175180Y-77611506D01*
X165175180Y-77611506D02*
X165127561Y-77754363D01*
X165127561Y-77754363D02*
X165032323Y-77849601D01*
X165032323Y-77849601D02*
X164937085Y-77897220D01*
X164937085Y-77897220D02*
X164746609Y-77944839D01*
X164746609Y-77944839D02*
X164603752Y-77944839D01*
X164603752Y-77944839D02*
X164413276Y-77897220D01*
X164413276Y-77897220D02*
X164318038Y-77849601D01*
X164318038Y-77849601D02*
X164222800Y-77754363D01*
X164222800Y-77754363D02*
X164175180Y-77611506D01*
X164175180Y-77611506D02*
X164175180Y-77373411D01*
X121810419Y-76992458D02*
X121762800Y-76944839D01*
X121762800Y-76944839D02*
X121715180Y-76801982D01*
X121715180Y-76801982D02*
X121715180Y-76706744D01*
X121715180Y-76706744D02*
X121762800Y-76563887D01*
X121762800Y-76563887D02*
X121858038Y-76468649D01*
X121858038Y-76468649D02*
X121953276Y-76421030D01*
X121953276Y-76421030D02*
X122143752Y-76373411D01*
X122143752Y-76373411D02*
X122286609Y-76373411D01*
X122286609Y-76373411D02*
X122477085Y-76421030D01*
X122477085Y-76421030D02*
X122572323Y-76468649D01*
X122572323Y-76468649D02*
X122667561Y-76563887D01*
X122667561Y-76563887D02*
X122715180Y-76706744D01*
X122715180Y-76706744D02*
X122715180Y-76801982D01*
X122715180Y-76801982D02*
X122667561Y-76944839D01*
X122667561Y-76944839D02*
X122619942Y-76992458D01*
X121762800Y-77373411D02*
X121715180Y-77516268D01*
X121715180Y-77516268D02*
X121715180Y-77754363D01*
X121715180Y-77754363D02*
X121762800Y-77849601D01*
X121762800Y-77849601D02*
X121810419Y-77897220D01*
X121810419Y-77897220D02*
X121905657Y-77944839D01*
X121905657Y-77944839D02*
X122000895Y-77944839D01*
X122000895Y-77944839D02*
X122096133Y-77897220D01*
X122096133Y-77897220D02*
X122143752Y-77849601D01*
X122143752Y-77849601D02*
X122191371Y-77754363D01*
X122191371Y-77754363D02*
X122238990Y-77563887D01*
X122238990Y-77563887D02*
X122286609Y-77468649D01*
X122286609Y-77468649D02*
X122334228Y-77421030D01*
X122334228Y-77421030D02*
X122429466Y-77373411D01*
X122429466Y-77373411D02*
X122524704Y-77373411D01*
X122524704Y-77373411D02*
X122619942Y-77421030D01*
X122619942Y-77421030D02*
X122667561Y-77468649D01*
X122667561Y-77468649D02*
X122715180Y-77563887D01*
X122715180Y-77563887D02*
X122715180Y-77801982D01*
X122715180Y-77801982D02*
X122667561Y-77944839D01*
X126795180Y-75430554D02*
X127795180Y-75430554D01*
X127795180Y-75430554D02*
X127080895Y-75697220D01*
X127080895Y-75697220D02*
X127795180Y-75963887D01*
X127795180Y-75963887D02*
X126795180Y-75963887D01*
X127795180Y-76497221D02*
X127795180Y-76649602D01*
X127795180Y-76649602D02*
X127747561Y-76725792D01*
X127747561Y-76725792D02*
X127652323Y-76801983D01*
X127652323Y-76801983D02*
X127461847Y-76840078D01*
X127461847Y-76840078D02*
X127128514Y-76840078D01*
X127128514Y-76840078D02*
X126938038Y-76801983D01*
X126938038Y-76801983D02*
X126842800Y-76725792D01*
X126842800Y-76725792D02*
X126795180Y-76649602D01*
X126795180Y-76649602D02*
X126795180Y-76497221D01*
X126795180Y-76497221D02*
X126842800Y-76421030D01*
X126842800Y-76421030D02*
X126938038Y-76344840D01*
X126938038Y-76344840D02*
X127128514Y-76306744D01*
X127128514Y-76306744D02*
X127461847Y-76306744D01*
X127461847Y-76306744D02*
X127652323Y-76344840D01*
X127652323Y-76344840D02*
X127747561Y-76421030D01*
X127747561Y-76421030D02*
X127795180Y-76497221D01*
X126842800Y-77144839D02*
X126795180Y-77259125D01*
X126795180Y-77259125D02*
X126795180Y-77449601D01*
X126795180Y-77449601D02*
X126842800Y-77525792D01*
X126842800Y-77525792D02*
X126890419Y-77563887D01*
X126890419Y-77563887D02*
X126985657Y-77601982D01*
X126985657Y-77601982D02*
X127080895Y-77601982D01*
X127080895Y-77601982D02*
X127176133Y-77563887D01*
X127176133Y-77563887D02*
X127223752Y-77525792D01*
X127223752Y-77525792D02*
X127271371Y-77449601D01*
X127271371Y-77449601D02*
X127318990Y-77297220D01*
X127318990Y-77297220D02*
X127366609Y-77221030D01*
X127366609Y-77221030D02*
X127414228Y-77182935D01*
X127414228Y-77182935D02*
X127509466Y-77144839D01*
X127509466Y-77144839D02*
X127604704Y-77144839D01*
X127604704Y-77144839D02*
X127699942Y-77182935D01*
X127699942Y-77182935D02*
X127747561Y-77221030D01*
X127747561Y-77221030D02*
X127795180Y-77297220D01*
X127795180Y-77297220D02*
X127795180Y-77487697D01*
X127795180Y-77487697D02*
X127747561Y-77601982D01*
X126795180Y-77944840D02*
X127795180Y-77944840D01*
X169302800Y-75373411D02*
X169255180Y-75516268D01*
X169255180Y-75516268D02*
X169255180Y-75754363D01*
X169255180Y-75754363D02*
X169302800Y-75849601D01*
X169302800Y-75849601D02*
X169350419Y-75897220D01*
X169350419Y-75897220D02*
X169445657Y-75944839D01*
X169445657Y-75944839D02*
X169540895Y-75944839D01*
X169540895Y-75944839D02*
X169636133Y-75897220D01*
X169636133Y-75897220D02*
X169683752Y-75849601D01*
X169683752Y-75849601D02*
X169731371Y-75754363D01*
X169731371Y-75754363D02*
X169778990Y-75563887D01*
X169778990Y-75563887D02*
X169826609Y-75468649D01*
X169826609Y-75468649D02*
X169874228Y-75421030D01*
X169874228Y-75421030D02*
X169969466Y-75373411D01*
X169969466Y-75373411D02*
X170064704Y-75373411D01*
X170064704Y-75373411D02*
X170159942Y-75421030D01*
X170159942Y-75421030D02*
X170207561Y-75468649D01*
X170207561Y-75468649D02*
X170255180Y-75563887D01*
X170255180Y-75563887D02*
X170255180Y-75801982D01*
X170255180Y-75801982D02*
X170207561Y-75944839D01*
X169350419Y-76944839D02*
X169302800Y-76897220D01*
X169302800Y-76897220D02*
X169255180Y-76754363D01*
X169255180Y-76754363D02*
X169255180Y-76659125D01*
X169255180Y-76659125D02*
X169302800Y-76516268D01*
X169302800Y-76516268D02*
X169398038Y-76421030D01*
X169398038Y-76421030D02*
X169493276Y-76373411D01*
X169493276Y-76373411D02*
X169683752Y-76325792D01*
X169683752Y-76325792D02*
X169826609Y-76325792D01*
X169826609Y-76325792D02*
X170017085Y-76373411D01*
X170017085Y-76373411D02*
X170112323Y-76421030D01*
X170112323Y-76421030D02*
X170207561Y-76516268D01*
X170207561Y-76516268D02*
X170255180Y-76659125D01*
X170255180Y-76659125D02*
X170255180Y-76754363D01*
X170255180Y-76754363D02*
X170207561Y-76897220D01*
X170207561Y-76897220D02*
X170159942Y-76944839D01*
X169255180Y-77373411D02*
X170255180Y-77373411D01*
X169255180Y-77944839D02*
X169826609Y-77516268D01*
X170255180Y-77944839D02*
X169683752Y-77373411D01*
X129858990Y-76754363D02*
X129811371Y-76897220D01*
X129811371Y-76897220D02*
X129763752Y-76944839D01*
X129763752Y-76944839D02*
X129668514Y-76992458D01*
X129668514Y-76992458D02*
X129525657Y-76992458D01*
X129525657Y-76992458D02*
X129430419Y-76944839D01*
X129430419Y-76944839D02*
X129382800Y-76897220D01*
X129382800Y-76897220D02*
X129335180Y-76801982D01*
X129335180Y-76801982D02*
X129335180Y-76421030D01*
X129335180Y-76421030D02*
X130335180Y-76421030D01*
X130335180Y-76421030D02*
X130335180Y-76754363D01*
X130335180Y-76754363D02*
X130287561Y-76849601D01*
X130287561Y-76849601D02*
X130239942Y-76897220D01*
X130239942Y-76897220D02*
X130144704Y-76944839D01*
X130144704Y-76944839D02*
X130049466Y-76944839D01*
X130049466Y-76944839D02*
X129954228Y-76897220D01*
X129954228Y-76897220D02*
X129906609Y-76849601D01*
X129906609Y-76849601D02*
X129858990Y-76754363D01*
X129858990Y-76754363D02*
X129858990Y-76421030D01*
X129335180Y-77944839D02*
X129335180Y-77373411D01*
X129335180Y-77659125D02*
X130335180Y-77659125D01*
X130335180Y-77659125D02*
X130192323Y-77563887D01*
X130192323Y-77563887D02*
X130097085Y-77468649D01*
X130097085Y-77468649D02*
X130049466Y-77373411D01*
X124302800Y-75373411D02*
X124255180Y-75516268D01*
X124255180Y-75516268D02*
X124255180Y-75754363D01*
X124255180Y-75754363D02*
X124302800Y-75849601D01*
X124302800Y-75849601D02*
X124350419Y-75897220D01*
X124350419Y-75897220D02*
X124445657Y-75944839D01*
X124445657Y-75944839D02*
X124540895Y-75944839D01*
X124540895Y-75944839D02*
X124636133Y-75897220D01*
X124636133Y-75897220D02*
X124683752Y-75849601D01*
X124683752Y-75849601D02*
X124731371Y-75754363D01*
X124731371Y-75754363D02*
X124778990Y-75563887D01*
X124778990Y-75563887D02*
X124826609Y-75468649D01*
X124826609Y-75468649D02*
X124874228Y-75421030D01*
X124874228Y-75421030D02*
X124969466Y-75373411D01*
X124969466Y-75373411D02*
X125064704Y-75373411D01*
X125064704Y-75373411D02*
X125159942Y-75421030D01*
X125159942Y-75421030D02*
X125207561Y-75468649D01*
X125207561Y-75468649D02*
X125255180Y-75563887D01*
X125255180Y-75563887D02*
X125255180Y-75801982D01*
X125255180Y-75801982D02*
X125207561Y-75944839D01*
X124350419Y-76944839D02*
X124302800Y-76897220D01*
X124302800Y-76897220D02*
X124255180Y-76754363D01*
X124255180Y-76754363D02*
X124255180Y-76659125D01*
X124255180Y-76659125D02*
X124302800Y-76516268D01*
X124302800Y-76516268D02*
X124398038Y-76421030D01*
X124398038Y-76421030D02*
X124493276Y-76373411D01*
X124493276Y-76373411D02*
X124683752Y-76325792D01*
X124683752Y-76325792D02*
X124826609Y-76325792D01*
X124826609Y-76325792D02*
X125017085Y-76373411D01*
X125017085Y-76373411D02*
X125112323Y-76421030D01*
X125112323Y-76421030D02*
X125207561Y-76516268D01*
X125207561Y-76516268D02*
X125255180Y-76659125D01*
X125255180Y-76659125D02*
X125255180Y-76754363D01*
X125255180Y-76754363D02*
X125207561Y-76897220D01*
X125207561Y-76897220D02*
X125159942Y-76944839D01*
X124255180Y-77373411D02*
X125255180Y-77373411D01*
X124255180Y-77944839D02*
X124826609Y-77516268D01*
X125255180Y-77944839D02*
X124683752Y-77373411D01*
X134938990Y-76754363D02*
X134891371Y-76897220D01*
X134891371Y-76897220D02*
X134843752Y-76944839D01*
X134843752Y-76944839D02*
X134748514Y-76992458D01*
X134748514Y-76992458D02*
X134605657Y-76992458D01*
X134605657Y-76992458D02*
X134510419Y-76944839D01*
X134510419Y-76944839D02*
X134462800Y-76897220D01*
X134462800Y-76897220D02*
X134415180Y-76801982D01*
X134415180Y-76801982D02*
X134415180Y-76421030D01*
X134415180Y-76421030D02*
X135415180Y-76421030D01*
X135415180Y-76421030D02*
X135415180Y-76754363D01*
X135415180Y-76754363D02*
X135367561Y-76849601D01*
X135367561Y-76849601D02*
X135319942Y-76897220D01*
X135319942Y-76897220D02*
X135224704Y-76944839D01*
X135224704Y-76944839D02*
X135129466Y-76944839D01*
X135129466Y-76944839D02*
X135034228Y-76897220D01*
X135034228Y-76897220D02*
X134986609Y-76849601D01*
X134986609Y-76849601D02*
X134938990Y-76754363D01*
X134938990Y-76754363D02*
X134938990Y-76421030D01*
X135415180Y-77325792D02*
X135415180Y-77944839D01*
X135415180Y-77944839D02*
X135034228Y-77611506D01*
X135034228Y-77611506D02*
X135034228Y-77754363D01*
X135034228Y-77754363D02*
X134986609Y-77849601D01*
X134986609Y-77849601D02*
X134938990Y-77897220D01*
X134938990Y-77897220D02*
X134843752Y-77944839D01*
X134843752Y-77944839D02*
X134605657Y-77944839D01*
X134605657Y-77944839D02*
X134510419Y-77897220D01*
X134510419Y-77897220D02*
X134462800Y-77849601D01*
X134462800Y-77849601D02*
X134415180Y-77754363D01*
X134415180Y-77754363D02*
X134415180Y-77468649D01*
X134415180Y-77468649D02*
X134462800Y-77373411D01*
X134462800Y-77373411D02*
X134510419Y-77325792D01*
X166810419Y-76992458D02*
X166762800Y-76944839D01*
X166762800Y-76944839D02*
X166715180Y-76801982D01*
X166715180Y-76801982D02*
X166715180Y-76706744D01*
X166715180Y-76706744D02*
X166762800Y-76563887D01*
X166762800Y-76563887D02*
X166858038Y-76468649D01*
X166858038Y-76468649D02*
X166953276Y-76421030D01*
X166953276Y-76421030D02*
X167143752Y-76373411D01*
X167143752Y-76373411D02*
X167286609Y-76373411D01*
X167286609Y-76373411D02*
X167477085Y-76421030D01*
X167477085Y-76421030D02*
X167572323Y-76468649D01*
X167572323Y-76468649D02*
X167667561Y-76563887D01*
X167667561Y-76563887D02*
X167715180Y-76706744D01*
X167715180Y-76706744D02*
X167715180Y-76801982D01*
X167715180Y-76801982D02*
X167667561Y-76944839D01*
X167667561Y-76944839D02*
X167619942Y-76992458D01*
X166762800Y-77373411D02*
X166715180Y-77516268D01*
X166715180Y-77516268D02*
X166715180Y-77754363D01*
X166715180Y-77754363D02*
X166762800Y-77849601D01*
X166762800Y-77849601D02*
X166810419Y-77897220D01*
X166810419Y-77897220D02*
X166905657Y-77944839D01*
X166905657Y-77944839D02*
X167000895Y-77944839D01*
X167000895Y-77944839D02*
X167096133Y-77897220D01*
X167096133Y-77897220D02*
X167143752Y-77849601D01*
X167143752Y-77849601D02*
X167191371Y-77754363D01*
X167191371Y-77754363D02*
X167238990Y-77563887D01*
X167238990Y-77563887D02*
X167286609Y-77468649D01*
X167286609Y-77468649D02*
X167334228Y-77421030D01*
X167334228Y-77421030D02*
X167429466Y-77373411D01*
X167429466Y-77373411D02*
X167524704Y-77373411D01*
X167524704Y-77373411D02*
X167619942Y-77421030D01*
X167619942Y-77421030D02*
X167667561Y-77468649D01*
X167667561Y-77468649D02*
X167715180Y-77563887D01*
X167715180Y-77563887D02*
X167715180Y-77801982D01*
X167715180Y-77801982D02*
X167667561Y-77944839D01*
X162635180Y-77040077D02*
X162635180Y-76563887D01*
X162635180Y-76563887D02*
X162158990Y-76516268D01*
X162158990Y-76516268D02*
X162206609Y-76563887D01*
X162206609Y-76563887D02*
X162254228Y-76659125D01*
X162254228Y-76659125D02*
X162254228Y-76897220D01*
X162254228Y-76897220D02*
X162206609Y-76992458D01*
X162206609Y-76992458D02*
X162158990Y-77040077D01*
X162158990Y-77040077D02*
X162063752Y-77087696D01*
X162063752Y-77087696D02*
X161825657Y-77087696D01*
X161825657Y-77087696D02*
X161730419Y-77040077D01*
X161730419Y-77040077D02*
X161682800Y-76992458D01*
X161682800Y-76992458D02*
X161635180Y-76897220D01*
X161635180Y-76897220D02*
X161635180Y-76659125D01*
X161635180Y-76659125D02*
X161682800Y-76563887D01*
X161682800Y-76563887D02*
X161730419Y-76516268D01*
X162635180Y-77373411D02*
X161635180Y-77706744D01*
X161635180Y-77706744D02*
X162635180Y-78040077D01*
X174858990Y-76754363D02*
X174811371Y-76897220D01*
X174811371Y-76897220D02*
X174763752Y-76944839D01*
X174763752Y-76944839D02*
X174668514Y-76992458D01*
X174668514Y-76992458D02*
X174525657Y-76992458D01*
X174525657Y-76992458D02*
X174430419Y-76944839D01*
X174430419Y-76944839D02*
X174382800Y-76897220D01*
X174382800Y-76897220D02*
X174335180Y-76801982D01*
X174335180Y-76801982D02*
X174335180Y-76421030D01*
X174335180Y-76421030D02*
X175335180Y-76421030D01*
X175335180Y-76421030D02*
X175335180Y-76754363D01*
X175335180Y-76754363D02*
X175287561Y-76849601D01*
X175287561Y-76849601D02*
X175239942Y-76897220D01*
X175239942Y-76897220D02*
X175144704Y-76944839D01*
X175144704Y-76944839D02*
X175049466Y-76944839D01*
X175049466Y-76944839D02*
X174954228Y-76897220D01*
X174954228Y-76897220D02*
X174906609Y-76849601D01*
X174906609Y-76849601D02*
X174858990Y-76754363D01*
X174858990Y-76754363D02*
X174858990Y-76421030D01*
X174335180Y-77944839D02*
X174335180Y-77373411D01*
X174335180Y-77659125D02*
X175335180Y-77659125D01*
X175335180Y-77659125D02*
X175192323Y-77563887D01*
X175192323Y-77563887D02*
X175097085Y-77468649D01*
X175097085Y-77468649D02*
X175049466Y-77373411D01*
X179938990Y-76754363D02*
X179891371Y-76897220D01*
X179891371Y-76897220D02*
X179843752Y-76944839D01*
X179843752Y-76944839D02*
X179748514Y-76992458D01*
X179748514Y-76992458D02*
X179605657Y-76992458D01*
X179605657Y-76992458D02*
X179510419Y-76944839D01*
X179510419Y-76944839D02*
X179462800Y-76897220D01*
X179462800Y-76897220D02*
X179415180Y-76801982D01*
X179415180Y-76801982D02*
X179415180Y-76421030D01*
X179415180Y-76421030D02*
X180415180Y-76421030D01*
X180415180Y-76421030D02*
X180415180Y-76754363D01*
X180415180Y-76754363D02*
X180367561Y-76849601D01*
X180367561Y-76849601D02*
X180319942Y-76897220D01*
X180319942Y-76897220D02*
X180224704Y-76944839D01*
X180224704Y-76944839D02*
X180129466Y-76944839D01*
X180129466Y-76944839D02*
X180034228Y-76897220D01*
X180034228Y-76897220D02*
X179986609Y-76849601D01*
X179986609Y-76849601D02*
X179938990Y-76754363D01*
X179938990Y-76754363D02*
X179938990Y-76421030D01*
X180415180Y-77325792D02*
X180415180Y-77944839D01*
X180415180Y-77944839D02*
X180034228Y-77611506D01*
X180034228Y-77611506D02*
X180034228Y-77754363D01*
X180034228Y-77754363D02*
X179986609Y-77849601D01*
X179986609Y-77849601D02*
X179938990Y-77897220D01*
X179938990Y-77897220D02*
X179843752Y-77944839D01*
X179843752Y-77944839D02*
X179605657Y-77944839D01*
X179605657Y-77944839D02*
X179510419Y-77897220D01*
X179510419Y-77897220D02*
X179462800Y-77849601D01*
X179462800Y-77849601D02*
X179415180Y-77754363D01*
X179415180Y-77754363D02*
X179415180Y-77468649D01*
X179415180Y-77468649D02*
X179462800Y-77373411D01*
X179462800Y-77373411D02*
X179510419Y-77325792D01*
X177398990Y-76754363D02*
X177351371Y-76897220D01*
X177351371Y-76897220D02*
X177303752Y-76944839D01*
X177303752Y-76944839D02*
X177208514Y-76992458D01*
X177208514Y-76992458D02*
X177065657Y-76992458D01*
X177065657Y-76992458D02*
X176970419Y-76944839D01*
X176970419Y-76944839D02*
X176922800Y-76897220D01*
X176922800Y-76897220D02*
X176875180Y-76801982D01*
X176875180Y-76801982D02*
X176875180Y-76421030D01*
X176875180Y-76421030D02*
X177875180Y-76421030D01*
X177875180Y-76421030D02*
X177875180Y-76754363D01*
X177875180Y-76754363D02*
X177827561Y-76849601D01*
X177827561Y-76849601D02*
X177779942Y-76897220D01*
X177779942Y-76897220D02*
X177684704Y-76944839D01*
X177684704Y-76944839D02*
X177589466Y-76944839D01*
X177589466Y-76944839D02*
X177494228Y-76897220D01*
X177494228Y-76897220D02*
X177446609Y-76849601D01*
X177446609Y-76849601D02*
X177398990Y-76754363D01*
X177398990Y-76754363D02*
X177398990Y-76421030D01*
X177779942Y-77373411D02*
X177827561Y-77421030D01*
X177827561Y-77421030D02*
X177875180Y-77516268D01*
X177875180Y-77516268D02*
X177875180Y-77754363D01*
X177875180Y-77754363D02*
X177827561Y-77849601D01*
X177827561Y-77849601D02*
X177779942Y-77897220D01*
X177779942Y-77897220D02*
X177684704Y-77944839D01*
X177684704Y-77944839D02*
X177589466Y-77944839D01*
X177589466Y-77944839D02*
X177446609Y-77897220D01*
X177446609Y-77897220D02*
X176875180Y-77325792D01*
X176875180Y-77325792D02*
X176875180Y-77944839D01*
X117635180Y-77040077D02*
X117635180Y-76563887D01*
X117635180Y-76563887D02*
X117158990Y-76516268D01*
X117158990Y-76516268D02*
X117206609Y-76563887D01*
X117206609Y-76563887D02*
X117254228Y-76659125D01*
X117254228Y-76659125D02*
X117254228Y-76897220D01*
X117254228Y-76897220D02*
X117206609Y-76992458D01*
X117206609Y-76992458D02*
X117158990Y-77040077D01*
X117158990Y-77040077D02*
X117063752Y-77087696D01*
X117063752Y-77087696D02*
X116825657Y-77087696D01*
X116825657Y-77087696D02*
X116730419Y-77040077D01*
X116730419Y-77040077D02*
X116682800Y-76992458D01*
X116682800Y-76992458D02*
X116635180Y-76897220D01*
X116635180Y-76897220D02*
X116635180Y-76659125D01*
X116635180Y-76659125D02*
X116682800Y-76563887D01*
X116682800Y-76563887D02*
X116730419Y-76516268D01*
X117635180Y-77373411D02*
X116635180Y-77706744D01*
X116635180Y-77706744D02*
X117635180Y-78040077D01*
X120127561Y-75849601D02*
X120175180Y-75754363D01*
X120175180Y-75754363D02*
X120175180Y-75611506D01*
X120175180Y-75611506D02*
X120127561Y-75468649D01*
X120127561Y-75468649D02*
X120032323Y-75373411D01*
X120032323Y-75373411D02*
X119937085Y-75325792D01*
X119937085Y-75325792D02*
X119746609Y-75278173D01*
X119746609Y-75278173D02*
X119603752Y-75278173D01*
X119603752Y-75278173D02*
X119413276Y-75325792D01*
X119413276Y-75325792D02*
X119318038Y-75373411D01*
X119318038Y-75373411D02*
X119222800Y-75468649D01*
X119222800Y-75468649D02*
X119175180Y-75611506D01*
X119175180Y-75611506D02*
X119175180Y-75706744D01*
X119175180Y-75706744D02*
X119222800Y-75849601D01*
X119222800Y-75849601D02*
X119270419Y-75897220D01*
X119270419Y-75897220D02*
X119603752Y-75897220D01*
X119603752Y-75897220D02*
X119603752Y-75706744D01*
X119175180Y-76325792D02*
X120175180Y-76325792D01*
X120175180Y-76325792D02*
X119175180Y-76897220D01*
X119175180Y-76897220D02*
X120175180Y-76897220D01*
X119175180Y-77373411D02*
X120175180Y-77373411D01*
X120175180Y-77373411D02*
X120175180Y-77611506D01*
X120175180Y-77611506D02*
X120127561Y-77754363D01*
X120127561Y-77754363D02*
X120032323Y-77849601D01*
X120032323Y-77849601D02*
X119937085Y-77897220D01*
X119937085Y-77897220D02*
X119746609Y-77944839D01*
X119746609Y-77944839D02*
X119603752Y-77944839D01*
X119603752Y-77944839D02*
X119413276Y-77897220D01*
X119413276Y-77897220D02*
X119318038Y-77849601D01*
X119318038Y-77849601D02*
X119222800Y-77754363D01*
X119222800Y-77754363D02*
X119175180Y-77611506D01*
X119175180Y-77611506D02*
X119175180Y-77373411D01*
X171795180Y-75430554D02*
X172795180Y-75430554D01*
X172795180Y-75430554D02*
X172080895Y-75697220D01*
X172080895Y-75697220D02*
X172795180Y-75963887D01*
X172795180Y-75963887D02*
X171795180Y-75963887D01*
X172795180Y-76497221D02*
X172795180Y-76649602D01*
X172795180Y-76649602D02*
X172747561Y-76725792D01*
X172747561Y-76725792D02*
X172652323Y-76801983D01*
X172652323Y-76801983D02*
X172461847Y-76840078D01*
X172461847Y-76840078D02*
X172128514Y-76840078D01*
X172128514Y-76840078D02*
X171938038Y-76801983D01*
X171938038Y-76801983D02*
X171842800Y-76725792D01*
X171842800Y-76725792D02*
X171795180Y-76649602D01*
X171795180Y-76649602D02*
X171795180Y-76497221D01*
X171795180Y-76497221D02*
X171842800Y-76421030D01*
X171842800Y-76421030D02*
X171938038Y-76344840D01*
X171938038Y-76344840D02*
X172128514Y-76306744D01*
X172128514Y-76306744D02*
X172461847Y-76306744D01*
X172461847Y-76306744D02*
X172652323Y-76344840D01*
X172652323Y-76344840D02*
X172747561Y-76421030D01*
X172747561Y-76421030D02*
X172795180Y-76497221D01*
X171842800Y-77144839D02*
X171795180Y-77259125D01*
X171795180Y-77259125D02*
X171795180Y-77449601D01*
X171795180Y-77449601D02*
X171842800Y-77525792D01*
X171842800Y-77525792D02*
X171890419Y-77563887D01*
X171890419Y-77563887D02*
X171985657Y-77601982D01*
X171985657Y-77601982D02*
X172080895Y-77601982D01*
X172080895Y-77601982D02*
X172176133Y-77563887D01*
X172176133Y-77563887D02*
X172223752Y-77525792D01*
X172223752Y-77525792D02*
X172271371Y-77449601D01*
X172271371Y-77449601D02*
X172318990Y-77297220D01*
X172318990Y-77297220D02*
X172366609Y-77221030D01*
X172366609Y-77221030D02*
X172414228Y-77182935D01*
X172414228Y-77182935D02*
X172509466Y-77144839D01*
X172509466Y-77144839D02*
X172604704Y-77144839D01*
X172604704Y-77144839D02*
X172699942Y-77182935D01*
X172699942Y-77182935D02*
X172747561Y-77221030D01*
X172747561Y-77221030D02*
X172795180Y-77297220D01*
X172795180Y-77297220D02*
X172795180Y-77487697D01*
X172795180Y-77487697D02*
X172747561Y-77601982D01*
X171795180Y-77944840D02*
X172795180Y-77944840D01*
X170666666Y-79974819D02*
X170666666Y-80689104D01*
X170666666Y-80689104D02*
X170619047Y-80831961D01*
X170619047Y-80831961D02*
X170523809Y-80927200D01*
X170523809Y-80927200D02*
X170380952Y-80974819D01*
X170380952Y-80974819D02*
X170285714Y-80974819D01*
X171666666Y-80974819D02*
X171095238Y-80974819D01*
X171380952Y-80974819D02*
X171380952Y-79974819D01*
X171380952Y-79974819D02*
X171285714Y-80117676D01*
X171285714Y-80117676D02*
X171190476Y-80212914D01*
X171190476Y-80212914D02*
X171095238Y-80260533D01*
X176549819Y-86186904D02*
X177359342Y-86186904D01*
X177359342Y-86186904D02*
X177454580Y-86139285D01*
X177454580Y-86139285D02*
X177502200Y-86091666D01*
X177502200Y-86091666D02*
X177549819Y-85996428D01*
X177549819Y-85996428D02*
X177549819Y-85805952D01*
X177549819Y-85805952D02*
X177502200Y-85710714D01*
X177502200Y-85710714D02*
X177454580Y-85663095D01*
X177454580Y-85663095D02*
X177359342Y-85615476D01*
X177359342Y-85615476D02*
X176549819Y-85615476D01*
X176645057Y-85186904D02*
X176597438Y-85139285D01*
X176597438Y-85139285D02*
X176549819Y-85044047D01*
X176549819Y-85044047D02*
X176549819Y-84805952D01*
X176549819Y-84805952D02*
X176597438Y-84710714D01*
X176597438Y-84710714D02*
X176645057Y-84663095D01*
X176645057Y-84663095D02*
X176740295Y-84615476D01*
X176740295Y-84615476D02*
X176835533Y-84615476D01*
X176835533Y-84615476D02*
X176978390Y-84663095D01*
X176978390Y-84663095D02*
X177549819Y-85234523D01*
X177549819Y-85234523D02*
X177549819Y-84615476D01*
D11*
X170261905Y-30107419D02*
X170261905Y-29107419D01*
X170261905Y-29107419D02*
X170500000Y-29107419D01*
X170500000Y-29107419D02*
X170642857Y-29155038D01*
X170642857Y-29155038D02*
X170738095Y-29250276D01*
X170738095Y-29250276D02*
X170785714Y-29345514D01*
X170785714Y-29345514D02*
X170833333Y-29535990D01*
X170833333Y-29535990D02*
X170833333Y-29678847D01*
X170833333Y-29678847D02*
X170785714Y-29869323D01*
X170785714Y-29869323D02*
X170738095Y-29964561D01*
X170738095Y-29964561D02*
X170642857Y-30059800D01*
X170642857Y-30059800D02*
X170500000Y-30107419D01*
X170500000Y-30107419D02*
X170261905Y-30107419D01*
X171785714Y-30107419D02*
X171214286Y-30107419D01*
X171500000Y-30107419D02*
X171500000Y-29107419D01*
X171500000Y-29107419D02*
X171404762Y-29250276D01*
X171404762Y-29250276D02*
X171309524Y-29345514D01*
X171309524Y-29345514D02*
X171214286Y-29393133D01*
D10*
X181666667Y-72407200D02*
X181809524Y-72454819D01*
X181809524Y-72454819D02*
X182047619Y-72454819D01*
X182047619Y-72454819D02*
X182142857Y-72407200D01*
X182142857Y-72407200D02*
X182190476Y-72359580D01*
X182190476Y-72359580D02*
X182238095Y-72264342D01*
X182238095Y-72264342D02*
X182238095Y-72169104D01*
X182238095Y-72169104D02*
X182190476Y-72073866D01*
X182190476Y-72073866D02*
X182142857Y-72026247D01*
X182142857Y-72026247D02*
X182047619Y-71978628D01*
X182047619Y-71978628D02*
X181857143Y-71931009D01*
X181857143Y-71931009D02*
X181761905Y-71883390D01*
X181761905Y-71883390D02*
X181714286Y-71835771D01*
X181714286Y-71835771D02*
X181666667Y-71740533D01*
X181666667Y-71740533D02*
X181666667Y-71645295D01*
X181666667Y-71645295D02*
X181714286Y-71550057D01*
X181714286Y-71550057D02*
X181761905Y-71502438D01*
X181761905Y-71502438D02*
X181857143Y-71454819D01*
X181857143Y-71454819D02*
X182095238Y-71454819D01*
X182095238Y-71454819D02*
X182238095Y-71502438D01*
X182571429Y-71454819D02*
X182809524Y-72454819D01*
X182809524Y-72454819D02*
X183000000Y-71740533D01*
X183000000Y-71740533D02*
X183190476Y-72454819D01*
X183190476Y-72454819D02*
X183428572Y-71454819D01*
X183714286Y-71454819D02*
X184333333Y-71454819D01*
X184333333Y-71454819D02*
X184000000Y-71835771D01*
X184000000Y-71835771D02*
X184142857Y-71835771D01*
X184142857Y-71835771D02*
X184238095Y-71883390D01*
X184238095Y-71883390D02*
X184285714Y-71931009D01*
X184285714Y-71931009D02*
X184333333Y-72026247D01*
X184333333Y-72026247D02*
X184333333Y-72264342D01*
X184333333Y-72264342D02*
X184285714Y-72359580D01*
X184285714Y-72359580D02*
X184238095Y-72407200D01*
X184238095Y-72407200D02*
X184142857Y-72454819D01*
X184142857Y-72454819D02*
X183857143Y-72454819D01*
X183857143Y-72454819D02*
X183761905Y-72407200D01*
X183761905Y-72407200D02*
X183714286Y-72359580D01*
X112666667Y-72407200D02*
X112809524Y-72454819D01*
X112809524Y-72454819D02*
X113047619Y-72454819D01*
X113047619Y-72454819D02*
X113142857Y-72407200D01*
X113142857Y-72407200D02*
X113190476Y-72359580D01*
X113190476Y-72359580D02*
X113238095Y-72264342D01*
X113238095Y-72264342D02*
X113238095Y-72169104D01*
X113238095Y-72169104D02*
X113190476Y-72073866D01*
X113190476Y-72073866D02*
X113142857Y-72026247D01*
X113142857Y-72026247D02*
X113047619Y-71978628D01*
X113047619Y-71978628D02*
X112857143Y-71931009D01*
X112857143Y-71931009D02*
X112761905Y-71883390D01*
X112761905Y-71883390D02*
X112714286Y-71835771D01*
X112714286Y-71835771D02*
X112666667Y-71740533D01*
X112666667Y-71740533D02*
X112666667Y-71645295D01*
X112666667Y-71645295D02*
X112714286Y-71550057D01*
X112714286Y-71550057D02*
X112761905Y-71502438D01*
X112761905Y-71502438D02*
X112857143Y-71454819D01*
X112857143Y-71454819D02*
X113095238Y-71454819D01*
X113095238Y-71454819D02*
X113238095Y-71502438D01*
X113571429Y-71454819D02*
X113809524Y-72454819D01*
X113809524Y-72454819D02*
X114000000Y-71740533D01*
X114000000Y-71740533D02*
X114190476Y-72454819D01*
X114190476Y-72454819D02*
X114428572Y-71454819D01*
X115333333Y-72454819D02*
X114761905Y-72454819D01*
X115047619Y-72454819D02*
X115047619Y-71454819D01*
X115047619Y-71454819D02*
X114952381Y-71597676D01*
X114952381Y-71597676D02*
X114857143Y-71692914D01*
X114857143Y-71692914D02*
X114761905Y-71740533D01*
X125666666Y-79974819D02*
X125666666Y-80689104D01*
X125666666Y-80689104D02*
X125619047Y-80831961D01*
X125619047Y-80831961D02*
X125523809Y-80927200D01*
X125523809Y-80927200D02*
X125380952Y-80974819D01*
X125380952Y-80974819D02*
X125285714Y-80974819D01*
X126666666Y-80974819D02*
X126095238Y-80974819D01*
X126380952Y-80974819D02*
X126380952Y-79974819D01*
X126380952Y-79974819D02*
X126285714Y-80117676D01*
X126285714Y-80117676D02*
X126190476Y-80212914D01*
X126190476Y-80212914D02*
X126095238Y-80260533D01*
D11*
X125261905Y-30107419D02*
X125261905Y-29107419D01*
X125261905Y-29107419D02*
X125500000Y-29107419D01*
X125500000Y-29107419D02*
X125642857Y-29155038D01*
X125642857Y-29155038D02*
X125738095Y-29250276D01*
X125738095Y-29250276D02*
X125785714Y-29345514D01*
X125785714Y-29345514D02*
X125833333Y-29535990D01*
X125833333Y-29535990D02*
X125833333Y-29678847D01*
X125833333Y-29678847D02*
X125785714Y-29869323D01*
X125785714Y-29869323D02*
X125738095Y-29964561D01*
X125738095Y-29964561D02*
X125642857Y-30059800D01*
X125642857Y-30059800D02*
X125500000Y-30107419D01*
X125500000Y-30107419D02*
X125261905Y-30107419D01*
X126785714Y-30107419D02*
X126214286Y-30107419D01*
X126500000Y-30107419D02*
X126500000Y-29107419D01*
X126500000Y-29107419D02*
X126404762Y-29250276D01*
X126404762Y-29250276D02*
X126309524Y-29345514D01*
X126309524Y-29345514D02*
X126214286Y-29393133D01*
D10*
X161916666Y-87284819D02*
X161916666Y-87999104D01*
X161916666Y-87999104D02*
X161869047Y-88141961D01*
X161869047Y-88141961D02*
X161773809Y-88237200D01*
X161773809Y-88237200D02*
X161630952Y-88284819D01*
X161630952Y-88284819D02*
X161535714Y-88284819D01*
X162297619Y-87284819D02*
X162916666Y-87284819D01*
X162916666Y-87284819D02*
X162583333Y-87665771D01*
X162583333Y-87665771D02*
X162726190Y-87665771D01*
X162726190Y-87665771D02*
X162821428Y-87713390D01*
X162821428Y-87713390D02*
X162869047Y-87761009D01*
X162869047Y-87761009D02*
X162916666Y-87856247D01*
X162916666Y-87856247D02*
X162916666Y-88094342D01*
X162916666Y-88094342D02*
X162869047Y-88189580D01*
X162869047Y-88189580D02*
X162821428Y-88237200D01*
X162821428Y-88237200D02*
X162726190Y-88284819D01*
X162726190Y-88284819D02*
X162440476Y-88284819D01*
X162440476Y-88284819D02*
X162345238Y-88237200D01*
X162345238Y-88237200D02*
X162297619Y-88189580D01*
X124666667Y-72407200D02*
X124809524Y-72454819D01*
X124809524Y-72454819D02*
X125047619Y-72454819D01*
X125047619Y-72454819D02*
X125142857Y-72407200D01*
X125142857Y-72407200D02*
X125190476Y-72359580D01*
X125190476Y-72359580D02*
X125238095Y-72264342D01*
X125238095Y-72264342D02*
X125238095Y-72169104D01*
X125238095Y-72169104D02*
X125190476Y-72073866D01*
X125190476Y-72073866D02*
X125142857Y-72026247D01*
X125142857Y-72026247D02*
X125047619Y-71978628D01*
X125047619Y-71978628D02*
X124857143Y-71931009D01*
X124857143Y-71931009D02*
X124761905Y-71883390D01*
X124761905Y-71883390D02*
X124714286Y-71835771D01*
X124714286Y-71835771D02*
X124666667Y-71740533D01*
X124666667Y-71740533D02*
X124666667Y-71645295D01*
X124666667Y-71645295D02*
X124714286Y-71550057D01*
X124714286Y-71550057D02*
X124761905Y-71502438D01*
X124761905Y-71502438D02*
X124857143Y-71454819D01*
X124857143Y-71454819D02*
X125095238Y-71454819D01*
X125095238Y-71454819D02*
X125238095Y-71502438D01*
X125571429Y-71454819D02*
X125809524Y-72454819D01*
X125809524Y-72454819D02*
X126000000Y-71740533D01*
X126000000Y-71740533D02*
X126190476Y-72454819D01*
X126190476Y-72454819D02*
X126428572Y-71454819D01*
X126761905Y-71550057D02*
X126809524Y-71502438D01*
X126809524Y-71502438D02*
X126904762Y-71454819D01*
X126904762Y-71454819D02*
X127142857Y-71454819D01*
X127142857Y-71454819D02*
X127238095Y-71502438D01*
X127238095Y-71502438D02*
X127285714Y-71550057D01*
X127285714Y-71550057D02*
X127333333Y-71645295D01*
X127333333Y-71645295D02*
X127333333Y-71740533D01*
X127333333Y-71740533D02*
X127285714Y-71883390D01*
X127285714Y-71883390D02*
X126714286Y-72454819D01*
X126714286Y-72454819D02*
X127333333Y-72454819D01*
D12*
X170107146Y-98885295D02*
X170107146Y-99604962D01*
X170107146Y-99604962D02*
X170149480Y-99689628D01*
X170149480Y-99689628D02*
X170191813Y-99731962D01*
X170191813Y-99731962D02*
X170276480Y-99774295D01*
X170276480Y-99774295D02*
X170445813Y-99774295D01*
X170445813Y-99774295D02*
X170530480Y-99731962D01*
X170530480Y-99731962D02*
X170572813Y-99689628D01*
X170572813Y-99689628D02*
X170615146Y-99604962D01*
X170615146Y-99604962D02*
X170615146Y-98885295D01*
X170953813Y-98885295D02*
X171504146Y-98885295D01*
X171504146Y-98885295D02*
X171207813Y-99223962D01*
X171207813Y-99223962D02*
X171334813Y-99223962D01*
X171334813Y-99223962D02*
X171419479Y-99266295D01*
X171419479Y-99266295D02*
X171461813Y-99308628D01*
X171461813Y-99308628D02*
X171504146Y-99393295D01*
X171504146Y-99393295D02*
X171504146Y-99604962D01*
X171504146Y-99604962D02*
X171461813Y-99689628D01*
X171461813Y-99689628D02*
X171419479Y-99731962D01*
X171419479Y-99731962D02*
X171334813Y-99774295D01*
X171334813Y-99774295D02*
X171080813Y-99774295D01*
X171080813Y-99774295D02*
X170996146Y-99731962D01*
X170996146Y-99731962D02*
X170953813Y-99689628D01*
D13*
X167786719Y-101294021D02*
X167873805Y-101323049D01*
X167873805Y-101323049D02*
X168018947Y-101323049D01*
X168018947Y-101323049D02*
X168077005Y-101294021D01*
X168077005Y-101294021D02*
X168106033Y-101264992D01*
X168106033Y-101264992D02*
X168135062Y-101206935D01*
X168135062Y-101206935D02*
X168135062Y-101148878D01*
X168135062Y-101148878D02*
X168106033Y-101090821D01*
X168106033Y-101090821D02*
X168077005Y-101061792D01*
X168077005Y-101061792D02*
X168018947Y-101032763D01*
X168018947Y-101032763D02*
X167902833Y-101003735D01*
X167902833Y-101003735D02*
X167844776Y-100974706D01*
X167844776Y-100974706D02*
X167815747Y-100945678D01*
X167815747Y-100945678D02*
X167786719Y-100887621D01*
X167786719Y-100887621D02*
X167786719Y-100829563D01*
X167786719Y-100829563D02*
X167815747Y-100771506D01*
X167815747Y-100771506D02*
X167844776Y-100742478D01*
X167844776Y-100742478D02*
X167902833Y-100713449D01*
X167902833Y-100713449D02*
X168047976Y-100713449D01*
X168047976Y-100713449D02*
X168135062Y-100742478D01*
X168628547Y-101294021D02*
X168570490Y-101323049D01*
X168570490Y-101323049D02*
X168454376Y-101323049D01*
X168454376Y-101323049D02*
X168396318Y-101294021D01*
X168396318Y-101294021D02*
X168367290Y-101235963D01*
X168367290Y-101235963D02*
X168367290Y-101003735D01*
X168367290Y-101003735D02*
X168396318Y-100945678D01*
X168396318Y-100945678D02*
X168454376Y-100916649D01*
X168454376Y-100916649D02*
X168570490Y-100916649D01*
X168570490Y-100916649D02*
X168628547Y-100945678D01*
X168628547Y-100945678D02*
X168657576Y-101003735D01*
X168657576Y-101003735D02*
X168657576Y-101061792D01*
X168657576Y-101061792D02*
X168367290Y-101119849D01*
X169151061Y-101294021D02*
X169093004Y-101323049D01*
X169093004Y-101323049D02*
X168976890Y-101323049D01*
X168976890Y-101323049D02*
X168918832Y-101294021D01*
X168918832Y-101294021D02*
X168889804Y-101235963D01*
X168889804Y-101235963D02*
X168889804Y-101003735D01*
X168889804Y-101003735D02*
X168918832Y-100945678D01*
X168918832Y-100945678D02*
X168976890Y-100916649D01*
X168976890Y-100916649D02*
X169093004Y-100916649D01*
X169093004Y-100916649D02*
X169151061Y-100945678D01*
X169151061Y-100945678D02*
X169180090Y-101003735D01*
X169180090Y-101003735D02*
X169180090Y-101061792D01*
X169180090Y-101061792D02*
X168889804Y-101119849D01*
X169673575Y-101294021D02*
X169615518Y-101323049D01*
X169615518Y-101323049D02*
X169499404Y-101323049D01*
X169499404Y-101323049D02*
X169441346Y-101294021D01*
X169441346Y-101294021D02*
X169412318Y-101235963D01*
X169412318Y-101235963D02*
X169412318Y-101003735D01*
X169412318Y-101003735D02*
X169441346Y-100945678D01*
X169441346Y-100945678D02*
X169499404Y-100916649D01*
X169499404Y-100916649D02*
X169615518Y-100916649D01*
X169615518Y-100916649D02*
X169673575Y-100945678D01*
X169673575Y-100945678D02*
X169702604Y-101003735D01*
X169702604Y-101003735D02*
X169702604Y-101061792D01*
X169702604Y-101061792D02*
X169412318Y-101119849D01*
X170225118Y-101323049D02*
X170225118Y-100713449D01*
X170225118Y-101294021D02*
X170167060Y-101323049D01*
X170167060Y-101323049D02*
X170050946Y-101323049D01*
X170050946Y-101323049D02*
X169992889Y-101294021D01*
X169992889Y-101294021D02*
X169963860Y-101264992D01*
X169963860Y-101264992D02*
X169934832Y-101206935D01*
X169934832Y-101206935D02*
X169934832Y-101032763D01*
X169934832Y-101032763D02*
X169963860Y-100974706D01*
X169963860Y-100974706D02*
X169992889Y-100945678D01*
X169992889Y-100945678D02*
X170050946Y-100916649D01*
X170050946Y-100916649D02*
X170167060Y-100916649D01*
X170167060Y-100916649D02*
X170225118Y-100945678D01*
X170776661Y-100916649D02*
X170776661Y-101323049D01*
X170515403Y-100916649D02*
X170515403Y-101235963D01*
X170515403Y-101235963D02*
X170544432Y-101294021D01*
X170544432Y-101294021D02*
X170602489Y-101323049D01*
X170602489Y-101323049D02*
X170689575Y-101323049D01*
X170689575Y-101323049D02*
X170747632Y-101294021D01*
X170747632Y-101294021D02*
X170776661Y-101264992D01*
X171066946Y-101323049D02*
X171066946Y-100916649D01*
X171066946Y-100713449D02*
X171037918Y-100742478D01*
X171037918Y-100742478D02*
X171066946Y-100771506D01*
X171066946Y-100771506D02*
X171095975Y-100742478D01*
X171095975Y-100742478D02*
X171066946Y-100713449D01*
X171066946Y-100713449D02*
X171066946Y-100771506D01*
X171357232Y-100916649D02*
X171357232Y-101323049D01*
X171357232Y-100974706D02*
X171386261Y-100945678D01*
X171386261Y-100945678D02*
X171444318Y-100916649D01*
X171444318Y-100916649D02*
X171531404Y-100916649D01*
X171531404Y-100916649D02*
X171589461Y-100945678D01*
X171589461Y-100945678D02*
X171618490Y-101003735D01*
X171618490Y-101003735D02*
X171618490Y-101323049D01*
X171995861Y-101323049D02*
X171937804Y-101294021D01*
X171937804Y-101294021D02*
X171908775Y-101264992D01*
X171908775Y-101264992D02*
X171879747Y-101206935D01*
X171879747Y-101206935D02*
X171879747Y-101032763D01*
X171879747Y-101032763D02*
X171908775Y-100974706D01*
X171908775Y-100974706D02*
X171937804Y-100945678D01*
X171937804Y-100945678D02*
X171995861Y-100916649D01*
X171995861Y-100916649D02*
X172082947Y-100916649D01*
X172082947Y-100916649D02*
X172141004Y-100945678D01*
X172141004Y-100945678D02*
X172170033Y-100974706D01*
X172170033Y-100974706D02*
X172199061Y-101032763D01*
X172199061Y-101032763D02*
X172199061Y-101206935D01*
X172199061Y-101206935D02*
X172170033Y-101264992D01*
X172170033Y-101264992D02*
X172141004Y-101294021D01*
X172141004Y-101294021D02*
X172082947Y-101323049D01*
X172082947Y-101323049D02*
X171995861Y-101323049D01*
X172402261Y-100713449D02*
X172808661Y-101323049D01*
X172808661Y-100713449D02*
X172402261Y-101323049D01*
X173040889Y-101323049D02*
X173040889Y-100713449D01*
X173302147Y-101148878D02*
X173592433Y-101148878D01*
X173244090Y-101323049D02*
X173447290Y-100713449D01*
X173447290Y-100713449D02*
X173650490Y-101323049D01*
X173969804Y-100713449D02*
X174085918Y-100713449D01*
X174085918Y-100713449D02*
X174143975Y-100742478D01*
X174143975Y-100742478D02*
X174202032Y-100800535D01*
X174202032Y-100800535D02*
X174231061Y-100916649D01*
X174231061Y-100916649D02*
X174231061Y-101119849D01*
X174231061Y-101119849D02*
X174202032Y-101235963D01*
X174202032Y-101235963D02*
X174143975Y-101294021D01*
X174143975Y-101294021D02*
X174085918Y-101323049D01*
X174085918Y-101323049D02*
X173969804Y-101323049D01*
X173969804Y-101323049D02*
X173911747Y-101294021D01*
X173911747Y-101294021D02*
X173853689Y-101235963D01*
X173853689Y-101235963D02*
X173824661Y-101119849D01*
X173824661Y-101119849D02*
X173824661Y-100916649D01*
X173824661Y-100916649D02*
X173853689Y-100800535D01*
X173853689Y-100800535D02*
X173911747Y-100742478D01*
X173911747Y-100742478D02*
X173969804Y-100713449D01*
D10*
X179583333Y-88284819D02*
X179250000Y-87808628D01*
X179011905Y-88284819D02*
X179011905Y-87284819D01*
X179011905Y-87284819D02*
X179392857Y-87284819D01*
X179392857Y-87284819D02*
X179488095Y-87332438D01*
X179488095Y-87332438D02*
X179535714Y-87380057D01*
X179535714Y-87380057D02*
X179583333Y-87475295D01*
X179583333Y-87475295D02*
X179583333Y-87618152D01*
X179583333Y-87618152D02*
X179535714Y-87713390D01*
X179535714Y-87713390D02*
X179488095Y-87761009D01*
X179488095Y-87761009D02*
X179392857Y-87808628D01*
X179392857Y-87808628D02*
X179011905Y-87808628D01*
X180535714Y-88284819D02*
X179964286Y-88284819D01*
X180250000Y-88284819D02*
X180250000Y-87284819D01*
X180250000Y-87284819D02*
X180154762Y-87427676D01*
X180154762Y-87427676D02*
X180059524Y-87522914D01*
X180059524Y-87522914D02*
X179964286Y-87570533D01*
D12*
X125107146Y-98885295D02*
X125107146Y-99604962D01*
X125107146Y-99604962D02*
X125149480Y-99689628D01*
X125149480Y-99689628D02*
X125191813Y-99731962D01*
X125191813Y-99731962D02*
X125276480Y-99774295D01*
X125276480Y-99774295D02*
X125445813Y-99774295D01*
X125445813Y-99774295D02*
X125530480Y-99731962D01*
X125530480Y-99731962D02*
X125572813Y-99689628D01*
X125572813Y-99689628D02*
X125615146Y-99604962D01*
X125615146Y-99604962D02*
X125615146Y-98885295D01*
X125953813Y-98885295D02*
X126504146Y-98885295D01*
X126504146Y-98885295D02*
X126207813Y-99223962D01*
X126207813Y-99223962D02*
X126334813Y-99223962D01*
X126334813Y-99223962D02*
X126419479Y-99266295D01*
X126419479Y-99266295D02*
X126461813Y-99308628D01*
X126461813Y-99308628D02*
X126504146Y-99393295D01*
X126504146Y-99393295D02*
X126504146Y-99604962D01*
X126504146Y-99604962D02*
X126461813Y-99689628D01*
X126461813Y-99689628D02*
X126419479Y-99731962D01*
X126419479Y-99731962D02*
X126334813Y-99774295D01*
X126334813Y-99774295D02*
X126080813Y-99774295D01*
X126080813Y-99774295D02*
X125996146Y-99731962D01*
X125996146Y-99731962D02*
X125953813Y-99689628D01*
D13*
X122786719Y-101294021D02*
X122873805Y-101323049D01*
X122873805Y-101323049D02*
X123018947Y-101323049D01*
X123018947Y-101323049D02*
X123077005Y-101294021D01*
X123077005Y-101294021D02*
X123106033Y-101264992D01*
X123106033Y-101264992D02*
X123135062Y-101206935D01*
X123135062Y-101206935D02*
X123135062Y-101148878D01*
X123135062Y-101148878D02*
X123106033Y-101090821D01*
X123106033Y-101090821D02*
X123077005Y-101061792D01*
X123077005Y-101061792D02*
X123018947Y-101032763D01*
X123018947Y-101032763D02*
X122902833Y-101003735D01*
X122902833Y-101003735D02*
X122844776Y-100974706D01*
X122844776Y-100974706D02*
X122815747Y-100945678D01*
X122815747Y-100945678D02*
X122786719Y-100887621D01*
X122786719Y-100887621D02*
X122786719Y-100829563D01*
X122786719Y-100829563D02*
X122815747Y-100771506D01*
X122815747Y-100771506D02*
X122844776Y-100742478D01*
X122844776Y-100742478D02*
X122902833Y-100713449D01*
X122902833Y-100713449D02*
X123047976Y-100713449D01*
X123047976Y-100713449D02*
X123135062Y-100742478D01*
X123628547Y-101294021D02*
X123570490Y-101323049D01*
X123570490Y-101323049D02*
X123454376Y-101323049D01*
X123454376Y-101323049D02*
X123396318Y-101294021D01*
X123396318Y-101294021D02*
X123367290Y-101235963D01*
X123367290Y-101235963D02*
X123367290Y-101003735D01*
X123367290Y-101003735D02*
X123396318Y-100945678D01*
X123396318Y-100945678D02*
X123454376Y-100916649D01*
X123454376Y-100916649D02*
X123570490Y-100916649D01*
X123570490Y-100916649D02*
X123628547Y-100945678D01*
X123628547Y-100945678D02*
X123657576Y-101003735D01*
X123657576Y-101003735D02*
X123657576Y-101061792D01*
X123657576Y-101061792D02*
X123367290Y-101119849D01*
X124151061Y-101294021D02*
X124093004Y-101323049D01*
X124093004Y-101323049D02*
X123976890Y-101323049D01*
X123976890Y-101323049D02*
X123918832Y-101294021D01*
X123918832Y-101294021D02*
X123889804Y-101235963D01*
X123889804Y-101235963D02*
X123889804Y-101003735D01*
X123889804Y-101003735D02*
X123918832Y-100945678D01*
X123918832Y-100945678D02*
X123976890Y-100916649D01*
X123976890Y-100916649D02*
X124093004Y-100916649D01*
X124093004Y-100916649D02*
X124151061Y-100945678D01*
X124151061Y-100945678D02*
X124180090Y-101003735D01*
X124180090Y-101003735D02*
X124180090Y-101061792D01*
X124180090Y-101061792D02*
X123889804Y-101119849D01*
X124673575Y-101294021D02*
X124615518Y-101323049D01*
X124615518Y-101323049D02*
X124499404Y-101323049D01*
X124499404Y-101323049D02*
X124441346Y-101294021D01*
X124441346Y-101294021D02*
X124412318Y-101235963D01*
X124412318Y-101235963D02*
X124412318Y-101003735D01*
X124412318Y-101003735D02*
X124441346Y-100945678D01*
X124441346Y-100945678D02*
X124499404Y-100916649D01*
X124499404Y-100916649D02*
X124615518Y-100916649D01*
X124615518Y-100916649D02*
X124673575Y-100945678D01*
X124673575Y-100945678D02*
X124702604Y-101003735D01*
X124702604Y-101003735D02*
X124702604Y-101061792D01*
X124702604Y-101061792D02*
X124412318Y-101119849D01*
X125225118Y-101323049D02*
X125225118Y-100713449D01*
X125225118Y-101294021D02*
X125167060Y-101323049D01*
X125167060Y-101323049D02*
X125050946Y-101323049D01*
X125050946Y-101323049D02*
X124992889Y-101294021D01*
X124992889Y-101294021D02*
X124963860Y-101264992D01*
X124963860Y-101264992D02*
X124934832Y-101206935D01*
X124934832Y-101206935D02*
X124934832Y-101032763D01*
X124934832Y-101032763D02*
X124963860Y-100974706D01*
X124963860Y-100974706D02*
X124992889Y-100945678D01*
X124992889Y-100945678D02*
X125050946Y-100916649D01*
X125050946Y-100916649D02*
X125167060Y-100916649D01*
X125167060Y-100916649D02*
X125225118Y-100945678D01*
X125776661Y-100916649D02*
X125776661Y-101323049D01*
X125515403Y-100916649D02*
X125515403Y-101235963D01*
X125515403Y-101235963D02*
X125544432Y-101294021D01*
X125544432Y-101294021D02*
X125602489Y-101323049D01*
X125602489Y-101323049D02*
X125689575Y-101323049D01*
X125689575Y-101323049D02*
X125747632Y-101294021D01*
X125747632Y-101294021D02*
X125776661Y-101264992D01*
X126066946Y-101323049D02*
X126066946Y-100916649D01*
X126066946Y-100713449D02*
X126037918Y-100742478D01*
X126037918Y-100742478D02*
X126066946Y-100771506D01*
X126066946Y-100771506D02*
X126095975Y-100742478D01*
X126095975Y-100742478D02*
X126066946Y-100713449D01*
X126066946Y-100713449D02*
X126066946Y-100771506D01*
X126357232Y-100916649D02*
X126357232Y-101323049D01*
X126357232Y-100974706D02*
X126386261Y-100945678D01*
X126386261Y-100945678D02*
X126444318Y-100916649D01*
X126444318Y-100916649D02*
X126531404Y-100916649D01*
X126531404Y-100916649D02*
X126589461Y-100945678D01*
X126589461Y-100945678D02*
X126618490Y-101003735D01*
X126618490Y-101003735D02*
X126618490Y-101323049D01*
X126995861Y-101323049D02*
X126937804Y-101294021D01*
X126937804Y-101294021D02*
X126908775Y-101264992D01*
X126908775Y-101264992D02*
X126879747Y-101206935D01*
X126879747Y-101206935D02*
X126879747Y-101032763D01*
X126879747Y-101032763D02*
X126908775Y-100974706D01*
X126908775Y-100974706D02*
X126937804Y-100945678D01*
X126937804Y-100945678D02*
X126995861Y-100916649D01*
X126995861Y-100916649D02*
X127082947Y-100916649D01*
X127082947Y-100916649D02*
X127141004Y-100945678D01*
X127141004Y-100945678D02*
X127170033Y-100974706D01*
X127170033Y-100974706D02*
X127199061Y-101032763D01*
X127199061Y-101032763D02*
X127199061Y-101206935D01*
X127199061Y-101206935D02*
X127170033Y-101264992D01*
X127170033Y-101264992D02*
X127141004Y-101294021D01*
X127141004Y-101294021D02*
X127082947Y-101323049D01*
X127082947Y-101323049D02*
X126995861Y-101323049D01*
X127402261Y-100713449D02*
X127808661Y-101323049D01*
X127808661Y-100713449D02*
X127402261Y-101323049D01*
X128040889Y-101323049D02*
X128040889Y-100713449D01*
X128302147Y-101148878D02*
X128592433Y-101148878D01*
X128244090Y-101323049D02*
X128447290Y-100713449D01*
X128447290Y-100713449D02*
X128650490Y-101323049D01*
X128969804Y-100713449D02*
X129085918Y-100713449D01*
X129085918Y-100713449D02*
X129143975Y-100742478D01*
X129143975Y-100742478D02*
X129202032Y-100800535D01*
X129202032Y-100800535D02*
X129231061Y-100916649D01*
X129231061Y-100916649D02*
X129231061Y-101119849D01*
X129231061Y-101119849D02*
X129202032Y-101235963D01*
X129202032Y-101235963D02*
X129143975Y-101294021D01*
X129143975Y-101294021D02*
X129085918Y-101323049D01*
X129085918Y-101323049D02*
X128969804Y-101323049D01*
X128969804Y-101323049D02*
X128911747Y-101294021D01*
X128911747Y-101294021D02*
X128853689Y-101235963D01*
X128853689Y-101235963D02*
X128824661Y-101119849D01*
X128824661Y-101119849D02*
X128824661Y-100916649D01*
X128824661Y-100916649D02*
X128853689Y-100800535D01*
X128853689Y-100800535D02*
X128911747Y-100742478D01*
X128911747Y-100742478D02*
X128969804Y-100713449D01*
D10*
X157666667Y-72407200D02*
X157809524Y-72454819D01*
X157809524Y-72454819D02*
X158047619Y-72454819D01*
X158047619Y-72454819D02*
X158142857Y-72407200D01*
X158142857Y-72407200D02*
X158190476Y-72359580D01*
X158190476Y-72359580D02*
X158238095Y-72264342D01*
X158238095Y-72264342D02*
X158238095Y-72169104D01*
X158238095Y-72169104D02*
X158190476Y-72073866D01*
X158190476Y-72073866D02*
X158142857Y-72026247D01*
X158142857Y-72026247D02*
X158047619Y-71978628D01*
X158047619Y-71978628D02*
X157857143Y-71931009D01*
X157857143Y-71931009D02*
X157761905Y-71883390D01*
X157761905Y-71883390D02*
X157714286Y-71835771D01*
X157714286Y-71835771D02*
X157666667Y-71740533D01*
X157666667Y-71740533D02*
X157666667Y-71645295D01*
X157666667Y-71645295D02*
X157714286Y-71550057D01*
X157714286Y-71550057D02*
X157761905Y-71502438D01*
X157761905Y-71502438D02*
X157857143Y-71454819D01*
X157857143Y-71454819D02*
X158095238Y-71454819D01*
X158095238Y-71454819D02*
X158238095Y-71502438D01*
X158571429Y-71454819D02*
X158809524Y-72454819D01*
X158809524Y-72454819D02*
X159000000Y-71740533D01*
X159000000Y-71740533D02*
X159190476Y-72454819D01*
X159190476Y-72454819D02*
X159428572Y-71454819D01*
X160333333Y-72454819D02*
X159761905Y-72454819D01*
X160047619Y-72454819D02*
X160047619Y-71454819D01*
X160047619Y-71454819D02*
X159952381Y-71597676D01*
X159952381Y-71597676D02*
X159857143Y-71692914D01*
X159857143Y-71692914D02*
X159761905Y-71740533D01*
X169666667Y-72407200D02*
X169809524Y-72454819D01*
X169809524Y-72454819D02*
X170047619Y-72454819D01*
X170047619Y-72454819D02*
X170142857Y-72407200D01*
X170142857Y-72407200D02*
X170190476Y-72359580D01*
X170190476Y-72359580D02*
X170238095Y-72264342D01*
X170238095Y-72264342D02*
X170238095Y-72169104D01*
X170238095Y-72169104D02*
X170190476Y-72073866D01*
X170190476Y-72073866D02*
X170142857Y-72026247D01*
X170142857Y-72026247D02*
X170047619Y-71978628D01*
X170047619Y-71978628D02*
X169857143Y-71931009D01*
X169857143Y-71931009D02*
X169761905Y-71883390D01*
X169761905Y-71883390D02*
X169714286Y-71835771D01*
X169714286Y-71835771D02*
X169666667Y-71740533D01*
X169666667Y-71740533D02*
X169666667Y-71645295D01*
X169666667Y-71645295D02*
X169714286Y-71550057D01*
X169714286Y-71550057D02*
X169761905Y-71502438D01*
X169761905Y-71502438D02*
X169857143Y-71454819D01*
X169857143Y-71454819D02*
X170095238Y-71454819D01*
X170095238Y-71454819D02*
X170238095Y-71502438D01*
X170571429Y-71454819D02*
X170809524Y-72454819D01*
X170809524Y-72454819D02*
X171000000Y-71740533D01*
X171000000Y-71740533D02*
X171190476Y-72454819D01*
X171190476Y-72454819D02*
X171428572Y-71454819D01*
X171761905Y-71550057D02*
X171809524Y-71502438D01*
X171809524Y-71502438D02*
X171904762Y-71454819D01*
X171904762Y-71454819D02*
X172142857Y-71454819D01*
X172142857Y-71454819D02*
X172238095Y-71502438D01*
X172238095Y-71502438D02*
X172285714Y-71550057D01*
X172285714Y-71550057D02*
X172333333Y-71645295D01*
X172333333Y-71645295D02*
X172333333Y-71740533D01*
X172333333Y-71740533D02*
X172285714Y-71883390D01*
X172285714Y-71883390D02*
X171714286Y-72454819D01*
X171714286Y-72454819D02*
X172333333Y-72454819D01*
X131549819Y-86186904D02*
X132359342Y-86186904D01*
X132359342Y-86186904D02*
X132454580Y-86139285D01*
X132454580Y-86139285D02*
X132502200Y-86091666D01*
X132502200Y-86091666D02*
X132549819Y-85996428D01*
X132549819Y-85996428D02*
X132549819Y-85805952D01*
X132549819Y-85805952D02*
X132502200Y-85710714D01*
X132502200Y-85710714D02*
X132454580Y-85663095D01*
X132454580Y-85663095D02*
X132359342Y-85615476D01*
X132359342Y-85615476D02*
X131549819Y-85615476D01*
X131645057Y-85186904D02*
X131597438Y-85139285D01*
X131597438Y-85139285D02*
X131549819Y-85044047D01*
X131549819Y-85044047D02*
X131549819Y-84805952D01*
X131549819Y-84805952D02*
X131597438Y-84710714D01*
X131597438Y-84710714D02*
X131645057Y-84663095D01*
X131645057Y-84663095D02*
X131740295Y-84615476D01*
X131740295Y-84615476D02*
X131835533Y-84615476D01*
X131835533Y-84615476D02*
X131978390Y-84663095D01*
X131978390Y-84663095D02*
X132549819Y-85234523D01*
X132549819Y-85234523D02*
X132549819Y-84615476D01*
X116916666Y-87284819D02*
X116916666Y-87999104D01*
X116916666Y-87999104D02*
X116869047Y-88141961D01*
X116869047Y-88141961D02*
X116773809Y-88237200D01*
X116773809Y-88237200D02*
X116630952Y-88284819D01*
X116630952Y-88284819D02*
X116535714Y-88284819D01*
X117297619Y-87284819D02*
X117916666Y-87284819D01*
X117916666Y-87284819D02*
X117583333Y-87665771D01*
X117583333Y-87665771D02*
X117726190Y-87665771D01*
X117726190Y-87665771D02*
X117821428Y-87713390D01*
X117821428Y-87713390D02*
X117869047Y-87761009D01*
X117869047Y-87761009D02*
X117916666Y-87856247D01*
X117916666Y-87856247D02*
X117916666Y-88094342D01*
X117916666Y-88094342D02*
X117869047Y-88189580D01*
X117869047Y-88189580D02*
X117821428Y-88237200D01*
X117821428Y-88237200D02*
X117726190Y-88284819D01*
X117726190Y-88284819D02*
X117440476Y-88284819D01*
X117440476Y-88284819D02*
X117345238Y-88237200D01*
X117345238Y-88237200D02*
X117297619Y-88189580D01*
X134583333Y-88284819D02*
X134250000Y-87808628D01*
X134011905Y-88284819D02*
X134011905Y-87284819D01*
X134011905Y-87284819D02*
X134392857Y-87284819D01*
X134392857Y-87284819D02*
X134488095Y-87332438D01*
X134488095Y-87332438D02*
X134535714Y-87380057D01*
X134535714Y-87380057D02*
X134583333Y-87475295D01*
X134583333Y-87475295D02*
X134583333Y-87618152D01*
X134583333Y-87618152D02*
X134535714Y-87713390D01*
X134535714Y-87713390D02*
X134488095Y-87761009D01*
X134488095Y-87761009D02*
X134392857Y-87808628D01*
X134392857Y-87808628D02*
X134011905Y-87808628D01*
X135535714Y-88284819D02*
X134964286Y-88284819D01*
X135250000Y-88284819D02*
X135250000Y-87284819D01*
X135250000Y-87284819D02*
X135154762Y-87427676D01*
X135154762Y-87427676D02*
X135059524Y-87522914D01*
X135059524Y-87522914D02*
X134964286Y-87570533D01*
X136666667Y-72407200D02*
X136809524Y-72454819D01*
X136809524Y-72454819D02*
X137047619Y-72454819D01*
X137047619Y-72454819D02*
X137142857Y-72407200D01*
X137142857Y-72407200D02*
X137190476Y-72359580D01*
X137190476Y-72359580D02*
X137238095Y-72264342D01*
X137238095Y-72264342D02*
X137238095Y-72169104D01*
X137238095Y-72169104D02*
X137190476Y-72073866D01*
X137190476Y-72073866D02*
X137142857Y-72026247D01*
X137142857Y-72026247D02*
X137047619Y-71978628D01*
X137047619Y-71978628D02*
X136857143Y-71931009D01*
X136857143Y-71931009D02*
X136761905Y-71883390D01*
X136761905Y-71883390D02*
X136714286Y-71835771D01*
X136714286Y-71835771D02*
X136666667Y-71740533D01*
X136666667Y-71740533D02*
X136666667Y-71645295D01*
X136666667Y-71645295D02*
X136714286Y-71550057D01*
X136714286Y-71550057D02*
X136761905Y-71502438D01*
X136761905Y-71502438D02*
X136857143Y-71454819D01*
X136857143Y-71454819D02*
X137095238Y-71454819D01*
X137095238Y-71454819D02*
X137238095Y-71502438D01*
X137571429Y-71454819D02*
X137809524Y-72454819D01*
X137809524Y-72454819D02*
X138000000Y-71740533D01*
X138000000Y-71740533D02*
X138190476Y-72454819D01*
X138190476Y-72454819D02*
X138428572Y-71454819D01*
X138714286Y-71454819D02*
X139333333Y-71454819D01*
X139333333Y-71454819D02*
X139000000Y-71835771D01*
X139000000Y-71835771D02*
X139142857Y-71835771D01*
X139142857Y-71835771D02*
X139238095Y-71883390D01*
X139238095Y-71883390D02*
X139285714Y-71931009D01*
X139285714Y-71931009D02*
X139333333Y-72026247D01*
X139333333Y-72026247D02*
X139333333Y-72264342D01*
X139333333Y-72264342D02*
X139285714Y-72359580D01*
X139285714Y-72359580D02*
X139238095Y-72407200D01*
X139238095Y-72407200D02*
X139142857Y-72454819D01*
X139142857Y-72454819D02*
X138857143Y-72454819D01*
X138857143Y-72454819D02*
X138761905Y-72407200D01*
X138761905Y-72407200D02*
X138714286Y-72359580D01*
D11*
%TO.C,mouse-bite-2mm-slot*%
X110000000Y-37000000D02*
G75*
G03*
X108000000Y-37000000I-1000000J0D01*
G01*
X108000000Y-33000000D02*
G75*
G03*
X110000000Y-33000000I1000000J0D01*
G01*
%TO.C,G\u002A\u002A\u002A*%
G36*
X166968254Y-38842381D02*
G01*
X166968254Y-44890000D01*
X164952381Y-44890000D01*
X162936508Y-44890000D01*
X162936508Y-42874127D01*
X162936508Y-40858254D01*
X160920635Y-40858254D01*
X158904762Y-40858254D01*
X158904762Y-38842381D01*
X158904762Y-36826508D01*
X160920635Y-36826508D01*
X162936508Y-36826508D01*
X162936508Y-34810635D01*
X162936508Y-32794762D01*
X164952381Y-32794762D01*
X166968254Y-32794762D01*
X166968254Y-38842381D01*
G37*
G36*
X179063492Y-34810635D02*
G01*
X179063492Y-36826508D01*
X181079365Y-36826508D01*
X183095238Y-36826508D01*
X183095238Y-38842381D01*
X183095238Y-40858254D01*
X181079365Y-40858254D01*
X179063492Y-40858254D01*
X179063492Y-42874127D01*
X179063492Y-44890000D01*
X177047619Y-44890000D01*
X175031746Y-44890000D01*
X175031746Y-38842381D01*
X175031746Y-32794762D01*
X177047619Y-32794762D01*
X179063492Y-32794762D01*
X179063492Y-34810635D01*
G37*
G36*
X166968254Y-50937619D02*
G01*
X166968254Y-52953492D01*
X171000000Y-52953492D01*
X175031746Y-52953492D01*
X175031746Y-50937619D01*
X175031746Y-48921746D01*
X177047619Y-48921746D01*
X179063492Y-48921746D01*
X179063492Y-50937619D01*
X179063492Y-52953492D01*
X177047619Y-52953492D01*
X175031746Y-52953492D01*
X175031746Y-54969365D01*
X175031746Y-56985238D01*
X171000000Y-56985238D01*
X166968254Y-56985238D01*
X166968254Y-54969365D01*
X166968254Y-52953492D01*
X164952381Y-52953492D01*
X162936508Y-52953492D01*
X162936508Y-50937619D01*
X162936508Y-48921746D01*
X164952381Y-48921746D01*
X166968254Y-48921746D01*
X166968254Y-50937619D01*
G37*
D14*
%TO.C,J1*%
X160820000Y-80520000D02*
X160820000Y-79250000D01*
X162090000Y-80520000D02*
X160820000Y-80520000D01*
%TO.C,U2*%
X176255000Y-85425000D02*
X176255000Y-81975000D01*
X176255000Y-85425000D02*
X176255000Y-87375000D01*
X166135000Y-85425000D02*
X166135000Y-83475000D01*
X166135000Y-85425000D02*
X166135000Y-87375000D01*
%TO.C,D1*%
X155000000Y-28890000D02*
X155000000Y-60890000D01*
X155000000Y-60890000D02*
X187000000Y-60890000D01*
X187000000Y-28890000D02*
X155000000Y-28890000D01*
X187000000Y-60890000D02*
X187000000Y-28890000D01*
%TO.C,SW3*%
X182250000Y-70500000D02*
X183750000Y-70500000D01*
X186250000Y-69250000D02*
X186250000Y-64750000D01*
X179750000Y-64750000D02*
X179750000Y-69250000D01*
X183750000Y-63500000D02*
X182250000Y-63500000D01*
%TO.C,G\u002A\u002A\u002A*%
G36*
X121968254Y-38842381D02*
G01*
X121968254Y-44890000D01*
X119952381Y-44890000D01*
X117936508Y-44890000D01*
X117936508Y-42874127D01*
X117936508Y-40858254D01*
X115920635Y-40858254D01*
X113904762Y-40858254D01*
X113904762Y-38842381D01*
X113904762Y-36826508D01*
X115920635Y-36826508D01*
X117936508Y-36826508D01*
X117936508Y-34810635D01*
X117936508Y-32794762D01*
X119952381Y-32794762D01*
X121968254Y-32794762D01*
X121968254Y-38842381D01*
G37*
G36*
X134063492Y-34810635D02*
G01*
X134063492Y-36826508D01*
X136079365Y-36826508D01*
X138095238Y-36826508D01*
X138095238Y-38842381D01*
X138095238Y-40858254D01*
X136079365Y-40858254D01*
X134063492Y-40858254D01*
X134063492Y-42874127D01*
X134063492Y-44890000D01*
X132047619Y-44890000D01*
X130031746Y-44890000D01*
X130031746Y-38842381D01*
X130031746Y-32794762D01*
X132047619Y-32794762D01*
X134063492Y-32794762D01*
X134063492Y-34810635D01*
G37*
G36*
X121968254Y-50937619D02*
G01*
X121968254Y-52953492D01*
X126000000Y-52953492D01*
X130031746Y-52953492D01*
X130031746Y-50937619D01*
X130031746Y-48921746D01*
X132047619Y-48921746D01*
X134063492Y-48921746D01*
X134063492Y-50937619D01*
X134063492Y-52953492D01*
X132047619Y-52953492D01*
X130031746Y-52953492D01*
X130031746Y-54969365D01*
X130031746Y-56985238D01*
X126000000Y-56985238D01*
X121968254Y-56985238D01*
X121968254Y-54969365D01*
X121968254Y-52953492D01*
X119952381Y-52953492D01*
X117936508Y-52953492D01*
X117936508Y-50937619D01*
X117936508Y-48921746D01*
X119952381Y-48921746D01*
X121968254Y-48921746D01*
X121968254Y-50937619D01*
G37*
D11*
%TO.C,mouse-bite-2mm-slot*%
X181500000Y-73000000D02*
G75*
G03*
X181500000Y-75000000I0J-1000000D01*
G01*
X177500000Y-75000000D02*
G75*
G03*
X177500000Y-73000000I0J1000000D01*
G01*
X119500000Y-73000000D02*
G75*
G03*
X119500000Y-75000000I0J-1000000D01*
G01*
X115500000Y-75000000D02*
G75*
G03*
X115500000Y-73000000I0J1000000D01*
G01*
X144000000Y-69000000D02*
G75*
G03*
X142000000Y-69000000I-1000000J0D01*
G01*
X142000000Y-65000000D02*
G75*
G03*
X144000000Y-65000000I1000000J0D01*
G01*
X164500000Y-73000000D02*
G75*
G03*
X164500000Y-75000000I0J-1000000D01*
G01*
X160500000Y-75000000D02*
G75*
G03*
X160500000Y-73000000I0J1000000D01*
G01*
D14*
%TO.C,SW1*%
X113250000Y-70500000D02*
X114750000Y-70500000D01*
X117250000Y-69250000D02*
X117250000Y-64750000D01*
X110750000Y-64750000D02*
X110750000Y-69250000D01*
X114750000Y-63500000D02*
X113250000Y-63500000D01*
%TO.C,J1*%
X115820000Y-80520000D02*
X115820000Y-79250000D01*
X117090000Y-80520000D02*
X115820000Y-80520000D01*
%TO.C,D1*%
X110000000Y-28890000D02*
X110000000Y-60890000D01*
X110000000Y-60890000D02*
X142000000Y-60890000D01*
X142000000Y-28890000D02*
X110000000Y-28890000D01*
X142000000Y-60890000D02*
X142000000Y-28890000D01*
%TO.C,J3*%
X163580000Y-86830000D02*
X162250000Y-86830000D01*
X163580000Y-85500000D02*
X163580000Y-86830000D01*
X163580000Y-84230000D02*
X163580000Y-81630000D01*
X163580000Y-84230000D02*
X160920000Y-84230000D01*
X163580000Y-81630000D02*
X160920000Y-81630000D01*
X160920000Y-84230000D02*
X160920000Y-81630000D01*
D11*
%TO.C,mouse-bite-2mm-slot*%
X189000000Y-69000000D02*
G75*
G03*
X187000000Y-69000000I-1000000J0D01*
G01*
X187000000Y-65000000D02*
G75*
G03*
X189000000Y-65000000I1000000J0D01*
G01*
D14*
%TO.C,SW2*%
X125250000Y-70500000D02*
X126750000Y-70500000D01*
X129250000Y-69250000D02*
X129250000Y-64750000D01*
X122750000Y-64750000D02*
X122750000Y-69250000D01*
X126750000Y-63500000D02*
X125250000Y-63500000D01*
D11*
%TO.C,mouse-bite-2mm-slot*%
X110000000Y-69000000D02*
G75*
G03*
X108000000Y-69000000I-1000000J0D01*
G01*
X108000000Y-65000000D02*
G75*
G03*
X110000000Y-65000000I1000000J0D01*
G01*
D15*
%TO.C,U3*%
X179898890Y-110577620D02*
X179898890Y-90250000D01*
X179898890Y-90250000D02*
X162101110Y-90250000D01*
X179228330Y-111248180D02*
X179898890Y-110577620D01*
D16*
X176215890Y-111332000D02*
X174437890Y-111332000D01*
X176215890Y-108665000D02*
X176215890Y-111332000D01*
X176215890Y-108665000D02*
X174437890Y-108665000D01*
X176215890Y-107268000D02*
X174437890Y-107268000D01*
X176215890Y-104598460D02*
X176215890Y-107268000D01*
X176215890Y-104598460D02*
X174437890Y-104598460D01*
D15*
X175504690Y-105319820D02*
X175504690Y-112673120D01*
X175499610Y-112673120D02*
X166505470Y-112673120D01*
D16*
X174437890Y-108665000D02*
X174437890Y-111332000D01*
X174437890Y-104598460D02*
X174437890Y-107268000D01*
X173548890Y-110570000D02*
X168468890Y-110570000D01*
X173548890Y-108030000D02*
X173548890Y-110570000D01*
X173548890Y-108030000D02*
X168468890Y-108030000D01*
X173548890Y-93425000D02*
X167833890Y-93425000D01*
X173548890Y-90885000D02*
X173548890Y-93425000D01*
X173548890Y-90885000D02*
X167833890Y-90885000D01*
X168468890Y-108030000D02*
X168468890Y-110570000D01*
X167833890Y-90885000D02*
X167833890Y-93425000D01*
X167579890Y-111332000D02*
X165801890Y-111332000D01*
X167579890Y-108665000D02*
X167579890Y-111332000D01*
X167579890Y-108665000D02*
X165801890Y-108665000D01*
X167579890Y-107268000D02*
X165801890Y-107268000D01*
X167579890Y-104598460D02*
X167579890Y-107268000D01*
X167579890Y-104598460D02*
X165801890Y-104598460D01*
D15*
X166505470Y-112673120D02*
X166505470Y-105319820D01*
X166505470Y-105319820D02*
X175504690Y-105319820D01*
D16*
X165801890Y-108665000D02*
X165801890Y-111332000D01*
X165801890Y-104598460D02*
X165801890Y-107268000D01*
D15*
X162101110Y-111248180D02*
X179228330Y-111248180D01*
X162101110Y-90250000D02*
X162101110Y-111248180D01*
D17*
X180914890Y-108411000D02*
G75*
G03*
X180914890Y-108411000I-127000J0D01*
G01*
D14*
%TO.C,R1*%
X181080000Y-86830000D02*
X179750000Y-86830000D01*
X181080000Y-85500000D02*
X181080000Y-86830000D01*
X181080000Y-84230000D02*
X181080000Y-81630000D01*
X181080000Y-84230000D02*
X178420000Y-84230000D01*
X181080000Y-81630000D02*
X178420000Y-81630000D01*
X178420000Y-84230000D02*
X178420000Y-81630000D01*
D11*
%TO.C,mouse-bite-2mm-slot*%
X144000000Y-37000000D02*
G75*
G03*
X142000000Y-37000000I-1000000J0D01*
G01*
X142000000Y-33000000D02*
G75*
G03*
X144000000Y-33000000I1000000J0D01*
G01*
D15*
%TO.C,U3*%
X134898890Y-110577620D02*
X134898890Y-90250000D01*
X134898890Y-90250000D02*
X117101110Y-90250000D01*
X134228330Y-111248180D02*
X134898890Y-110577620D01*
D16*
X131215890Y-111332000D02*
X129437890Y-111332000D01*
X131215890Y-108665000D02*
X131215890Y-111332000D01*
X131215890Y-108665000D02*
X129437890Y-108665000D01*
X131215890Y-107268000D02*
X129437890Y-107268000D01*
X131215890Y-104598460D02*
X131215890Y-107268000D01*
X131215890Y-104598460D02*
X129437890Y-104598460D01*
D15*
X130504690Y-105319820D02*
X130504690Y-112673120D01*
X130499610Y-112673120D02*
X121505470Y-112673120D01*
D16*
X129437890Y-108665000D02*
X129437890Y-111332000D01*
X129437890Y-104598460D02*
X129437890Y-107268000D01*
X128548890Y-110570000D02*
X123468890Y-110570000D01*
X128548890Y-108030000D02*
X128548890Y-110570000D01*
X128548890Y-108030000D02*
X123468890Y-108030000D01*
X128548890Y-93425000D02*
X122833890Y-93425000D01*
X128548890Y-90885000D02*
X128548890Y-93425000D01*
X128548890Y-90885000D02*
X122833890Y-90885000D01*
X123468890Y-108030000D02*
X123468890Y-110570000D01*
X122833890Y-90885000D02*
X122833890Y-93425000D01*
X122579890Y-111332000D02*
X120801890Y-111332000D01*
X122579890Y-108665000D02*
X122579890Y-111332000D01*
X122579890Y-108665000D02*
X120801890Y-108665000D01*
X122579890Y-107268000D02*
X120801890Y-107268000D01*
X122579890Y-104598460D02*
X122579890Y-107268000D01*
X122579890Y-104598460D02*
X120801890Y-104598460D01*
D15*
X121505470Y-112673120D02*
X121505470Y-105319820D01*
X121505470Y-105319820D02*
X130504690Y-105319820D01*
D16*
X120801890Y-108665000D02*
X120801890Y-111332000D01*
X120801890Y-104598460D02*
X120801890Y-107268000D01*
D15*
X117101110Y-111248180D02*
X134228330Y-111248180D01*
X117101110Y-90250000D02*
X117101110Y-111248180D01*
D17*
X135914890Y-108411000D02*
G75*
G03*
X135914890Y-108411000I-127000J0D01*
G01*
D14*
%TO.C,SW1*%
X158250000Y-70500000D02*
X159750000Y-70500000D01*
X162250000Y-69250000D02*
X162250000Y-64750000D01*
X155750000Y-64750000D02*
X155750000Y-69250000D01*
X159750000Y-63500000D02*
X158250000Y-63500000D01*
D11*
%TO.C,mouse-bite-2mm-slot*%
X155000000Y-37000000D02*
G75*
G03*
X153000000Y-37000000I-1000000J0D01*
G01*
X153000000Y-33000000D02*
G75*
G03*
X155000000Y-33000000I1000000J0D01*
G01*
D14*
%TO.C,SW2*%
X170250000Y-70500000D02*
X171750000Y-70500000D01*
X174250000Y-69250000D02*
X174250000Y-64750000D01*
X167750000Y-64750000D02*
X167750000Y-69250000D01*
X171750000Y-63500000D02*
X170250000Y-63500000D01*
%TO.C,U2*%
X131255000Y-85425000D02*
X131255000Y-81975000D01*
X131255000Y-85425000D02*
X131255000Y-87375000D01*
X121135000Y-85425000D02*
X121135000Y-83475000D01*
X121135000Y-85425000D02*
X121135000Y-87375000D01*
%TO.C,J3*%
X118580000Y-86830000D02*
X117250000Y-86830000D01*
X118580000Y-85500000D02*
X118580000Y-86830000D01*
X118580000Y-84230000D02*
X118580000Y-81630000D01*
X118580000Y-84230000D02*
X115920000Y-84230000D01*
X118580000Y-81630000D02*
X115920000Y-81630000D01*
X115920000Y-84230000D02*
X115920000Y-81630000D01*
D11*
%TO.C,mouse-bite-2mm-slot*%
X136500000Y-73000000D02*
G75*
G03*
X136500000Y-75000000I0J-1000000D01*
G01*
X132500000Y-75000000D02*
G75*
G03*
X132500000Y-73000000I0J1000000D01*
G01*
X189000000Y-37000000D02*
G75*
G03*
X187000000Y-37000000I-1000000J0D01*
G01*
X187000000Y-33000000D02*
G75*
G03*
X189000000Y-33000000I1000000J0D01*
G01*
X155000000Y-69000000D02*
G75*
G03*
X153000000Y-69000000I-1000000J0D01*
G01*
X153000000Y-65000000D02*
G75*
G03*
X155000000Y-65000000I1000000J0D01*
G01*
D14*
%TO.C,R1*%
X136080000Y-86830000D02*
X134750000Y-86830000D01*
X136080000Y-85500000D02*
X136080000Y-86830000D01*
X136080000Y-84230000D02*
X136080000Y-81630000D01*
X136080000Y-84230000D02*
X133420000Y-84230000D01*
X136080000Y-81630000D02*
X133420000Y-81630000D01*
X133420000Y-84230000D02*
X133420000Y-81630000D01*
%TO.C,SW3*%
X137250000Y-70500000D02*
X138750000Y-70500000D01*
X141250000Y-69250000D02*
X141250000Y-64750000D01*
X134750000Y-64750000D02*
X134750000Y-69250000D01*
X138750000Y-63500000D02*
X137250000Y-63500000D01*
%TD*%
M02*
