%TF.GenerationSoftware,KiCad,Pcbnew,7.0.8*%
%TF.CreationDate,2024-02-08T03:58:00-08:00*%
%TF.ProjectId,panel,70616e65-6c2e-46b6-9963-61645f706362,rev?*%
%TF.SameCoordinates,Original*%
%TF.FileFunction,Soldermask,Top*%
%TF.FilePolarity,Negative*%
%FSLAX46Y46*%
G04 Gerber Fmt 4.6, Leading zero omitted, Abs format (unit mm)*
G04 Created by KiCad (PCBNEW 7.0.8) date 2024-02-08 03:58:00*
%MOMM*%
%LPD*%
G01*
G04 APERTURE LIST*
G04 Aperture macros list*
%AMRoundRect*
0 Rectangle with rounded corners*
0 $1 Rounding radius*
0 $2 $3 $4 $5 $6 $7 $8 $9 X,Y pos of 4 corners*
0 Add a 4 corners polygon primitive as box body*
4,1,4,$2,$3,$4,$5,$6,$7,$8,$9,$2,$3,0*
0 Add four circle primitives for the rounded corners*
1,1,$1+$1,$2,$3*
1,1,$1+$1,$4,$5*
1,1,$1+$1,$6,$7*
1,1,$1+$1,$8,$9*
0 Add four rect primitives between the rounded corners*
20,1,$1+$1,$2,$3,$4,$5,0*
20,1,$1+$1,$4,$5,$6,$7,0*
20,1,$1+$1,$6,$7,$8,$9,0*
20,1,$1+$1,$8,$9,$2,$3,0*%
G04 Aperture macros list end*
%ADD10C,1.600000*%
%ADD11O,1.600000X1.600000*%
%ADD12R,1.600000X1.600000*%
%ADD13R,1.700000X1.700000*%
%ADD14O,1.700000X1.700000*%
%ADD15C,0.500000*%
%ADD16C,3.200000*%
%ADD17RoundRect,0.150000X-0.150000X0.725000X-0.150000X-0.725000X0.150000X-0.725000X0.150000X0.725000X0*%
%ADD18C,2.000000*%
%ADD19O,2.748280X1.998980*%
G04 APERTURE END LIST*
D10*
%TO.C,R2*%
X179000000Y-48310000D03*
D11*
X179000000Y-40690000D03*
%TD*%
D10*
%TO.C,R2*%
X134000000Y-48310000D03*
D11*
X134000000Y-40690000D03*
%TD*%
D12*
%TO.C,C2*%
X172000000Y-56955112D03*
D10*
X172000000Y-54955112D03*
%TD*%
D13*
%TO.C,J2*%
X179890000Y-61000000D03*
D14*
X177350000Y-61000000D03*
X174810000Y-61000000D03*
X172270000Y-61000000D03*
X169730000Y-61000000D03*
X167190000Y-61000000D03*
X164650000Y-61000000D03*
X162110000Y-61000000D03*
%TD*%
D10*
%TO.C,C1*%
X132000000Y-57000000D03*
X132000000Y-54500000D03*
%TD*%
%TO.C,C1*%
X177000000Y-57000000D03*
X177000000Y-54500000D03*
%TD*%
D13*
%TO.C,J2*%
X134890000Y-61000000D03*
D14*
X132350000Y-61000000D03*
X129810000Y-61000000D03*
X127270000Y-61000000D03*
X124730000Y-61000000D03*
X122190000Y-61000000D03*
X119650000Y-61000000D03*
X117110000Y-61000000D03*
%TD*%
D12*
%TO.C,C2*%
X127000000Y-56955112D03*
D10*
X127000000Y-54955112D03*
%TD*%
D15*
%TO.C,KiKit_MB_3_3*%
X136500000Y-29000000D03*
%TD*%
%TO.C,KiKit_MB_2_3*%
X115500000Y-110000000D03*
%TD*%
D16*
%TO.C,REF\u002A\u002A*%
X153000000Y-27000000D03*
%TD*%
D15*
%TO.C,mouse-bite-2mm-slot*%
X108250000Y-35750000D03*
X109750000Y-35750000D03*
X108250000Y-35000000D03*
X109750000Y-35000000D03*
X108250000Y-34250000D03*
X109750000Y-34250000D03*
%TD*%
D13*
%TO.C,J1*%
X162090000Y-79250000D03*
D14*
X164630000Y-79250000D03*
X167170000Y-79250000D03*
X169710000Y-79250000D03*
X172250000Y-79250000D03*
X174790000Y-79250000D03*
X177330000Y-79250000D03*
X179870000Y-79250000D03*
%TD*%
D17*
%TO.C,U2*%
X175640000Y-82850000D03*
X174370000Y-82850000D03*
X173100000Y-82850000D03*
X171830000Y-82850000D03*
X170560000Y-82850000D03*
X169290000Y-82850000D03*
X168020000Y-82850000D03*
X166750000Y-82850000D03*
X166750000Y-88000000D03*
X168020000Y-88000000D03*
X169290000Y-88000000D03*
X170560000Y-88000000D03*
X171830000Y-88000000D03*
X173100000Y-88000000D03*
X174370000Y-88000000D03*
X175640000Y-88000000D03*
%TD*%
D15*
%TO.C,KiKit_MB_5_2*%
X181500000Y-110000000D03*
%TD*%
%TO.C,KiKit_MB_4_4*%
X117500000Y-29000000D03*
%TD*%
D12*
%TO.C,D1*%
X159000000Y-36000000D03*
D11*
X159000000Y-38540000D03*
X159000000Y-41080000D03*
X159000000Y-43620000D03*
X159000000Y-46160000D03*
X159000000Y-48700000D03*
X159000000Y-51240000D03*
X159000000Y-53780000D03*
X183000000Y-53780000D03*
X183000000Y-51240000D03*
X183000000Y-48700000D03*
X183000000Y-46160000D03*
X183000000Y-43620000D03*
X183000000Y-41080000D03*
X183000000Y-38540000D03*
X183000000Y-36000000D03*
%TD*%
D16*
%TO.C,REF\u002A\u002A*%
X153000000Y-75000000D03*
%TD*%
D15*
%TO.C,KiKit_MB_7_1*%
X179500000Y-29000000D03*
%TD*%
D18*
%TO.C,SW3*%
X180750000Y-70250000D03*
X180750000Y-63750000D03*
X185250000Y-70250000D03*
X185250000Y-63750000D03*
%TD*%
D15*
%TO.C,KiKit_MB_6_4*%
X159500000Y-110000000D03*
%TD*%
%TO.C,KiKit_MB_6_3*%
X160500000Y-110000000D03*
%TD*%
%TO.C,KiKit_MB_7_3*%
X181500000Y-29000000D03*
%TD*%
%TO.C,KiKit_MB_5_1*%
X182500000Y-110000000D03*
%TD*%
%TO.C,mouse-bite-2mm-slot*%
X180250000Y-74750000D03*
X180250000Y-73250000D03*
X179500000Y-74750000D03*
X179500000Y-73250000D03*
X178750000Y-74750000D03*
X178750000Y-73250000D03*
%TD*%
%TO.C,mouse-bite-2mm-slot*%
X118250000Y-74750000D03*
X118250000Y-73250000D03*
X117500000Y-74750000D03*
X117500000Y-73250000D03*
X116750000Y-74750000D03*
X116750000Y-73250000D03*
%TD*%
%TO.C,KiKit_MB_3_2*%
X135500000Y-29000000D03*
%TD*%
%TO.C,mouse-bite-2mm-slot*%
X142250000Y-67750000D03*
X143750000Y-67750000D03*
X142250000Y-67000000D03*
X143750000Y-67000000D03*
X142250000Y-66250000D03*
X143750000Y-66250000D03*
%TD*%
%TO.C,mouse-bite-2mm-slot*%
X163250000Y-74750000D03*
X163250000Y-73250000D03*
X162500000Y-74750000D03*
X162500000Y-73250000D03*
X161750000Y-74750000D03*
X161750000Y-73250000D03*
%TD*%
D18*
%TO.C,SW1*%
X111750000Y-70250000D03*
X111750000Y-63750000D03*
X116250000Y-70250000D03*
X116250000Y-63750000D03*
%TD*%
D15*
%TO.C,KiKit_MB_2_2*%
X116500000Y-110000000D03*
%TD*%
%TO.C,KiKit_MB_1_1*%
X137500000Y-110000000D03*
%TD*%
%TO.C,KiKit_MB_1_3*%
X135500000Y-110000000D03*
%TD*%
D13*
%TO.C,J1*%
X117090000Y-79250000D03*
D14*
X119630000Y-79250000D03*
X122170000Y-79250000D03*
X124710000Y-79250000D03*
X127250000Y-79250000D03*
X129790000Y-79250000D03*
X132330000Y-79250000D03*
X134870000Y-79250000D03*
%TD*%
D15*
%TO.C,KiKit_MB_1_4*%
X134500000Y-110000000D03*
%TD*%
D12*
%TO.C,D1*%
X114000000Y-36000000D03*
D11*
X114000000Y-38540000D03*
X114000000Y-41080000D03*
X114000000Y-43620000D03*
X114000000Y-46160000D03*
X114000000Y-48700000D03*
X114000000Y-51240000D03*
X114000000Y-53780000D03*
X138000000Y-53780000D03*
X138000000Y-51240000D03*
X138000000Y-48700000D03*
X138000000Y-46160000D03*
X138000000Y-43620000D03*
X138000000Y-41080000D03*
X138000000Y-38540000D03*
X138000000Y-36000000D03*
%TD*%
D16*
%TO.C,REF\u002A\u002A*%
X144000000Y-27000000D03*
%TD*%
D15*
%TO.C,KiKit_MB_3_1*%
X134500000Y-29000000D03*
%TD*%
%TO.C,KiKit_MB_3_4*%
X137500000Y-29000000D03*
%TD*%
D13*
%TO.C,J3*%
X162250000Y-85500000D03*
D14*
X162250000Y-82960000D03*
%TD*%
D15*
%TO.C,mouse-bite-2mm-slot*%
X187250000Y-67750000D03*
X188750000Y-67750000D03*
X187250000Y-67000000D03*
X188750000Y-67000000D03*
X187250000Y-66250000D03*
X188750000Y-66250000D03*
%TD*%
D18*
%TO.C,SW2*%
X123750000Y-70250000D03*
X123750000Y-63750000D03*
X128250000Y-70250000D03*
X128250000Y-63750000D03*
%TD*%
D15*
%TO.C,KiKit_MB_8_2*%
X160500000Y-29000000D03*
%TD*%
%TO.C,KiKit_MB_8_3*%
X161500000Y-29000000D03*
%TD*%
%TO.C,mouse-bite-2mm-slot*%
X108250000Y-67750000D03*
X109750000Y-67750000D03*
X108250000Y-67000000D03*
X109750000Y-67000000D03*
X108250000Y-66250000D03*
X109750000Y-66250000D03*
%TD*%
%TO.C,KiKit_MB_8_1*%
X159500000Y-29000000D03*
%TD*%
%TO.C,KiKit_MB_4_1*%
X114500000Y-29000000D03*
%TD*%
%TO.C,KiKit_MB_1_2*%
X136500000Y-110000000D03*
%TD*%
%TO.C,KiKit_MB_4_2*%
X115500000Y-29000000D03*
%TD*%
D19*
%TO.C,U3*%
X179065770Y-108367820D03*
X179065770Y-105827820D03*
X179065770Y-103287820D03*
X179065770Y-100747820D03*
X179065770Y-98207820D03*
X179065770Y-95667820D03*
X179065770Y-93127820D03*
X162901210Y-93127820D03*
X162901210Y-95667820D03*
X162901210Y-98207820D03*
X162901210Y-100747820D03*
X162901210Y-103287820D03*
X162901210Y-105827820D03*
X162901210Y-108367820D03*
%TD*%
D13*
%TO.C,R1*%
X179750000Y-85500000D03*
D14*
X179750000Y-82960000D03*
%TD*%
D15*
%TO.C,KiKit_MB_6_1*%
X162500000Y-110000000D03*
%TD*%
%TO.C,KiKit_MB_2_4*%
X114500000Y-110000000D03*
%TD*%
%TO.C,KiKit_MB_4_3*%
X116500000Y-29000000D03*
%TD*%
%TO.C,mouse-bite-2mm-slot*%
X142250000Y-35750000D03*
X143750000Y-35750000D03*
X142250000Y-35000000D03*
X143750000Y-35000000D03*
X142250000Y-34250000D03*
X143750000Y-34250000D03*
%TD*%
D19*
%TO.C,U3*%
X134065770Y-108367820D03*
X134065770Y-105827820D03*
X134065770Y-103287820D03*
X134065770Y-100747820D03*
X134065770Y-98207820D03*
X134065770Y-95667820D03*
X134065770Y-93127820D03*
X117901210Y-93127820D03*
X117901210Y-95667820D03*
X117901210Y-98207820D03*
X117901210Y-100747820D03*
X117901210Y-103287820D03*
X117901210Y-105827820D03*
X117901210Y-108367820D03*
%TD*%
D18*
%TO.C,SW1*%
X156750000Y-70250000D03*
X156750000Y-63750000D03*
X161250000Y-70250000D03*
X161250000Y-63750000D03*
%TD*%
D15*
%TO.C,mouse-bite-2mm-slot*%
X153250000Y-35750000D03*
X154750000Y-35750000D03*
X153250000Y-35000000D03*
X154750000Y-35000000D03*
X153250000Y-34250000D03*
X154750000Y-34250000D03*
%TD*%
D18*
%TO.C,SW2*%
X168750000Y-70250000D03*
X168750000Y-63750000D03*
X173250000Y-70250000D03*
X173250000Y-63750000D03*
%TD*%
D17*
%TO.C,U2*%
X130640000Y-82850000D03*
X129370000Y-82850000D03*
X128100000Y-82850000D03*
X126830000Y-82850000D03*
X125560000Y-82850000D03*
X124290000Y-82850000D03*
X123020000Y-82850000D03*
X121750000Y-82850000D03*
X121750000Y-88000000D03*
X123020000Y-88000000D03*
X124290000Y-88000000D03*
X125560000Y-88000000D03*
X126830000Y-88000000D03*
X128100000Y-88000000D03*
X129370000Y-88000000D03*
X130640000Y-88000000D03*
%TD*%
D16*
%TO.C,REF\u002A\u002A*%
X108000000Y-75000000D03*
%TD*%
%TO.C,REF\u002A\u002A*%
X189000000Y-75000000D03*
%TD*%
D13*
%TO.C,J3*%
X117250000Y-85500000D03*
D14*
X117250000Y-82960000D03*
%TD*%
D15*
%TO.C,mouse-bite-2mm-slot*%
X135250000Y-74750000D03*
X135250000Y-73250000D03*
X134500000Y-74750000D03*
X134500000Y-73250000D03*
X133750000Y-74750000D03*
X133750000Y-73250000D03*
%TD*%
%TO.C,mouse-bite-2mm-slot*%
X187250000Y-35750000D03*
X188750000Y-35750000D03*
X187250000Y-35000000D03*
X188750000Y-35000000D03*
X187250000Y-34250000D03*
X188750000Y-34250000D03*
%TD*%
%TO.C,KiKit_MB_7_4*%
X182500000Y-29000000D03*
%TD*%
D16*
%TO.C,REF\u002A\u002A*%
X144000000Y-75000000D03*
%TD*%
D15*
%TO.C,mouse-bite-2mm-slot*%
X153250000Y-67750000D03*
X154750000Y-67750000D03*
X153250000Y-67000000D03*
X154750000Y-67000000D03*
X153250000Y-66250000D03*
X154750000Y-66250000D03*
%TD*%
%TO.C,KiKit_MB_8_4*%
X162500000Y-29000000D03*
%TD*%
D13*
%TO.C,R1*%
X134750000Y-85500000D03*
D14*
X134750000Y-82960000D03*
%TD*%
D15*
%TO.C,KiKit_MB_5_4*%
X179500000Y-110000000D03*
%TD*%
D16*
%TO.C,REF\u002A\u002A*%
X108000000Y-27000000D03*
%TD*%
D18*
%TO.C,SW3*%
X135750000Y-70250000D03*
X135750000Y-63750000D03*
X140250000Y-70250000D03*
X140250000Y-63750000D03*
%TD*%
D15*
%TO.C,KiKit_MB_6_2*%
X161500000Y-110000000D03*
%TD*%
D16*
%TO.C,REF\u002A\u002A*%
X189000000Y-27000000D03*
%TD*%
D15*
%TO.C,KiKit_MB_2_1*%
X117500000Y-110000000D03*
%TD*%
%TO.C,KiKit_MB_7_2*%
X180500000Y-29000000D03*
%TD*%
%TO.C,KiKit_MB_5_3*%
X180500000Y-110000000D03*
%TD*%
M02*
